<svg xmlns="http://www.w3.org/2000/svg" width="120" height="120" viewBox="0 0 120 120">
  <g id="Group_1164988" data-name="Group 1164988" transform="translate(-64 -6445)">
    <rect id="Rectangle_402033" data-name="Rectangle 402033" width="120" height="120" rx="8" transform="translate(64 6445)" fill="#6003fe"/>
    <g id="Rectangle_412110" data-name="Rectangle 412110" transform="translate(69 6450)" fill="none" stroke="#fff" stroke-width="1">
      <rect width="110" height="110" rx="6" stroke="none"/>
      <rect x="0.5" y="0.5" width="109" height="109" rx="5.5" fill="none"/>
    </g>
    <g id="Group_1155336" data-name="Group 1155336" transform="translate(-325 -2)">
      <circle id="Ellipse_13473" data-name="Ellipse 13473" cx="60" cy="60" r="60" transform="translate(389 6447)" fill="#6003fe"/>
      <g id="Ellipse_13474" data-name="Ellipse 13474" transform="translate(399 6457)" fill="none" stroke="#fff" stroke-width="1">
        <circle cx="50" cy="50" r="50" stroke="none"/>
        <circle cx="50" cy="50" r="49.5" fill="none"/>
      </g>
      <g id="Group_1165203" data-name="Group 1165203" transform="translate(409.846 6455.215)">
        <g id="Group_1165201" data-name="Group 1165201" transform="translate(9.966 24.817)">
          <g id="Group_1165200" data-name="Group 1165200">
            <path id="Path_938357" data-name="Path 938357" d="M371.4,43.2H375.4v2.523a.366.366,0,0,0,.639.245l4.547-5.073a.365.365,0,0,0,0-.489l-4.547-5.073a.366.366,0,0,0-.639.245V38.1H364.783A27.6,27.6,0,0,1,371.4,43.2Z" transform="translate(-322.308 -35.208)" fill="#f76c82" fill-rule="evenodd"/>
            <path id="Path_938358" data-name="Path 938358" d="M32.927,395.7H22.306v2.523a.366.366,0,0,1-.639.245l-4.547-5.073a.365.365,0,0,1,0-.489l4.547-5.073a.366.366,0,0,1,.639.245V390.6h4.009A27.61,27.61,0,0,0,32.927,395.7Z" transform="translate(-17.025 -344.651)" fill="#c6ea94" fill-rule="evenodd"/>
            <path id="Path_938359" data-name="Path 938359" d="M46.214,43.2H22.306v2.523a.366.366,0,0,1-.639.245l-4.547-5.073a.365.365,0,0,1,0-.489l4.547-5.073a.366.366,0,0,1,.639.245V38.1H46.214A24.076,24.076,0,0,1,64.59,77.732H57.082A18.977,18.977,0,0,0,46.214,43.2Z" transform="translate(-17.025 -35.208)" fill="#fdcd56" fill-rule="evenodd"/>
            <path id="Path_938360" data-name="Path 938360" d="M64.571,128.633a24.076,24.076,0,0,0,18.376,39.634h23.908v2.523a.366.366,0,0,0,.639.245l4.547-5.073a.365.365,0,0,0,0-.489l-4.547-5.073a.366.366,0,0,0-.639.245v2.523H82.947a18.977,18.977,0,0,1-10.868-34.533Z" transform="translate(-53.758 -117.222)" fill="#66d4f1" fill-rule="evenodd"/>
          </g>
          <path id="Path_938361" data-name="Path 938361" d="M170.921,160.464a3.013,3.013,0,0,0-2.129,5.141.894.894,0,0,1,0,1.264l-1.924,1.924a.894.894,0,0,1-1.264,0,3.013,3.013,0,0,0-5.141,2.129.894.894,0,0,1-.894.894h-2.721a.894.894,0,0,1-.894-.894,3.011,3.011,0,0,0-5.141-2.129.894.894,0,0,1-1.264,0l-1.924-1.924a.894.894,0,0,1,0-1.264,3.013,3.013,0,0,0-2.129-5.141.894.894,0,0,1-.894-.894v-2.721a.894.894,0,0,1,.894-.894,3.013,3.013,0,0,0,2.129-5.141.894.894,0,0,1,0-1.264l1.924-1.924a.894.894,0,0,1,1.264,0,3.013,3.013,0,0,0,5.141-2.129.894.894,0,0,1,.894-.894h2.721a.894.894,0,0,1,.894.894,3.013,3.013,0,0,0,5.141,2.129.894.894,0,0,1,1.264,0l1.924,1.924a.894.894,0,0,1,0,1.264,3.013,3.013,0,0,0,2.129,5.141.894.894,0,0,1,.894.894v2.721A.894.894,0,0,1,170.921,160.464Zm-12.712-8.9a6.649,6.649,0,1,0,6.649,6.649A6.649,6.649,0,0,0,158.209,151.561Z" transform="translate(-129.021 -131.242)" fill="#636c77" fill-rule="evenodd"/>
        </g>
        <g id="Group_1165202" data-name="Group 1165202" transform="translate(8.984 23.371)">
          <path id="Path_938362" data-name="Path 938362" d="M152.084,146.268a5.794,5.794,0,1,0,5.793,5.794A5.8,5.8,0,0,0,152.084,146.268Zm0,13.3a7.5,7.5,0,1,1,7.5-7.5A7.513,7.513,0,0,1,152.084,159.567ZM146.8,160.9a3.805,3.805,0,0,0-2.712,1.142.034.034,0,0,1-.029.011c-.017,0-.023-.007-.023-.011l-1.925-1.925a.035.035,0,0,1,0-.055,3.869,3.869,0,0,0-2.735-6.6.04.04,0,0,1-.04-.039V150.7a.04.04,0,0,1,.04-.039,3.869,3.869,0,0,0,2.735-6.6.032.032,0,0,1-.011-.028.029.029,0,0,1,.011-.027l1.925-1.925s.006-.011.023-.011a.034.034,0,0,1,.029.011,3.869,3.869,0,0,0,6.6-2.734.039.039,0,0,1,.034-.039h2.724a.044.044,0,0,1,.04.039,3.865,3.865,0,0,0,6.6,2.734.043.043,0,0,1,.057,0l1.925,1.925s.011.011.011.027-.011.024-.011.028a3.865,3.865,0,0,0,2.73,6.6.04.04,0,0,1,.04.039v2.721a.04.04,0,0,1-.04.039,3.865,3.865,0,0,0-2.73,6.6.048.048,0,0,1,0,.055l-1.925,1.925a.043.043,0,0,1-.057,0,3.865,3.865,0,0,0-6.6,2.734.044.044,0,0,1-.04.039h-2.724a.039.039,0,0,1-.034-.039A3.8,3.8,0,0,0,148.3,161.2,3.9,3.9,0,0,0,146.8,160.9Zm6.649,5.625h-2.724a1.753,1.753,0,0,1-1.747-1.749,2.155,2.155,0,0,0-3.678-1.524,1.755,1.755,0,0,1-2.477,0l-1.925-1.925a1.758,1.758,0,0,1,0-2.473,2.157,2.157,0,0,0-1.523-3.68,1.749,1.749,0,0,1-1.747-1.749V150.7a1.749,1.749,0,0,1,1.747-1.749,2.157,2.157,0,0,0,1.523-3.68,1.751,1.751,0,0,1,0-2.473l1.925-1.925a1.754,1.754,0,0,1,2.477,0,2.156,2.156,0,0,0,3.678-1.524,1.753,1.753,0,0,1,1.747-1.749h2.724a1.749,1.749,0,0,1,1.747,1.749,2.159,2.159,0,0,0,3.684,1.524,1.749,1.749,0,0,1,2.471,0l1.925,1.925a1.751,1.751,0,0,1,0,2.473,2.157,2.157,0,0,0,1.523,3.68,1.754,1.754,0,0,1,1.753,1.749v2.721a1.754,1.754,0,0,1-1.753,1.749,2.157,2.157,0,0,0-1.523,3.68,1.747,1.747,0,0,1,0,2.473l-1.925,1.925a1.749,1.749,0,0,1-2.471,0,2.159,2.159,0,0,0-3.684,1.524A1.749,1.749,0,0,1,153.446,166.524Z" transform="translate(-121.914 -123.649)" fill-rule="evenodd"/>
          <path id="Path_938363" data-name="Path 938363" d="M59.417,31.952h3.649a.852.852,0,0,1,.85.855v1.246l3.4-3.8-3.4-3.8v1.246a.852.852,0,0,1-.85.855H55.423A28.651,28.651,0,0,1,59.417,31.952Zm3.649,5.191a.9.9,0,0,1-.31-.056.857.857,0,0,1-.546-.8V33.662H59.055a.853.853,0,0,1-.621-.265,26.667,26.667,0,0,0-6.407-4.943.855.855,0,0,1,.414-1.6h9.769V24.226a.852.852,0,0,1,1.488-.571l5.408,6.031a.85.85,0,0,1,0,1.141L63.7,36.859A.843.843,0,0,1,63.066,37.143Zm-10.6,29.343A19.832,19.832,0,0,0,39.154,31.952H15.249a.854.854,0,0,0-.856.855v1.246l-3.4-3.8,3.4-3.8v1.246a.853.853,0,0,0,.856.855H39.154A23.223,23.223,0,0,1,57.13,66.486Zm5.068,1.71H50.021a.855.855,0,0,1-.488-1.556A18.121,18.121,0,0,0,39.154,33.662H16.1v2.626a.852.852,0,0,1-1.488.57L9.2,30.828a.85.85,0,0,1,0-1.141l5.408-6.031a.852.852,0,0,1,1.488.571v2.626H39.154A24.929,24.929,0,0,1,58.181,67.894.854.854,0,0,1,57.532,68.2ZM10.991,73.312l3.4,3.8V75.862a.853.853,0,0,1,.856-.855h7.637a28.563,28.563,0,0,1-3.994-3.391H15.249a.854.854,0,0,1-.856-.855V69.515ZM15.249,80.2a.871.871,0,0,0,.3-.056.858.858,0,0,0,.546-.8V76.717h9.769a.855.855,0,0,0,.414-1.6,26.6,26.6,0,0,1-6.407-4.942.853.853,0,0,0-.621-.265H16.1V67.28a.852.852,0,0,0-1.488-.57L9.2,72.741a.85.85,0,0,0,0,1.141l5.408,6.031a.854.854,0,0,0,.638.285Zm5.93-43.116A23.223,23.223,0,0,0,39.154,75.007H63.066a.851.851,0,0,1,.85.855v1.246l3.4-3.8-3.4-3.8v1.246a.852.852,0,0,1-.85.855H39.154A19.832,19.832,0,0,1,25.846,37.082H21.179ZM63.066,80.2a.843.843,0,0,0,.632-.285l5.408-6.031a.85.85,0,0,0,0-1.141L63.7,66.71a.852.852,0,0,0-1.488.57v2.626H39.154A18.124,18.124,0,0,1,28.776,36.928a.854.854,0,0,0-.488-1.556H20.777a.854.854,0,0,0-.649.3A24.929,24.929,0,0,0,39.154,76.717H62.21v2.626a.858.858,0,0,0,.546.8.9.9,0,0,0,.31.056Z" transform="translate(-8.984 -23.371)" fill-rule="evenodd"/>
        </g>
      </g>
    </g>
  </g>
</svg>
