<svg xmlns="http://www.w3.org/2000/svg" width="120" height="120" viewBox="0 0 120 120">
  <g id="Group_1165006" data-name="Group 1165006" transform="translate(-64 -6445)">
    <rect id="Rectangle_402033" data-name="Rectangle 402033" width="120" height="120" rx="8" transform="translate(64 6445)" fill="#6003fe"/>
    <g id="Rectangle_412110" data-name="Rectangle 412110" transform="translate(69 6450)" fill="none" stroke="#fff" stroke-width="1">
      <rect width="110" height="110" rx="6" stroke="none"/>
      <rect x="0.5" y="0.5" width="109" height="109" rx="5.5" fill="none"/>
    </g>
    <g id="Group_1155336" data-name="Group 1155336" transform="translate(-325 -2)">
      <circle id="Ellipse_13473" data-name="Ellipse 13473" cx="60" cy="60" r="60" transform="translate(389 6447)" fill="#6003fe"/>
      <g id="Ellipse_13474" data-name="Ellipse 13474" transform="translate(399 6457)" fill="none" stroke="#fff" stroke-width="1">
        <circle cx="50" cy="50" r="50" stroke="none"/>
        <circle cx="50" cy="50" r="49.5" fill="none"/>
      </g>
      <g id="Group_1165209" data-name="Group 1165209" transform="translate(406.853 6464.854)">
        <g id="Group_1165208" data-name="Group 1165208" transform="translate(9.103 9.102)">
          <g id="Group_1165204" data-name="Group 1165204" transform="translate(9.647 14.754)">
            <path id="Path_938364" data-name="Path 938364" d="M226.616,391.327h17.739v10.1H226.616Z" transform="translate(-207.265 -354.404)" fill="#a79ba7" fill-rule="evenodd"/>
            <path id="Path_938365" data-name="Path 938365" d="M345.46,391.327h1.376v10.1H345.46Z" transform="translate(-309.746 -354.404)" fill="#837683" fill-rule="evenodd"/>
            <path id="Path_938366" data-name="Path 938366" d="M151.773,458.966h38.348v-2.957c0-1.626-1.665-2.956-3.7-2.956H155.473c-2.035,0-3.7,1.33-3.7,2.956Z" transform="translate(-142.726 -407.632)" fill="#eceff1" fill-rule="evenodd"/>
            <path id="Path_938367" data-name="Path 938367" d="M151.773,462.647h38.348v-2.956a2.817,2.817,0,0,0-1.492-2.369,2.44,2.44,0,0,1,.317,1.193v2.956H151.773Z" transform="translate(-142.726 -411.313)" fill="#d1d1d6" fill-rule="evenodd"/>
            <path id="Path_938368" data-name="Path 938368" d="M90.407,123.157H138.17a4.352,4.352,0,0,1,4.339,4.339v29.85a4.352,4.352,0,0,1-4.339,4.339H90.407a4.352,4.352,0,0,1-4.339-4.339V127.5A4.352,4.352,0,0,1,90.407,123.157Z" transform="translate(-86.068 -123.157)" fill="#eceff1" fill-rule="evenodd"/>
            <path id="Path_938369" data-name="Path 938369" d="M145.242,128.552a4.344,4.344,0,0,1,1.919,3.6V162a4.352,4.352,0,0,1-4.339,4.339H95.059a4.344,4.344,0,0,1-3.6-1.919,4.307,4.307,0,0,0,2.42.743h47.763a4.352,4.352,0,0,0,4.339-4.339v-29.85A4.306,4.306,0,0,0,145.242,128.552Z" transform="translate(-90.72 -127.809)" fill="#d1d1d6" fill-rule="evenodd"/>
            <path id="Path_938370" data-name="Path 938370" d="M113.023,149.51H161a.6.6,0,0,1,.6.6v27.02H112.421v-27.02A.6.6,0,0,1,113.023,149.51Z" transform="translate(-108.793 -145.882)" fill="#d8ecfe" fill-rule="evenodd"/>
            <path id="Path_938371" data-name="Path 938371" d="M448.194,149.51h2.352a.6.6,0,0,1,.6.6v27.02H448.8v-27.02A.6.6,0,0,0,448.194,149.51Z" transform="translate(-398.335 -145.882)" fill="#c4e2ff" fill-rule="evenodd"/>
          </g>
          <g id="Group_1165205" data-name="Group 1165205" transform="translate(29.056 22.21)">
            <path id="Path_938372" data-name="Path 938372" d="M236.532,177.5l7.435,4.293a1.345,1.345,0,0,1,.688,1.192v8.586a1.345,1.345,0,0,1-.688,1.192l-7.435,4.293a1.344,1.344,0,0,1-1.377,0l-7.435-4.293a1.345,1.345,0,0,1-.688-1.192v-8.586a1.345,1.345,0,0,1,.688-1.192l7.435-4.293A1.344,1.344,0,0,1,236.532,177.5Z" transform="translate(-227.032 -177.312)" fill="#ecba78" fill-rule="evenodd"/>
            <path id="Path_938373" data-name="Path 938373" d="M236.283,177.5l-7.435,4.293a1.37,1.37,0,0,0-.508.5l8.632,4.984L245.6,182.3a1.371,1.371,0,0,0-.508-.5L237.66,177.5A1.345,1.345,0,0,0,236.283,177.5Z" transform="translate(-228.159 -177.312)" fill="#c48958" fill-rule="evenodd"/>
            <path id="Path_938374" data-name="Path 938374" d="M299.672,213.594l-8.639,4.988v9.952a1.371,1.371,0,0,0,.688-.19l7.435-4.293a1.345,1.345,0,0,0,.688-1.192v-8.586A1.373,1.373,0,0,0,299.672,213.594Z" transform="translate(-282.221 -208.599)" fill="#e3a76f" fill-rule="evenodd"/>
          </g>
          <g id="Group_1165206" data-name="Group 1165206" transform="translate(42.108 0.729)">
            <path id="Path_938375" data-name="Path 938375" d="M334.971,23.113a9.349,9.349,0,0,1,2.738,1.135l1.779-.79,2.1,2.1-.79,1.778a9.348,9.348,0,0,1,1.135,2.738l1.815.7v2.965l-1.815.7a9.35,9.35,0,0,1-1.135,2.738l.79,1.779-2.1,2.1-1.778-.79a9.347,9.347,0,0,1-2.738,1.135l-.7,1.815h-2.965l-.7-1.815a9.351,9.351,0,0,1-2.738-1.135l-1.779.79-2.1-2.1.79-1.778a9.352,9.352,0,0,1-1.135-2.738l-1.815-.7V30.77l1.815-.7a9.348,9.348,0,0,1,1.135-2.738L324,25.555l2.1-2.1,1.779.79a9.353,9.353,0,0,1,2.738-1.135l.7-1.815h2.965Z" transform="translate(-321.835 -21.298)" fill="#ffe177" fill-rule="evenodd"/>
            <path id="Path_938376" data-name="Path 938376" d="M352.816,40.257l-1.779.79-.274-.274,1.668-.741q.19.117.385.225Zm7.1-17.144a9.349,9.349,0,0,1,2.738,1.135l-.506.225a12.334,12.334,0,0,0-3.123-1.359l-.7-1.815h.891Zm2.738,17.144a9.347,9.347,0,0,1-2.738,1.135l-.7,1.815h-.891l.7-1.815a12.326,12.326,0,0,0,3.123-1.36ZM350.763,23.732l.274-.274,1.779.79q-.195.108-.385.225Zm13.053,0,.617-.274,2.1,2.1-.79,1.778a9.346,9.346,0,0,1,1.135,2.738l1.815.7v2.965l-1.815.7a9.352,9.352,0,0,1-1.135,2.738l.79,1.779-2.1,2.1-.617-.274,1.823-1.823-.79-1.779a9.351,9.351,0,0,0,1.135-2.738l1.815-.7V30.77l-1.815-.7a9.347,9.347,0,0,0-1.135-2.738l.79-1.778Z" transform="translate(-346.78 -21.298)" fill="#ffd064" fill-rule="evenodd"/>
            <circle id="Ellipse_13498" data-name="Ellipse 13498" cx="5.171" cy="5.171" r="5.171" transform="translate(3.636 10.959) rotate(-45)" fill="#eceff1"/>
            <path id="Path_938377" data-name="Path 938377" d="M369.016,63.307a5.171,5.171,0,0,0,0,10.342q.208,0,.411-.016a5.171,5.171,0,0,1,0-10.309Q369.224,63.307,369.016,63.307Z" transform="translate(-358.061 -57.523)" fill="#d1d1d6" fill-rule="evenodd"/>
          </g>
          <g id="Group_1165207" data-name="Group 1165207" transform="translate(0 0)">
            <path id="Path_938378" data-name="Path 938378" d="M19.627,25.83a5.812,5.812,0,0,0,2.188,11.2h23.2A5.813,5.813,0,0,0,46.534,25.6a8.395,8.395,0,0,0-11.171-6.986,9.291,9.291,0,0,0-15.751,6.678c0,.18.006.359.016.536Z" transform="translate(-16.001 -16.002)" fill="#8ac9fe" fill-rule="evenodd"/>
            <path id="Path_938379" data-name="Path 938379" d="M82.969,36.07A5.808,5.808,0,0,0,81.3,25.6a8.395,8.395,0,0,0-11.171-6.986,9.291,9.291,0,0,0-13.811,1,9.29,9.29,0,0,1,12.142.673A8.4,8.4,0,0,1,79.63,27.272a5.837,5.837,0,0,1,4.3,5.611A5.77,5.77,0,0,1,82.969,36.07Z" transform="translate(-50.766 -16.003)" fill="#60b7ff" fill-rule="evenodd"/>
          </g>
        </g>
        <path id="Path_938380" data-name="Path 938380" d="M62.166,16.715a4.07,4.07,0,1,1-4.07,4.07,4.074,4.074,0,0,1,4.07-4.07Zm0,10.343a6.273,6.273,0,1,0-6.273-6.273A6.281,6.281,0,0,0,62.166,27.059ZM23.107,12.612a1.1,1.1,0,0,1-1.1,1.1,4.686,4.686,0,0,0-4.68,4.68,1.1,1.1,0,1,1-2.2,0,6.891,6.891,0,0,1,6.883-6.883,1.1,1.1,0,0,1,1.1,1.1ZM48.072,49.546V41.915l6.61-3.815v7.632ZM39.26,38.1l6.609,3.815v7.632L39.26,45.731Zm7.711-5.724-6.609,3.815,6.609,3.816,6.61-3.816Zm9.364,2.863-8.814-5.089a1.1,1.1,0,0,0-1.1,0l-8.812,5.089a1.1,1.1,0,0,0-.551.953V46.367a1.1,1.1,0,0,0,.551.953l8.812,5.089a1.1,1.1,0,0,0,1.1,0l8.814-5.089a1.1,1.1,0,0,0,.551-.953V36.191A1.1,1.1,0,0,0,56.334,35.238ZM74.09,58.044a3.242,3.242,0,0,1-3.237,3.238H23.089a3.242,3.242,0,0,1-3.237-3.238V31.229h1.425V55.074a1.1,1.1,0,0,0,1.1,1.1H71.563a1.1,1.1,0,0,0,1.1-1.1V28.086a1.7,1.7,0,0,0-.9-1.5l-.362-.817c.121-.224.231-.454.336-.686a3.279,3.279,0,0,1,2.349,3.111v29.85ZM54.739,68.175H39.2V63.485H54.739Zm10.3,4.059v1.854H28.9V72.234c0-1.007,1.191-1.857,2.6-1.857H62.445C63.853,70.378,65.043,71.227,65.043,72.234ZM10.2,24.313a4.717,4.717,0,0,0,4.713,4.713h23.2a4.712,4.712,0,0,0,1.227-9.261,1.1,1.1,0,0,1-.805-.944,7.293,7.293,0,0,0-9.7-6.069,1.1,1.1,0,0,1-1.139-.245,8.189,8.189,0,0,0-13.884,5.887c0,.152.006.311.014.472a1.1,1.1,0,0,1-.682,1.082A4.707,4.707,0,0,0,10.2,24.313ZM52.313,20.06v1.452l1.109.427a1.1,1.1,0,0,1,.677.772,8.22,8.22,0,0,0,1,2.417,1.1,1.1,0,0,1,.069,1.025l-.481,1.087,1.027,1.027,1.088-.483a1.1,1.1,0,0,1,1.024.069,8.258,8.258,0,0,0,2.415,1,1.1,1.1,0,0,1,.773.677l.428,1.109h1.452l.427-1.109a1.1,1.1,0,0,1,.773-.677,8.227,8.227,0,0,0,2.416-1,1.1,1.1,0,0,1,1.025-.069l1.087.483,1.027-1.027-.483-1.087a1.1,1.1,0,0,1,.069-1.026,8.25,8.25,0,0,0,1-2.415,1.105,1.105,0,0,1,.676-.772l1.11-.427V20.06l-1.11-.427a1.1,1.1,0,0,1-.676-.774,8.225,8.225,0,0,0-1-2.415,1.1,1.1,0,0,1-.069-1.026l.483-1.086L68.62,13.305l-1.087.483a1.1,1.1,0,0,1-1.025-.069,8.242,8.242,0,0,0-2.415-1,1.094,1.094,0,0,1-.773-.677l-.427-1.108H61.441l-.428,1.11a1.1,1.1,0,0,1-.773.675,8.245,8.245,0,0,0-2.415,1,1.1,1.1,0,0,1-1.024.069l-1.088-.483-1.027,1.027.481,1.087a1.1,1.1,0,0,1-.069,1.025,8.238,8.238,0,0,0-1,2.415,1.1,1.1,0,0,1-.677.774Zm.223,4.9H45a6.8,6.8,0,0,1-.287,1.425h7.937l.272-.613C52.785,25.505,52.655,25.233,52.535,24.957ZM23.48,31.229V53.973H70.462V29.541l-.819.818a1.1,1.1,0,0,1-1.226.229l-1.267-.563a10.371,10.371,0,0,1-1.976.82l-.5,1.292a1.1,1.1,0,0,1-1.027.706H60.684a1.1,1.1,0,0,1-1.027-.706l-.5-1.293a10.316,10.316,0,0,1-1.976-.819l-1.267.563a1.1,1.1,0,0,1-1.226-.229l-1.775-1.773H43.551a6.9,6.9,0,0,1-5.431,2.643H23.48Zm49.873-7.87.164-.062a1.1,1.1,0,0,0,.706-1.028V19.3a1.1,1.1,0,0,0-.706-1.027l-1.293-.5a10.261,10.261,0,0,0-.819-1.977l.563-1.267a1.1,1.1,0,0,0-.229-1.226l-2.1-2.1a1.1,1.1,0,0,0-1.226-.228l-1.267.563a10.493,10.493,0,0,0-1.976-.819l-.5-1.293A1.1,1.1,0,0,0,63.65,8.73H60.683a1.1,1.1,0,0,0-1.027.705l-.5,1.293a10.485,10.485,0,0,0-1.976.819l-1.266-.563a1.1,1.1,0,0,0-1.226.228l-2.1,2.1a1.1,1.1,0,0,0-.228,1.226l.563,1.267a10.6,10.6,0,0,0-.819,1.975l-1.293.5A1.1,1.1,0,0,0,50.11,19.3v2.966a1.1,1.1,0,0,0,.114.486H44.856a6.952,6.952,0,0,0-4.229-4.884,9.5,9.5,0,0,0-11.892-7.4,10.392,10.392,0,0,0-17.122,7.768,6.913,6.913,0,0,0,3.3,12.987h2.732V58.044a5.447,5.447,0,0,0,5.44,5.441H37v4.689H31.5c-2.648,0-4.8,1.822-4.8,4.059V75.19a1.1,1.1,0,0,0,1.1,1.1H66.144a1.1,1.1,0,0,0,1.1-1.1V72.234c0-2.238-2.154-4.059-4.8-4.059h-5.5V63.485H70.853a5.447,5.447,0,0,0,5.44-5.441V28.195a5.431,5.431,0,0,0-2.94-4.836Z" fill-rule="evenodd"/>
      </g>
    </g>
  </g>
</svg>
