<svg xmlns="http://www.w3.org/2000/svg" width="120" height="90" viewBox="0 0 120 90">
  <g id="Group_1165331" data-name="Group 1165331" transform="translate(-1278.711 -6926)">
    <rect id="Rectangle_447461" data-name="Rectangle 447461" width="120" height="90" rx="10" transform="translate(1278.711 6926)" fill="#00bdff"/>
    <g id="Group_1165330" data-name="Group 1165330" transform="translate(1249.729 6939)">
      <g id="Group_1165327" data-name="Group 1165327" transform="translate(66.222 1.241)">
        <path id="Path_938649" data-name="Path 938649" d="M127.776,412.147H93.986a3.671,3.671,0,0,1-3.671-3.671v-5.392a3.671,3.671,0,0,1,3.671-3.671h33.79a3.671,3.671,0,0,1,3.671,3.671v5.392A3.671,3.671,0,0,1,127.776,412.147Z" transform="translate(-88.411 -351.077)" fill="#fd7da0"/>
        <path id="Path_938650" data-name="Path 938650" d="M101.93,399.414H93.987a3.671,3.671,0,0,0-3.671,3.671v5.392a3.671,3.671,0,0,0,3.671,3.671H111.34A23.08,23.08,0,0,1,101.93,399.414Z" transform="translate(-88.412 -351.078)" fill="#db4b86"/>
        <path id="Path_938651" data-name="Path 938651" d="M127.776,309.561H93.986a3.671,3.671,0,0,1-3.671-3.671V300.5a3.671,3.671,0,0,1,3.671-3.671h33.79a3.671,3.671,0,0,1,3.671,3.671v5.392A3.671,3.671,0,0,1,127.776,309.561Z" transform="translate(-88.411 -261.224)" fill="#bc9af4"/>
        <path id="Path_938652" data-name="Path 938652" d="M101,303.076a23.049,23.049,0,0,1,.858-6.248H93.987a3.671,3.671,0,0,0-3.671,3.671v5.392a3.671,3.671,0,0,0,3.671,3.671h7.943A23.039,23.039,0,0,1,101,303.076Z" transform="translate(-88.412 -261.225)" fill="#6864f7"/>
        <path id="Path_938653" data-name="Path 938653" d="M110.257,20.643q-.435,0-.859.038a14.273,14.273,0,0,0-28.08,3.177,8.135,8.135,0,0,0,1.816,16.069h27.124a9.642,9.642,0,1,0,0-19.284Z" transform="translate(-74.98 -10)" fill="#67ccd1"/>
        <path id="Path_938654" data-name="Path 938654" d="M88.588,26.755A22.959,22.959,0,0,1,90.4,17.778a14.245,14.245,0,0,0-9.088,12.893A8.135,8.135,0,0,0,83.132,46.74h17.031A23.024,23.024,0,0,1,88.588,26.755Z" transform="translate(-74.979 -16.813)" fill="#27a2cc"/>
      </g>
      <g id="Group_1165329" data-name="Group 1165329" transform="translate(64.981)">
        <path id="Path_938655" data-name="Path 938655" d="M105.586,35.6H89.933V32.409H101.5a10.883,10.883,0,0,0,.059-21.766,15.515,15.515,0,0,0-30.189,3.5A9.376,9.376,0,0,0,74.375,32.41H87.45V35.6H71.8a4.918,4.918,0,0,0-4.912,4.912v5.392a4.9,4.9,0,0,0,1.651,3.671,4.9,4.9,0,0,0-1.651,3.671v5.392A4.918,4.918,0,0,0,71.8,63.553h33.79a4.918,4.918,0,0,0,4.912-4.912V53.249a4.9,4.9,0,0,0-1.652-3.671,4.9,4.9,0,0,0,1.652-3.671V40.515A4.918,4.918,0,0,0,105.586,35.6ZM67.463,23.032a6.859,6.859,0,0,1,5.37-6.723,1.241,1.241,0,0,0,.966-1.178,13.032,13.032,0,0,1,25.638-2.9,1.241,1.241,0,0,0,1.311.927c.248-.022.5-.033.751-.033a8.4,8.4,0,1,1,0,16.8H74.375a6.911,6.911,0,0,1-6.911-6.894Zm40.553,30.216V58.64a2.433,2.433,0,0,1-2.43,2.43H71.8a2.432,2.432,0,0,1-2.43-2.43V53.249a2.433,2.433,0,0,1,2.43-2.43h33.79A2.433,2.433,0,0,1,108.016,53.249ZM71.8,48.336a2.432,2.432,0,0,1-2.43-2.43V40.515a2.433,2.433,0,0,1,2.43-2.43h33.79a2.432,2.432,0,0,1,2.43,2.43v5.392a2.433,2.433,0,0,1-2.43,2.43Z" transform="translate(-64.981)" fill="#12263f"/>
        <g id="Group_1165328" data-name="Group 1165328" transform="translate(8.297 41.97)">
          <path id="Path_938656" data-name="Path 938656" d="M143,338.121h-9.937a1.241,1.241,0,1,0,0,2.483H143a1.241,1.241,0,1,0,0-2.483Z" transform="translate(-131.826 -338.121)" fill="#12263f"/>
          <path id="Path_938657" data-name="Path 938657" d="M282.858,338.356a1.241,1.241,0,1,0,.464,1.488A1.254,1.254,0,0,0,282.858,338.356Z" transform="translate(-262.421 -338.146)" fill="#12263f"/>
          <path id="Path_938658" data-name="Path 938658" d="M322.943,338.892a1.241,1.241,0,1,0-.458,1.507,1.252,1.252,0,0,0,.458-1.507Z" transform="translate(-297.131 -338.125)" fill="#12263f"/>
          <path id="Path_938659" data-name="Path 938659" d="M360.292,339.865a1.241,1.241,0,1,0,.457-1.507,1.253,1.253,0,0,0-.457,1.507Z" transform="translate(-331.853 -338.148)" fill="#12263f"/>
          <path id="Path_938660" data-name="Path 938660" d="M143,440.707h-9.937a1.241,1.241,0,0,0,0,2.483H143a1.241,1.241,0,1,0,0-2.483Z" transform="translate(-131.826 -427.973)" fill="#12263f"/>
          <path id="Path_938661" data-name="Path 938661" d="M283.313,441.473a1.241,1.241,0,1,0-.457,1.507,1.252,1.252,0,0,0,.457-1.507Z" transform="translate(-262.42 -427.973)" fill="#12263f"/>
          <path id="Path_938662" data-name="Path 938662" d="M322.944,441.471a1.241,1.241,0,1,0-.458,1.507A1.254,1.254,0,0,0,322.944,441.471Z" transform="translate(-297.131 -427.971)" fill="#12263f"/>
          <path id="Path_938663" data-name="Path 938663" d="M362.573,441.473a1.241,1.241,0,1,0-.458,1.507A1.254,1.254,0,0,0,362.573,441.473Z" transform="translate(-331.841 -427.973)" fill="#12263f"/>
        </g>
      </g>
    </g>
  </g>
</svg>
