<svg id="Group_1165420" data-name="Group 1165420" xmlns="http://www.w3.org/2000/svg" width="75.006" height="75.006" viewBox="0 0 75.006 75.006">
  <path id="Path_939079" data-name="Path 939079" d="M76.646,7.5H11.162A3.662,3.662,0,0,0,7.5,11.162V31.64L56.169,80.308H76.646a3.662,3.662,0,0,0,3.662-3.662V11.162A3.662,3.662,0,0,0,76.646,7.5Z" transform="translate(-6.401 -6.401)" fill="#80d261"/>
  <path id="Path_939080" data-name="Path 939080" d="M343.125,7.5h-.806a3.681,3.681,0,0,1,.073.732V66.342a11.037,11.037,0,0,1-11.037,11.037H319.718l2.93,2.93h20.477a3.662,3.662,0,0,0,3.662-3.662V11.162A3.662,3.662,0,0,0,343.125,7.5Z" transform="translate(-272.881 -6.401)" fill="#68ca44"/>
  <path id="Path_939081" data-name="Path 939081" d="M56.169,147.281H11.162A3.662,3.662,0,0,0,7.5,150.943v20.477l28.191,28.191H56.169a3.662,3.662,0,0,0,3.662-3.662V150.943A3.662,3.662,0,0,0,56.169,147.281Z" transform="translate(-6.401 -125.705)" fill="#ffc344"/>
  <path id="Path_939082" data-name="Path 939082" d="M179.938,484.5l2.93,2.93h20.477a3.664,3.664,0,0,0,3.589-2.93Z" transform="translate(-153.578 -413.523)" fill="#feb237"/>
  <path id="Path_939083" data-name="Path 939083" d="M35.691,287.062H11.162A3.662,3.662,0,0,0,7.5,290.724v24.529a3.662,3.662,0,0,0,3.662,3.662H35.691a3.662,3.662,0,0,0,3.662-3.662V290.724A3.662,3.662,0,0,0,35.691,287.062Z" transform="translate(-6.401 -245.009)" fill="#fd6930"/>
  <path id="Path_939084" data-name="Path 939084" d="M8,484.5a3.664,3.664,0,0,0,3.589,2.93H36.118a3.664,3.664,0,0,0,3.589-2.93Z" transform="translate(-6.828 -413.523)" fill="#fd5426"/>
  <path id="Path_939085" data-name="Path 939085" d="M112.474,54.094H95.827a.777.777,0,0,0-.549,1.326l5.91,5.91L61.33,101.188l-5.91-5.91a.777.777,0,0,0-1.326.549v16.647a.777.777,0,0,0,.777.777H71.518a.777.777,0,0,0,.549-1.326l-5.91-5.91,39.858-39.858,5.91,5.91a.777.777,0,0,0,1.326-.549V54.871a.777.777,0,0,0-.777-.777Z" transform="translate(-46.169 -46.169)" fill="#0055a3"/>
  <path id="Path_939086" data-name="Path 939086" d="M73.907,42.3a1.1,1.1,0,0,0,1.1-1.1V4.761A4.767,4.767,0,0,0,70.245,0H4.761A4.767,4.767,0,0,0,0,4.761V70.245a4.767,4.767,0,0,0,4.761,4.761H70.245a4.767,4.767,0,0,0,4.761-4.761V46.329a1.1,1.1,0,1,0-2.2,0V70.245a2.567,2.567,0,0,1-2.564,2.564H53.778a4.734,4.734,0,0,0,.751-2.564V26.858l5.317-5.317,5.133,5.134a1.876,1.876,0,0,0,3.2-1.326V8.7A1.877,1.877,0,0,0,66.3,6.826H49.658a1.877,1.877,0,0,0-1.326,3.2l5.134,5.134-5.317,5.317H18a1.1,1.1,0,0,0,0,2.2H45.951l-18.28,18.28H4.761a4.734,4.734,0,0,0-2.564.751V25.238a2.567,2.567,0,0,1,2.564-2.564h8.116a1.1,1.1,0,0,0,0-2.2H4.761a4.734,4.734,0,0,0-2.564.751V4.761A2.567,2.567,0,0,1,4.761,2.2H70.245a2.567,2.567,0,0,1,2.564,2.564V41.2A1.1,1.1,0,0,0,73.907,42.3ZM52.331,70.245a2.567,2.567,0,0,1-2.564,2.564H33.3a4.734,4.734,0,0,0,.751-2.564V47.335l18.28-18.28V70.245ZM4.761,43.152H25.473L15.161,53.465l-5.133-5.134a1.876,1.876,0,0,0-3.2,1.326V66.3A1.877,1.877,0,0,0,8.7,68.18H25.348a1.876,1.876,0,0,0,1.326-3.2l-5.134-5.134,1.316-1.316A1.1,1.1,0,0,0,21.3,56.976L19.21,59.068a1.1,1.1,0,0,0,0,1.554l5.361,5.361H9.023V50.435l5.36,5.36a1.1,1.1,0,0,0,1.554,0L55.8,15.937a1.1,1.1,0,0,0,0-1.554l-5.361-5.36H65.983V24.571l-5.36-5.361a1.1,1.1,0,0,0-1.554,0L24.958,53.321a1.1,1.1,0,0,0,1.554,1.554l5.342-5.342V70.245a2.567,2.567,0,0,1-2.564,2.564H4.761A2.567,2.567,0,0,1,2.2,70.245V45.716a2.567,2.567,0,0,1,2.564-2.564Z"/>
</svg>
