<svg xmlns="http://www.w3.org/2000/svg" width="85" height="85" viewBox="0 0 85 85">
  <g id="Group_1165582" data-name="Group 1165582" transform="translate(-704.668 -6155)">
    <rect id="Rectangle_402033" data-name="Rectangle 402033" width="85" height="85" rx="8" transform="translate(704.668 6155)" fill="#6003fe"/>
    <g id="Group_1165594" data-name="Group 1165594" transform="translate(715.535 6114.207)">
      <g id="Group_1165592" data-name="Group 1165592" transform="translate(0.927 59.871)">
        <g id="Group_1165591" data-name="Group 1165591">
          <path id="Path_939913" data-name="Path 939913" d="M257.512,76.563a8.569,8.569,0,0,0-15.95-5.652,7.724,7.724,0,0,0-10.376,4.318h.833A2.471,2.471,0,0,1,234.49,77.7v4.779a2.471,2.471,0,0,1-2.471,2.471h-.588v4.5h.588a2.47,2.47,0,0,1,2.462,2.277h22.893a7.584,7.584,0,0,0,.139-15.167Z" transform="translate(-203.546 -66.446)" fill="#c8effe"/>
          <path id="Path_939914" data-name="Path 939914" d="M263.237,158.2a7.587,7.587,0,0,1-7.154,10.108H233.168v1.561h.588a2.47,2.47,0,0,1,2.462,2.277H259.11a7.583,7.583,0,0,0,4.127-13.946Z" transform="translate(-205.283 -146.861)" fill="#99e6fc"/>
          <g id="Group_1165590" data-name="Group 1165590" transform="translate(0 8.735)">
            <g id="Group_1165588" data-name="Group 1165588" transform="translate(0 0.048)">
              <g id="Group_1165583" data-name="Group 1165583" transform="translate(3.059 9.58)">
                <path id="Path_939915" data-name="Path 939915" d="M32.259,215.057H57.085v4.785H32.259Z" transform="translate(-32.259 -215.057)" fill="#4f66d0"/>
                <path id="Path_939916" data-name="Path 939916" d="M32.259,330.168H57.085v4.677H32.259Z" transform="translate(-32.259 -315.944)" fill="#4f66d0"/>
              </g>
              <g id="Group_1165584" data-name="Group 1165584">
                <path id="Path_939917" data-name="Path 939917" d="M9.971,137.524h26A2.471,2.471,0,0,1,38.444,140v4.779a2.471,2.471,0,0,1-2.471,2.471h-26A2.471,2.471,0,0,1,7.5,144.774V140A2.471,2.471,0,0,1,9.971,137.524Z" transform="translate(-7.5 -137.524)" fill="#8795de"/>
              </g>
              <g id="Group_1165585" data-name="Group 1165585" transform="translate(0 14.224)">
                <path id="Path_939918" data-name="Path 939918" d="M9.971,252.636h26a2.471,2.471,0,0,1,2.471,2.471v4.779a2.471,2.471,0,0,1-2.471,2.471h-26A2.471,2.471,0,0,1,7.5,259.886v-4.779A2.471,2.471,0,0,1,9.971,252.636Z" transform="translate(-7.5 -252.636)" fill="#8795de"/>
                <path id="Path_939919" data-name="Path 939919" d="M9.971,252.636h26a2.471,2.471,0,0,1,2.471,2.471v4.779a2.471,2.471,0,0,1-2.471,2.471h-26A2.471,2.471,0,0,1,7.5,259.886v-4.779A2.471,2.471,0,0,1,9.971,252.636Z" transform="translate(-7.5 -252.636)" fill="#8795de"/>
              </g>
              <g id="Group_1165587" data-name="Group 1165587">
                <path id="Path_939920" data-name="Path 939920" d="M9.971,366.88H38.444V376.6H9.971A2.471,2.471,0,0,1,7.5,374.13v-4.779A2.471,2.471,0,0,1,9.971,366.88Z" transform="translate(-7.5 -338.539)" fill="#8795de"/>
                <g id="Group_1165586" data-name="Group 1165586">
                  <path id="Path_939921" data-name="Path 939921" d="M34.552,366.88v4.587a1.236,1.236,0,0,1-1.236,1.236H7.5v1.428A2.471,2.471,0,0,0,9.971,376.6H38.444V366.88Z" transform="translate(-7.5 -338.539)" fill="#6c7fd8"/>
                  <path id="Path_939922" data-name="Path 939922" d="M38.444,259.886v-4.779a2.471,2.471,0,0,0-2.471-2.471H34.552v4.587a1.236,1.236,0,0,1-1.236,1.236H7.5v1.428a2.471,2.471,0,0,0,2.471,2.471h26A2.471,2.471,0,0,0,38.444,259.886Z" transform="translate(-7.5 -238.412)" fill="#6c7fd8"/>
                  <path id="Path_939923" data-name="Path 939923" d="M38.444,144.774V140a2.471,2.471,0,0,0-2.471-2.471H34.552v4.587a1.236,1.236,0,0,1-1.236,1.236H7.5v1.428a2.471,2.471,0,0,0,2.471,2.471h26A2.471,2.471,0,0,0,38.444,144.774Z" transform="translate(-7.5 -137.524)" fill="#6c7fd8"/>
                </g>
              </g>
            </g>
            <path id="Path_939924" data-name="Path 939924" d="M302.748,143.727a.618.618,0,0,0,.439,1.053H306.1v17.154a.618.618,0,0,0,.618.618h5.643a.618.618,0,0,0,.618-.618V144.779h2.91a.618.618,0,0,0,.439-1.053l-6.349-6.408a.618.618,0,0,0-.878,0Z" transform="translate(-266.108 -137.136)" fill="#5de1c4"/>
            <g id="Group_1165589" data-name="Group 1165589" transform="translate(39.988 0.035)">
              <path id="Path_939925" data-name="Path 939925" d="M341.34,143.975l-6.349-6.408a.612.612,0,0,0-.24-.148v20.873a1.236,1.236,0,0,1-1.236,1.236h-2.4v2.654a.618.618,0,0,0,.618.618h5.643a.618.618,0,0,0,.618-.618V145.028h2.91A.618.618,0,0,0,341.34,143.975Z" transform="translate(-331.113 -137.42)" fill="#0ed2b3"/>
            </g>
            <path id="Path_939926" data-name="Path 939926" d="M278.181,367.718l-.549,1.613a1.236,1.236,0,0,1-1.17.838h-12.2a1.236,1.236,0,0,1-1.168-.833l-.558-1.621a1.236,1.236,0,0,0-1.168-.833h-3.437V376.6h23.731a1.236,1.236,0,0,0,1.236-1.236v-7.25a1.236,1.236,0,0,0-1.236-1.236h-2.306A1.236,1.236,0,0,0,278.181,367.718Z" transform="translate(-226.982 -338.491)" fill="#cbc4cc"/>
            <path id="Path_939927" data-name="Path 939927" d="M281.658,366.88h-2.306a1.231,1.231,0,0,0-.4.068v4.518a1.236,1.236,0,0,1-1.236,1.236H257.927v3.9h23.731a1.236,1.236,0,0,0,1.236-1.236v-7.25A1.236,1.236,0,0,0,281.658,366.88Z" transform="translate(-226.983 -338.491)" fill="#b5adb6"/>
          </g>
        </g>
      </g>
      <g id="Group_1165593" data-name="Group 1165593" transform="translate(0 58.944)">
        <path id="Path_939928" data-name="Path 939928" d="M39.987,169.361a.927.927,0,1,0,0,1.853h1.985a.927.927,0,1,0,0-1.853Z" transform="translate(-34.233 -155.717)"/>
        <path id="Path_939929" data-name="Path 939929" d="M210.837,171.214a.927.927,0,0,0,0-1.853h-.205a.927.927,0,1,0,0,1.853Z" transform="translate(-183.792 -155.717)"/>
        <path id="Path_939930" data-name="Path 939930" d="M178.426,171.214a.927.927,0,1,0,0-1.853h-.205a.927.927,0,1,0,0,1.853Z" transform="translate(-155.386 -155.717)"/>
        <path id="Path_939931" data-name="Path 939931" d="M146.014,171.214a.927.927,0,0,0,0-1.853h-.205a.927.927,0,1,0,0,1.853Z" transform="translate(-126.979 -155.717)"/>
        <path id="Path_939932" data-name="Path 939932" d="M41.972,284.473H39.987a.927.927,0,1,0,0,1.853h1.985a.927.927,0,1,0,0-1.853Z" transform="translate(-34.233 -256.605)"/>
        <path id="Path_939933" data-name="Path 939933" d="M210.837,284.473h-.205a.927.927,0,1,0,0,1.853h.205a.927.927,0,0,0,0-1.853Z" transform="translate(-183.792 -256.605)"/>
        <path id="Path_939934" data-name="Path 939934" d="M178.426,284.473h-.205a.927.927,0,1,0,0,1.853h.205a.927.927,0,1,0,0-1.853Z" transform="translate(-155.386 -256.605)"/>
        <path id="Path_939935" data-name="Path 939935" d="M146.014,284.473h-.205a.927.927,0,1,0,0,1.853h.205a.927.927,0,0,0,0-1.853Z" transform="translate(-126.979 -256.605)"/>
        <path id="Path_939936" data-name="Path 939936" d="M39.987,400.57h1.985a.927.927,0,1,0,0-1.853H39.987a.927.927,0,1,0,0,1.853Z" transform="translate(-34.233 -356.732)"/>
        <path id="Path_939937" data-name="Path 939937" d="M210.632,400.57h.205a.927.927,0,0,0,0-1.853h-.205a.927.927,0,1,0,0,1.853Z" transform="translate(-183.792 -356.732)"/>
        <path id="Path_939938" data-name="Path 939938" d="M178.221,400.57h.205a.927.927,0,1,0,0-1.853h-.205a.927.927,0,1,0,0,1.853Z" transform="translate(-155.386 -356.732)"/>
        <path id="Path_939939" data-name="Path 939939" d="M145.809,400.57h.205a.927.927,0,0,0,0-1.853h-.205a.927.927,0,1,0,0,1.853Z" transform="translate(-126.979 -356.732)"/>
        <path id="Path_939940" data-name="Path 939940" d="M41.532,94.948h5.643A1.546,1.546,0,0,0,48.72,93.4V86.082h6.034a8.512,8.512,0,0,0,1.181-16.941c.018-.235.027-.469.027-.7a9.5,9.5,0,0,0-17.408-5.25,8.586,8.586,0,0,0-2.763-.452,8.7,8.7,0,0,0-7.838,4.99H14.7a.927.927,0,1,0,0,1.853H29.4a1.546,1.546,0,0,1,1.545,1.545V75.9A1.546,1.546,0,0,1,29.4,77.448H3.4A1.546,1.546,0,0,1,1.853,75.9V71.125A1.546,1.546,0,0,1,3.4,69.58H10.38a.927.927,0,1,0,0-1.853H3.4a3.4,3.4,0,0,0-3.4,3.4V75.9a3.4,3.4,0,0,0,3.059,3.381v2.683A3.4,3.4,0,0,0,0,85.349v4.779a3.4,3.4,0,0,0,3.059,3.381v2.576A3.4,3.4,0,0,0,0,99.466v4.779a3.4,3.4,0,0,0,3.4,3.4H55.6a2.165,2.165,0,0,0,2.162-2.162V98.23A2.165,2.165,0,0,0,55.6,96.068H53.3a2.162,2.162,0,0,0-2.047,1.466L50.7,99.147a.309.309,0,0,1-.292.209H47.944a.927.927,0,0,0,0,1.854h2.464a2.162,2.162,0,0,0,2.047-1.466L53,98.131a.309.309,0,0,1,.292-.209H55.6a.309.309,0,0,1,.309.309v7.25a.309.309,0,0,1-.309.309H32.8V97.921h2.511a.309.309,0,0,1,.292.208l.558,1.621A2.163,2.163,0,0,0,38.2,101.21h5.416a.927.927,0,0,0,0-1.854H38.2a.309.309,0,0,1-.292-.208l-.558-1.621a2.163,2.163,0,0,0-2.045-1.459h-5.57V93.509A3.4,3.4,0,0,0,32.8,90.128V86.082h7.19V93.4a1.546,1.546,0,0,0,1.545,1.545ZM4.913,79.3H27.885v2.649H4.913ZM30.944,97.921v7.868H3.4a1.546,1.546,0,0,1-1.545-1.545V99.466A1.546,1.546,0,0,1,3.4,97.921ZM4.913,96.068V93.526H27.885v2.542Zm26.032-5.94A1.546,1.546,0,0,1,29.4,91.673H3.4a1.546,1.546,0,0,1-1.545-1.545V85.349A1.546,1.546,0,0,1,3.4,83.8h26a1.546,1.546,0,0,1,1.545,1.545Zm1.663-5.9a3.406,3.406,0,0,0-2.868-2.26V79.285A3.4,3.4,0,0,0,32.8,75.9V71.125a3.4,3.4,0,0,0-2.769-3.339,6.84,6.84,0,0,1,5.762-3.2,6.744,6.744,0,0,1,2.773.592.927.927,0,0,0,1.192-.4,7.641,7.641,0,0,1,14.225,5.041.927.927,0,0,0,.895,1.093,6.657,6.657,0,0,1-.122,13.314H48.72V77.176H50.7a1.544,1.544,0,0,0,1.1-2.632l-6.349-6.407a1.544,1.544,0,0,0-2.195,0l-6.348,6.408a1.544,1.544,0,0,0,1.1,2.631h1.981v1.3a.927.927,0,1,0,1.854,0V76.249a.927.927,0,0,0-.927-.927H38.747l5.607-5.66,5.608,5.66H47.793a.927.927,0,0,0-.927.927V93.094H41.841V82.8a.927.927,0,1,0-1.854,0v1.429Z" transform="translate(0 -58.944)"/>
      </g>
    </g>
  </g>
</svg>
