<svg xmlns="http://www.w3.org/2000/svg" width="60.519" height="58.101" viewBox="0 0 60.519 58.101">
  <path id="Path_939154" data-name="Path 939154" d="M57.678,50.431a.867.867,0,0,0,.046-.11,29.069,29.069,0,0,0-1.7-25.951,3.563,3.563,0,0,0-4.238-5.534c-.615-.629-1.261-1.231-1.931-1.8a3.562,3.562,0,0,0-5.8-3.834,28.708,28.708,0,0,0-25.707.136,3.558,3.558,0,0,0-5.825,3.949A29.006,29.006,0,0,0,9.778,20.03c-.734.84.6,1.991,1.324,1.157a27.247,27.247,0,0,1,2.552-2.554A3.583,3.583,0,0,0,18.9,17.326a38.28,38.28,0,0,1,9.012,3.9,3.62,3.62,0,0,0,.265,2.587,40.457,40.457,0,0,0-6.224,6.756,3.591,3.591,0,0,0-4.25,1.927A54.847,54.847,0,0,0,6.668,33.683a3.585,3.585,0,0,0-1.4-1.427A26.922,26.922,0,0,1,8.493,24.71.88.88,0,0,0,7,23.781,28.675,28.675,0,0,0,3.57,31.8a3.569,3.569,0,0,0-.909,7.02,29.047,29.047,0,0,0,9.745,21.851A3.559,3.559,0,0,0,18.1,64.6a28.7,28.7,0,0,0,26.472,0,3.557,3.557,0,0,0,5.762-3.982,28.8,28.8,0,0,0,7.346-10.185ZM56.57,48.464a55.165,55.165,0,0,0-7.942-6.538,3.6,3.6,0,0,0-.89-3.623,54.95,54.95,0,0,0,5.59-12.694,3.517,3.517,0,0,0,1.254-.227A27.3,27.3,0,0,1,56.57,48.464ZM16.107,58.4A38.572,38.572,0,0,1,19.88,37.39a3.592,3.592,0,0,0,4.542-2.739A52.646,52.646,0,0,1,41.8,39.95a3.613,3.613,0,0,0,.582,3.006,53.082,53.082,0,0,1-23.663,17.09A3.554,3.554,0,0,0,16.107,58.4ZM43.451,40.841a1.807,1.807,0,1,1,1.794,1.807A1.8,1.8,0,0,1,43.451,40.841Zm11.679-18.8a1.807,1.807,0,1,1-1.794-1.807,1.8,1.8,0,0,1,1.794,1.807Zm-4.686-2.067a3.609,3.609,0,0,0,1.181,5.191,53.2,53.2,0,0,1-5.4,12.245,3.609,3.609,0,0,0-1.515-.1,40.786,40.786,0,0,0-10.214-13.5,3.616,3.616,0,0,0,.266-2.587,38.277,38.277,0,0,1,8.665-3.8,3.557,3.557,0,0,0,5.406,1.042q.837.72,1.616,1.508Zm-20.9,2.2a1.807,1.807,0,1,1,1.794,1.807,1.8,1.8,0,0,1-1.794-1.807ZM46.55,13.929a1.794,1.794,0,1,1-1.794,1.807A1.8,1.8,0,0,1,46.55,13.929ZM15.722,17.543a1.794,1.794,0,1,1,1.794-1.807A1.8,1.8,0,0,1,15.722,17.543ZM19.272,15.6a3.569,3.569,0,0,0-.1-.711,26.944,26.944,0,0,1,23.974-.177,3.565,3.565,0,0,0-.149,1A40.041,40.041,0,0,0,33.884,19.7a3.581,3.581,0,0,0-5.1,0,40.043,40.043,0,0,0-9.516-4.1Zm10.072,9.53a3.565,3.565,0,0,0,3.985,0A39.017,39.017,0,0,1,43.09,38.009a3.592,3.592,0,0,0-.438.4A54.4,54.4,0,0,0,24.3,32.864a3.571,3.571,0,0,0-.84-1.378,38.683,38.683,0,0,1,5.879-6.355Zm-8.411,7.046a1.794,1.794,0,1,1-1.794,1.807A1.8,1.8,0,0,1,20.933,32.177ZM1.744,35.368a1.807,1.807,0,1,1,1.794,1.807,1.8,1.8,0,0,1-1.794-1.807Zm2.675,3.455A3.492,3.492,0,0,0,7.09,35.391a99.157,99.157,0,0,1,10.3-1.134,3.559,3.559,0,0,0,.986,2.2,40.327,40.327,0,0,0-4.013,22.2,3.558,3.558,0,0,0-.937.575C7.691,54.09,4.419,45.48,4.419,38.822Zm11.3,24.933a1.807,1.807,0,0,1,0-3.614,1.834,1.834,0,0,1,1.794,1.807A1.8,1.8,0,0,1,15.722,63.756Zm15.613,2.33a26.854,26.854,0,0,1-12.26-2.963,3.657,3.657,0,0,0,.191-1.4A54.834,54.834,0,0,0,43.746,44.073a3.545,3.545,0,0,0,1.686.329,38.826,38.826,0,0,1,.918,4.408.88.88,0,0,0,1.74-.257,40.587,40.587,0,0,0-.979-4.68,3.569,3.569,0,0,0,.584-.454,53.387,53.387,0,0,1,8.148,6.81,27.042,27.042,0,0,1-6.616,9.016,3.545,3.545,0,0,0-.931-.5,40.869,40.869,0,0,0,.223-4.918.879.879,0,0,0-1.758.027,39.108,39.108,0,0,1-.215,4.727,3.6,3.6,0,0,0-2.859,4.5,26.85,26.85,0,0,1-12.351,3.01ZM47.1,63.909A1.794,1.794,0,1,1,48.9,62.1,1.8,1.8,0,0,1,47.1,63.909Z" transform="translate(0.263 -9.98)" fill="#6003fe" stroke="#6003fe" stroke-width="0.5"/>
</svg>
