<svg xmlns="http://www.w3.org/2000/svg" width="100" height="100" viewBox="0 0 100 100">
  <g id="Group_1165091" data-name="Group 1165091" transform="translate(-637 -6992)">
    <g id="Group_1098742" data-name="Group 1098742" transform="translate(637.242 6992)">
      <rect id="Rectangle_400898" data-name="Rectangle 400898" width="100" height="100" rx="50" transform="translate(-0.242)" fill="#fff" opacity="0.859"/>
      <g id="Rectangle_400907" data-name="Rectangle 400907" transform="translate(-0.242)" fill="none" stroke="#00bdff" stroke-linecap="round" stroke-width="3" stroke-dasharray="0 7">
        <rect width="100" height="100" rx="50" stroke="none"/>
        <rect x="1.5" y="1.5" width="97" height="97" rx="48.5" fill="none"/>
      </g>
    </g>
    <g id="Group_1107006" data-name="Group 1107006" transform="translate(645.398 7000.157)">
      <rect id="Rectangle_400898-2" data-name="Rectangle 400898" width="84" height="84" rx="42" transform="translate(-0.399 -0.157)" fill="#6003fe" opacity="0.859"/>
      <rect id="Rectangle_400907-2" data-name="Rectangle 400907" width="84" height="84" rx="42" transform="translate(-0.398 -0.157)" fill="none"/>
    </g>
    <g id="Group_1165473" data-name="Group 1165473" transform="translate(659.946 7014.954)">
      <g id="Group_1165472" data-name="Group 1165472" transform="translate(1.823 1.816)">
        <path id="Path_939432" data-name="Path 939432" d="M20.093,43.644A11.093,11.093,0,0,1,18.324,21.6c0-.048,0-.1,0-.143a12.457,12.457,0,0,1,22.52-7.344,6.7,6.7,0,0,1,10.136,7.657,11.092,11.092,0,0,1-2.612,21.873Z" transform="translate(-9 -9)" fill="#64b5f6" fill-rule="evenodd"/>
        <path id="Path_939433" data-name="Path 939433" d="M169.892,102.444h2.915a.741.741,0,0,0,.74-.74v-7.88h1.524a.3.3,0,0,0,.216-.5L171.7,89.485a.481.481,0,0,0-.7,0l-3.586,3.842a.3.3,0,0,0,.216.5h1.524v7.88A.741.741,0,0,0,169.892,102.444Z" transform="translate(-151.159 -81.126)" fill="#ffda2d" fill-rule="evenodd"/>
        <path id="Path_939434" data-name="Path 939434" d="M271.475,89.331H268.56a.741.741,0,0,0-.74.74v7.88H266.3a.3.3,0,0,0-.216.5l3.586,3.842a.481.481,0,0,0,.7,0l3.586-3.842a.3.3,0,0,0-.216-.5h-1.524v-7.88a.742.742,0,0,0-.74-.74Z" transform="translate(-239.749 -81.126)" fill="#fc685b" fill-rule="evenodd"/>
        <g id="Group_1165471" data-name="Group 1165471" transform="translate(5.542 24.289)">
          <path id="Path_939435" data-name="Path 939435" d="M144.944,332.617v-10.2l-28.512.428v9.015Z" transform="translate(-111.001 -314.688)" fill="#96abbc" fill-rule="evenodd"/>
          <path id="Path_939436" data-name="Path 939436" d="M65.281,246.787h35.331a2.028,2.028,0,0,1,2.022,2.022v6.562a2.028,2.028,0,0,1-2.022,2.022H65.281a2.028,2.028,0,0,1-2.022-2.022v-6.562A2.028,2.028,0,0,1,65.281,246.787Zm0,15.565h35.331a2.028,2.028,0,0,1,2.022,2.022v6.562a2.028,2.028,0,0,1-2.022,2.022H65.281a2.028,2.028,0,0,1-2.022-2.022v-6.562A2.028,2.028,0,0,1,65.281,262.352Z" transform="translate(-63.259 -246.787)" fill="#87a0af" fill-rule="evenodd"/>
          <circle id="Ellipse_13554" data-name="Ellipse 13554" cx="1.198" cy="1.198" r="1.198" transform="translate(12.416 21.528) rotate(-67.486)" fill="#72d561"/>
        </g>
      </g>
      <path id="Path_939437" data-name="Path 939437" d="M29.893,19.459a.818.818,0,0,0,.819-.817v-7.8h2.76v7.8a.817.817,0,0,0,.814.817h.328l-2.524,2.7-2.52-2.7h.323Zm1.248,4.08a1.31,1.31,0,0,0,.954.412,1.289,1.289,0,0,0,.944-.412L36.628,19.7a1.113,1.113,0,0,0-.814-1.873h-.708V10.761A1.558,1.558,0,0,0,33.55,9.2H30.635a1.558,1.558,0,0,0-1.556,1.557v7.063h-.708a1.113,1.113,0,0,0-.814,1.873ZM22.012,11l2.524,2.7h-.323a.818.818,0,0,0-.819.817v7.8h-2.76v-7.8a.818.818,0,0,0-.819-.817h-.323Zm-3.719,4.336H19v7.063a1.559,1.559,0,0,0,1.556,1.557h2.915a1.559,1.559,0,0,0,1.556-1.557V15.332h.708a1.113,1.113,0,0,0,.814-1.873L22.961,9.617a1.293,1.293,0,0,0-1.893,0l-3.589,3.842a1.113,1.113,0,0,0,.814,1.873Zm1.845,31.641a1.2,1.2,0,1,1,1.2,1.2A1.2,1.2,0,0,1,20.138,46.973Zm-4.509,0a1.2,1.2,0,1,1,1.195,1.2A1.2,1.2,0,0,1,15.628,46.973Zm-4.514,0a1.2,1.2,0,1,1,1.2,1.2A1.2,1.2,0,0,1,11.114,46.973ZM22.532,31.408a1.2,1.2,0,1,1-1.195-1.2A1.2,1.2,0,0,1,22.532,31.408Zm-4.509,0a1.2,1.2,0,1,1-1.2-1.2A1.2,1.2,0,0,1,18.023,31.408Zm11.2,15.565a.818.818,0,0,1,.819-.817H41.417a.817.817,0,1,1,0,1.634H30.038A.818.818,0,0,1,29.219,46.973ZM42.236,31.408a.818.818,0,0,1-.819.818H30.038a.817.817,0,1,1,0-1.635H41.417A.818.818,0,0,1,42.236,31.408Zm-28.723,0a1.2,1.2,0,1,1-1.2-1.2A1.2,1.2,0,0,1,13.514,31.408Zm26.979,9.444H13.615V37.529H40.492Zm5.429,2.839a1.206,1.206,0,0,0-1.2-1.205H9.39A1.21,1.21,0,0,0,8.18,43.692v6.562A1.21,1.21,0,0,0,9.39,51.459H44.717a1.206,1.206,0,0,0,1.2-1.205Zm-37.741-9A1.21,1.21,0,0,0,9.39,35.894H44.717a1.206,1.206,0,0,0,1.2-1.205V28.127a1.206,1.206,0,0,0-1.2-1.2H9.39a1.21,1.21,0,0,0-1.209,1.2ZM2.64,25.367a10.323,10.323,0,0,0,3.907,8.047V28.127A2.845,2.845,0,0,1,9.39,25.288H44.717a2.845,2.845,0,0,1,2.842,2.839v5.287a10.262,10.262,0,0,0-3.95-18.033.821.821,0,0,1-.583-1.052,5.894,5.894,0,0,0-5.584-7.747A5.845,5.845,0,0,0,34.128,7.6a.819.819,0,0,1-1.122-.193,11.64,11.64,0,0,0-21.043,6.861v.132a.815.815,0,0,1-.684.817A10.367,10.367,0,0,0,2.64,25.367ZM44.717,37.529a2.843,2.843,0,0,0,2.722-2.035A11.912,11.912,0,0,0,44.8,14.021a7.61,7.61,0,0,0,.164-1.553,7.523,7.523,0,0,0-11.1-6.615A13.274,13.274,0,0,0,10.339,13.74,11.9,11.9,0,0,0,6.663,35.493,2.853,2.853,0,0,0,9.39,37.529h2.592v3.324H9.39a2.845,2.845,0,0,0-2.842,2.839v6.562a2.845,2.845,0,0,0,2.842,2.84H44.717a2.845,2.845,0,0,0,2.842-2.84V43.692a2.845,2.845,0,0,0-2.842-2.839H42.125V37.529Z" fill-rule="evenodd"/>
    </g>
  </g>
</svg>
