<svg xmlns="http://www.w3.org/2000/svg" width="100" height="100" viewBox="0 0 100 100">
  <g id="Group_1165101" data-name="Group 1165101" transform="translate(-637 -6992)">
    <g id="Group_1098742" data-name="Group 1098742" transform="translate(637.242 6992)">
      <rect id="Rectangle_400898" data-name="Rectangle 400898" width="100" height="100" rx="50" transform="translate(-0.242)" fill="#fff" opacity="0.859"/>
      <g id="Rectangle_400907" data-name="Rectangle 400907" transform="translate(-0.242)" fill="none" stroke="#00bdff" stroke-linecap="round" stroke-width="3" stroke-dasharray="0 7">
        <rect width="100" height="100" rx="50" stroke="none"/>
        <rect x="1.5" y="1.5" width="97" height="97" rx="48.5" fill="none"/>
      </g>
    </g>
    <g id="Group_1107006" data-name="Group 1107006" transform="translate(645.398 7000.157)">
      <rect id="Rectangle_400898-2" data-name="Rectangle 400898" width="84" height="84" rx="42" transform="translate(-0.399 -0.157)" fill="#6003fe" opacity="0.859"/>
      <rect id="Rectangle_400907-2" data-name="Rectangle 400907" width="84" height="84" rx="42" transform="translate(-0.398 -0.157)" fill="none"/>
    </g>
    <g id="Group_1165513" data-name="Group 1165513" transform="translate(661.579 7014.62)">
      <g id="Group_1165511" data-name="Group 1165511" transform="translate(0.746 2.936)">
        <path id="Path_939510" data-name="Path 939510" d="M26.565,259.868c-10.523,0-19.053-2.665-19.053-5.953v11.467c2.674,2.486,10.194,4.277,19.053,4.277s16.379-1.791,19.053-4.277V253.915C45.619,257.2,37.088,259.868,26.565,259.868Z" transform="translate(-7.512 -229.678)" fill="#80b4fb"/>
        <path id="Path_939511" data-name="Path 939511" d="M17.76,259.195c-6.09-.993-10.247-2.985-10.247-5.28v11.467c1.721,1.6,5.448,2.912,10.247,3.644v-9.831Z" transform="translate(-7.513 -229.678)" fill="#5490f9"/>
        <path id="Path_939512" data-name="Path 939512" d="M26.565,74.344c-10.523,0-19.053-1.259-19.053-4.547v9.466c0,3.288,8.531,5.953,19.053,5.953s19.053-2.665,19.053-5.953V69.8c0,3.288-8.53,4.547-19.053,4.547Z" transform="translate(-7.512 -63.843)" fill="#80b4fb"/>
        <path id="Path_939513" data-name="Path 939513" d="M17.76,73.978C11.671,73.4,7.513,72.092,7.513,69.8v9.466c0,2.3,4.158,4.286,10.247,5.28V73.978Z" transform="translate(-7.513 -63.843)" fill="#5490f9"/>
        <path id="Path_939514" data-name="Path 939514" d="M26.565,355.195c-10.523,0-19.053-2.665-19.053-5.953v9.25c0,3.288,8.531,5.953,19.053,5.953s19.053-2.665,19.053-5.953v-9.25C45.619,352.53,37.088,355.195,26.565,355.195Z" transform="translate(-7.512 -315.539)" fill="#9dc6fb"/>
        <path id="Path_939515" data-name="Path 939515" d="M17.76,354.522c-6.09-.993-10.247-2.985-10.247-5.28v9.25c0,2.3,4.158,4.286,10.247,5.28v-9.25Z" transform="translate(-7.513 -315.539)" fill="#80b4fb"/>
        <path id="Path_939516" data-name="Path 939516" d="M26.565,168.9c-10.523,0-19.053-2.665-19.053-5.953v9.25c0,3.288,8.531,5.953,19.053,5.953s19.053-2.665,19.053-5.953v-9.25C45.619,166.234,37.088,168.9,26.565,168.9Z" transform="translate(-7.512 -147.742)" fill="#9dc6fb"/>
        <path id="Path_939517" data-name="Path 939517" d="M17.76,168.226c-6.09-.993-10.247-2.985-10.247-5.28v9.25c0,2.3,4.158,4.286,10.247,5.28v-9.25Z" transform="translate(-7.513 -147.742)" fill="#80b4fb"/>
        <ellipse id="Ellipse_13561" data-name="Ellipse 13561" cx="19.053" cy="5.953" rx="19.053" ry="5.953" transform="translate(0 0.002)" fill="#b1d7fb"/>
        <path id="Path_939518" data-name="Path 939518" d="M16.239,17.7c0-2.264,2.039-4.3,5.3-5.743-8.085.689-14.03,3-14.03,5.743s5.944,5.055,14.03,5.743C18.277,22.006,16.239,19.966,16.239,17.7Z" transform="translate(-7.513 -11.748)" fill="#9dc6fb"/>
        <circle id="Ellipse_13562" data-name="Ellipse 13562" cx="11.243" cy="11.243" r="11.243" transform="translate(26.865 0)" fill="#ffe181"/>
        <path id="Path_939519" data-name="Path 939519" d="M283.382,21.075a11.247,11.247,0,0,1,8.579-10.925,11.243,11.243,0,1,0,0,21.85A11.247,11.247,0,0,1,283.382,21.075Z" transform="translate(-251.189 -9.832)" fill="#fec458"/>
        <path id="Path_939520" data-name="Path 939520" d="M429.61,83.254l-2.777-2.072a.312.312,0,0,1,.075-.542l3.467-1.324a.312.312,0,0,1,.418.354l-.689,3.4A.312.312,0,0,1,429.61,83.254Z" transform="translate(-385.081 -72.397)" fill="#ff656f"/>
        <path id="Path_939521" data-name="Path 939521" d="M314.747,125.42l2.777,2.072a.312.312,0,0,1-.075.542l-3.467,1.324a.312.312,0,0,1-.418-.354l.689-3.4A.312.312,0,0,1,314.747,125.42Z" transform="translate(-283.168 -113.886)" fill="#ff656f"/>
        <g id="Group_1165510" data-name="Group 1165510" transform="translate(30.39 7.709)">
          <path id="Path_939522" data-name="Path 939522" d="M428.392,87.86a.31.31,0,0,1-.086-.4l-1.4.534a.312.312,0,0,0-.075.542l2.777,2.072a.312.312,0,0,0,.493-.188l.227-1.117Z" transform="translate(-415.471 -87.462)" fill="#ff4756"/>
          <path id="Path_939523" data-name="Path 939523" d="M315.216,128.432l.469-2.313-.938-.7a.312.312,0,0,0-.493.188l-.689,3.4a.312.312,0,0,0,.418.354l1.465-.56A.312.312,0,0,1,315.216,128.432Z" transform="translate(-313.558 -121.594)" fill="#ff4756"/>
        </g>
      </g>
      <g id="Group_1165512" data-name="Group 1165512" transform="translate(0 2.175)">
        <path id="Path_939524" data-name="Path 939524" d="M336.634,52.737a1.058,1.058,0,0,0-1.413-1.2l-1.183.452A7.342,7.342,0,0,0,321.4,54.064a.745.745,0,0,0,1.4.507,5.848,5.848,0,0,1,9.753-2.014l-.8.306A1.058,1.058,0,0,0,331.5,54.7l2.777,2.072h0a1.057,1.057,0,0,0,1.668-.637Zm-2.013,2.431-1.6-1.194,2-.763Z" transform="translate(-289.448 -44.557)"/>
        <path id="Path_939525" data-name="Path 939525" d="M320.961,119.888a.745.745,0,0,0-.953.447,5.852,5.852,0,0,1-9.85,1.916l.79-.3a1.058,1.058,0,0,0,.255-1.835l-2.778-2.072a1.057,1.057,0,0,0-1.668.637l-.689,3.4a1.058,1.058,0,0,0,1.413,1.2l1.209-.462a7.342,7.342,0,0,0,12.719-1.971.745.745,0,0,0-.447-.953ZM307.684,121.6l.4-1.957,1.6,1.194Z" transform="translate(-275.656 -106.348)"/>
        <path id="Path_939526" data-name="Path 939526" d="M32.883,3.784C20.879.341,0,2.685,0,8.887v37c0,4.351,10.2,6.7,19.8,6.7s19.8-2.347,19.8-6.7V35.078a.745.745,0,1,0-1.489,0v1.559c0,2.381-7.378,5.208-18.31,5.208s-18.31-2.828-18.31-5.208v-6.57c6.445,5.332,30.177,5.33,36.619,0V31.6a.745.745,0,0,0,1.489,0v-5.46a11.979,11.979,0,0,0,5.2-1.552.745.745,0,1,0-.74-1.293,10.512,10.512,0,1,1,2.535-2.027.745.745,0,1,0,1.1,1.007A11.987,11.987,0,0,0,32.883,3.784Zm5.225,35.534v6.569c0,2.381-7.378,5.208-18.31,5.208S1.489,48.268,1.489,45.887V39.319C7.934,44.649,31.665,44.647,38.109,39.319ZM31.455,23.612a11.892,11.892,0,0,0,6.653,2.531v1.244c0,2.381-7.38,5.208-18.31,5.208S1.489,29.768,1.489,27.387V20.819c4.706,3.892,19.7,5.224,29.966,2.794Zm-1.342-1.23C17.256,25.02,1.489,21.856,1.489,18.137V11.568c4.455,3.686,16.886,4.652,25.416,3.594A11.9,11.9,0,0,0,30.114,22.382Zm-3.238-8.719C14.128,15.287,1.489,12.145,1.489,8.887c0-3.914,17.141-7.044,29.772-3.991a11.9,11.9,0,0,0-4.385,8.767Z" transform="translate(0 -2.175)"/>
      </g>
    </g>
  </g>
</svg>
