<svg xmlns="http://www.w3.org/2000/svg" width="100" height="100" viewBox="0 0 100 100">
  <g id="Group_1165099" data-name="Group 1165099" transform="translate(-637 -6992)">
    <g id="Group_1098742" data-name="Group 1098742" transform="translate(637.242 6992)">
      <rect id="Rectangle_400898" data-name="Rectangle 400898" width="100" height="100" rx="50" transform="translate(-0.242)" fill="#fff" opacity="0.859"/>
      <g id="Rectangle_400907" data-name="Rectangle 400907" transform="translate(-0.242)" fill="none" stroke="#00bdff" stroke-linecap="round" stroke-width="3" stroke-dasharray="0 7">
        <rect width="100" height="100" rx="50" stroke="none"/>
        <rect x="1.5" y="1.5" width="97" height="97" rx="48.5" fill="none"/>
      </g>
    </g>
    <g id="Group_1107006" data-name="Group 1107006" transform="translate(645.398 7000.157)">
      <rect id="Rectangle_400898-2" data-name="Rectangle 400898" width="84" height="84" rx="42" transform="translate(-0.399 -0.157)" fill="#6003fe" opacity="0.859"/>
      <rect id="Rectangle_400907-2" data-name="Rectangle 400907" width="84" height="84" rx="42" transform="translate(-0.398 -0.157)" fill="none"/>
    </g>
    <g id="Group_1165508" data-name="Group 1165508" transform="translate(660.619 7015.62)">
      <path id="Path_939495" data-name="Path 939495" d="M3.637,16H21.649v1.637a3.274,3.274,0,0,1-3.275,3.275H5.275A3.274,3.274,0,0,1,2,17.637V16Z" transform="translate(-0.181 -2.719)" fill="#969faa"/>
      <path id="Path_939496" data-name="Path 939496" d="M20.375,8.55v4.912H17.1V6.094a.821.821,0,0,0-.819-.819H8.094a.821.821,0,0,0-.819.819v7.369H4V5.275A3.274,3.274,0,0,1,7.275,2H17.1a3.274,3.274,0,0,1,3.275,3.275Z" transform="translate(-0.544 -0.181)" fill="#e6e9ed"/>
      <path id="Path_939497" data-name="Path 939497" d="M46,58h8.187v3.275H46Z" transform="translate(-8.157 -10.333)" fill="#aab2bd"/>
      <path id="Path_939498" data-name="Path 939498" d="M58.012,54v1.637a1.642,1.642,0,0,1-1.637,1.637H41.637A1.642,1.642,0,0,1,40,55.637V54Z" transform="translate(-7.07 -9.607)" fill="#ccd1d9"/>
      <path id="Path_939499" data-name="Path 939499" d="M13.462,41.637v1.637H2V41.637A1.642,1.642,0,0,1,3.637,40h8.187A1.642,1.642,0,0,1,13.462,41.637Z" transform="translate(-0.181 -7.07)" fill="#969faa"/>
      <path id="Path_939500" data-name="Path 939500" d="M13.462,58v1.637a1.642,1.642,0,0,1-1.637,1.637H3.637A1.642,1.642,0,0,1,2,59.637V58Z" transform="translate(-0.181 -10.333)" fill="#969faa"/>
      <path id="Path_939501" data-name="Path 939501" d="M17.825,6.819v7.369H8V6.819A.821.821,0,0,1,8.819,6h8.187A.821.821,0,0,1,17.825,6.819Z" transform="translate(-1.269 -0.906)" fill="#69d6f4"/>
      <path id="Path_939502" data-name="Path 939502" d="M58.012,45.637v6.55H40v-6.55A1.642,1.642,0,0,1,41.637,44H56.375A1.642,1.642,0,0,1,58.012,45.637Z" transform="translate(-7.07 -7.795)" fill="#69d6f4"/>
      <path id="Path_939503" data-name="Path 939503" d="M2,44H13.462V55.462H2Z" transform="translate(-0.181 -7.795)" fill="#b4dd7f"/>
      <path id="Path_939504" data-name="Path 939504" d="M40.287,36v1.637a1.642,1.642,0,0,1-1.637,1.637H20.637A1.642,1.642,0,0,1,19,37.637V36Z" transform="translate(-3.263 -6.345)" fill="#ffeaa7"/>
      <circle id="Ellipse_13560" data-name="Ellipse 13560" cx="9" cy="9" r="9" transform="translate(33.381 1.381)" fill="#69d6f4"/>
      <path id="Path_939505" data-name="Path 939505" d="M40.287,30.912v3.275H19v-6.55A1.642,1.642,0,0,1,20.637,26H38.649a1.642,1.642,0,0,1,1.637,1.637Z" transform="translate(-3.263 -4.532)" fill="#fcd770"/>
      <path id="Path_939506" data-name="Path 939506" d="M40,31h1.637v1.637H40Z" transform="translate(-7.07 -5.438)"/>
      <path id="Path_939507" data-name="Path 939507" d="M36,31h1.637v1.637H36Z" transform="translate(-6.345 -5.438)"/>
      <path id="Path_939508" data-name="Path 939508" d="M32,31h1.637v1.637H32Z" transform="translate(-5.619 -5.438)"/>
      <path id="Path_939509" data-name="Path 939509" d="M49.3,35.387H34.568a2.459,2.459,0,0,0-2.456,2.456v3.275H29.655A2.459,2.459,0,0,1,27.2,38.661V33.749h8.187a2.459,2.459,0,0,0,2.456-2.456V27.2h.819a4.1,4.1,0,0,0,4.094-4.094v-2.5a9.825,9.825,0,1,0-1.637,0v2.5a2.459,2.459,0,0,1-2.456,2.456h-.819V23.106a2.459,2.459,0,0,0-2.456-2.456H27.2V11.643A4.1,4.1,0,0,0,23.106,7.55H20.649V5.094A4.1,4.1,0,0,0,16.556,1H6.731A4.1,4.1,0,0,0,2.637,5.094v7.369H1v2.456a4.1,4.1,0,0,0,4.094,4.094h13.1a4.1,4.1,0,0,0,4.094-4.094V12.462H20.649V9.187h2.456a2.459,2.459,0,0,1,2.456,2.456v9.006H17.375a2.459,2.459,0,0,0-2.456,2.456v2.456H10.825a4.1,4.1,0,0,0-4.094,4.094v2.456H3.456A2.459,2.459,0,0,0,1,34.568V49.3a2.459,2.459,0,0,0,2.456,2.456h8.187A2.459,2.459,0,0,0,14.1,49.3V34.568a2.459,2.459,0,0,0-2.456-2.456H8.369V29.655A2.459,2.459,0,0,1,10.825,27.2h4.094v4.094a2.459,2.459,0,0,0,2.456,2.456h8.187v4.912a4.1,4.1,0,0,0,4.094,4.094h2.456V46.03a2.459,2.459,0,0,0,2.456,2.456h2.456v1.637H35.387v1.637h13.1V50.124H46.849V48.486H49.3a2.459,2.459,0,0,0,2.456-2.456V37.843A2.459,2.459,0,0,0,49.3,35.387ZM33.791,11.643h3.273a11.781,11.781,0,0,0,.778,3.275H34.857A8.109,8.109,0,0,1,33.791,11.643ZM44.255,6.731a10.655,10.655,0,0,1,.915,3.275H38.7a10.655,10.655,0,0,1,.915-3.275ZM40.481,5.094a17.29,17.29,0,0,1,1.456-2.043,17.29,17.29,0,0,1,1.456,2.043Zm9.6,4.912H46.809a11.781,11.781,0,0,0-.778-3.275h2.985a8.109,8.109,0,0,1,1.066,3.275Zm0,1.637a8.122,8.122,0,0,1-1.066,3.275H46.031a11.781,11.781,0,0,0,.778-3.275ZM37.064,10.006H33.791a8.122,8.122,0,0,1,1.066-3.275h2.985A11.781,11.781,0,0,0,37.064,10.006ZM38.7,11.643h6.465a10.655,10.655,0,0,1-.915,3.275H39.617a10.677,10.677,0,0,1-.914-3.275Zm4.689,4.912A17.29,17.29,0,0,1,41.936,18.6a17.291,17.291,0,0,1-1.456-2.043Zm.5,2.211a17.822,17.822,0,0,0,1.392-2.211h2.491A8.173,8.173,0,0,1,43.89,18.766ZM47.773,5.094H45.282A18.016,18.016,0,0,0,43.89,2.883,8.173,8.173,0,0,1,47.773,5.094Zm-7.79-2.211a17.822,17.822,0,0,0-1.392,2.211H36.1A8.173,8.173,0,0,1,39.983,2.883ZM36.1,16.556h2.491a18.017,18.017,0,0,0,1.392,2.211A8.173,8.173,0,0,1,36.1,16.556Zm-15.45-1.637a2.459,2.459,0,0,1-2.456,2.456H5.094a2.459,2.459,0,0,1-2.456-2.456V14.1H20.649Zm-4.912-2.456H7.55V5.912h8.187Zm1.637,0V5.912a1.639,1.639,0,0,0-1.637-1.637H7.55A1.639,1.639,0,0,0,5.912,5.912v6.55H4.275V5.094A2.459,2.459,0,0,1,6.731,2.637h9.825a2.459,2.459,0,0,1,2.456,2.456v7.369ZM2.637,37.024h9.825v9.825H2.637Zm9.006,13.1H3.456a.82.82,0,0,1-.819-.819v-.819h9.825V49.3A.82.82,0,0,1,11.643,50.124Zm.819-15.556v.819H2.637v-.819a.82.82,0,0,1,.819-.819h8.187A.82.82,0,0,1,12.462,34.568Zm4.912-12.281H35.387a.82.82,0,0,1,.819.819v5.731H16.556V23.106A.82.82,0,0,1,17.375,22.287Zm-.819,9.006v-.819H36.205v.819a.82.82,0,0,1-.819.819H17.375a.82.82,0,0,1-.819-.819Zm18.012,5.731H49.3a.82.82,0,0,1,.819.819v5.731H33.749V37.843A.82.82,0,0,1,34.568,37.024Zm10.643,13.1h-6.55V48.486h6.55ZM49.3,46.849H34.568a.82.82,0,0,1-.819-.819v-.819H50.124v.819A.82.82,0,0,1,49.3,46.849Z"/>
    </g>
  </g>
</svg>
