<svg xmlns="http://www.w3.org/2000/svg" width="100" height="100" viewBox="0 0 100 100">
  <g id="Group_1165192" data-name="Group 1165192" transform="translate(-637 -6992)">
    <g id="Group_1098742" data-name="Group 1098742" transform="translate(637.242 6992)">
      <rect id="Rectangle_400898" data-name="Rectangle 400898" width="100" height="100" rx="50" transform="translate(-0.242)" fill="#fff" opacity="0.859"/>
      <g id="Rectangle_400907" data-name="Rectangle 400907" transform="translate(-0.242)" fill="none" stroke="#00bdff" stroke-linecap="round" stroke-width="3" stroke-dasharray="0 7">
        <rect width="100" height="100" rx="50" stroke="none"/>
        <rect x="1.5" y="1.5" width="97" height="97" rx="48.5" fill="none"/>
      </g>
    </g>
    <g id="Group_1107006" data-name="Group 1107006" transform="translate(645.398 7000.157)">
      <rect id="Rectangle_400898-2" data-name="Rectangle 400898" width="84" height="84" rx="42" transform="translate(-0.399 -0.157)" fill="#6003fe" opacity="0.859"/>
      <rect id="Rectangle_400907-2" data-name="Rectangle 400907" width="84" height="84" rx="42" transform="translate(-0.398 -0.157)" fill="none"/>
    </g>
    <g id="Group_1165571" data-name="Group 1165571" transform="translate(661.74 7014.841)">
      <g id="Group_1165569" data-name="Group 1165569" transform="translate(0.74 5.438)">
        <g id="Group_1165568" data-name="Group 1165568">
          <g id="Group_1165562" data-name="Group 1165562" transform="translate(0 34.085)">
            <path id="Path_939722" data-name="Path 939722" d="M81.686,387.9v-6.11a.493.493,0,0,0-.493-.493H66.581a6.323,6.323,0,0,0-6.323,6.323,6.323,6.323,0,0,0-6.323-6.323H39.322a.493.493,0,0,0-.493.493v6.11Z" transform="translate(-35.738 -381.294)" fill="#fff3de"/>
            <path id="Path_939723" data-name="Path 939723" d="M81.194,381.294H77.856v2.535a.987.987,0,0,1-.987.987H60.913a6.3,6.3,0,0,0-.654,2.8,6.3,6.3,0,0,0-.654-2.8H38.83V387.9H81.687v-6.11A.493.493,0,0,0,81.194,381.294Z" transform="translate(-35.739 -381.294)" fill="#ffe5c2"/>
            <path id="Path_939724" data-name="Path 939724" d="M55.781,446.676H8.259a.759.759,0,0,0-.759.759v3.98a.759.759,0,0,0,.759.759H55.781a.759.759,0,0,0,.759-.759v-3.98A.759.759,0,0,0,55.781,446.676Z" transform="translate(-7.5 -440.225)" fill="#fe646f"/>
            <path id="Path_939725" data-name="Path 939725" d="M55.781,446.676H49.617v1.643a.987.987,0,0,1-.987.987H7.5v2.109a.759.759,0,0,0,.759.759H55.781a.759.759,0,0,0,.759-.759v-3.98a.759.759,0,0,0-.759-.759Z" transform="translate(-7.5 -440.225)" fill="#fd4755"/>
          </g>
          <g id="Group_1165566" data-name="Group 1165566" transform="translate(15.047 2.075)">
            <g id="Group_1165563" data-name="Group 1165563" transform="translate(0 12.928)">
              <path id="Path_939726" data-name="Path 939726" d="M164.188,187.9l-3.878,2.386a.66.66,0,0,0-.314.562v6.507a.66.66,0,0,0,.66.66h3.532Z" transform="translate(-159.996 -187.905)" fill="#62dbfb"/>
              <path id="Path_939727" data-name="Path 939727" d="M313.2,190.291,309.32,187.9V198.02h3.532a.66.66,0,0,0,.66-.66v-6.507A.66.66,0,0,0,313.2,190.291Z" transform="translate(-294.586 -187.905)" fill="#01d0fb"/>
            </g>
            <g id="Group_1165564" data-name="Group 1165564" transform="translate(4.072 5.812)">
              <path id="Path_939728" data-name="Path 939728" d="M210.7,115.79h-8.087l-.063.1a8.153,8.153,0,0,0-1.284,4.392v14.25a1.2,1.2,0,0,0,1.2,1.2h8.386a1.2,1.2,0,0,0,1.2-1.2V120.28a8.152,8.152,0,0,0-1.284-4.392Z" transform="translate(-201.268 -115.79)" fill="#f3f0f3"/>
            </g>
            <g id="Group_1165565" data-name="Group 1165565" transform="translate(4.072 5.812)">
              <path id="Path_939729" data-name="Path 939729" d="M210.7,115.79h-3.356l.334.522a8.153,8.153,0,0,1,1.284,4.392v11.119a1.2,1.2,0,0,1-1.2,1.2h-6.5v1.509a1.2,1.2,0,0,0,1.2,1.2h8.386a1.2,1.2,0,0,0,1.2-1.2V120.28a8.152,8.152,0,0,0-1.284-4.392Z" transform="translate(-201.269 -115.79)" fill="#e2dee2"/>
            </g>
            <path id="Path_939730" data-name="Path 939730" d="M218.892,57.166a.6.6,0,0,0-1.009,0l-3.6,5.634h8.214Z" transform="translate(-208.924 -56.889)" fill="#62dbfb"/>
            <path id="Path_939731" data-name="Path 939731" d="M241.325,62.8h3.356l-3.6-5.634a.6.6,0,0,0-1.009,0L238.9,59Z" transform="translate(-231.111 -56.89)" fill="#01d0fb"/>
            <circle id="Ellipse_13569" data-name="Ellipse 13569" cx="2.22" cy="2.22" r="2.22" transform="translate(7.243 9.994)" fill="#62dbfb"/>
          </g>
          <path id="Path_939732" data-name="Path 939732" d="M81.9,44.193l1.156,2.114a.4.4,0,0,0,.159.159l2.114,1.156a.4.4,0,0,1,0,.7l-2.114,1.156a.4.4,0,0,0-.159.159L81.9,51.757a.4.4,0,0,1-.7,0l-1.156-2.114a.4.4,0,0,0-.159-.159l-2.114-1.156a.4.4,0,0,1,0-.7l2.114-1.156a.4.4,0,0,0,.159-.159L81.2,44.193A.4.4,0,0,1,81.9,44.193Z" transform="translate(-70.647 -43.183)" fill="#ffe177"/>
          <path id="Path_939733" data-name="Path 939733" d="M402.2,255.179l1.072,1.96a.373.373,0,0,0,.148.148l1.961,1.072a.372.372,0,0,1,0,.652l-1.961,1.072a.373.373,0,0,0-.148.148l-1.072,1.96a.372.372,0,0,1-.652,0l-1.072-1.96a.372.372,0,0,0-.148-.148l-1.961-1.072a.372.372,0,0,1,0-.652l1.961-1.072a.373.373,0,0,0,.148-.148l1.072-1.96A.372.372,0,0,1,402.2,255.179Z" transform="translate(-359.622 -233.364)" fill="#ffe177"/>
          <g id="Group_1165567" data-name="Group 1165567" transform="translate(37.158)">
            <circle id="Ellipse_13570" data-name="Ellipse 13570" cx="5.082" cy="5.082" r="5.082" fill="#a2e62e"/>
            <path id="Path_939734" data-name="Path 939734" d="M398.573,37.1a5.081,5.081,0,0,1-5.278,7.859,5.081,5.081,0,1,0,5.278-7.859Z" transform="translate(-392.385 -36.975)" fill="#97d729"/>
          </g>
          <path id="Path_939735" data-name="Path 939735" d="M66.262,253.153l-2.117-2.117a.493.493,0,0,1,0-.7l2.117-2.117a.493.493,0,0,1,.7,0l2.117,2.117a.493.493,0,0,1,0,.7l-2.117,2.117A.493.493,0,0,1,66.262,253.153Z" transform="translate(-58.425 -227.137)" fill="#ffe177"/>
        </g>
      </g>
      <g id="Group_1165570" data-name="Group 1165570" transform="translate(0 2.107)">
        <path id="Path_939736" data-name="Path 939736" d="M49.021,380.245H47.429v-5.218a1.235,1.235,0,0,0-1.233-1.233H31.583a7.072,7.072,0,0,0-6.323,3.917,7.072,7.072,0,0,0-6.323-3.917H10.558a.74.74,0,1,0,0,1.48h8.379a5.591,5.591,0,0,1,5.55,4.971H4.571v-4.971H7.1a.74.74,0,1,0,0-1.48H4.325a1.235,1.235,0,0,0-1.233,1.233v5.218H1.5a1.5,1.5,0,0,0-1.5,1.5v3.98a1.5,1.5,0,0,0,1.5,1.5H49.021a1.5,1.5,0,0,0,1.5-1.5v-3.98a1.5,1.5,0,0,0-1.5-1.5Zm-17.438-4.971H45.949v4.971H26.033a5.591,5.591,0,0,1,5.55-4.971Zm17.457,10.45a.019.019,0,0,1-.019.019H1.5a.019.019,0,0,1-.019-.019v-3.98a.019.019,0,0,1,.019-.019H49.021a.019.019,0,0,1,.019.019Z" transform="translate(0 -337.119)"/>
        <path id="Path_939737" data-name="Path 939737" d="M228.861,156.6a2.96,2.96,0,1,0-2.96-2.96A2.964,2.964,0,0,0,228.861,156.6Zm0-4.44a1.48,1.48,0,1,1-1.48,1.48A1.482,1.482,0,0,1,228.861,152.155Z" transform="translate(-203.611 -136.016)"/>
        <path id="Path_939738" data-name="Path 939738" d="M351.768,17.353a6.17,6.17,0,0,0,2.937-1.141c.335-.207.684-.44,1.041-.694a5.819,5.819,0,0,0,7.979-7.979c.253-.357.486-.705.694-1.041,1.216-1.967,1.457-3.273.738-3.992-.543-.542-1.448-.532-2.69.032a.74.74,0,1,0,.612,1.348,2.7,2.7,0,0,1,1-.3A5.765,5.765,0,0,1,362.95,6.05q-.09.139-.187.28a5.813,5.813,0,0,0-7.977-.1.74.74,0,0,0,1,1.089,4.335,4.335,0,0,1,6.092.216,35.535,35.535,0,0,1-2.887,3.246,35.509,35.509,0,0,1-3.246,2.887,4.329,4.329,0,0,1-1.362-3.153,4.419,4.419,0,0,1,.039-.577.74.74,0,0,0-1.467-.194,5.892,5.892,0,0,0-.052.771,5.8,5.8,0,0,0,1.633,4.037q-.141.1-.28.187a5.766,5.766,0,0,1-2.466,1.132,2.242,2.242,0,0,1,.2-.759.74.74,0,1,0-1.374-.549c-.433,1.083-.4,1.885.1,2.383a1.423,1.423,0,0,0,1.055.4Zm8.271-5.52a37.783,37.783,0,0,0,2.694-2.985,4.341,4.341,0,0,1-5.678,5.679,37.81,37.81,0,0,0,2.985-2.694Z" transform="translate(-315.747 -2.107)"/>
        <path id="Path_939739" data-name="Path 939739" d="M70.653,42.216l2.027,1.109,1.109,2.027a1.141,1.141,0,0,0,2,0L76.9,43.325l2.027-1.109a1.141,1.141,0,0,0,0-2L76.9,39.106l-1.109-2.027a1.14,1.14,0,0,0-1-.594h0a1.141,1.141,0,0,0-1,.594L72.68,39.106l-2.027,1.109a1.141,1.141,0,0,0,0,2Zm2.825-1.86a1.139,1.139,0,0,0,.453-.453l.859-1.57.859,1.57a1.139,1.139,0,0,0,.454.454l1.57.859-1.571.859a1.137,1.137,0,0,0-.453.454l-.859,1.57-.859-1.57a1.14,1.14,0,0,0-.454-.454l-1.57-.859Z" transform="translate(-63.146 -33.093)"/>
        <path id="Path_939740" data-name="Path 939740" d="M398.974,250.95l-1.866-1.02-1.02-1.866a1.112,1.112,0,0,0-1.951,0l-1.02,1.866-1.866,1.02a1.112,1.112,0,0,0,0,1.951l1.866,1.02,1.02,1.866a1.112,1.112,0,0,0,1.951,0l1.02-1.866,1.866-1.02a1.112,1.112,0,0,0,0-1.951Zm-2.671,1.725a1.11,1.11,0,0,0-.442.442l-.749,1.37-.749-1.37a1.11,1.11,0,0,0-.442-.442l-1.37-.749,1.37-.749a1.11,1.11,0,0,0,.442-.442l.749-1.37.749,1.37a1.11,1.11,0,0,0,.442.442l1.37.749Z" transform="translate(-352.124 -223.273)"/>
        <path id="Path_939741" data-name="Path 939741" d="M58.978,246.922a1.233,1.233,0,0,0,1.744,0l2.117-2.117a1.233,1.233,0,0,0,0-1.744l-2.117-2.117a1.235,1.235,0,0,0-1.744,0l-2.117,2.117a1.233,1.233,0,0,0,0,1.744Zm.872-4.757,1.768,1.768L59.85,245.7l-1.768-1.768Z" transform="translate(-50.925 -217.052)"/>
        <path id="Path_939742" data-name="Path 939742" d="M153.162,64.812A1.409,1.409,0,0,0,152.5,66v6.507a1.4,1.4,0,0,0,1.4,1.4h2.672v.769a1.94,1.94,0,0,0,1.938,1.938h8.386a1.94,1.94,0,0,0,1.938-1.938v-.769H171.5a1.4,1.4,0,0,0,1.4-1.4V66a1.409,1.409,0,0,0-.667-1.193l-3.406-2.1V60.431a8.878,8.878,0,0,0-1.4-4.79l-3.6-5.634a1.339,1.339,0,0,0-2.256,0l-3.6,5.634a8.877,8.877,0,0,0-1.4,4.79v2.285Zm18.26,1.237v6.382H168.83V64.454ZM162.7,50.99l2.755,4.31h-5.511Zm-4.651,15.331v-5.89a7.4,7.4,0,0,1,.963-3.652h7.375a7.4,7.4,0,0,1,.963,3.652v14.25a.458.458,0,0,1-.458.458h-8.386a.458.458,0,0,1-.458-.458V69.774a.74.74,0,0,0-1.48,0v2.657h-2.592V66.049l2.592-1.595v1.866a.74.74,0,0,0,1.48,0Z" transform="translate(-137.449 -44.724)"/>
      </g>
    </g>
  </g>
</svg>
