<svg xmlns="http://www.w3.org/2000/svg" width="120" height="120" viewBox="0 0 120 120">
  <g id="Group_1165188" data-name="Group 1165188" transform="translate(-64 -6445)">
    <rect id="Rectangle_402033" data-name="Rectangle 402033" width="120" height="120" rx="8" transform="translate(64 6445)" fill="#6003fe"/>
    <g id="Rectangle_412110" data-name="Rectangle 412110" transform="translate(69 6450)" fill="none" stroke="#fff" stroke-width="1">
      <rect width="110" height="110" rx="6" stroke="none"/>
      <rect x="0.5" y="0.5" width="109" height="109" rx="5.5" fill="none"/>
    </g>
    <g id="Group_1155336" data-name="Group 1155336" transform="translate(-325 -2)">
      <circle id="Ellipse_13473" data-name="Ellipse 13473" cx="60" cy="60" r="60" transform="translate(389 6447)" fill="#6003fe"/>
      <g id="Ellipse_13474" data-name="Ellipse 13474" transform="translate(399 6457)" fill="none" stroke="#fff" stroke-width="1">
        <circle cx="50" cy="50" r="50" stroke="none"/>
        <circle cx="50" cy="50" r="49.5" fill="none"/>
      </g>
      <g id="Layer_21" data-name="Layer 21" transform="translate(417.5 6474.672)">
        <path id="Path_939634" data-name="Path 939634" d="M60,47V10a3,3,0,0,0-3-3H35a3,3,0,0,0-3,3V47" fill="#3693cf"/>
        <path id="Path_939635" data-name="Path 939635" d="M57,7H48V47H60V10A3,3,0,0,0,57,7Z" fill="#43b6e5"/>
        <path id="Path_939636" data-name="Path 939636" d="M56,47V11H36V47" fill="#ec8329"/>
        <path id="Path_939637" data-name="Path 939637" d="M48,11h8V47H48Z" fill="#f79b31"/>
        <path id="Path_939638" data-name="Path 939638" d="M36,18H56v2H36Z" fill="#fcb732"/>
        <path id="Path_939639" data-name="Path 939639" d="M43,14h2v2H43Z" fill="#fff"/>
        <path id="Path_939640" data-name="Path 939640" d="M36,26H56v2H36Z" fill="#fcb732"/>
        <path id="Path_939641" data-name="Path 939641" d="M51,22h2v2H51Z" fill="#fff"/>
        <path id="Path_939642" data-name="Path 939642" d="M36,34H56v2H36Z" fill="#fcb732"/>
        <path id="Path_939643" data-name="Path 939643" d="M43,30h2v2H43Z" fill="#fff"/>
        <path id="Path_939644" data-name="Path 939644" d="M36,42H56v2H36Z" fill="#fcb732"/>
        <path id="Path_939645" data-name="Path 939645" d="M51,38h2v2H51Z" fill="#fff"/>
        <path id="Path_939646" data-name="Path 939646" d="M4,47V10A3,3,0,0,1,7,7H29a3,3,0,0,1,3,3V47" fill="#3693cf"/>
        <path id="Path_939647" data-name="Path 939647" d="M29,7H9a3,3,0,0,0-3,3V47H32V10A3,3,0,0,0,29,7Z" fill="#43b6e5"/>
        <path id="Path_939648" data-name="Path 939648" d="M8,47V11H28V47" fill="#ec8329"/>
        <path id="Path_939649" data-name="Path 939649" d="M10,11H28V47H10Z" fill="#f79b31"/>
        <path id="Path_939650" data-name="Path 939650" d="M8,18H28v2H8Z" fill="#ec8329"/>
        <path id="Path_939651" data-name="Path 939651" d="M19,14h2v2H19Z" fill="#fff"/>
        <path id="Path_939652" data-name="Path 939652" d="M8,26H28v2H8Z" fill="#ec8329"/>
        <path id="Path_939653" data-name="Path 939653" d="M11,22h2v2H11Z" fill="#fff"/>
        <path id="Path_939654" data-name="Path 939654" d="M8,34H28v2H8Z" fill="#ec8329"/>
        <path id="Path_939655" data-name="Path 939655" d="M19,30h2v2H19Z" fill="#fff"/>
        <path id="Path_939656" data-name="Path 939656" d="M8,42H28v2H8Z" fill="#ec8329"/>
        <path id="Path_939657" data-name="Path 939657" d="M11,38h2v2H11Z" fill="#fff"/>
        <path id="Path_939658" data-name="Path 939658" d="M30,47H62v6H30Z" fill="#383838"/>
        <path id="Path_939659" data-name="Path 939659" d="M35,50H62V47H32a3,3,0,0,0,3,3Z" fill="#494949"/>
        <path id="Path_939660" data-name="Path 939660" d="M2,47H34v6H2Z" fill="#383838"/>
        <path id="Path_939661" data-name="Path 939661" d="M7,50H34V47H4a3,3,0,0,0,3,3Z" fill="#494949"/>
        <path id="Path_939662" data-name="Path 939662" d="M16,42H48v6H16Z" fill="#565656"/>
        <path id="Path_939663" data-name="Path 939663" d="M21,45H48V42H18A3,3,0,0,0,21,45Z" fill="#636363"/>
        <path id="Path_939664" data-name="Path 939664" d="M50,57a5,5,0,0,1-5,5H19a5,5,0,1,1,0-10,4.925,4.925,0,0,1,2.03.43A6.982,6.982,0,0,1,28,46a6.819,6.819,0,0,1,1.93.27A8,8,0,0,1,45,50a8.321,8.321,0,0,1-.25,2.01A2.09,2.09,0,0,1,45,52a5,5,0,0,1,5,5Z" fill="#43b6e5"/>
        <path id="Path_939665" data-name="Path 939665" d="M45,52a2.09,2.09,0,0,0-.25.01A8.321,8.321,0,0,0,45,50a8,8,0,0,0-15.07-3.73A6.819,6.819,0,0,0,28,46a6.982,6.982,0,0,0-6.97,6.43,4.867,4.867,0,0,0-3.723-.115A4.9,4.9,0,0,0,17,54a5,5,0,0,0,5,5H48a4.911,4.911,0,0,0,1.686-.31A4.941,4.941,0,0,0,50,57a5,5,0,0,0-5-5Z" fill="#66c3e9"/>
        <path id="Path_939666" data-name="Path 939666" d="M18,42V5a3,3,0,0,1,3-3H43a3,3,0,0,1,3,3V42" fill="#66c3e9"/>
        <path id="Path_939667" data-name="Path 939667" d="M43,2H23a3,3,0,0,0-3,3V42H46V5A3,3,0,0,0,43,2Z" fill="#8adef9"/>
        <path id="Path_939668" data-name="Path 939668" d="M22,42V6H42V42" fill="#fcb732"/>
        <path id="Path_939669" data-name="Path 939669" d="M24,6H42V42H24Z" fill="#ffc76f"/>
        <path id="Path_939670" data-name="Path 939670" d="M22,13H42v2H22Z" fill="#fcb732"/>
        <path id="Path_939671" data-name="Path 939671" d="M33,9h2v2H33Z" fill="#fff"/>
        <path id="Path_939672" data-name="Path 939672" d="M22,21H42v2H22Z" fill="#fcb732"/>
        <path id="Path_939673" data-name="Path 939673" d="M25,17h2v2H25Z" fill="#fff"/>
        <path id="Path_939674" data-name="Path 939674" d="M29,17h2v2H29Z" fill="#fff"/>
        <path id="Path_939675" data-name="Path 939675" d="M22,29H42v2H22Z" fill="#fcb732"/>
        <path id="Path_939676" data-name="Path 939676" d="M33,25h2v2H33Z" fill="#fff"/>
        <path id="Path_939677" data-name="Path 939677" d="M22,37H42v2H22Z" fill="#fcb732"/>
        <g id="Group_1165559" data-name="Group 1165559">
          <path id="Path_939678" data-name="Path 939678" d="M25,33h2v2H25Z" fill="#fff"/>
          <path id="Path_939679" data-name="Path 939679" d="M29,33h2v2H29Z" fill="#fff"/>
          <path id="Path_939680" data-name="Path 939680" d="M27,57h2v2H27Z" fill="#fff"/>
          <path id="Path_939681" data-name="Path 939681" d="M31,57h2v2H31Z" fill="#fff"/>
          <path id="Path_939682" data-name="Path 939682" d="M35,57h2v2H35Z" fill="#fff"/>
        </g>
        <path id="Path_939683" data-name="Path 939683" d="M33,9h2v2H33Z"/>
        <path id="Path_939684" data-name="Path 939684" d="M37,9h2v2H37Z"/>
        <path id="Path_939685" data-name="Path 939685" d="M25,17h2v2H25Z"/>
        <path id="Path_939686" data-name="Path 939686" d="M29,17h2v2H29Z"/>
        <path id="Path_939687" data-name="Path 939687" d="M33,25h2v2H33Z"/>
        <path id="Path_939688" data-name="Path 939688" d="M37,25h2v2H37Z"/>
        <path id="Path_939689" data-name="Path 939689" d="M25,33h2v2H25Z"/>
        <path id="Path_939690" data-name="Path 939690" d="M29,33h2v2H29Z"/>
        <path id="Path_939691" data-name="Path 939691" d="M11,22h2v2H11Z"/>
        <path id="Path_939692" data-name="Path 939692" d="M11,38h2v2H11Z"/>
        <path id="Path_939693" data-name="Path 939693" d="M62,46H61V10a4,4,0,0,0-4-4H47V5a4,4,0,0,0-4-4H21a4,4,0,0,0-4,4V6H7a4,4,0,0,0-4,4V46H2a1,1,0,0,0-1,1v6a1,1,0,0,0,1,1H13.812A5.99,5.99,0,0,0,19,63H45a5.988,5.988,0,0,0,5.187-9H62a1,1,0,0,0,1-1V47A1,1,0,0,0,62,46ZM57,8a2,2,0,0,1,2,2V46H57V11a1,1,0,0,0-1-1H47V8ZM42.644,43H47v4H45.475a9.019,9.019,0,0,0-2.831-4ZM22.735,47H17V43H31.364a8.9,8.9,0,0,0-1.926,2.127A8.1,8.1,0,0,0,28,45a7.973,7.973,0,0,0-5.265,2ZM15,46H9V44h6Zm2-28H9V12h8ZM9,20h8v6H9Zm0,8h8v6H9Zm6,14H9V36h8v5H16A1,1,0,0,0,15,42ZM41,13H23V7H41ZM23,15H41v6H23Zm0,8H41v6H23Zm0,8H41v6H23Zm0,10V39H41v2ZM55,18H47V12h8Zm0,2v6H47V20Zm0,8v6H47V28Zm0,8v6H49a1,1,0,0,0-1-1H47V36Zm-6,8h6v2H49ZM21,3H43a2,2,0,0,1,2,2V41H43V6a1,1,0,0,0-1-1H22a1,1,0,0,0-1,1V41H19V5A2,2,0,0,1,21,3ZM5,10A2,2,0,0,1,7,8H17v2H8a1,1,0,0,0-1,1V46H5ZM3,48H15a1,1,0,0,0,1,1h5.088a7.883,7.883,0,0,0-.861,2.124A6.087,6.087,0,0,0,19,51a5.962,5.962,0,0,0-3.308,1H3ZM45,61H19a4,4,0,0,1,0-8,3.91,3.91,0,0,1,1.62.342,1,1,0,0,0,1.407-.835A6.01,6.01,0,0,1,28,47a5.828,5.828,0,0,1,1.648.229,1,1,0,0,0,1.168-.5A7,7,0,0,1,44,50a7.285,7.285,0,0,1-.22,1.767,1,1,0,0,0,.223.9A1.042,1.042,0,0,0,44.87,53,.706.706,0,0,1,45,53a4,4,0,0,1,0,8Zm16-9H48.273a5.947,5.947,0,0,0-2.336-.926A9.192,9.192,0,0,0,46,50a8.934,8.934,0,0,0-.059-1H48a1,1,0,0,0,1-1H61Z"/>
        <path id="Path_939694" data-name="Path 939694" d="M51,22h2v2H51Z"/>
        <path id="Path_939695" data-name="Path 939695" d="M51,38h2v2H51Z"/>
        <path id="Path_939696" data-name="Path 939696" d="M27,57h2v2H27Z"/>
        <path id="Path_939697" data-name="Path 939697" d="M31,57h2v2H31Z"/>
        <path id="Path_939698" data-name="Path 939698" d="M35,57h2v2H35Z"/>
      </g>
    </g>
  </g>
</svg>
