<svg id="Group_1165596" data-name="Group 1165596" xmlns="http://www.w3.org/2000/svg" xmlns:xlink="http://www.w3.org/1999/xlink" width="190" height="126.518" viewBox="0 0 190 126.518">
  <defs>
    <clipPath id="clip-path">
      <rect id="Rectangle_448371" data-name="Rectangle 448371" width="190" height="126.518" fill="none"/>
    </clipPath>
  </defs>
  <g id="Group_1165595" data-name="Group 1165595" clip-path="url(#clip-path)">
    <path id="Path_939941" data-name="Path 939941" d="M1590.179,28.345a10.585,10.585,0,0,1,7.764-1.8,15.047,15.047,0,0,1-.291-2.206c-.48-8.45,6.311-16.571,13.354-20.492a26.232,26.232,0,0,1,18.486-2.781c13.691,3.212,18.645,16.8,18.99,17.8a14.58,14.58,0,1,1,3.333,28.775h-55.169c-6.038-1.07-10.338-5.632-10.588-10.588a10.311,10.311,0,0,1,4.122-8.709" transform="translate(-1476.394 -0.395)" fill="#6003fe"/>
    <rect id="Rectangle_448366" data-name="Rectangle 448366" width="76.407" height="34.691" transform="translate(20.183 86.295)" fill="#e2eaff"/>
    <rect id="Rectangle_448367" data-name="Rectangle 448367" width="83.046" height="16.995" transform="translate(16.689 71.108)" fill="#5479f7"/>
    <path id="Path_939942" data-name="Path 939942" d="M700.038,1046.881h-45.4a2.783,2.783,0,0,0-3.034,2.432v9.6a2.783,2.783,0,0,0,3.034,2.432h45.4a2.783,2.783,0,0,0,3.034-2.432v-9.6a2.783,2.783,0,0,0-3.034-2.432" transform="translate(-606.557 -974.504)" fill="#fff"/>
    <path id="Path_939943" data-name="Path 939943" d="M734.425,1131.145a1.508,1.508,0,1,1-1.508-1.508,1.508,1.508,0,0,1,1.508,1.508" transform="translate(-680.843 -1051.539)" fill="#e2eaff"/>
    <path id="Path_939944" data-name="Path 939944" d="M804.137,1131.145a1.508,1.508,0,1,1-1.508-1.508,1.508,1.508,0,0,1,1.508,1.508" transform="translate(-745.735 -1051.539)" fill="#e2eaff"/>
    <path id="Path_939945" data-name="Path 939945" d="M873.85,1131.145a1.508,1.508,0,1,1-1.508-1.508,1.508,1.508,0,0,1,1.508,1.508" transform="translate(-810.628 -1051.539)" fill="#e2eaff"/>
    <path id="Path_939946" data-name="Path 939946" d="M288.342,1076.533H288.3a.358.358,0,0,1-.357-.357v-11.719a.358.358,0,0,1,.357-.357h.042a.358.358,0,0,1,.357.357v11.719a.358.358,0,0,1-.357.357" transform="translate(-268.037 -990.534)" fill="#fff"/>
    <path id="Path_939947" data-name="Path 939947" d="M330.669,1076.533h-.042a.358.358,0,0,1-.357-.357v-11.719a.358.358,0,0,1,.357-.357h.042a.358.358,0,0,1,.357.357v11.719a.358.358,0,0,1-.357.357" transform="translate(-307.438 -990.534)" fill="#fff"/>
    <path id="Path_939948" data-name="Path 939948" d="M373,1076.533h-.042a.358.358,0,0,1-.357-.357v-11.719a.358.358,0,0,1,.357-.357H373a.358.358,0,0,1,.357.357v11.719a.358.358,0,0,1-.357.357" transform="translate(-346.838 -990.534)" fill="#fff"/>
    <path id="Path_939949" data-name="Path 939949" d="M414.6,1076.533h-.042a.358.358,0,0,1-.357-.357v-11.719a.358.358,0,0,1,.357-.357h.042a.358.358,0,0,1,.357.357v11.719a.358.358,0,0,1-.357.357" transform="translate(-385.562 -990.534)" fill="#fff"/>
    <path id="Path_939950" data-name="Path 939950" d="M456.923,1076.533h-.042a.358.358,0,0,1-.357-.357v-11.719a.358.358,0,0,1,.357-.357h.042a.358.358,0,0,1,.357.357v11.719a.358.358,0,0,1-.357.357" transform="translate(-424.963 -990.534)" fill="#fff"/>
    <path id="Path_939951" data-name="Path 939951" d="M499.25,1076.533h-.042a.358.358,0,0,1-.357-.357v-11.719a.358.358,0,0,1,.357-.357h.042a.358.358,0,0,1,.357.357v11.719a.358.358,0,0,1-.357.357" transform="translate(-464.364 -990.534)" fill="#fff"/>
    <path id="Path_939952" data-name="Path 939952" d="M538.582,1076.533h-.042a.358.358,0,0,1-.357-.357v-11.719a.358.358,0,0,1,.357-.357h.042a.358.358,0,0,1,.357.357v11.719a.358.358,0,0,1-.357.357" transform="translate(-500.976 -990.534)" fill="#fff"/>
    <path id="Path_939953" data-name="Path 939953" d="M580.909,1076.533h-.042a.358.358,0,0,1-.357-.357v-11.719a.358.358,0,0,1,.357-.357h.042a.358.358,0,0,1,.357.357v11.719a.358.358,0,0,1-.357.357" transform="translate(-540.377 -990.534)" fill="#fff"/>
    <rect id="Rectangle_448368" data-name="Rectangle 448368" width="83.046" height="16.995" transform="translate(16.689 90.199)" fill="#5479f7"/>
    <path id="Path_939954" data-name="Path 939954" d="M700.038,1323.018h-45.4a2.783,2.783,0,0,0-3.034,2.432v9.6a2.783,2.783,0,0,0,3.034,2.432h45.4a2.783,2.783,0,0,0,3.034-2.432v-9.6a2.783,2.783,0,0,0-3.034-2.432" transform="translate(-606.557 -1231.55)" fill="#fff"/>
    <path id="Path_939955" data-name="Path 939955" d="M734.425,1407.281a1.508,1.508,0,1,1-1.508-1.508,1.508,1.508,0,0,1,1.508,1.508" transform="translate(-680.843 -1308.584)" fill="#e2eaff"/>
    <path id="Path_939956" data-name="Path 939956" d="M804.137,1407.281a1.508,1.508,0,1,1-1.508-1.508,1.508,1.508,0,0,1,1.508,1.508" transform="translate(-745.735 -1308.584)" fill="#e2eaff"/>
    <path id="Path_939957" data-name="Path 939957" d="M873.85,1407.281a1.508,1.508,0,1,1-1.508-1.508,1.508,1.508,0,0,1,1.508,1.508" transform="translate(-810.628 -1308.584)" fill="#e2eaff"/>
    <path id="Path_939958" data-name="Path 939958" d="M288.342,1352.67H288.3a.358.358,0,0,1-.357-.357v-11.718a.358.358,0,0,1,.357-.357h.042a.358.358,0,0,1,.357.357v11.718a.358.358,0,0,1-.357.357" transform="translate(-268.037 -1247.58)" fill="#fff"/>
    <path id="Path_939959" data-name="Path 939959" d="M330.669,1352.67h-.042a.358.358,0,0,1-.357-.357v-11.718a.358.358,0,0,1,.357-.357h.042a.358.358,0,0,1,.357.357v11.718a.358.358,0,0,1-.357.357" transform="translate(-307.438 -1247.58)" fill="#fff"/>
    <path id="Path_939960" data-name="Path 939960" d="M373,1352.67h-.042a.358.358,0,0,1-.357-.357v-11.718a.358.358,0,0,1,.357-.357H373a.358.358,0,0,1,.357.357v11.718a.358.358,0,0,1-.357.357" transform="translate(-346.838 -1247.58)" fill="#fff"/>
    <path id="Path_939961" data-name="Path 939961" d="M414.6,1352.67h-.042a.358.358,0,0,1-.357-.357v-11.718a.358.358,0,0,1,.357-.357h.042a.358.358,0,0,1,.357.357v11.718a.358.358,0,0,1-.357.357" transform="translate(-385.562 -1247.58)" fill="#fff"/>
    <path id="Path_939962" data-name="Path 939962" d="M456.923,1352.67h-.042a.358.358,0,0,1-.357-.357v-11.718a.358.358,0,0,1,.357-.357h.042a.358.358,0,0,1,.357.357v11.718a.358.358,0,0,1-.357.357" transform="translate(-424.963 -1247.58)" fill="#fff"/>
    <path id="Path_939963" data-name="Path 939963" d="M499.25,1352.67h-.042a.358.358,0,0,1-.357-.357v-11.718a.358.358,0,0,1,.357-.357h.042a.358.358,0,0,1,.357.357v11.718a.358.358,0,0,1-.357.357" transform="translate(-464.364 -1247.58)" fill="#fff"/>
    <path id="Path_939964" data-name="Path 939964" d="M538.582,1352.67h-.042a.358.358,0,0,1-.357-.357v-11.718a.358.358,0,0,1,.357-.357h.042a.358.358,0,0,1,.357.357v11.718a.358.358,0,0,1-.357.357" transform="translate(-500.976 -1247.58)" fill="#fff"/>
    <path id="Path_939965" data-name="Path 939965" d="M580.909,1352.67h-.042a.358.358,0,0,1-.357-.357v-11.718a.358.358,0,0,1,.357-.357h.042a.358.358,0,0,1,.357.357v11.718a.358.358,0,0,1-.357.357" transform="translate(-540.377 -1247.58)" fill="#fff"/>
    <rect id="Rectangle_448369" data-name="Rectangle 448369" width="83.046" height="16.995" transform="translate(16.689 109.523)" fill="#5479f7"/>
    <path id="Path_939966" data-name="Path 939966" d="M700.038,1602.517h-45.4a2.783,2.783,0,0,0-3.034,2.432v9.6a2.783,2.783,0,0,0,3.034,2.432h45.4a2.783,2.783,0,0,0,3.034-2.432v-9.6a2.783,2.783,0,0,0-3.034-2.432" transform="translate(-606.557 -1491.726)" fill="#fff"/>
    <path id="Path_939967" data-name="Path 939967" d="M734.425,1686.781a1.508,1.508,0,1,1-1.508-1.508,1.508,1.508,0,0,1,1.508,1.508" transform="translate(-680.843 -1568.761)" fill="#e2eaff"/>
    <path id="Path_939968" data-name="Path 939968" d="M804.137,1686.781a1.508,1.508,0,1,1-1.508-1.508,1.508,1.508,0,0,1,1.508,1.508" transform="translate(-745.735 -1568.761)" fill="#e2eaff"/>
    <path id="Path_939969" data-name="Path 939969" d="M873.85,1686.781a1.508,1.508,0,1,1-1.508-1.508,1.508,1.508,0,0,1,1.508,1.508" transform="translate(-810.628 -1568.761)" fill="#e2eaff"/>
    <path id="Path_939970" data-name="Path 939970" d="M288.342,1632.169H288.3a.358.358,0,0,1-.357-.357v-11.719a.358.358,0,0,1,.357-.357h.042a.358.358,0,0,1,.357.357v11.719a.358.358,0,0,1-.357.357" transform="translate(-268.037 -1507.756)" fill="#fff"/>
    <path id="Path_939971" data-name="Path 939971" d="M330.669,1632.169h-.042a.358.358,0,0,1-.357-.357v-11.719a.358.358,0,0,1,.357-.357h.042a.358.358,0,0,1,.357.357v11.719a.358.358,0,0,1-.357.357" transform="translate(-307.438 -1507.756)" fill="#fff"/>
    <path id="Path_939972" data-name="Path 939972" d="M373,1632.169h-.042a.358.358,0,0,1-.357-.357v-11.719a.358.358,0,0,1,.357-.357H373a.358.358,0,0,1,.357.357v11.719a.358.358,0,0,1-.357.357" transform="translate(-346.838 -1507.756)" fill="#fff"/>
    <path id="Path_939973" data-name="Path 939973" d="M414.6,1632.169h-.042a.358.358,0,0,1-.357-.357v-11.719a.358.358,0,0,1,.357-.357h.042a.358.358,0,0,1,.357.357v11.719a.358.358,0,0,1-.357.357" transform="translate(-385.562 -1507.756)" fill="#fff"/>
    <path id="Path_939974" data-name="Path 939974" d="M456.923,1632.169h-.042a.358.358,0,0,1-.357-.357v-11.719a.358.358,0,0,1,.357-.357h.042a.358.358,0,0,1,.357.357v11.719a.358.358,0,0,1-.357.357" transform="translate(-424.963 -1507.756)" fill="#fff"/>
    <path id="Path_939975" data-name="Path 939975" d="M499.25,1632.169h-.042a.358.358,0,0,1-.357-.357v-11.719a.358.358,0,0,1,.357-.357h.042a.358.358,0,0,1,.357.357v11.719a.358.358,0,0,1-.357.357" transform="translate(-464.364 -1507.756)" fill="#fff"/>
    <path id="Path_939976" data-name="Path 939976" d="M538.582,1632.169h-.042a.358.358,0,0,1-.357-.357v-11.719a.358.358,0,0,1,.357-.357h.042a.358.358,0,0,1,.357.357v11.719a.358.358,0,0,1-.357.357" transform="translate(-500.976 -1507.756)" fill="#fff"/>
    <path id="Path_939977" data-name="Path 939977" d="M580.909,1632.169h-.042a.358.358,0,0,1-.357-.357v-11.719a.358.358,0,0,1,.357-.357h.042a.358.358,0,0,1,.357.357v11.719a.358.358,0,0,1-.357.357" transform="translate(-540.377 -1507.756)" fill="#fff"/>
    <path id="Path_939978" data-name="Path 939978" d="M848.7,6.432s4.687,1.357,4.323-3.529c-.328-4.393-1.867-1.029-2.489-1.224-.671-.21-.117-1.563-.983-1.672s-1.506,1.132-2.358.916S844.641-.6,843,.346a3.122,3.122,0,0,0-1.441,2.413s-1.7.144-2.1,2.737,3.144,7.418,3.144,7.418Z" transform="translate(-781.396 0.001)"/>
    <path id="Path_939979" data-name="Path 939979" d="M806.183,153.8l-2.5,7.311a1.379,1.379,0,0,1-1.042.908l-1.113.216s2.894,6.284,7.771,5.231,3.8-5.231,3.8-5.231l-1.032-.083a1,1,0,0,1-.886-1.245l1.16-4.493s-4.726-3.81-6.163-2.614" transform="translate(-746.115 -142.95)" fill="#fff"/>
    <path id="Path_939980" data-name="Path 939980" d="M806.163,165.778c-4.268,0-6.8-5.379-6.825-5.438a.152.152,0,0,1,.109-.213l1.113-.216a1.23,1.23,0,0,0,.926-.807l2.5-7.311a.153.153,0,0,1,.047-.068c1.515-1.261,6.159,2.453,6.356,2.612a.153.153,0,0,1,.052.157l-1.16,4.493a.846.846,0,0,0,.751,1.055l1.032.083a.153.153,0,0,1,.135.114,4.594,4.594,0,0,1-.513,3.293,5.024,5.024,0,0,1-3.408,2.126,5.278,5.278,0,0,1-1.116.121m-6.461-5.39c.514,1,3.268,5.887,7.513,4.971a4.735,4.735,0,0,0,3.212-1.988,4.325,4.325,0,0,0,.5-2.952l-.918-.074a1.151,1.151,0,0,1-1.022-1.435l1.135-4.4c-1.334-1.061-4.747-3.406-5.861-2.579l-2.485,7.268a1.536,1.536,0,0,1-1.157,1.008Z" transform="translate(-744.062 -140.992)"/>
    <path id="Path_939981" data-name="Path 939981" d="M858.749,77.58a4.063,4.063,0,0,0,4.383,2.281c3.172-.517,3.253-4.553,2.969-8.841a3.745,3.745,0,0,1-1.832.355c-1.377-.042-4.238-.593-4.372-.909.516,1.212.712,2.457.068,3.234a1.871,1.871,0,0,1-1.571.6.988.988,0,0,0-1.6-.564c-1.2.78-.752,4.07,1.953,3.847" transform="translate(-796.977 -65.593)" fill="#fff"/>
    <path id="Path_939982" data-name="Path 939982" d="M860.285,78.02a4.254,4.254,0,0,1-3.718-2.337,2.361,2.361,0,0,1-2.487-1.642,2.174,2.174,0,0,1,.542-2.491,1.208,1.208,0,0,1,1.091-.213,1.32,1.32,0,0,1,.7.749,1.684,1.684,0,0,0,1.344-.533c.67-.809.323-2.122-.086-3.083h0a.152.152,0,0,1,.281-.119,14.474,14.474,0,0,0,4.236.816,3.622,3.622,0,0,0,1.761-.34.153.153,0,0,1,.219.127c.268,4.067.273,8.453-3.1,9a4.879,4.879,0,0,1-.782.065m-3.626-2.649a.153.153,0,0,1,.14.092,3.873,3.873,0,0,0,4.219,2.191c3.06-.5,3.1-4.591,2.856-8.462a4.048,4.048,0,0,1-1.7.279,17.414,17.414,0,0,1-4.07-.722,3.084,3.084,0,0,1-.112,2.992,2.036,2.036,0,0,1-1.686.653h0a.152.152,0,0,1-.146-.109,1.112,1.112,0,0,0-.551-.662.929.929,0,0,0-.818.182,1.9,1.9,0,0,0-.421,2.137,2.064,2.064,0,0,0,2.278,1.43h.013" transform="translate(-794.887 -63.537)"/>
    <path id="Path_939983" data-name="Path 939983" d="M868.835,133.785a.152.152,0,0,1-.144-.1,2.189,2.189,0,0,0-.257-.571.628.628,0,0,0-.439-.282.153.153,0,0,1,.021-.3.92.92,0,0,1,.666.408,2.451,2.451,0,0,1,.3.65.153.153,0,0,1-.144.2" transform="translate(-807.852 -123.363)"/>
    <path id="Path_939984" data-name="Path 939984" d="M772.9,708.15l14.79-1.854,1.413,3.378-11.455,5.579s-5.673-3.91-4.748-7.1" transform="translate(-719.372 -657.466)" fill="#5479f7"/>
    <path id="Path_939985" data-name="Path 939985" d="M719.613,588.671s36.909-26.216,48.077-23.155,8.649,17.452,2.077,23c-4.568,3.859-11.8,10.028-32.237,14.789s-17.917-14.638-17.917-14.638" transform="translate(-669.771 -526.188)" fill="#fff"/>
    <path id="Path_939986" data-name="Path 939986" d="M729.651,602.144a11.9,11.9,0,0,1-8.282-2.786c-4.893-4.428-3.883-12.693-3.872-12.776a.152.152,0,0,1,.063-.1c.038-.027,3.828-2.715,9.255-6.215a.153.153,0,0,1,.165.256c-5.064,3.267-8.7,5.824-9.188,6.168-.084.784-.763,8.334,3.783,12.447,3.038,2.749,7.734,3.407,13.956,1.958,20.306-4.73,27.409-10.731,32.109-14.7l.064-.054c4.083-3.45,6.4-10.165,5.268-15.287a9.557,9.557,0,0,0-7.287-7.454c-4.248-1.164-12.724,1.78-25.193,8.752a.153.153,0,1,1-.149-.266c12.541-7.012,21.095-9.966,25.423-8.78a9.847,9.847,0,0,1,7.5,7.682,15.886,15.886,0,0,1-.717,8.552,16.43,16.43,0,0,1-4.652,7.034l-.064.054c-4.723,3.99-11.86,10.02-32.237,14.767a26.4,26.4,0,0,1-5.949.756" transform="translate(-667.805 -524.118)"/>
    <path id="Path_939987" data-name="Path 939987" d="M1041.335,858.738a.152.152,0,0,1-.142-.1c-1.868-4.668-10.375-13.753-10.46-13.845a.152.152,0,0,1,.222-.209c.086.092,8.632,9.219,10.521,13.94a.152.152,0,0,1-.141.209" transform="translate(-959.434 -786.152)"/>
    <path id="Path_939988" data-name="Path 939988" d="M835.07,701.291a.152.152,0,0,1-.1-.269c5.654-4.742,31.218-18.5,31.475-18.639a.152.152,0,0,1,.144.269c-.257.138-25.794,13.881-31.424,18.6a.152.152,0,0,1-.1.036" transform="translate(-777.195 -635.189)"/>
    <path id="Path_939989" data-name="Path 939989" d="M368.238,577.446a1.166,1.166,0,0,1-.9,1.9H335.445a13.065,13.065,0,0,1-8.9-3.5c-3.433-3.2-8.609-8.064-12.974-12.379a17.431,17.431,0,0,1-3.977-18.74l.113-.289a9,9,0,0,1,13.587-4.053c9.61,6.836,24.826,18.07,30.858,24.781,0,0,10.3,7.649,14.088,12.276" transform="translate(-287.074 -501.477)" fill="#fff"/>
    <path id="Path_939990" data-name="Path 939990" d="M365.262,577.436H333.37a13.177,13.177,0,0,1-9.006-3.542c-3.53-3.286-8.647-8.1-12.978-12.383a17.573,17.573,0,0,1-4.012-18.9l.113-.289a9.15,9.15,0,0,1,13.817-4.121c4.314,3.069,10.7,7.7,16.633,12.329a.152.152,0,0,1-.188.24c-5.926-4.627-12.31-9.254-16.622-12.321a8.845,8.845,0,0,0-13.357,3.985l-.113.288a17.268,17.268,0,0,0,3.942,18.576c4.328,4.279,9.442,9.092,12.971,12.376a12.873,12.873,0,0,0,8.8,3.46h31.892a1.014,1.014,0,0,0,.784-1.656c-3.729-4.56-13.958-12.174-14.061-12.251a.172.172,0,0,1-.022-.02,82.083,82.083,0,0,0-7.969-7.405.152.152,0,1,1,.2-.234,82.539,82.539,0,0,1,7.99,7.424c.412.307,10.409,7.776,14.1,12.293a1.319,1.319,0,0,1-1.02,2.154" transform="translate(-284.999 -499.41)"/>
    <path id="Path_939991" data-name="Path 939991" d="M455.89,809.915a.152.152,0,0,1-.077-.021,87.7,87.7,0,0,1-22.535-20.056,13.772,13.772,0,0,1-2.108-3.384.152.152,0,1,1,.284-.11,13.516,13.516,0,0,0,2.064,3.306,87.361,87.361,0,0,0,22.449,19.981.153.153,0,0,1-.077.284" transform="translate(-401.35 -731.888)"/>
    <path id="Path_939992" data-name="Path 939992" d="M763.453,928.915a.153.153,0,0,1-.115-.253,63.414,63.414,0,0,1,13.726-11.814.153.153,0,0,1,.164.257,63.1,63.1,0,0,0-13.66,11.758.152.152,0,0,1-.115.052" transform="translate(-710.529 -853.439)"/>
    <path id="Path_939993" data-name="Path 939993" d="M706.007,880.7a.152.152,0,0,1-.109-.259,98.593,98.593,0,0,1,13.572-11.635.152.152,0,1,1,.177.249,98.276,98.276,0,0,0-13.529,11.6.152.152,0,0,1-.109.046" transform="translate(-657.055 -808.717)"/>
    <path id="Path_939994" data-name="Path 939994" d="M552.78,276.205a8.512,8.512,0,0,0-6.062-3.411c-1.375-.127-3.1-.262-5.022-.36a4.4,4.4,0,0,1-.446,1,5.391,5.391,0,0,1-2.4,2.062,5.932,5.932,0,0,1-3.126.509,4.449,4.449,0,0,1-2.752-1.345,5.385,5.385,0,0,1-1.471-2.226,45.448,45.448,0,0,0-4.757.5,10.807,10.807,0,0,0-7.524,5.047c-3.03,4.944-8.277,13.735-8.558,20.808-.452,11.4,18.053,6.563,18.053,6.563l20.784-1.909,12.041-9.32s-3.748-11.149-8.756-17.916" transform="translate(-475.346 -253.597)" fill="#5479f7"/>
    <path id="Path_939995" data-name="Path 939995" d="M775.13,585.6a1.232,1.232,0,0,0,1.717,1.308,13.88,13.88,0,0,1,5.761-1.189l8.58.086s.67-11.058-11.46-9.722a16.351,16.351,0,0,0-4.6,9.517" transform="translate(-721.528 -536.153)" fill="#fff"/>
    <path id="Path_939996" data-name="Path 939996" d="M884.847,665.824l-.022,0a.152.152,0,0,1-.129-.173,3.026,3.026,0,0,0-.4-1.891,5.365,5.365,0,0,0-1.322-1.5,1.617,1.617,0,0,0-.363-.243.152.152,0,1,1,.122-.279,1.9,1.9,0,0,1,.434.286,5.664,5.664,0,0,1,1.395,1.587,3.332,3.332,0,0,1,.436,2.085.153.153,0,0,1-.151.13" transform="translate(-821.506 -615.974)"/>
    <path id="Path_939997" data-name="Path 939997" d="M927.118,655.191a.153.153,0,0,1-.151-.131,10.374,10.374,0,0,0-.57-2.381,4.525,4.525,0,0,0-1.386-1.934.152.152,0,1,1,.186-.242,4.827,4.827,0,0,1,1.484,2.063,10.64,10.64,0,0,1,.589,2.451.153.153,0,0,1-.13.172h-.022" transform="translate(-861.005 -605.501)"/>
    <path id="Path_939998" data-name="Path 939998" d="M963.135,644.882h-.018a.153.153,0,0,1-.133-.169,6.271,6.271,0,0,0-1.679-5.051.153.153,0,0,1,.208-.223,6.479,6.479,0,0,1,1.774,5.31.152.152,0,0,1-.151.134" transform="translate(-894.799 -595.192)"/>
    <path id="Path_939999" data-name="Path 939999" d="M876.86,711.983h-31.3a.922.922,0,0,1-.523-.153.9.9,0,0,1-.341-1.065c.369-.774,1.132-1.047,2.26-1.047h31.953l-.415,1.127a1.75,1.75,0,0,1-1.639,1.137" transform="translate(-786.249 -660.652)"/>
    <path id="Path_940000" data-name="Path 940000" d="M1028.215,520.133a1.529,1.529,0,0,0,1.42-.963l5.54-13.908a1.2,1.2,0,0,0-1.113-1.642h-19.234a2.736,2.736,0,0,0-2.579,1.823l-5.2,14.69Z" transform="translate(-937.426 -468.802)"/>
    <path id="Path_940001" data-name="Path 940001" d="M1231.86,577.576a1.079,1.079,0,1,0,1.079-1.079,1.079,1.079,0,0,0-1.079,1.079" transform="translate(-1146.695 -536.641)" fill="#5479f7"/>
    <path id="Path_940002" data-name="Path 940002" d="M628.292,575.018a.152.152,0,0,1,0-.3l13.992-.266a.153.153,0,0,1,.006.305l-13.992.265Z" transform="translate(-584.713 -534.732)"/>
    <path id="Path_940003" data-name="Path 940003" d="M695.879,492.635a.156.156,0,0,1-.044-.006.153.153,0,0,1-.1-.19,23.626,23.626,0,0,1,2.094-4.889c.188-.33.494-.767.959-.75a.152.152,0,0,1,.147.157.149.149,0,0,1-.157.147c-.236-.006-.448.182-.684.6a23.317,23.317,0,0,0-2.067,4.825.153.153,0,0,1-.146.109" transform="translate(-647.627 -453.144)"/>
    <path id="Path_940004" data-name="Path 940004" d="M1507.2,751.647a32.777,32.777,0,0,1-6.786-.712,1.22,1.22,0,0,1,.505-2.387,29.156,29.156,0,0,0,28.3-9.348,27.319,27.319,0,0,0,6.344-14.635,1.22,1.22,0,1,1,2.421.3,29.716,29.716,0,0,1-6.909,15.918,31.306,31.306,0,0,1-23.879,10.863" transform="translate(-1395.778 -673.476)" fill="#5479f7"/>
    <path id="Path_940005" data-name="Path 940005" d="M1486.454,1050.642l-5.029,2.991,2.994,5.027-3.4-.864-2.991-5.027,5.027-2.991Z" transform="translate(-1375.839 -977.201)" fill="#5479f7"/>
    <path id="Path_940006" data-name="Path 940006" d="M1256.546,85.8a1.256,1.256,0,0,1-.143-.008,1.22,1.22,0,0,1-1.07-1.353,31.617,31.617,0,0,1,2.163-8.23A29.2,29.2,0,0,1,1266.7,64a28.546,28.546,0,0,1,14.718-5.809,35.52,35.52,0,0,1,11.226.67,1.22,1.22,0,0,1-.529,2.382c-5.183-1.15-15.182-2.071-23.922,4.687-8.4,6.494-10.108,16.028-10.432,18.795a1.22,1.22,0,0,1-1.21,1.078" transform="translate(-1168.537 -53.999)" fill="#5479f7"/>
    <path id="Path_940007" data-name="Path 940007" d="M1707.732,19.594l5.073-2.916-2.919-5.071,3.391.915,2.916,5.071-5.071,2.916Z" transform="translate(-1589.667 -10.805)" fill="#5479f7"/>
    <path id="Path_940008" data-name="Path 940008" d="M13.762,715.884H.153A.152.152,0,0,1,0,715.731V661.876a.152.152,0,0,1,.153-.152H16.809a.152.152,0,1,1,0,.3H.3v53.55H13.762a.152.152,0,1,1,0,.3" transform="translate(0 -615.975)"/>
    <path id="Path_940009" data-name="Path 940009" d="M41.875,208.549a.153.153,0,0,1-.153-.153V198.6l-39.069.078h0a.152.152,0,0,1,0-.3l39.222-.078h0a.152.152,0,0,1,.153.153V208.4a.152.152,0,0,1-.153.153" transform="translate(-2.328 -184.589)"/>
    <path id="Path_940010" data-name="Path 940010" d="M240.285,155.137h-7.932a.152.152,0,1,1,0-.3h7.932a.152.152,0,1,1,0,.3" transform="translate(-216.147 -144.128)"/>
    <path id="Path_940011" data-name="Path 940011" d="M15.968,155.137H2.653a.152.152,0,1,1,0-.3H15.968a.152.152,0,1,1,0,.3" transform="translate(-2.327 -144.128)"/>
    <path id="Path_940012" data-name="Path 940012" d="M132.164,112.444h0Z" transform="translate(-123.027 -104.67)" fill="#fff"/>
    <path id="Path_940013" data-name="Path 940013" d="M145.277,110.544H130.112a.152.152,0,1,1,0-.3h15.166a.152.152,0,1,1,0,.3" transform="translate(-120.974 -102.618)"/>
    <path id="Path_940014" data-name="Path 940014" d="M4.706,112.444h0Z" transform="translate(-4.381 -104.67)" fill="#fff"/>
    <path id="Path_940015" data-name="Path 940015" d="M7.6,110.544H2.653a.152.152,0,1,1,0-.3H7.6a.152.152,0,1,1,0,.3" transform="translate(-2.327 -102.618)"/>
    <path id="Path_940016" data-name="Path 940016" d="M7.622,37.961a1.458,1.458,0,1,0-1.458,1.456,1.457,1.457,0,0,0,1.458-1.456" transform="translate(-4.381 -33.981)" fill="#fff"/>
    <path id="Path_940017" data-name="Path 940017" d="M4.11,37.517a1.609,1.609,0,1,1,1.61-1.609,1.611,1.611,0,0,1-1.61,1.609m0-2.912a1.3,1.3,0,1,0,1.305,1.3A1.306,1.306,0,0,0,4.11,34.6" transform="translate(-2.327 -31.929)"/>
    <path id="Path_940018" data-name="Path 940018" d="M91.215,37.961a1.458,1.458,0,1,0-1.458,1.456,1.457,1.457,0,0,0,1.458-1.456" transform="translate(-82.194 -33.981)" fill="#fff"/>
    <path id="Path_940019" data-name="Path 940019" d="M87.7,37.517a1.609,1.609,0,1,1,1.61-1.609,1.611,1.611,0,0,1-1.61,1.609m0-2.912a1.3,1.3,0,1,0,1.305,1.3A1.306,1.306,0,0,0,87.7,34.6" transform="translate(-80.141 -31.929)"/>
    <path id="Path_940020" data-name="Path 940020" d="M174.807,37.961a1.458,1.458,0,1,0-1.458,1.456,1.457,1.457,0,0,0,1.458-1.456" transform="translate(-160.007 -33.981)" fill="#fff"/>
    <path id="Path_940021" data-name="Path 940021" d="M171.3,37.517a1.609,1.609,0,1,1,1.61-1.609,1.611,1.611,0,0,1-1.61,1.609m0-2.912a1.3,1.3,0,1,0,1.305,1.3,1.306,1.306,0,0,0-1.305-1.3" transform="translate(-157.955 -31.929)"/>
    <rect id="Rectangle_448370" data-name="Rectangle 448370" width="36.237" height="31.443" transform="translate(144.166 73.656)" fill="#fff"/>
    <path id="Path_940022" data-name="Path 940022" d="M2119.451,788.062h-36.237a.152.152,0,0,1-.152-.152V763.583a.152.152,0,0,1,.3,0v24.174H2119.3V756.619h-16.732a.152.152,0,0,1-.152-.151l-.162-22.791a.152.152,0,0,1,.151-.154h0a.152.152,0,0,1,.152.151l.161,22.64h16.733a.153.153,0,0,1,.153.152V787.91a.153.153,0,0,1-.153.152" transform="translate(-1939.047 -682.81)"/>
    <path id="Path_940023" data-name="Path 940023" d="M2258.5,1126.124a2.007,2.007,0,0,0,2.195,2.073,8.226,8.226,0,0,0,.865,2.3,2.016,2.016,0,1,0,2.568,3.1,2.038,2.038,0,0,0,.167-.179,8.236,8.236,0,0,0,2.236,1.013,2.052,2.052,0,0,0-.024.244,2.017,2.017,0,0,0,4.031.132,1.944,1.944,0,0,0-.008-.245,8.23,8.23,0,0,0,2.3-.865,2.061,2.061,0,0,0,.156.19,2.017,2.017,0,1,0,2.944-2.757,1.988,1.988,0,0,0-.179-.167,8.226,8.226,0,0,0,1.013-2.236,2.016,2.016,0,1,0,.131-4,8.229,8.229,0,0,0-.865-2.3,2.042,2.042,0,0,0,.19-.155,2.017,2.017,0,1,0-2.925-2.764,8.231,8.231,0,0,0-2.236-1.013,2.057,2.057,0,0,0,.024-.244,2.017,2.017,0,0,0-4.031-.132,2.041,2.041,0,0,0,.008.245,8.237,8.237,0,0,0-2.3.865,2.016,2.016,0,1,0-3.1,2.568,2.045,2.045,0,0,0,.179.167,8.224,8.224,0,0,0-1.013,2.236,2,2,0,0,0-2.325,1.925m6.549.214a3.745,3.745,0,1,1,3.621,3.865,3.745,3.745,0,0,1-3.621-3.865" transform="translate(-2102.358 -1039.001)" fill="#fff"/>
    <path id="Path_940024" data-name="Path 940024" d="M2266.473,1134.849h-.073a2.169,2.169,0,0,1-2.1-2.238c0-.042,0-.084.009-.129a8.379,8.379,0,0,1-2.04-.924c-.031.033-.061.063-.091.092a2.169,2.169,0,1,1-2.966-3.166c.03-.028.063-.057.1-.085a8.367,8.367,0,0,1-.789-2.1c-.045,0-.088,0-.129,0a2.169,2.169,0,0,1,.07-4.337h.072c.042,0,.084,0,.129.009a8.387,8.387,0,0,1,.924-2.04c-.033-.031-.063-.061-.092-.091a2.169,2.169,0,0,1,3.166-2.966c.029.031.057.063.085.1a8.386,8.386,0,0,1,2.1-.789c0-.045,0-.088,0-.129a2.169,2.169,0,0,1,4.336.141c0,.042,0,.084-.009.129a8.378,8.378,0,0,1,2.04.924c.031-.033.061-.063.091-.092a2.169,2.169,0,0,1,2.966,3.166c-.031.028-.063.057-.1.085a8.383,8.383,0,0,1,.789,2.1c.045,0,.088,0,.13,0a2.169,2.169,0,1,1-.142,4.335c-.042,0-.084,0-.129-.009a8.378,8.378,0,0,1-.924,2.04c.033.031.063.061.092.091a2.169,2.169,0,0,1-3.166,2.966c-.029-.03-.057-.063-.085-.1a8.381,8.381,0,0,1-2.1.789c0,.045,0,.088,0,.129a2.169,2.169,0,0,1-2.166,2.1m-4.229-3.644a.152.152,0,0,1,.083.025,8.072,8.072,0,0,0,2.195.994.153.153,0,0,1,.109.17,1.926,1.926,0,0,0-.023.226,1.864,1.864,0,1,0,3.719-.105.153.153,0,0,1,.12-.162,8.074,8.074,0,0,0,2.255-.849.152.152,0,0,1,.2.043,1.855,1.855,0,0,0,2.779.261,1.864,1.864,0,0,0,.086-2.635,1.926,1.926,0,0,0-.166-.155.152.152,0,0,1-.03-.2,8.073,8.073,0,0,0,.994-2.194.152.152,0,0,1,.17-.109,1.894,1.894,0,0,0,.226.023,1.864,1.864,0,1,0,.122-3.726,1.994,1.994,0,0,0-.227.008.152.152,0,0,1-.163-.12,8.082,8.082,0,0,0-.849-2.255.153.153,0,0,1,.043-.2,1.879,1.879,0,0,0,.176-.144,1.864,1.864,0,1,0-2.7-2.555.153.153,0,0,1-.2.03,8.07,8.07,0,0,0-2.195-.994.152.152,0,0,1-.109-.17,1.842,1.842,0,0,0,.022-.226,1.864,1.864,0,1,0-3.719.1.152.152,0,0,1-.12.163,8.077,8.077,0,0,0-2.255.849.153.153,0,0,1-.2-.043,1.854,1.854,0,0,0-2.779-.262,1.864,1.864,0,0,0-.086,2.635,1.907,1.907,0,0,0,.166.155.153.153,0,0,1,.03.2,8.072,8.072,0,0,0-.994,2.194.153.153,0,0,1-.17.109,1.863,1.863,0,1,0-.347,3.7,2.024,2.024,0,0,0,.227-.008.154.154,0,0,1,.163.12,8.065,8.065,0,0,0,.849,2.255.153.153,0,0,1-.043.2,1.788,1.788,0,0,0-.176.143,1.864,1.864,0,1,0,2.7,2.555.153.153,0,0,1,.117-.055m4.5-2.9-.129,0a3.894,3.894,0,1,1,.129,0m0-7.49a3.587,3.587,0,1,0,.119,0l-.119,0m-3.742,3.47h0Z" transform="translate(-2100.305 -1036.945)"/>
    <path id="Path_940025" data-name="Path 940025" d="M2127.992,1317.341a1.1,1.1,0,0,0,1.2,1.137,4.518,4.518,0,0,0,.474,1.26,1.152,1.152,0,0,0-.1.085,1.106,1.106,0,0,0,1.512,1.614,1.084,1.084,0,0,0,.092-.1,4.511,4.511,0,0,0,1.226.555,1.144,1.144,0,0,0-.013.134,1.106,1.106,0,1,0,2.206-.062,4.517,4.517,0,0,0,1.26-.474,1.079,1.079,0,0,0,.085.1,1.106,1.106,0,1,0,1.516-1.6,4.507,4.507,0,0,0,.555-1.226,1.105,1.105,0,1,0,.206-2.2,1.085,1.085,0,0,0-.134,0,4.518,4.518,0,0,0-.474-1.26,1.12,1.12,0,0,0,.1-.085,1.106,1.106,0,1,0-1.6-1.516,4.508,4.508,0,0,0-1.226-.555,1.094,1.094,0,0,0,.013-.134,1.106,1.106,0,1,0-2.206.062,4.514,4.514,0,0,0-1.26.474,1.133,1.133,0,0,0-.085-.1,1.106,1.106,0,0,0-1.614,1.512,1.154,1.154,0,0,0,.1.092,4.513,4.513,0,0,0-.555,1.226,1.122,1.122,0,0,0-.134-.013,1.106,1.106,0,0,0-1.141,1.069m3.591.117a2.054,2.054,0,1,1,1.985,2.119,2.053,2.053,0,0,1-1.985-2.119" transform="translate(-1980.871 -1221.185)" fill="#fff"/>
    <path id="Path_940026" data-name="Path 940026" d="M2131.435,1321.261h-.042a1.26,1.26,0,0,1-1.217-1.3c0-.006,0-.013,0-.019a4.649,4.649,0,0,1-1.035-.469l-.014.013a1.258,1.258,0,0,1-1.72-1.837l.014-.013a4.666,4.666,0,0,1-.4-1.063H2127a1.258,1.258,0,1,1,.082-2.515h.019a4.652,4.652,0,0,1,.469-1.035l-.013-.014a1.258,1.258,0,0,1,1.837-1.72l.013.014a4.659,4.659,0,0,1,1.063-.4c0-.006,0-.013,0-.019a1.248,1.248,0,0,1,.4-.877,1.23,1.23,0,0,1,.9-.339,1.258,1.258,0,0,1,1.217,1.3c0,.006,0,.013,0,.019a4.658,4.658,0,0,1,1.035.469l.014-.013a1.258,1.258,0,0,1,1.72,1.837l-.014.013a4.664,4.664,0,0,1,.4,1.063h.019a1.258,1.258,0,1,1-.082,2.515h-.019a4.663,4.663,0,0,1-.469,1.035l.013.014a1.258,1.258,0,0,1-1.837,1.72l-.013-.014a4.665,4.665,0,0,1-1.063.4c0,.006,0,.012,0,.019a1.26,1.26,0,0,1-1.257,1.217m-2.318-2.136a.152.152,0,0,1,.083.025,4.358,4.358,0,0,0,1.185.536.153.153,0,0,1,.109.17.987.987,0,0,0-.012.115.953.953,0,0,0,1.906.062.962.962,0,0,0,0-.116.152.152,0,0,1,.12-.162,4.356,4.356,0,0,0,1.217-.458.153.153,0,0,1,.2.043.978.978,0,0,0,.073.09.953.953,0,1,0,1.391-1.3.889.889,0,0,0-.085-.079.152.152,0,0,1-.03-.2,4.357,4.357,0,0,0,.537-1.184.153.153,0,0,1,.17-.109.953.953,0,1,0,.178-1.894,1.06,1.06,0,0,0-.115,0,.154.154,0,0,1-.163-.12,4.358,4.358,0,0,0-.458-1.217.153.153,0,0,1,.043-.2.953.953,0,1,0-1.214-1.465.972.972,0,0,0-.079.085.153.153,0,0,1-.2.03,4.361,4.361,0,0,0-1.185-.537.152.152,0,0,1-.109-.17.953.953,0,1,0-1.894-.178.912.912,0,0,0,0,.116.153.153,0,0,1-.12.163,4.36,4.36,0,0,0-1.217.458.153.153,0,0,1-.2-.043.953.953,0,1,0-1.465,1.214.981.981,0,0,0,.085.079.152.152,0,0,1,.03.2,4.362,4.362,0,0,0-.537,1.184.153.153,0,0,1-.17.109.968.968,0,0,0-.115-.012.958.958,0,0,0-.984.922.953.953,0,0,0,.922.984,1.07,1.07,0,0,0,.116,0,.151.151,0,0,1,.162.12,4.363,4.363,0,0,0,.458,1.217.153.153,0,0,1-.043.2.975.975,0,0,0-.09.073.953.953,0,1,0,1.3,1.391.978.978,0,0,0,.079-.085.152.152,0,0,1,.117-.054m2.468-1.454h-.074a2.194,2.194,0,1,1,.074,0m-1.9-2.268a1.9,1.9,0,1,0,1.962-1.838,1.9,1.9,0,0,0-1.962,1.838" transform="translate(-1978.818 -1219.124)"/>
    <path id="Path_940027" data-name="Path 940027" d="M2153.847,1701.389a2.035,2.035,0,1,0,2.035-2.035,2.035,2.035,0,0,0-2.035,2.035" transform="translate(-2004.94 -1581.868)" fill="#5479f7"/>
    <path id="Path_940028" data-name="Path 940028" d="M2067.929,1701.389a2.035,2.035,0,1,0,2.035-2.035,2.035,2.035,0,0,0-2.035,2.035" transform="translate(-1924.962 -1581.868)" fill="#5479f7"/>
    <path id="Path_940029" data-name="Path 940029" d="M1982.011,1701.389a2.035,2.035,0,1,0,2.035-2.035,2.035,2.035,0,0,0-2.035,2.035" transform="translate(-1844.984 -1581.868)" fill="#e2eaff"/>
    <path id="Path_940030" data-name="Path 940030" d="M2254.374,1561.109h-7.189a.152.152,0,1,1,0-.3h7.036v-12.161a.152.152,0,1,1,.3,0v12.313a.152.152,0,0,1-.152.153" transform="translate(-2091.683 -1441.435)"/>
    <path id="Path_940031" data-name="Path 940031" d="M1498,1726.259h-22.03a.152.152,0,1,1,0-.3H1498a.152.152,0,1,1,0,.3" transform="translate(-1373.786 -1606.629)"/>
    <path id="Path_940032" data-name="Path 940032" d="M1833.714,1726.259h-5.792a.152.152,0,1,1,0-.3h5.792a.152.152,0,1,1,0,.3" transform="translate(-1701.406 -1606.629)"/>
    <path id="Path_940033" data-name="Path 940033" d="M1639.821,1783.873h-6.179a.152.152,0,1,1,0-.3h6.179a.152.152,0,1,1,0,.3" transform="translate(-1520.557 -1660.26)"/>
    <path id="Path_940034" data-name="Path 940034" d="M1767.534,1783.873h-10.707a.152.152,0,1,1,0-.3h10.707a.152.152,0,1,1,0,.3" transform="translate(-1635.226 -1660.26)"/>
  </g>
</svg>
