<svg xmlns="http://www.w3.org/2000/svg" width="72.165" height="72.151" viewBox="0 0 72.165 72.151">
  <g id="server" transform="translate(-2 -2)">
    <path id="Path_939087" data-name="Path 939087" d="M10,28.253a6.013,6.013,0,0,0,6.013,6.013H56.9a6.013,6.013,0,1,0,0-12.025H54.482A12.018,12.018,0,1,0,32.86,14.773a9.013,9.013,0,0,0-16.847,4.461c0,1.058.866,2.068,1.2,3.006h-1.2A6.013,6.013,0,0,0,10,28.253Z" transform="translate(1.62 0.202)" fill="#57a4ff"/>
    <path id="Path_939088" data-name="Path 939088" d="M59.071,26.6a6.013,6.013,0,0,1-6.013,6.013H28.96a40.336,40.336,0,0,0,15.681-9.62A40.333,40.333,0,0,0,52.854,11.17a11.971,11.971,0,0,1-2.213,9.416h2.417A6.013,6.013,0,0,1,59.071,26.6Z" transform="translate(5.46 1.857)" fill="#006df0"/>
    <path id="Path_939089" data-name="Path 939089" d="M60.3,18.228a3.608,3.608,0,0,1,0,7.215H55a6.047,6.047,0,0,0-5.52-3.608H47.063A12,12,0,0,0,46.63,6.852,8.323,8.323,0,0,1,51.885,5a8.418,8.418,0,0,1,6.9,13.228Z" transform="translate(9.039 0.608)" fill="#009698"/>
    <path id="Path_939090" data-name="Path 939090" d="M43.24,29.025l-2.381.589,1.094,1.816.168.289-3.4,3.4-2.1-1.263-.589,2.381h-4.81l-.589-2.381-2.1,1.263-3.4-3.4.168-.289,1.094-1.816L24,29.025v-4.81l2.381-.589-1.263-2.1,3.4-3.4,2.1,1.263L31.215,17h4.81l.589,2.381,2.1-1.263,3.4,3.4-1.263,2.1,2.381.589Z" transform="translate(4.456 3.038)" fill="#c0ab91"/>
    <path id="Path_939091" data-name="Path 939091" d="M42.627,28.41,40.246,29l.373.613.89,1.491-3.4,3.4L36,33.244l-.589,2.381H30.6l-.589-2.381-2.1,1.263-.878-.878A20.424,20.424,0,0,0,37.817,26a19.017,19.017,0,0,0,2.826-5.965l.866.866-1.263,2.1,2.381.589Z" transform="translate(5.069 3.654)" fill="#a78966"/>
    <circle id="Ellipse_13551" data-name="Ellipse 13551" cx="3.608" cy="3.608" r="3.608" transform="translate(34.468 26.051)" fill="#ffde55"/>
    <path id="Path_939092" data-name="Path 939092" d="M17.43,20.418a6.013,6.013,0,0,0-6.013,6.013,5.666,5.666,0,0,0,.12,1.2H6.608a3.608,3.608,0,1,1,0-7.215H8.315a5.942,5.942,0,0,1-.505-2.405A6.013,6.013,0,0,1,13.823,12a5.907,5.907,0,0,1,4.329,1.864,8.949,8.949,0,0,0-.722,3.547c0,1.058.866,2.068,1.2,3.006Z" transform="translate(0.203 2.025)" fill="#c6c5ca"/>
    <g id="Group_1165421" data-name="Group 1165421" transform="translate(3.203 47.696)">
      <path id="Path_939093" data-name="Path 939093" d="M24.646,52v7.215c0,2-4.846,3.608-10.823,3.608S3,61.211,3,59.215V52c0,2,4.846,3.608,10.823,3.608S24.646,54,24.646,52Z" transform="translate(-3 -37.57)" fill="#ffde55"/>
      <path id="Path_939094" data-name="Path 939094" d="M24.646,46v7.215c0,2-4.846,3.608-10.823,3.608S3,55.211,3,53.215V46c0,2,4.846,3.608,10.823,3.608S24.646,48,24.646,46Z" transform="translate(-3 -38.785)" fill="#ffde55"/>
      <path id="Path_939095" data-name="Path 939095" d="M24.646,40v7.215c0,2-4.846,3.608-10.823,3.608S3,49.211,3,47.215V40c0,2,4.846,3.608,10.823,3.608S24.646,42,24.646,40Z" transform="translate(-3 -40)" fill="#ffde55"/>
    </g>
    <path id="Path_939096" data-name="Path 939096" d="M23.228,52v7.215c0,2-4.846,3.608-10.823,3.608-.83,0-1.635-.036-2.405-.1,4.822-.361,8.418-1.792,8.418-3.511V55.006C21.316,54.357,23.228,53.251,23.228,52Z" transform="translate(1.62 10.126)" fill="#ebbf00"/>
    <path id="Path_939097" data-name="Path 939097" d="M21.81,46v7.215c0,1.251-1.912,2.357-4.81,3.006V49.006C19.9,48.357,21.81,47.251,21.81,46Z" transform="translate(3.038 8.911)" fill="#ebbf00"/>
    <path id="Path_939098" data-name="Path 939098" d="M21.81,40v7.215c0,1.251-1.912,2.357-4.81,3.006V43.006C19.9,42.357,21.81,41.251,21.81,40Z" transform="translate(3.038 7.696)" fill="#ebbf00"/>
    <path id="Path_939099" data-name="Path 939099" d="M13.823,44.215C7.846,44.215,3,42.6,3,40.608S7.846,37,13.823,37c4.954,0,9.127,1.106,10.414,2.622a1.516,1.516,0,0,1,.409.986C24.646,42.6,19.8,44.215,13.823,44.215Z" transform="translate(0.203 7.088)" fill="#c6c5ca"/>
    <path id="Path_939100" data-name="Path 939100" d="M23.228,40.608c0,2-4.846,3.608-10.823,3.608-.83,0-1.635-.036-2.405-.1,4.822-.361,8.418-1.792,8.418-3.511a1.516,1.516,0,0,0-.409-.986c-1.07-1.263-4.137-2.237-7.985-2.525.77-.06,1.563-.1,2.381-.1,4.954,0,9.127,1.106,10.414,2.622a1.516,1.516,0,0,1,.409.986Z" transform="translate(1.62 7.088)" fill="#898890"/>
    <path id="Path_939101" data-name="Path 939101" d="M64.646,52v7.215c0,2-4.846,3.608-10.823,3.608S43,61.211,43,59.215V52c0,2,4.846,3.608,10.823,3.608S64.646,54,64.646,52Z" transform="translate(8.304 10.126)" fill="#ffde55"/>
    <path id="Path_939102" data-name="Path 939102" d="M64.646,46v7.215c0,2-4.846,3.608-10.823,3.608S43,55.211,43,53.215V46c0,2,4.846,3.608,10.823,3.608S64.646,48,64.646,46Z" transform="translate(8.304 8.911)" fill="#ffde55"/>
    <path id="Path_939103" data-name="Path 939103" d="M64.646,40v7.215c0,2-4.846,3.608-10.823,3.608S43,49.211,43,47.215V40c0,2,4.846,3.608,10.823,3.608S64.646,42,64.646,40Z" transform="translate(8.304 7.696)" fill="#ffde55"/>
    <path id="Path_939104" data-name="Path 939104" d="M63.228,52v7.215c0,2-4.846,3.608-10.823,3.608-.83,0-1.635-.036-2.405-.1,4.822-.361,8.418-1.792,8.418-3.511V55.006C61.316,54.357,63.228,53.251,63.228,52Z" transform="translate(9.721 10.126)" fill="#ebbf00"/>
    <path id="Path_939105" data-name="Path 939105" d="M61.81,46v7.215c0,1.251-1.912,2.357-4.81,3.006V49.006C59.9,48.357,61.81,47.251,61.81,46Z" transform="translate(11.139 8.911)" fill="#ebbf00"/>
    <path id="Path_939106" data-name="Path 939106" d="M61.81,40v7.215c0,1.251-1.912,2.357-4.81,3.006V43.006C59.9,42.357,61.81,41.251,61.81,40Z" transform="translate(11.139 7.696)" fill="#ebbf00"/>
    <path id="Path_939107" data-name="Path 939107" d="M53.823,44.215C47.846,44.215,43,42.6,43,40.608S47.846,37,53.823,37c4.954,0,9.127,1.106,10.414,2.622a1.516,1.516,0,0,1,.409.986C64.646,42.6,59.8,44.215,53.823,44.215Z" transform="translate(8.304 7.088)" fill="#c6c5ca"/>
    <path id="Path_939108" data-name="Path 939108" d="M63.228,40.608c0,2-4.846,3.608-10.823,3.608-.83,0-1.635-.036-2.405-.1,4.822-.361,8.418-1.792,8.418-3.511a1.516,1.516,0,0,0-.409-.986c-1.07-1.263-4.137-2.237-7.985-2.525.77-.06,1.563-.1,2.381-.1,4.954,0,9.127,1.106,10.414,2.622A1.516,1.516,0,0,1,63.228,40.608Z" transform="translate(9.721 7.088)" fill="#898890"/>
    <path id="Path_939109" data-name="Path 939109" d="M14.025,36C8.229,36,2,37.5,2,40.81V62.456c0,3.307,6.229,4.81,12.025,4.81s12.025-1.5,12.025-4.81V40.81C26.051,37.5,19.821,36,14.025,36Zm9.62,26.456c0,.613-3.307,2.405-9.62,2.405s-9.62-1.792-9.62-2.405V58.271a22.687,22.687,0,0,0,9.62,1.78,22.687,22.687,0,0,0,9.62-1.78Zm0-7.215c0,.613-3.307,2.405-9.62,2.405s-9.62-1.792-9.62-2.405V51.056a22.687,22.687,0,0,0,9.62,1.78,22.687,22.687,0,0,0,9.62-1.78Zm0-7.215c0,.613-3.307,2.405-9.62,2.405s-9.62-1.792-9.62-2.405V43.84a22.687,22.687,0,0,0,9.62,1.78,22.687,22.687,0,0,0,9.62-1.78Zm-9.62-4.81c-6.313,0-9.62-1.792-9.62-2.405s3.307-2.405,9.62-2.405,9.62,1.792,9.62,2.405S20.339,43.215,14.025,43.215Z" transform="translate(0 6.886)"/>
    <path id="Path_939110" data-name="Path 939110" d="M54.025,36C48.229,36,42,37.5,42,40.81V62.456c0,3.307,6.229,4.81,12.025,4.81s12.025-1.5,12.025-4.81V40.81C66.051,37.5,59.821,36,54.025,36Zm9.62,26.456c0,.613-3.307,2.405-9.62,2.405s-9.62-1.792-9.62-2.405V58.271a22.687,22.687,0,0,0,9.62,1.78,22.687,22.687,0,0,0,9.62-1.78Zm0-7.215c0,.613-3.307,2.405-9.62,2.405s-9.62-1.792-9.62-2.405V51.056a22.687,22.687,0,0,0,9.62,1.78,22.687,22.687,0,0,0,9.62-1.78Zm0-7.215c0,.613-3.307,2.405-9.62,2.405s-9.62-1.792-9.62-2.405V43.84a22.687,22.687,0,0,0,9.62,1.78,22.687,22.687,0,0,0,9.62-1.78Zm-9.62-4.81c-6.313,0-9.62-1.792-9.62-2.405s3.307-2.405,9.62-2.405,9.62,1.792,9.62,2.405S60.339,43.215,54.025,43.215Z" transform="translate(8.101 6.886)"/>
    <path id="Path_939111" data-name="Path 939111" d="M32.81,21a4.81,4.81,0,1,0,4.81,4.81A4.81,4.81,0,0,0,32.81,21Zm0,7.215a2.405,2.405,0,1,1,2.405-2.405A2.405,2.405,0,0,1,32.81,28.215Z" transform="translate(5.266 3.848)"/>
    <path id="Path_939112" data-name="Path 939112" d="M69.835,17.657a9.611,9.611,0,0,0-14-11.785,13.221,13.221,0,0,0-22.175,6.145,10.187,10.187,0,0,0-15.669,2.008A7.2,7.2,0,0,0,6.81,20.038a7.978,7.978,0,0,0,.1,1.2h-.1a4.81,4.81,0,1,0,0,9.62h4.028a7.215,7.215,0,0,0,6.794,4.81H28.78l3.343,3.343a1.217,1.217,0,0,0,1.467.18l.709-.433.2.806a1.2,1.2,0,0,0,1.166.914h4.81a1.2,1.2,0,0,0,1.166-.914l.2-.806.709.433a1.217,1.217,0,0,0,1.467-.18l3.343-3.343H58.519a7.215,7.215,0,0,0,7.215-7.215,7.983,7.983,0,0,0-.108-1.2h3.716a4.81,4.81,0,0,0,.493-9.6Zm-59.417,10.8H6.81a2.405,2.405,0,1,1,0-4.81H8.518a1.189,1.189,0,0,0,1.094-1.684,4.819,4.819,0,0,1,4.413-6.734,4.719,4.719,0,0,1,2.922,1.022,9.944,9.944,0,0,0-.517,3.187,4.217,4.217,0,0,0,.481,1.84A7.215,7.215,0,0,0,10.418,28.456Zm36.076,2.67-1.467.361a1.211,1.211,0,0,0-.818.709,1.225,1.225,0,0,0,.072,1.082l.782,1.3-2.068,2.068-1.3-.782a1.225,1.225,0,0,0-1.082-.072,1.211,1.211,0,0,0-.709.818l-.361,1.467H36.609l-.361-1.467a1.211,1.211,0,0,0-.709-.818,1.225,1.225,0,0,0-1.082.072l-1.3.782-2.068-2.068.782-1.3a1.225,1.225,0,0,0,.072-1.082,1.211,1.211,0,0,0-.818-.709l-1.467-.361V28.191l1.467-.361a1.211,1.211,0,0,0,.818-.709,1.225,1.225,0,0,0-.072-1.082l-.782-1.3,2.068-2.068,1.3.77a1.189,1.189,0,0,0,1.082.084,1.211,1.211,0,0,0,.709-.818l.361-1.467h2.934l.361,1.467a1.211,1.211,0,0,0,.709.818,1.189,1.189,0,0,0,1.082-.084l1.3-.77,2.068,2.068-.782,1.3a1.225,1.225,0,0,0-.072,1.082,1.211,1.211,0,0,0,.818.709l1.467.361Zm12.025,2.14H47.84l.144-.036a1.2,1.2,0,0,0,.914-1.166v-4.81a1.2,1.2,0,0,0-.914-1.166l-.806-.2.433-.709a1.2,1.2,0,0,0-.18-1.467l-3.4-3.4a1.217,1.217,0,0,0-1.467-.18l-.709.433-.2-.806a1.2,1.2,0,0,0-1.166-.914h-4.81a1.2,1.2,0,0,0-1.166.914l-.2.806-.709-.433a1.219,1.219,0,0,0-1.467.18l-3.4,3.4a1.2,1.2,0,0,0-.18,1.467l.433.709-.806.2a1.2,1.2,0,0,0-.914,1.166v4.81a1.2,1.2,0,0,0,.914,1.166l.144.036H17.633a4.81,4.81,0,1,1,0-9.62h1.2a1.219,1.219,0,0,0,.986-.505,1.245,1.245,0,0,0,.144-1.106,8.308,8.308,0,0,0-.565-1.191,3.689,3.689,0,0,1-.565-1.407,7.807,7.807,0,0,1,14.6-3.86A1.2,1.2,0,0,0,35.683,15,10.823,10.823,0,1,1,55.14,21.721a1.2,1.2,0,0,0,.962,1.924h2.417a4.81,4.81,0,1,1,0,9.62Zm10.823-8.418H64.76a7.215,7.215,0,0,0-6.241-3.608h-.253a12.978,12.978,0,0,0,1.455-6.013,13.2,13.2,0,0,0-2.332-7.491A7.215,7.215,0,0,1,66.84,18.15a1.2,1.2,0,0,0-.084,1.239,1.227,1.227,0,0,0,1.07.649h1.515a2.405,2.405,0,0,1,0,4.81Z" transform="translate(0 0)"/>
    <path id="Path_939113" data-name="Path 939113" d="M27.608,51.633a1.2,1.2,0,0,1-1.2,1.2H24V55.24h2.405a3.608,3.608,0,0,0,3.608-3.608V36H27.608Z" transform="translate(4.456 6.886)"/>
    <path id="Path_939114" data-name="Path 939114" d="M37.405,51.633V36H35V51.633a3.608,3.608,0,0,0,3.608,3.608h2.405V52.835H38.608A1.2,1.2,0,0,1,37.405,51.633Z" transform="translate(6.683 6.886)"/>
  </g>
</svg>
