<svg xmlns="http://www.w3.org/2000/svg" width="120" height="120" viewBox="0 0 120 120">
  <g id="Group_1165057" data-name="Group 1165057" transform="translate(-64 -6445)">
    <rect id="Rectangle_402033" data-name="Rectangle 402033" width="120" height="120" rx="8" transform="translate(64 6445)" fill="#6003fe"/>
    <g id="Rectangle_412110" data-name="Rectangle 412110" transform="translate(69 6450)" fill="none" stroke="#fff" stroke-width="1">
      <rect width="110" height="110" rx="6" stroke="none"/>
      <rect x="0.5" y="0.5" width="109" height="109" rx="5.5" fill="none"/>
    </g>
    <g id="Group_1155336" data-name="Group 1155336" transform="translate(-325 -2)">
      <circle id="Ellipse_13473" data-name="Ellipse 13473" cx="60" cy="60" r="60" transform="translate(389 6447)" fill="#6003fe"/>
      <g id="Ellipse_13474" data-name="Ellipse 13474" transform="translate(399 6457)" fill="none" stroke="#fff" stroke-width="1">
        <circle cx="50" cy="50" r="50" stroke="none"/>
        <circle cx="50" cy="50" r="49.5" fill="none"/>
      </g>
      <g id="Group_1165224" data-name="Group 1165224" transform="translate(410.192 6451.988)">
        <g id="Group_1165223" data-name="Group 1165223" transform="translate(5.823 24.543)">
          <path id="Path_938411" data-name="Path 938411" d="M35.947,42.524a13.946,13.946,0,0,1,27.821,1.967,13.237,13.237,0,0,1,0,26.473H20.547a9.6,9.6,0,0,1,0-19.19,9.629,9.629,0,0,1,6.79-11.527,9.7,9.7,0,0,1,8.61,2.276Z" transform="translate(-11.027 -29.713)" fill="#2a93fc" fill-rule="evenodd"/>
          <path id="Path_938412" data-name="Path 938412" d="M93.3,63.993a13.237,13.237,0,0,1,0,26.473H54.671a9.6,9.6,0,0,1,0-19.19c-1.494-9.6,9.5-11.581,13.027-6.12C69.606,47.647,92.231,48.635,93.3,63.993Z" transform="translate(-40.556 -49.215)" fill="#5caeff" fill-rule="evenodd"/>
          <path id="Path_938413" data-name="Path 938413" d="M179.171,188.155a5.807,5.807,0,0,1-.743,10.436v-4.646l-2.143-1.237-2.143,1.237v4.646a5.807,5.807,0,0,1-.742-10.436,175.515,175.515,0,0,0,0-23.264,5.807,5.807,0,0,1,.742-10.436V159.1l2.143,1.237,2.143-1.237v-4.646a5.807,5.807,0,0,1,.743,10.436A175.515,175.515,0,0,0,179.171,188.155Z" transform="translate(-149.011 -137.659)" fill="#e68207" fill-rule="evenodd"/>
          <path id="Path_938414" data-name="Path 938414" d="M216.48,188.156a5.807,5.807,0,0,1-.743,10.436v-4.646l-2.143-1.237V160.339l2.143-1.237v-4.646a5.807,5.807,0,0,1,.743,10.436A175.515,175.515,0,0,0,216.48,188.156Z" transform="translate(-186.32 -137.659)" fill="#fda02f" fill-rule="evenodd"/>
          <path id="Path_938415" data-name="Path 938415" d="M298.094,164.486V185.94h-3.5V164.486h-1.515l1.412-10.03H298.2l1.412,10.03Z" transform="translate(-255.101 -137.66)" fill="#cfcfff" fill-rule="evenodd"/>
          <path id="Path_938416" data-name="Path 938416" d="M319.075,164.486V185.94h-1.75V154.456h1.853l1.412,10.03Z" transform="translate(-276.082 -137.66)" fill="#e9e9ff" fill-rule="evenodd"/>
          <path id="Path_938417" data-name="Path 938417" d="M295.624,349.044h2.357a1.109,1.109,0,0,1,1.1.965,7.122,7.122,0,0,0,.911,2.647v11.988a2.338,2.338,0,0,1-2.333,2.334h-1.72a2.338,2.338,0,0,1-2.334-2.334V352.656a7.122,7.122,0,0,0,.911-2.647A1.109,1.109,0,0,1,295.624,349.044Z" transform="translate(-255.56 -306.047)" fill="#6a75ad" fill-rule="evenodd"/>
          <path id="Path_938418" data-name="Path 938418" d="M317.325,349.044H318.5a1.109,1.109,0,0,1,1.1.965,7.122,7.122,0,0,0,.911,2.647v11.988a2.338,2.338,0,0,1-2.333,2.334h-.86V349.044Z" transform="translate(-276.082 -306.047)" fill="#7986bf" fill-rule="evenodd"/>
        </g>
        <path id="Path_938419" data-name="Path 938419" d="M53.227,70.377h2.6a.808.808,0,1,0,0-1.616h-2.6a.808.808,0,1,0,0,1.616Zm12.616.392a.806.806,0,0,1-.8.808H60.994L58.666,73.9a.82.82,0,0,1-.571.237H53.227a.808.808,0,1,1,0-1.616h4.528l2.328-2.33a.823.823,0,0,1,.577-.236h4.381A.8.8,0,0,1,65.843,70.769Zm2.072,11.85H60.994l-2.328-2.328a.813.813,0,0,0-.571-.237H53.227a.808.808,0,1,0,0,1.616h4.528L60.083,84a.817.817,0,0,0,.577.237h7.254a.808.808,0,1,0,0-1.616Zm-12.084,1.2a.808.808,0,1,1,0,1.616h-2.6a.808.808,0,1,1,0-1.616Zm2.264-7.53a.812.812,0,0,1,.571.237l2.566,2.565a.81.81,0,0,1-1.148,1.143L57.755,77.9H53.227a.808.808,0,1,1,0-1.616Zm-33.712,0H19.521a.8.8,0,0,0-.571.237l-2.566,2.565a.808.808,0,0,0,.571,1.379.8.8,0,0,0,.571-.236l2.328-2.33h4.528a.808.808,0,1,0,0-1.616Zm2.264-5.912a.808.808,0,0,0,0-1.616H21.779a.808.808,0,1,0,0,1.616ZM24.383,83.819h-2.6a.808.808,0,1,0,0,1.616h2.6a.808.808,0,1,0,0-1.616Zm0-3.765a.808.808,0,1,1,0,1.616H19.855L17.527,84a.8.8,0,0,1-.571.237H9.7a.808.808,0,1,1,0-1.616h6.921l2.328-2.328a.8.8,0,0,1,.571-.237h4.862ZM17.527,70.2l2.328,2.33h6.792a.808.808,0,0,1,0,1.616H19.521a.808.808,0,0,1-.571-.237l-2.328-2.328H12.575a.808.808,0,0,1,0-1.616h4.381A.807.807,0,0,1,17.527,70.2Zm31.916,1.173a7.852,7.852,0,0,1-.9-2.752.3.3,0,0,0-.308-.265H45.883a.3.3,0,0,0-.3.265,8.007,8.007,0,0,1-.9,2.752V83.145A1.524,1.524,0,0,0,46.2,84.67h1.719a1.523,1.523,0,0,0,1.52-1.525V71.369ZM44.5,64.991V52.181H43.8a.793.793,0,0,1-.609-.278A.81.81,0,0,1,43,51.26l1.411-10.029a.81.81,0,0,1,.8-.7h3.707a.808.808,0,0,1,.8.7L51.123,51.26a.783.783,0,0,1-.186.643.813.813,0,0,1-.609.278h-.706V64.991h8.935a12.429,12.429,0,1,0,0-24.858.807.807,0,0,1-.8-.856,13.14,13.14,0,0,0-26.214-1.853.807.807,0,0,1-1.347.532,8.873,8.873,0,0,0-7.883-2.088,8.353,8.353,0,0,0-5.118,3.866,8.8,8.8,0,0,0-1.071,6.677.81.81,0,0,1-.148.691.8.8,0,0,1-.629.314,8.787,8.787,0,0,0,0,17.574H29.777c.039-4.279-.077-8.575-.346-12.745A6.615,6.615,0,0,1,30.65,40.593a.808.808,0,0,1,1.11.75v4.18l1.334.77,1.334-.77v-4.18a.808.808,0,0,1,1.11-.75,6.615,6.615,0,0,1,1.219,11.653c-.269,4.17-.385,8.466-.346,12.745H44.5ZM35.575,75.744a5,5,0,0,1,.468,8.375V80.832a.806.806,0,0,0-.4-.7L33.5,78.895a.812.812,0,0,0-.808,0l-2.142,1.238a.806.806,0,0,0-.4.7v3.287a5,5,0,0,1,.468-8.375.819.819,0,0,0,.4-.647,177.626,177.626,0,0,0,0-23.373.819.819,0,0,0-.4-.647,5,5,0,0,1-.468-8.376v3.287a.808.808,0,0,0,.4.7l2.142,1.237a.812.812,0,0,0,.808,0l2.142-1.237a.808.808,0,0,0,.4-.7V42.7a5,5,0,0,1-.468,8.376.818.818,0,0,0-.4.647,177.625,177.625,0,0,0,0,23.373A.82.82,0,0,0,35.575,75.744Zm9.736-25.179h-.59l1.187-8.414h2.3L49.4,50.565h-.584a.806.806,0,0,0-.808.808V66.736H46.12V51.373a.811.811,0,0,0-.808-.808ZM50.95,70.748a.762.762,0,0,1,.109.408V83.145a3.14,3.14,0,0,1-3.136,3.141H46.2a3.146,3.146,0,0,1-3.143-3.141V71.156a.825.825,0,0,1,.109-.408,6.248,6.248,0,0,0,.808-2.346,1.937,1.937,0,0,1,.526-1.079v-.716H36.429c.051,2.682.16,5.35.327,7.969a6.615,6.615,0,0,1-1.219,11.653.824.824,0,0,1-.757-.082.816.816,0,0,1-.353-.669V81.3l-1.334-.77-1.334.77v4.179a.808.808,0,0,1-1.11.751,6.615,6.615,0,0,1-1.219-11.653c.167-2.618.276-5.286.327-7.969H15.339a10.4,10.4,0,0,1-.975-20.753A10.546,10.546,0,0,1,15.808,38.9a10.006,10.006,0,0,1,6.132-4.6,10.491,10.491,0,0,1,8.184,1.554A14.753,14.753,0,0,1,59.39,38.542a14.045,14.045,0,0,1-.834,28.065H49.622v.716a1.888,1.888,0,0,1,.519,1.079,6.364,6.364,0,0,0,.808,2.346ZM42.169,29.378a.808.808,0,1,1-.3-1.589,11.719,11.719,0,0,1,9.108,1.884,10.846,10.846,0,0,1,4.406,7.409.805.805,0,0,1-.693.909.716.716,0,0,1-.109.008.8.8,0,0,1-.8-.7,9.268,9.268,0,0,0-3.752-6.319,10.135,10.135,0,0,0-7.87-1.6Z" fill-rule="evenodd"/>
      </g>
    </g>
  </g>
</svg>
