<svg xmlns="http://www.w3.org/2000/svg" width="100" height="100" viewBox="0 0 100 100">
  <g id="Group_1165598" data-name="Group 1165598" transform="translate(-637 -6992)">
    <g id="Group_1098742" data-name="Group 1098742" transform="translate(637.242 6992)">
      <rect id="Rectangle_400898" data-name="Rectangle 400898" width="100" height="100" rx="50" transform="translate(-0.242)" fill="#fff" opacity="0.859"/>
      <g id="Rectangle_400907" data-name="Rectangle 400907" transform="translate(-0.242)" fill="none" stroke="#00bdff" stroke-linecap="round" stroke-width="3" stroke-dasharray="0 7">
        <rect width="100" height="100" rx="50" stroke="none"/>
        <rect x="1.5" y="1.5" width="97" height="97" rx="48.5" fill="none"/>
      </g>
    </g>
    <g id="Group_1107006" data-name="Group 1107006" transform="translate(645.398 7000.157)">
      <rect id="Rectangle_400898-2" data-name="Rectangle 400898" width="84" height="84" rx="42" transform="translate(-0.399 -0.157)" fill="#6003fe" opacity="0.859"/>
      <rect id="Rectangle_400907-2" data-name="Rectangle 400907" width="84" height="84" rx="42" transform="translate(-0.398 -0.157)" fill="none"/>
    </g>
    <g id="Group_1165482" data-name="Group 1165482" transform="translate(656.553 7011.553)">
      <g id="Group_1165493" data-name="Group 1165493" transform="translate(1.95 1.95)">
        <g id="Group_1165482-2" data-name="Group 1165482" transform="translate(15.987 0)">
          <path id="Path_939452" data-name="Path 939452" d="M38.939,43.8a20.868,20.868,0,0,1-16.386-7.922A5.614,5.614,0,0,0,23.741,32.4h.95a2.853,2.853,0,0,0,1.463-5.3A11.226,11.226,0,0,0,28.386,23.2l.1-.3h-1.9l1.007-1.52a5.271,5.271,0,0,0,.332-5.3l-.389-.779a11.345,11.345,0,0,1-6.279,1.9H18.83A20.9,20.9,0,1,1,38.939,43.8Z" transform="translate(-18.83 -2)" fill="#69d6f4"/>
        </g>
        <g id="Group_1165483" data-name="Group 1165483" transform="translate(34.196 49.395)">
          <path id="Path_939453" data-name="Path 939453" d="M45.6,55.9v1.9a3.8,3.8,0,1,1-7.6,0V54.95a.953.953,0,0,1,.95-.95h5.7a.953.953,0,0,1,.95.95Z" transform="translate(-38 -54)" fill="#dfb28b"/>
        </g>
        <g id="Group_1165484" data-name="Group 1165484" transform="translate(36.096 41.796)">
          <ellipse id="Ellipse_13556" data-name="Ellipse 13556" cx="1.5" cy="2" rx="1.5" ry="2" transform="translate(0.401 -0.298)" fill="#ef7385"/>
        </g>
        <g id="Group_1165485" data-name="Group 1165485" transform="translate(0 38.946)">
          <path id="Path_939454" data-name="Path 939454" d="M2,54.4a11.2,11.2,0,0,1,8.245-10.8l2.2-.6.2.1a8.088,8.088,0,0,0,7.2,0l.2-.1,2.2.6A11.2,11.2,0,0,1,30.5,54.4a4.735,4.735,0,0,1-4.75,4.75H24.8V48.7a.953.953,0,0,0-.95-.95H8.649a.953.953,0,0,0-.95.95V59.148H6.75A4.735,4.735,0,0,1,2,54.4Z" transform="translate(-2 -43)" fill="#fcd770"/>
        </g>
        <g id="Group_1165486" data-name="Group 1165486" transform="translate(5.699 53.195)">
          <path id="Path_939455" data-name="Path 939455" d="M25.1,59.9v.95a.953.953,0,0,1-.95.95H8.95A.953.953,0,0,1,8,60.85V58H25.1Z" transform="translate(-8 -58)" fill="#aab2bd"/>
        </g>
        <g id="Group_1165487" data-name="Group 1165487" transform="translate(5.699 43.695)">
          <path id="Path_939456" data-name="Path 939456" d="M25.1,53.7v3.8H8V48.95A.953.953,0,0,1,8.95,48h15.2a.953.953,0,0,1,.95.95Z" transform="translate(-8 -48)" fill="#ccd1d9"/>
        </g>
        <g id="Group_1165488" data-name="Group 1165488" transform="translate(3.8 13.299)">
          <path id="Path_939457" data-name="Path 939457" d="M27.743,23.9A11.226,11.226,0,0,1,25.511,27.8a2.933,2.933,0,0,0-1.463-.4H23.1a3.8,3.8,0,0,0-3.8-3.8H12.649A4.176,4.176,0,0,0,9.8,27.4H8.85a2.848,2.848,0,0,0-2.194,1.026l-.275-.845A7.157,7.157,0,0,1,6,25.252,7.362,7.362,0,0,1,13.352,17.9h7.267A11.345,11.345,0,0,0,26.9,16l.389.779a5.271,5.271,0,0,1-.332,5.3L25.948,23.6h1.9Z" transform="translate(-6 -16)" fill="#656d78"/>
        </g>
        <g id="Group_1165489" data-name="Group 1165489" transform="translate(20.898 24.697)">
          <path id="Path_939458" data-name="Path 939458" d="M26.413,28.4a2.853,2.853,0,0,1-1.463,5.3H24V28h.95A2.933,2.933,0,0,1,26.413,28.4Z" transform="translate(-24 -28)" fill="#f0d0b4"/>
        </g>
        <g id="Group_1165490" data-name="Group 1165490" transform="translate(10.449 35.716)">
          <path id="Path_939459" data-name="Path 939459" d="M19.792,39.6l.807,3.23-.2.1a8.088,8.088,0,0,1-7.2,0l-.2-.1.807-3.23a5.613,5.613,0,0,0,2.042.38h1.9A5.613,5.613,0,0,0,19.792,39.6Z" transform="translate(-13 -39.6)" fill="#f0d0b4"/>
        </g>
        <g id="Group_1165491" data-name="Group 1165491" transform="translate(7.599 20.898)">
          <path id="Path_939460" data-name="Path 939460" d="M10,27.8A4.176,4.176,0,0,1,12.85,24H19.5a3.8,3.8,0,0,1,3.8,3.8v5.7a5.614,5.614,0,0,1-1.187,3.477,5.679,5.679,0,0,1-2.47,1.843,5.613,5.613,0,0,1-2.042.38H15.7a5.613,5.613,0,0,1-2.042-.38A5.7,5.7,0,0,1,10,33.5V27.8Z" transform="translate(-10 -24)" fill="#f0d0b4"/>
        </g>
        <g id="Group_1165492" data-name="Group 1165492" transform="translate(3.8 24.697)">
          <path id="Path_939461" data-name="Path 939461" d="M9.8,28v5.7H8.85a2.85,2.85,0,1,1,0-5.7Z" transform="translate(-6 -28)" fill="#f0d0b4"/>
        </g>
      </g>
      <g id="Group_1165494" data-name="Group 1165494" transform="translate(1 1)">
        <circle id="Ellipse_13557" data-name="Ellipse 13557" cx="1" cy="1" r="1" transform="translate(11.447 26.448)"/>
        <circle id="Ellipse_13558" data-name="Ellipse 13558" cx="1" cy="1" r="1" transform="translate(17.447 26.448)"/>
        <path id="Path_939462" data-name="Path 939462" d="M18.7,33.753a2.124,2.124,0,0,1-3.8,0l-.1-.2-1.7.85.1.2a4.024,4.024,0,0,0,7.2,0l.1-.2-1.7-.85Z" transform="translate(-1.606 -2.631)"/>
        <path id="Path_939463" data-name="Path 939463" d="M0,0H1.9V3.425H0Z" transform="matrix(0.832, -0.555, 0.555, 0.832, 12.514, 22.369)"/>
        <path id="Path_939464" data-name="Path 939464" d="M0,0H1.9V3.425H0Z" transform="matrix(0.832, -0.555, 0.555, 0.832, 16.313, 22.368)"/>
        <path id="Path_939465" data-name="Path 939465" d="M47.58,41.46l1.366-1.321a10.133,10.133,0,0,0-14.665,0l1.366,1.321a8.232,8.232,0,0,1,11.933,0Z" transform="translate(-2.667 -2.804)"/>
        <path id="Path_939466" data-name="Path 939466" d="M46.293,43.244a5.7,5.7,0,0,0-9.064,0l1.464,1.211a3.8,3.8,0,0,1,6.135,0Z" transform="translate(-2.815 -3.004)"/>
        <path id="Path_939467" data-name="Path 939467" d="M39,47.85A2.85,2.85,0,1,0,41.85,45,2.853,2.853,0,0,0,39,47.85Zm3.8,0a.95.95,0,1,1-.95-.95A.95.95,0,0,1,42.8,47.85Z" transform="translate(-2.904 -3.204)"/>
        <path id="Path_939468" data-name="Path 939468" d="M47.449,54.9H46.5A1.9,1.9,0,0,0,44.6,53H38.9A1.9,1.9,0,0,0,37,54.9v2.85a4.733,4.733,0,0,0,8.524,2.85h1.924a2.85,2.85,0,1,0,0-5.7ZM44.6,57.75a2.85,2.85,0,1,1-5.7,0V54.9h5.7Zm2.85.95H46.4a4.745,4.745,0,0,0,.1-.95V56.8h.95a.95.95,0,1,1,0,1.9Z" transform="translate(-2.804 -3.605)"/>
        <path id="Path_939469" data-name="Path 939469" d="M38.046,1a21.917,21.917,0,0,0-20.8,15.2H13.1A8.307,8.307,0,0,0,5.225,27.13l.136.407A3.765,3.765,0,0,0,4.8,29.5a3.8,3.8,0,0,0,3.8,3.8h.076a6.659,6.659,0,0,0,3.42,4.9l-.483,1.927-1.665.454A12.17,12.17,0,0,0,1,52.295a5.705,5.705,0,0,0,5.7,5.7,1.9,1.9,0,0,0,1.9,1.9H23.8a1.9,1.9,0,0,0,1.9-1.9,5.705,5.705,0,0,0,5.7-5.7A12.17,12.17,0,0,0,22.449,40.58l-1.664-.454L20.3,38.2a6.7,6.7,0,0,0,1.325-.952,21.8,21.8,0,0,0,9.468,6.32l.605-1.8a19.912,19.912,0,0,1-8.851-6.012,6.6,6.6,0,0,0,.874-2.456h7.313c.236.76.488,1.512.778,2.247l1.768-.7c-.2-.51-.385-1.029-.558-1.552H55.016a19.961,19.961,0,0,1-7,6.831l.952,1.643A21.85,21.85,0,0,0,38.046,1Zm8.518,20.9a35.742,35.742,0,0,0-.978-7.6H56.042a19.79,19.79,0,0,1,1.9,7.6Zm-19.091,0,.027-.041a6.215,6.215,0,0,0,1.048-3.46,6.281,6.281,0,0,0-.658-2.791L27.234,14.3h3.272a35.741,35.741,0,0,0-.978,7.6ZM25.7,29.5a1.9,1.9,0,0,1-1.9,1.9V27.6A1.9,1.9,0,0,1,25.7,29.5Zm6.779-15.2h11.14a33.442,33.442,0,0,1,1.048,7.6H31.429a33.392,33.392,0,0,1,1.047-7.6Zm.561-1.9a26.642,26.642,0,0,1,5.009-9.065A26.642,26.642,0,0,1,43.055,12.4Zm21.968,0H45.064a28.975,28.975,0,0,0-4.788-9.366A19.95,19.95,0,0,1,55.006,12.4Zm-19.2-9.357a28.977,28.977,0,0,0-4.78,9.357H21.071A20.051,20.051,0,0,1,35.808,3.042ZM20.02,14.3h6.34l-.239.16a10.333,10.333,0,0,1-5.747,1.74H19.247a19.438,19.438,0,0,1,.773-1.9ZM6.7,29.5a1.9,1.9,0,0,1,1.9-1.9v3.8A1.9,1.9,0,0,1,6.7,29.5Zm1.9,28.5v-1.9H23.8v1.9Zm0-3.8V46.6H23.8v7.6Zm13.35-11.782A10.266,10.266,0,0,1,29.5,52.295a3.8,3.8,0,0,1-3.8,3.8v-3.8h1.9v-1.9H25.7V46.6a1.9,1.9,0,0,0-1.9-1.9H8.6a1.9,1.9,0,0,0-1.9,1.9v3.8H4.8v1.9H6.7v3.8a3.8,3.8,0,0,1-3.8-3.8,10.266,10.266,0,0,1,7.547-9.882L12.31,41.9a8.926,8.926,0,0,0,7.775,0Zm-3.065-2.058a7.23,7.23,0,0,1-5.371,0l.375-1.5a6.615,6.615,0,0,0,1.36.142h1.9a6.615,6.615,0,0,0,1.36-.142ZM17.148,37.1h-1.9a4.755,4.755,0,0,1-4.75-4.75V26.8a3.216,3.216,0,0,1,2.2-3.053l-.6-1.8A5.1,5.1,0,0,0,8.734,25.7H8.6a3.762,3.762,0,0,0-1.677.407A6.338,6.338,0,0,1,13.1,18.1h7.268a12.22,12.22,0,0,0,5.883-1.5,4.366,4.366,0,0,1,.392,1.8,4.32,4.32,0,0,1-.729,2.406l-2,3h2.3a10.385,10.385,0,0,1-1.264,2.1,3.76,3.76,0,0,0-1.165-.2H21.9v6.649a4.755,4.755,0,0,1-4.75,4.75Zm9.921-5.7a3.723,3.723,0,0,0-.5-4.476A12.219,12.219,0,0,0,28.262,23.8h1.256a35.61,35.61,0,0,0,.989,7.6Zm4.349-7.6H44.665a33.57,33.57,0,0,1-1.05,7.6H32.468A33.472,33.472,0,0,1,31.418,23.8ZM45.57,31.4a35.682,35.682,0,0,0,.994-7.6h11.4a19.908,19.908,0,0,1-1.911,7.6Z" transform="translate(-1 -1)"/>
        <path id="Path_939470" data-name="Path 939470" d="M19.349,2.9V1A12.363,12.363,0,0,0,7,13.349H8.9A10.461,10.461,0,0,1,19.349,2.9Z" transform="translate(-1.301 -1)"/>
        <path id="Path_939471" data-name="Path 939471" d="M12.9,13.549A6.658,6.658,0,0,1,19.549,6.9V5A8.558,8.558,0,0,0,11,13.549Z" transform="translate(-1.501 -1.2)"/>
      </g>
    </g>
  </g>
</svg>
