<svg xmlns="http://www.w3.org/2000/svg" width="120" height="120" viewBox="0 0 120 120">
  <g id="Group_1164989" data-name="Group 1164989" transform="translate(-64 -6445)">
    <rect id="Rectangle_402033" data-name="Rectangle 402033" width="120" height="120" rx="8" transform="translate(64 6445)" fill="#6003fe"/>
    <g id="Rectangle_412110" data-name="Rectangle 412110" transform="translate(69 6450)" fill="none" stroke="#fff" stroke-width="1">
      <rect width="110" height="110" rx="6" stroke="none"/>
      <rect x="0.5" y="0.5" width="109" height="109" rx="5.5" fill="none"/>
    </g>
    <g id="Group_1155336" data-name="Group 1155336" transform="translate(-325 -2)">
      <path id="Path_927567" data-name="Path 927567" d="M60,0A60,60,0,1,1,0,60,60,60,0,0,1,60,0Z" transform="translate(389 6447)" fill="#6003fe"/>
      <g id="Ellipse_13474" data-name="Ellipse 13474" transform="translate(399 6457)" fill="none" stroke="#fff" stroke-width="1">
        <circle cx="50" cy="50" r="50" stroke="none"/>
        <circle cx="50" cy="50" r="49.5" fill="none"/>
      </g>
      <g id="Group_1165197" data-name="Group 1165197" transform="translate(417.107 6446.656)">
        <path id="Path_938312" data-name="Path 938312" d="M67.672,428.229H9.244A1.744,1.744,0,0,1,7.5,426.485v-2.741A1.744,1.744,0,0,1,9.244,422H67.672a1.744,1.744,0,0,1,1.744,1.744v2.741A1.744,1.744,0,0,1,67.672,428.229Z" transform="translate(-6.566 -340.976)" fill="#a9dbf5"/>
        <path id="Path_938313" data-name="Path 938313" d="M464.237,422H460.5a1.744,1.744,0,0,1,1.744,1.744v2.741a1.744,1.744,0,0,1-1.744,1.744h3.737a1.744,1.744,0,0,0,1.744-1.744v-2.741A1.744,1.744,0,0,0,464.237,422Z" transform="translate(-403.131 -340.976)" fill="#88c3e0"/>
        <path id="Path_938314" data-name="Path 938314" d="M92.078,159.373H43.493A2.492,2.492,0,0,1,41,156.883v-32.39A2.492,2.492,0,0,1,43.491,122H92.077a2.492,2.492,0,0,1,2.492,2.491v32.39A2.491,2.491,0,0,1,92.078,159.373Z" transform="translate(-35.892 -78.35)" fill="#4380a0"/>
        <path id="Path_938315" data-name="Path 938315" d="M427.229,156.881a2.492,2.492,0,0,1-2.492,2.492H421a2.492,2.492,0,0,0,2.492-2.492v-32.39A2.491,2.491,0,0,0,421,122h3.731a2.491,2.491,0,0,1,2.492,2.492Z" transform="translate(-368.552 -78.35)" fill="#3b7191"/>
        <path id="Path_938316" data-name="Path 938316" d="M117.095,181.9H71V152h46.094Z" transform="translate(-62.155 -104.613)" fill="#ffc808"/>
        <path id="Path_938317" data-name="Path 938317" d="M410.995,152h3.737v29.9h-3.737Z" transform="translate(-359.793 -104.613)" fill="#ffae08"/>
        <path id="Path_938318" data-name="Path 938318" d="M40.185,77.125H23.242A2.242,2.242,0,0,1,21,74.883V42.242A2.242,2.242,0,0,1,23.242,40H40.185a2.242,2.242,0,0,1,2.242,2.242v32.64A2.242,2.242,0,0,1,40.185,77.125Z" transform="translate(-18.384 -6.566)" fill="#bdf9ff"/>
        <path id="Path_938319" data-name="Path 938319" d="M148.737,40H145a2.242,2.242,0,0,1,2.242,2.242v32.64A2.242,2.242,0,0,1,145,77.125h3.737a2.242,2.242,0,0,0,2.242-2.242V42.242A2.242,2.242,0,0,0,148.737,40Z" transform="translate(-126.936 -6.566)" fill="#8cf2ff"/>
        <path id="Path_938320" data-name="Path 938320" d="M42.428,298.308v2.7a2.242,2.242,0,0,1-2.242,2.242H23.242A2.242,2.242,0,0,1,21,301.01v-2.7Z" transform="translate(-18.384 -232.694)" fill="#4380a0"/>
        <path id="Path_938321" data-name="Path 938321" d="M147.242,298.308v2.7A2.242,2.242,0,0,1,145,303.253h3.737a2.242,2.242,0,0,0,2.242-2.242v-2.7Z" transform="translate(-126.936 -232.694)" fill="#3b7191"/>
        <circle id="Ellipse_13491" data-name="Ellipse 13491" cx="7.724" cy="7.724" r="7.724" transform="translate(30.896 54.613)" fill="#7be492"/>
        <path id="Path_938322" data-name="Path 938322" d="M298.069,210a7.748,7.748,0,0,0-1.7.189,7.723,7.723,0,0,1,0,15.069,7.724,7.724,0,1,0,1.7-15.258Z" transform="translate(-259.449 -155.387)" fill="#45d987"/>
        <g id="Group_1165196" data-name="Group 1165196" transform="translate(0 32.5)">
          <path id="Path_938323" data-name="Path 938323" d="M61.107,80.09H59.235a3.4,3.4,0,0,0,.377-1.559V46.142a3.43,3.43,0,0,0-3.426-3.426H51.832a.934.934,0,0,0,0,1.869h4.353a1.559,1.559,0,0,1,1.557,1.557v32.39a1.559,1.559,0,0,1-1.557,1.557H7.6a1.559,1.559,0,0,1-1.557-1.557V71.494H7.912v5.793a.934.934,0,0,0,.934.934H54.94a.934.934,0,0,0,.934-.934v-29.9a.934.934,0,0,0-.934-.934H24.978V44.585h22.89a.934.934,0,0,0,0-1.869H24.978v-7.04A3.18,3.18,0,0,0,21.8,32.5H4.859a3.18,3.18,0,0,0-3.177,3.177V56.294a.934.934,0,0,0,1.869,0V35.677a1.31,1.31,0,0,1,1.308-1.308H21.8a1.31,1.31,0,0,1,1.308,1.308V64.642H3.551v-4.3a.934.934,0,0,0-1.869,0v7.973a3.182,3.182,0,0,0,2.493,3.1v7.114a3.4,3.4,0,0,0,.376,1.557H2.678A2.682,2.682,0,0,0,0,82.768v2.741a2.682,2.682,0,0,0,2.678,2.678H47.822a.934.934,0,1,0,0-1.869H2.678a.811.811,0,0,1-.81-.81V82.768a.811.811,0,0,1,.81-.81H61.107a.811.811,0,0,1,.81.81v2.741a.811.811,0,0,1-.81.81H51.855a.934.934,0,1,0,0,1.869h9.251a2.682,2.682,0,0,0,2.678-2.678V82.768A2.682,2.682,0,0,0,61.107,80.09ZM54,48.322V76.351H9.781V71.494H21.8a3.18,3.18,0,0,0,3.177-3.177V48.323Zm-50.454,20V66.51H23.11v1.806A1.31,1.31,0,0,1,21.8,69.625H4.859A1.31,1.31,0,0,1,3.551,68.317Z" transform="translate(0 -32.5)"/>
          <path id="Path_938324" data-name="Path 938324" d="M249.158,219.817a8.658,8.658,0,1,0-8.658-8.658A8.668,8.668,0,0,0,249.158,219.817Zm0-15.448a6.79,6.79,0,1,1-6.79,6.79A6.8,6.8,0,0,1,249.158,204.369Z" transform="translate(-210.538 -181.321)"/>
          <path id="Path_938325" data-name="Path 938325" d="M273.133,248.987l3.111,2.675a.934.934,0,0,0,1.263-.041l4.365-4.272a.934.934,0,0,0-1.307-1.335l-3.753,3.673-2.461-2.116a.934.934,0,0,0-1.218,1.417Z" transform="translate(-238.821 -219.181)"/>
          <path id="Path_938326" data-name="Path 938326" d="M73.338,156.946a.934.934,0,0,0,1.263-.041l4.365-4.272a.934.934,0,0,0-1.307-1.336l-3.753,3.673-2.461-2.116a.934.934,0,1,0-1.218,1.417Z" transform="translate(-61.193 -136.265)"/>
        </g>
      </g>
    </g>
  </g>
</svg>
