<svg xmlns="http://www.w3.org/2000/svg" width="67.5" height="75.331" viewBox="0 0 67.5 75.331">
  <g id="Layer_1" data-name="Layer 1" transform="translate(-28.5 -2.106)">
    <path id="Path_927079" data-name="Path 927079" d="M53.126,45.16a10.94,10.94,0,1,1-.184-21.879A10.94,10.94,0,0,1,63.879,12.524c.212,0,.422.008.631.019a14.354,14.354,0,0,1,18.623-.008c.15-.006.3-.012.452-.012A10.94,10.94,0,0,1,94.523,23.275h0a10.942,10.942,0,1,1,0,21.884Z" transform="translate(-11.577 -5.964)" fill="#f5f5f5"/>
    <path id="Path_927080" data-name="Path 927080" d="M73.73,45.174h-20.6a10.94,10.94,0,1,1-.184-21.879A10.94,10.94,0,0,1,63.88,12.537c.212,0,.422.008.632.019A14.3,14.3,0,0,1,73.73,9.125Z" transform="translate(-11.577 -5.978)" fill="#e6e6e6"/>
    <path id="Path_927081" data-name="Path 927081" d="M69.229,411.184v11.105a1.35,1.35,0,0,0,1.35,1.35H123.1a1.35,1.35,0,0,0,1.35-1.35V411.184a1.35,1.35,0,0,0-1.35-1.35H70.578A1.35,1.35,0,0,0,69.229,411.184Z" transform="translate(-34.687 -347.241)" fill="#80eaff"/>
    <path id="Path_927082" data-name="Path 927082" d="M318.086,440.572v4.707H301.313v-4.707Z" transform="translate(-232.341 -373.419)" fill="#ff5959"/>
    <path id="Path_927083" data-name="Path 927083" d="M69.229,288.937v11.106a1.35,1.35,0,0,0,1.35,1.35H123.1a1.35,1.35,0,0,0,1.35-1.35V288.937a1.35,1.35,0,0,0-1.35-1.35H70.578A1.35,1.35,0,0,0,69.229,288.937Z" transform="translate(-34.687 -243.13)" fill="#80eaff"/>
    <path id="Path_927084" data-name="Path 927084" d="M124.447,351.755v2.936a1.35,1.35,0,0,1-1.35,1.35H70.575a1.35,1.35,0,0,1-1.35-1.35v-2.936a1.35,1.35,0,0,0,1.35,1.35H123.1a1.35,1.35,0,0,0,1.349-1.35Z" transform="translate(-34.683 -297.778)" fill="#6cf"/>
    <path id="Path_927085" data-name="Path 927085" d="M124.447,474v2.936a1.35,1.35,0,0,1-1.35,1.35H70.575a1.35,1.35,0,0,1-1.35-1.35V474a1.35,1.35,0,0,0,1.35,1.349H123.1A1.35,1.35,0,0,0,124.447,474Z" transform="translate(-34.683 -401.888)" fill="#6cf"/>
    <path id="Path_927086" data-name="Path 927086" d="M318.086,318.325v4.708H301.313v-4.708Z" transform="translate(-232.341 -269.308)" fill="#ff5959"/>
    <path id="Path_927087" data-name="Path 927087" d="M179.489,384.97H147.282v-4.332h32.207Z" transform="translate(-101.161 -322.377)" fill="#f5f5f5"/>
    <path id="Path_927088" data-name="Path 927088" d="M151.6,384.97h-4.332v-4.332H151.6Z" transform="translate(-101.152 -322.377)" fill="#e6e6e6"/>
    <path id="Path_927089" data-name="Path 927089" d="M186.239,142.3l-3.408-3.408v14.124c0,2.67-1.793,3.993-3.572,3.973-1.779.021-3.572-1.3-3.572-3.973V138.888l-3.408,3.408c-3.864,3.864-8.858-1.13-4.994-4.994l8.373-8.373a5.136,5.136,0,0,1,7.2,0l8.373,8.373C195.1,141.166,190.1,146.16,186.239,142.3Z" transform="translate(-117.009 -106.753)" fill="#ffdf40"/>
    <path id="Path_927090" data-name="Path 927090" d="M179.162,156.992c-1.747-.028-3.475-1.35-3.475-3.971V138.9l-3.408,3.408c-3.864,3.864-8.858-1.13-4.994-4.994l8.373-8.373a5.015,5.015,0,0,1,3.5-1.472Z" transform="translate(-117.009 -106.762)" fill="#ffbe40"/>
    <path id="Path_927091" data-name="Path 927091" d="M85.745,66.114H68.972a1.038,1.038,0,0,0-1.038,1.038V71.86A1.038,1.038,0,0,0,68.972,72.9H85.745a1.038,1.038,0,0,0,1.038-1.038V67.153a1.038,1.038,0,0,0-1.038-1.038Zm-1.038,4.708H70.01V68.191h14.7ZM68.972,54.763H85.745a1.038,1.038,0,0,0,1.038-1.038V49.017a1.038,1.038,0,0,0-1.038-1.038H68.972a1.038,1.038,0,0,0-1.038,1.038v4.708a1.038,1.038,0,0,0,1.038,1.038Zm1.038-4.708h14.7v2.631H70.01Zm22.922.266H90.8V45.807a2.391,2.391,0,0,0-2.388-2.388H66.86V40.235h16.09a11.98,11.98,0,0,0,.977-23.921A11.98,11.98,0,0,0,72.009,5.521h-.091a15.393,15.393,0,0,0-19.34,0c-.094,0-.186,0-.276,0A11.98,11.98,0,0,0,40.381,16.331a11.979,11.979,0,0,0,1.168,23.9h16.09v3.185H35.892A2.391,2.391,0,0,0,33.5,45.807v4.514H31.567a2.945,2.945,0,0,0-3.067,2.8V65.439a2.945,2.945,0,0,0,3.067,2.8H33.5v6.812a2.391,2.391,0,0,0,2.388,2.388H88.414A2.391,2.391,0,0,0,90.8,75.048V68.236h2.13A2.945,2.945,0,0,0,96,65.439V53.119A2.946,2.946,0,0,0,92.932,50.322ZM59.075,30.433a1.038,1.038,0,0,0-1.132.225l-3.408,3.408c-1.495,1.5-3.049,1.279-3.927.4a2.322,2.322,0,0,1-.688-1.691A3.3,3.3,0,0,1,51.01,30.54l8.373-8.373A3.965,3.965,0,0,1,62.208,21h.084a3.965,3.965,0,0,1,2.824,1.17l8.373,8.373c1.495,1.495,1.279,3.049.4,3.927a2.316,2.316,0,0,1-1.691.688,3.3,3.3,0,0,1-2.236-1.089l-3.408-3.408a1.038,1.038,0,0,0-1.773.734V46.259a3.082,3.082,0,0,1-.809,2.255,2.372,2.372,0,0,1-1.683.679h-.054a2.391,2.391,0,0,1-1.713-.679,3.082,3.082,0,0,1-.809-2.255V31.393a1.038,1.038,0,0,0-.64-.959ZM41.549,38.158a9.9,9.9,0,1,1-.167-19.8A1.038,1.038,0,0,0,42.4,17.335,9.946,9.946,0,0,1,52.3,7.6c.176,0,.363.006.572.018a1.037,1.037,0,0,0,.734-.247,13.315,13.315,0,0,1,17.275-.008,1.041,1.041,0,0,0,.717.247c.136-.006.272-.011.409-.011a9.947,9.947,0,0,1,9.9,9.732,1.043,1.043,0,0,0,1.043,1.021,9.9,9.9,0,1,1,0,19.807H66.86V33.9L68.5,35.535c2.385,2.385,5.258,2.007,6.864.4a4.381,4.381,0,0,0,1.3-3.192,5.264,5.264,0,0,0-1.7-3.672L66.584,20.7a6.026,6.026,0,0,0-4.292-1.778h-.085A6.027,6.027,0,0,0,57.915,20.7l-8.373,8.374a5.261,5.261,0,0,0-1.7,3.672,4.381,4.381,0,0,0,1.3,3.192c1.606,1.606,4.479,1.984,6.864-.4L57.639,33.9v4.258Zm-5.968,7.65a.312.312,0,0,1,.312-.312H57.64v.762a5.053,5.053,0,0,0,1.426,3.732,4.433,4.433,0,0,0,3.142,1.279h.086a4.433,4.433,0,0,0,3.142-1.279,5.053,5.053,0,0,0,1.426-3.732V45.5H88.414a.312.312,0,0,1,.312.312V56.913a.312.312,0,0,1-.312.312H35.892a.312.312,0,0,1-.312-.312ZM47.159,61.555V59.3H77.29v2.255Zm-15.592,4.6c-.537,0-.99-.33-.99-.721V53.119c0-.391.453-.721.99-.721H33.5v4.514A2.391,2.391,0,0,0,35.892,59.3h9.191v2.255H35.892A2.391,2.391,0,0,0,33.5,63.945v2.217Zm57.158,8.889a.312.312,0,0,1-.312.312H35.892a.312.312,0,0,1-.312-.312V63.943a.312.312,0,0,1,.312-.312H88.414a.312.312,0,0,1,.312.312Zm5.2-9.61c0,.39-.453.721-.99.721H90.8V63.943a2.391,2.391,0,0,0-2.388-2.388H79.367V59.3h9.048A2.391,2.391,0,0,0,90.8,56.911V52.4h2.13c.537,0,.99.33.99.721ZM38.286,49.017a1.038,1.038,0,0,1,1.038-1.038h3.464a1.038,1.038,0,1,1,0,2.077H39.325A1.038,1.038,0,0,1,38.286,49.017Zm6.8,0a1.038,1.038,0,0,1,1.038-1.038h3.464a1.038,1.038,0,0,1,0,2.077H46.121a1.038,1.038,0,0,1-1.038-1.038Zm6.8,0a1.038,1.038,0,0,1,1.038-1.038h3.464a1.038,1.038,0,1,1,0,2.077H52.916A1.038,1.038,0,0,1,51.878,49.017ZM38.286,53.64A1.038,1.038,0,0,1,39.325,52.6h3.464a1.038,1.038,0,1,1,0,2.077H39.325A1.038,1.038,0,0,1,38.286,53.64Zm6.8,0A1.038,1.038,0,0,1,46.121,52.6h3.464a1.038,1.038,0,0,1,0,2.077H46.121A1.038,1.038,0,0,1,45.082,53.64Zm6.8,0A1.038,1.038,0,0,1,52.916,52.6h3.464a1.038,1.038,0,1,1,0,2.077H52.916A1.038,1.038,0,0,1,51.878,53.64ZM43.827,67.2a1.038,1.038,0,0,1-1.038,1.038H39.325a1.038,1.038,0,1,1,0-2.077h3.464A1.038,1.038,0,0,1,43.827,67.2Zm6.8,0a1.038,1.038,0,0,1-1.038,1.038H46.121a1.038,1.038,0,1,1,0-2.077h3.464A1.038,1.038,0,0,1,50.623,67.2Zm6.8,0a1.038,1.038,0,0,1-1.038,1.038H52.916a1.038,1.038,0,1,1,0-2.077h3.464A1.038,1.038,0,0,1,57.419,67.2ZM43.827,71.818a1.038,1.038,0,0,1-1.038,1.038H39.325a1.038,1.038,0,0,1,0-2.077h3.464A1.038,1.038,0,0,1,43.827,71.818Zm6.8,0a1.038,1.038,0,0,1-1.038,1.038H46.121a1.038,1.038,0,1,1,0-2.077h3.464a1.038,1.038,0,0,1,1.038,1.038Zm6.8,0a1.038,1.038,0,0,1-1.038,1.038H52.916a1.038,1.038,0,0,1,0-2.077h3.464a1.038,1.038,0,0,1,1.038,1.038Z"/>
  </g>
</svg>
