<svg xmlns="http://www.w3.org/2000/svg" width="100" height="100" viewBox="0 0 100 100">
  <g id="Group_1101086" data-name="Group 1101086" transform="translate(-269 -958)">
    <circle id="Ellipse_5614" data-name="Ellipse 5614" cx="50" cy="50" r="50" transform="translate(269 958)" fill="#fff"/>
    <g id="Group_1165363" data-name="Group 1165363" transform="translate(288.308 985.711)">
      <g id="Group_1165346" data-name="Group 1165346" transform="translate(0.899 0.899)">
        <path id="Path_938677" data-name="Path 938677" d="M7.5,206.593v3.657a.6.6,0,0,0,.6.6H33.374a.6.6,0,0,0,.545-.35l1.733-3.786h3.282l1.733,3.786a.6.6,0,0,0,.545.35H66.487a.6.6,0,0,0,.6-.6v-3.657Z" transform="translate(-7.5 -191.127)" fill="#fac600"/>
        <path id="Path_938678" data-name="Path 938678" d="M14.753,211.13v-3.537H7.5v3.537a.6.6,0,0,0,.6.6h7.253A.6.6,0,0,1,14.753,211.13Z" transform="translate(-7.5 -192.007)" fill="#e8b800"/>
        <g id="Group_1165334" data-name="Group 1165334">
          <path id="Path_938679" data-name="Path 938679" d="M67.086,82.379V78.192a.6.6,0,0,0-.6-.6H8.1a.6.6,0,0,0-.6.6v4.187a.6.6,0,0,0,.494.589,3,3,0,0,1,0,5.914.6.6,0,0,0-.494.589v3.707H67.086V89.472a.6.6,0,0,0-.494-.589,3,3,0,0,1,0-5.914A.6.6,0,0,0,67.086,82.379Z" transform="translate(-7.5 -77.593)" fill="#08b865"/>
        </g>
        <path id="Path_938680" data-name="Path 938680" d="M13.854,89.522a.36.36,0,0,1-.36-.36V81.609a.36.36,0,0,1,.36-.36h.9V78.192a.6.6,0,0,1,.6-.6H8.1a.6.6,0,0,0-.6.6v4.187a.6.6,0,0,0,.494.59,3,3,0,0,1,0,5.913.6.6,0,0,0-.494.59v3.707h7.253V89.522h-.9Z" transform="translate(-7.5 -77.593)" fill="#09a755"/>
        <g id="Group_1165345" data-name="Group 1165345" transform="translate(5.995 3.657)">
          <g id="Group_1165335" data-name="Group 1165335" transform="translate(20.621)">
            <path id="Path_938681" data-name="Path 938681" d="M233.985,116.366H229.86a.36.36,0,0,1-.36-.36v-7.553a.36.36,0,0,1,.36-.36h4.125a.36.36,0,0,1,.36.36v7.553A.36.36,0,0,1,233.985,116.366Z" transform="translate(-229.5 -108.093)" fill="#596c76"/>
          </g>
          <g id="Group_1165336" data-name="Group 1165336" transform="translate(20.621)">
            <path id="Path_938682" data-name="Path 938682" d="M231.6,116.006v-7.553a.36.36,0,0,1,.36-.36h-2.1a.36.36,0,0,0-.36.36v7.553a.36.36,0,0,0,.36.36h2.1A.36.36,0,0,1,231.6,116.006Z" transform="translate(-229.5 -108.093)" fill="#465a61"/>
          </g>
          <g id="Group_1165337" data-name="Group 1165337">
            <path id="Path_938683" data-name="Path 938683" d="M73.446,116.366H57.86a.36.36,0,0,1-.36-.36v-7.553a.36.36,0,0,1,.36-.36H73.446a.36.36,0,0,1,.36.36v7.553A.36.36,0,0,1,73.446,116.366Z" transform="translate(-57.5 -108.093)" fill="#596c76"/>
          </g>
          <g id="Group_1165338" data-name="Group 1165338">
            <path id="Path_938684" data-name="Path 938684" d="M61.157,116.006v-7.553a.36.36,0,0,1,.36-.36H57.86a.36.36,0,0,0-.36.36v7.553a.36.36,0,0,0,.36.36h3.657A.36.36,0,0,1,61.157,116.006Z" transform="translate(-57.5 -108.093)" fill="#465a61"/>
          </g>
          <g id="Group_1165339" data-name="Group 1165339" transform="translate(27.999)">
            <path id="Path_938685" data-name="Path 938685" d="M295.516,116.366h-4.125a.36.36,0,0,1-.36-.36v-7.553a.36.36,0,0,1,.36-.36h4.125a.36.36,0,0,1,.36.36v7.553A.36.36,0,0,1,295.516,116.366Z" transform="translate(-291.031 -108.093)" fill="#596c76"/>
          </g>
          <g id="Group_1165340" data-name="Group 1165340" transform="translate(27.999)">
            <path id="Path_938686" data-name="Path 938686" d="M293.129,116.006v-7.553a.36.36,0,0,1,.36-.36h-2.1a.36.36,0,0,0-.36.36v7.553a.36.36,0,0,0,.36.36h2.1A.36.36,0,0,1,293.129,116.006Z" transform="translate(-291.031 -108.093)" fill="#465a61"/>
          </g>
          <g id="Group_1165341" data-name="Group 1165341" transform="translate(35.375)">
            <path id="Path_938687" data-name="Path 938687" d="M357.046,116.366h-4.125a.36.36,0,0,1-.36-.36v-7.553a.36.36,0,0,1,.36-.36h4.125a.36.36,0,0,1,.36.36v7.553A.36.36,0,0,1,357.046,116.366Z" transform="translate(-352.561 -108.093)" fill="#596c76"/>
          </g>
          <g id="Group_1165342" data-name="Group 1165342" transform="translate(35.375)">
            <path id="Path_938688" data-name="Path 938688" d="M354.659,116.006v-7.553a.36.36,0,0,1,.36-.36h-2.1a.36.36,0,0,0-.36.36v7.553a.36.36,0,0,0,.36.36h2.1A.36.36,0,0,1,354.659,116.006Z" transform="translate(-352.561 -108.093)" fill="#465a61"/>
          </g>
          <g id="Group_1165343" data-name="Group 1165343" transform="translate(42.753)">
            <path id="Path_938689" data-name="Path 938689" d="M418.577,116.366h-4.125a.36.36,0,0,1-.36-.36v-7.553a.36.36,0,0,1,.36-.36h4.125a.36.36,0,0,1,.36.36v7.553A.36.36,0,0,1,418.577,116.366Z" transform="translate(-414.092 -108.093)" fill="#596c76"/>
          </g>
          <g id="Group_1165344" data-name="Group 1165344" transform="translate(42.753)">
            <path id="Path_938690" data-name="Path 938690" d="M416.19,116.006v-7.553a.36.36,0,0,1,.36-.36h-2.1a.36.36,0,0,0-.36.36v7.553a.36.36,0,0,0,.36.36h2.1A.36.36,0,0,1,416.19,116.006Z" transform="translate(-414.092 -108.093)" fill="#465a61"/>
          </g>
        </g>
      </g>
      <g id="Group_1165361" data-name="Group 1165361" transform="translate(0.899 23.956)">
        <g id="Group_1165360" data-name="Group 1165360">
          <g id="Group_1165347" data-name="Group 1165347" transform="translate(0 15.586)">
            <path id="Path_938691" data-name="Path 938691" d="M7.5,403.444a.6.6,0,0,0,.6.6H33.374a.6.6,0,0,0,.545-.35l1.733-3.786H7.5Z" transform="translate(-7.5 -399.907)" fill="#fac600"/>
            <path id="Path_938692" data-name="Path 938692" d="M271.422,403.693a.6.6,0,0,0,.545.35h25.274a.6.6,0,0,0,.6-.6v-3.537H269.689Z" transform="translate(-238.255 -399.907)" fill="#fac600"/>
          </g>
          <path id="Path_938693" data-name="Path 938693" d="M14.753,403.444v-3.537H7.5v3.537a.6.6,0,0,0,.6.6h7.253A.6.6,0,0,1,14.753,403.444Z" transform="translate(-7.5 -384.321)" fill="#e8b800"/>
          <g id="Group_1165348" data-name="Group 1165348">
            <path id="Path_938694" data-name="Path 938694" d="M67.086,274.693v-4.187a.6.6,0,0,0-.6-.6H8.1a.6.6,0,0,0-.6.6v4.187a.6.6,0,0,0,.494.589,3,3,0,0,1,0,5.914.6.6,0,0,0-.494.589v3.707H67.086v-3.707a.6.6,0,0,0-.494-.589,3,3,0,0,1,0-5.914A.6.6,0,0,0,67.086,274.693Z" transform="translate(-7.5 -269.907)" fill="#08b865"/>
          </g>
          <path id="Path_938695" data-name="Path 938695" d="M13.854,281.836a.36.36,0,0,1-.36-.36v-7.553a.36.36,0,0,1,.36-.36h.9v-3.057a.6.6,0,0,1,.6-.6H8.1a.6.6,0,0,0-.6.6v4.187a.6.6,0,0,0,.494.589,3,3,0,0,1,0,5.914.6.6,0,0,0-.494.59v3.707h7.253v-3.657h-.9Z" transform="translate(-7.5 -269.907)" fill="#09a755"/>
          <g id="Group_1165359" data-name="Group 1165359" transform="translate(5.995 3.657)">
            <g id="Group_1165349" data-name="Group 1165349" transform="translate(20.621)">
              <path id="Path_938696" data-name="Path 938696" d="M233.985,308.68H229.86a.36.36,0,0,1-.36-.36v-7.553a.36.36,0,0,1,.36-.36h4.125a.36.36,0,0,1,.36.36v7.553A.36.36,0,0,1,233.985,308.68Z" transform="translate(-229.5 -300.407)" fill="#596c76"/>
            </g>
            <g id="Group_1165350" data-name="Group 1165350">
              <path id="Path_938697" data-name="Path 938697" d="M73.446,308.68H57.86a.36.36,0,0,1-.36-.36v-7.553a.36.36,0,0,1,.36-.36H73.446a.36.36,0,0,1,.36.36v7.553A.36.36,0,0,1,73.446,308.68Z" transform="translate(-57.5 -300.407)" fill="#596c76"/>
            </g>
            <g id="Group_1165351" data-name="Group 1165351">
              <path id="Path_938698" data-name="Path 938698" d="M61.157,308.32v-7.553a.36.36,0,0,1,.36-.36H57.86a.36.36,0,0,0-.36.36v7.553a.36.36,0,0,0,.36.36h3.657A.36.36,0,0,1,61.157,308.32Z" transform="translate(-57.5 -300.407)" fill="#465a61"/>
            </g>
            <g id="Group_1165352" data-name="Group 1165352" transform="translate(27.999)">
              <path id="Path_938699" data-name="Path 938699" d="M295.516,308.68h-4.125a.36.36,0,0,1-.36-.36v-7.553a.36.36,0,0,1,.36-.36h4.125a.36.36,0,0,1,.36.36v7.553A.36.36,0,0,1,295.516,308.68Z" transform="translate(-291.031 -300.407)" fill="#596c76"/>
            </g>
            <g id="Group_1165353" data-name="Group 1165353" transform="translate(35.375)">
              <path id="Path_938700" data-name="Path 938700" d="M357.046,308.68h-4.125a.36.36,0,0,1-.36-.36v-7.553a.36.36,0,0,1,.36-.36h4.125a.36.36,0,0,1,.36.36v7.553A.36.36,0,0,1,357.046,308.68Z" transform="translate(-352.561 -300.407)" fill="#596c76"/>
            </g>
            <g id="Group_1165354" data-name="Group 1165354" transform="translate(42.753)">
              <path id="Path_938701" data-name="Path 938701" d="M418.577,308.68h-4.125a.36.36,0,0,1-.36-.36v-7.553a.36.36,0,0,1,.36-.36h4.125a.36.36,0,0,1,.36.36v7.553A.36.36,0,0,1,418.577,308.68Z" transform="translate(-414.092 -300.407)" fill="#596c76"/>
            </g>
            <g id="Group_1165355" data-name="Group 1165355" transform="translate(20.621)">
              <path id="Path_938702" data-name="Path 938702" d="M231.6,308.32v-7.553a.36.36,0,0,1,.36-.36h-2.1a.36.36,0,0,0-.36.36v7.553a.36.36,0,0,0,.36.36h2.1A.36.36,0,0,1,231.6,308.32Z" transform="translate(-229.5 -300.407)" fill="#465a61"/>
            </g>
            <g id="Group_1165356" data-name="Group 1165356" transform="translate(27.999)">
              <path id="Path_938703" data-name="Path 938703" d="M293.129,308.32v-7.553a.36.36,0,0,1,.36-.36h-2.1a.36.36,0,0,0-.36.36v7.553a.36.36,0,0,0,.36.36h2.1A.36.36,0,0,1,293.129,308.32Z" transform="translate(-291.031 -300.407)" fill="#465a61"/>
            </g>
            <g id="Group_1165357" data-name="Group 1165357" transform="translate(35.375)">
              <path id="Path_938704" data-name="Path 938704" d="M354.659,308.32v-7.553a.36.36,0,0,1,.36-.36h-2.1a.36.36,0,0,0-.36.36v7.553a.36.36,0,0,0,.36.36h2.1A.36.36,0,0,1,354.659,308.32Z" transform="translate(-352.561 -300.407)" fill="#465a61"/>
            </g>
            <g id="Group_1165358" data-name="Group 1165358" transform="translate(42.753)">
              <path id="Path_938705" data-name="Path 938705" d="M416.19,308.32v-7.553a.36.36,0,0,1,.36-.36h-2.1a.36.36,0,0,0-.36.36v7.553a.36.36,0,0,0,.36.36h2.1A.36.36,0,0,1,416.19,308.32Z" transform="translate(-414.092 -300.407)" fill="#465a61"/>
            </g>
          </g>
        </g>
      </g>
      <g id="Group_1165362" data-name="Group 1165362">
        <path id="Path_938706" data-name="Path 938706" d="M66.845,100.593H51.259A1.26,1.26,0,0,0,50,101.852v7.553a1.26,1.26,0,0,0,1.259,1.259H66.845a1.26,1.26,0,0,0,1.259-1.259v-7.553A1.26,1.26,0,0,0,66.845,100.593Zm-.54,8.273H51.8v-6.474H66.305Z" transform="translate(-44.005 -96.936)"/>
        <path id="Path_938707" data-name="Path 938707" d="M227.384,100.593h-4.125A1.26,1.26,0,0,0,222,101.852v7.553a1.26,1.26,0,0,0,1.259,1.259h4.125a1.26,1.26,0,0,0,1.259-1.259v-7.553A1.26,1.26,0,0,0,227.384,100.593Zm-.54,8.273H223.8v-6.474h3.046Z" transform="translate(-195.384 -96.936)"/>
        <path id="Path_938708" data-name="Path 938708" d="M288.914,100.593h-4.125a1.26,1.26,0,0,0-1.259,1.259v7.553a1.26,1.26,0,0,0,1.259,1.259h4.125a1.26,1.26,0,0,0,1.259-1.259v-7.553A1.26,1.26,0,0,0,288.914,100.593Zm-.539,8.273h-3.046v-6.474h3.046Z" transform="translate(-249.537 -96.936)"/>
        <path id="Path_938709" data-name="Path 938709" d="M350.446,100.593h-4.125a1.26,1.26,0,0,0-1.259,1.259v7.553a1.26,1.26,0,0,0,1.259,1.259h4.125a1.26,1.26,0,0,0,1.259-1.259v-7.553A1.26,1.26,0,0,0,350.446,100.593Zm-.539,8.273H346.86v-6.474h3.046Z" transform="translate(-303.692 -96.936)"/>
        <path id="Path_938710" data-name="Path 938710" d="M411.976,100.593h-4.125a1.26,1.26,0,0,0-1.259,1.259v7.553a1.26,1.26,0,0,0,1.259,1.259h4.125a1.26,1.26,0,0,0,1.259-1.259v-7.553A1.26,1.26,0,0,0,411.976,100.593Zm-.54,8.273H408.39v-6.474h3.046Z" transform="translate(-357.845 -96.936)"/>
        <path id="Path_938711" data-name="Path 938711" d="M60.138,77.255a1.489,1.489,0,0,0,1.246-1.476V71.592a1.5,1.5,0,0,0-1.5-1.5H1.5a1.5,1.5,0,0,0-1.5,1.5v4.187a1.489,1.489,0,0,0,1.246,1.476,2.1,2.1,0,0,1,0,4.139A1.489,1.489,0,0,0,0,82.871v7.244a1.5,1.5,0,0,0,1.5,1.5H26.773a1.5,1.5,0,0,0,1.363-.875l1.493-3.261h2.128l1.493,3.262a1.5,1.5,0,0,0,1.363.875H59.886a1.5,1.5,0,0,0,1.5-1.5V82.871a1.489,1.489,0,0,0-1.246-1.476,2.1,2.1,0,0,1,0-4.139Zm-.552,12.56H58.567v-.54a.9.9,0,0,0-1.8,0v.54h-1.8v-.54a.9.9,0,0,0-1.8,0v.54h-1.8v-.54a.9.9,0,0,0-1.8,0v.54h-1.8v-.54a.9.9,0,0,0-1.8,0v.54h-1.8v-.54a.9.9,0,0,0-1.8,0v.54h-1.8v-.54a.9.9,0,0,0-1.8,0v.54h-1.8v-.54a.9.9,0,0,0-1.8,0v.54H34.8l-1.07-2.338H59.586Zm0-6.7v2.562H20.262a.9.9,0,1,0,0,1.8h7.389l-1.07,2.338H26.2v-.54a.9.9,0,1,0-1.8,0v.54H22.6v-.54a.9.9,0,1,0-1.8,0v.54H19v-.54a.9.9,0,1,0-1.8,0v.54h-1.8v-.54a.9.9,0,1,0-1.8,0v.54h-1.8v-.54a.9.9,0,1,0-1.8,0v.54h-1.8v-.54a.9.9,0,1,0-1.8,0v.54h-1.8v-.54a.9.9,0,1,0-1.8,0v.54H1.8V87.477H16.066a.9.9,0,1,0,0-1.8H1.8V83.117a3.9,3.9,0,0,0,0-7.584V71.892H59.586v3.641a3.9,3.9,0,0,0,0,7.584Z" transform="translate(0 -70.093)"/>
        <circle id="Ellipse_13513" data-name="Ellipse 13513" cx="0.899" cy="0.899" r="0.899" transform="translate(2.698 2.758)"/>
        <circle id="Ellipse_13514" data-name="Ellipse 13514" cx="0.899" cy="0.899" r="0.899" transform="translate(56.889 2.758)"/>
        <circle id="Ellipse_13515" data-name="Ellipse 13515" cx="0.899" cy="0.899" r="0.899" transform="translate(2.698 13.308)"/>
        <circle id="Ellipse_13516" data-name="Ellipse 13516" cx="0.899" cy="0.899" r="0.899" transform="translate(56.889 13.308)"/>
        <path id="Path_938712" data-name="Path 938712" d="M59.886,262.407H54.671a.9.9,0,1,0,0,1.8h4.916v3.641a3.9,3.9,0,0,0,0,7.584v2.562H1.8v-2.562a3.9,3.9,0,0,0,0-7.584v-3.641H50.475a.9.9,0,1,0,0-1.8H1.5a1.5,1.5,0,0,0-1.5,1.5v4.187a1.489,1.489,0,0,0,1.246,1.476,2.1,2.1,0,0,1,0,4.139A1.489,1.489,0,0,0,0,275.185v7.244a1.5,1.5,0,0,0,1.5,1.5H26.773a1.5,1.5,0,0,0,1.363-.875l1.493-3.262h2.128l1.493,3.262a1.5,1.5,0,0,0,1.363.875H59.886a1.5,1.5,0,0,0,1.5-1.5v-7.244a1.489,1.489,0,0,0-1.246-1.477,2.1,2.1,0,0,1,0-4.139,1.489,1.489,0,0,0,1.246-1.476v-4.187A1.5,1.5,0,0,0,59.886,262.407ZM26.58,282.129H26.2v-.54a.9.9,0,0,0-1.8,0v.54H22.6v-.54a.9.9,0,0,0-1.8,0v.54H19v-.54a.9.9,0,0,0-1.8,0v.54h-1.8v-.54a.9.9,0,0,0-1.8,0v.54h-1.8v-.54a.9.9,0,0,0-1.8,0v.54h-1.8v-.54a.9.9,0,0,0-1.8,0v.54h-1.8v-.54a.9.9,0,0,0-1.8,0v.54H1.8v-2.338H27.651Zm33.006,0H58.567v-.54a.9.9,0,0,0-1.8,0v.54h-1.8v-.54a.9.9,0,0,0-1.8,0v.54h-1.8v-.54a.9.9,0,0,0-1.8,0v.54h-1.8v-.54a.9.9,0,0,0-1.8,0v.54h-1.8v-.54a.9.9,0,0,0-1.8,0v.54h-1.8v-.54a.9.9,0,0,0-1.8,0v.54h-1.8v-.54a.9.9,0,0,0-1.8,0v.54H34.8l-1.07-2.338H59.586Z" transform="translate(0 -239.35)"/>
        <path id="Path_938713" data-name="Path 938713" d="M51.259,292.907A1.26,1.26,0,0,0,50,294.166v7.553a1.26,1.26,0,0,0,1.259,1.259H66.845a1.26,1.26,0,0,0,1.259-1.259v-7.553a1.26,1.26,0,0,0-1.259-1.259Zm15.046,8.273H51.8v-6.474H66.305Z" transform="translate(-44.005 -266.193)"/>
        <path id="Path_938714" data-name="Path 938714" d="M227.744,296.695a.9.9,0,0,0,.9-.9v-1.63a1.26,1.26,0,0,0-1.259-1.259h-4.125A1.26,1.26,0,0,0,222,294.166v7.553a1.26,1.26,0,0,0,1.259,1.259h4.125a1.26,1.26,0,0,0,1.259-1.259v-1.727a.9.9,0,0,0-1.8,0v1.188H223.8v-6.474h3.046v1.09A.9.9,0,0,0,227.744,296.695Z" transform="translate(-195.384 -266.193)"/>
        <path id="Path_938715" data-name="Path 938715" d="M284.789,292.907a1.26,1.26,0,0,0-1.259,1.259v7.553a1.26,1.26,0,0,0,1.259,1.259h4.125a1.26,1.26,0,0,0,1.259-1.259v-7.553a1.26,1.26,0,0,0-1.259-1.259Zm3.586,8.273h-3.046v-6.474h3.046Z" transform="translate(-249.537 -266.193)"/>
        <path id="Path_938716" data-name="Path 938716" d="M346.321,292.907a1.26,1.26,0,0,0-1.259,1.259v7.553a1.26,1.26,0,0,0,1.259,1.259h4.125a1.26,1.26,0,0,0,1.259-1.259v-7.553a1.26,1.26,0,0,0-1.259-1.259Zm3.586,8.273H346.86v-6.474h3.046Z" transform="translate(-303.692 -266.193)"/>
        <path id="Path_938717" data-name="Path 938717" d="M406.592,294.166v7.553a1.26,1.26,0,0,0,1.259,1.259h4.125a1.26,1.26,0,0,0,1.259-1.259v-7.553a1.26,1.26,0,0,0-1.259-1.259h-4.125A1.26,1.26,0,0,0,406.592,294.166Zm1.8.54h3.046v6.474H408.39Z" transform="translate(-357.845 -266.193)"/>
        <circle id="Ellipse_13517" data-name="Ellipse 13517" cx="0.899" cy="0.899" r="0.899" transform="translate(2.698 25.814)"/>
        <circle id="Ellipse_13518" data-name="Ellipse 13518" cx="0.899" cy="0.899" r="0.899" transform="translate(56.889 25.814)"/>
        <circle id="Ellipse_13519" data-name="Ellipse 13519" cx="0.899" cy="0.899" r="0.899" transform="translate(2.698 36.365)"/>
        <circle id="Ellipse_13520" data-name="Ellipse 13520" cx="0.899" cy="0.899" r="0.899" transform="translate(56.889 36.365)"/>
      </g>
    </g>
  </g>
</svg>
