<svg xmlns="http://www.w3.org/2000/svg" width="100" height="100" viewBox="0 0 100 100">
  <g id="Group_1165395" data-name="Group 1165395" transform="translate(-269 -958)">
    <circle id="Ellipse_5614" data-name="Ellipse 5614" cx="50" cy="50" r="50" transform="translate(269 958)" fill="#fff"/>
    <g id="_x35_33_x2C__Computer_x2C__Keyboard_x2C__Hardware_x2C__Connection" transform="translate(257.765 931.641)">
      <g id="Group_1165397" data-name="Group 1165397" transform="translate(30 47.5)">
        <path id="Path_938748" data-name="Path 938748" d="M96.113,275.42v20.643a2.92,2.92,0,0,1-2.92,2.92H37.92a2.921,2.921,0,0,1-2.92-2.92V275.42a2.921,2.921,0,0,1,2.92-2.92H93.193A2.92,2.92,0,0,1,96.113,275.42Z" transform="translate(-34.321 -241.944)" fill="#57606f"/>
        <path id="Path_938749" data-name="Path 938749" d="M136.3,416.574H120V412.5h16.3Z" transform="translate(-107.777 -362.931)" fill="#95e6f9"/>
        <path id="Path_938750" data-name="Path 938750" d="M430,386.574V382.5h4.074v8.148H430Z" transform="translate(-375.678 -337.005)" fill="#ff4957"/>
        <path id="Path_938751" data-name="Path 938751" d="M270,360.648v-4.074h4.074V352.5h4.074v8.148H270Z" transform="translate(-237.407 -311.079)" fill="#ff4957"/>
        <g id="Group_1165396" data-name="Group 1165396" transform="translate(4.074 33.951)">
          <path id="Path_938752" data-name="Path 938752" d="M270,412.5h4.074v4.074H270Z" transform="translate(-241.481 -396.882)" fill="#a0b5c5"/>
          <path id="Path_938753" data-name="Path 938753" d="M90,412.5h4.074v4.074H90Z" transform="translate(-85.926 -396.882)" fill="#a0b5c5"/>
          <path id="Path_938754" data-name="Path 938754" d="M60,382.5h4.074v4.074H60Z" transform="translate(-60 -370.957)" fill="#a0b5c5"/>
          <path id="Path_938755" data-name="Path 938755" d="M120,382.5h4.074v4.074H120Z" transform="translate(-111.852 -370.957)" fill="#a0b5c5"/>
          <path id="Path_938756" data-name="Path 938756" d="M180,382.5h4.074v4.074H180Z" transform="translate(-163.703 -370.957)" fill="#a0b5c5"/>
          <path id="Path_938757" data-name="Path 938757" d="M240,382.5h4.074v4.074H240Z" transform="translate(-215.555 -370.957)" fill="#a0b5c5"/>
          <path id="Path_938758" data-name="Path 938758" d="M270,352.5h4.074v4.074H270Z" transform="translate(-241.481 -345.031)" fill="#a0b5c5"/>
          <path id="Path_938759" data-name="Path 938759" d="M210,352.5h4.074v4.074H210Z" transform="translate(-189.629 -345.031)" fill="#a0b5c5"/>
          <path id="Path_938760" data-name="Path 938760" d="M150,352.5h4.074v4.074H150Z" transform="translate(-137.777 -345.031)" fill="#a0b5c5"/>
          <path id="Path_938761" data-name="Path 938761" d="M90,352.5h4.074v4.074H90Z" transform="translate(-85.926 -345.031)" fill="#a0b5c5"/>
          <path id="Path_938762" data-name="Path 938762" d="M210,297.5h4.074v4.074H210Z" transform="translate(-189.629 -297.5)" fill="#a0b5c5"/>
          <path id="Path_938763" data-name="Path 938763" d="M270,297.5h4.074v4.074H270Z" transform="translate(-241.481 -297.5)" fill="#a0b5c5"/>
          <path id="Path_938764" data-name="Path 938764" d="M150,297.5h4.074v4.074H150Z" transform="translate(-137.777 -297.5)" fill="#a0b5c5"/>
          <path id="Path_938765" data-name="Path 938765" d="M370,382.5h4.074v4.074H370Z" transform="translate(-327.9 -370.957)" fill="#a0b5c5"/>
          <path id="Path_938766" data-name="Path 938766" d="M400,352.5h4.074v4.074H400Z" transform="translate(-353.826 -345.031)" fill="#a0b5c5"/>
        </g>
        <path id="Path_938767" data-name="Path 938767" d="M400,412.5h4.074v4.074H400Z" transform="translate(-349.752 -362.931)" fill="#59d9a4"/>
        <ellipse id="Ellipse_13530" data-name="Ellipse 13530" cx="0.541" cy="1.082" rx="0.541" ry="1.082" transform="translate(58.141 8.66)"/>
        <path id="Path_938768" data-name="Path 938768" d="M440,182.5h3.4v2.716H440Z" transform="translate(-384.32 -164.166)" fill="#a0b5c5"/>
        <circle id="Ellipse_13531" data-name="Ellipse 13531" cx="1.082" cy="1.082" r="1.082" transform="translate(57.058 24.897)"/>
        <path id="Path_938769" data-name="Path 938769" d="M430,352.5h4.074v4.074H430Z" transform="translate(-375.678 -311.079)" fill="#ffd400"/>
        <path id="Path_938770" data-name="Path 938770" d="M430,302.5h4.074v2.716H430Z" transform="translate(-375.678 -267.869)" fill="#ff4957"/>
        <path id="Path_938771" data-name="Path 938771" d="M405.432,176.574v1.358H400V172.5h5.432v4.074Z" transform="translate(-349.752 -155.524)" fill="#7d89aa"/>
        <path id="Path_938772" data-name="Path 938772" d="M400,382.5h4.074v4.074H400Z" transform="translate(-349.752 -337.005)" fill="#d0dce7"/>
        <path id="Path_938773" data-name="Path 938773" d="M400,302.5h4.074v2.716H400Z" transform="translate(-349.752 -267.869)" fill="#95e6f9"/>
        <path id="Path_938774" data-name="Path 938774" d="M383.4,52.5a3.4,3.4,0,1,1-3.4,3.4A3.395,3.395,0,0,1,383.4,52.5Z" transform="translate(-332.468 -51.821)" fill="#f88f19"/>
        <path id="Path_938775" data-name="Path 938775" d="M370,412.5h4.074v4.074H370Z" transform="translate(-323.826 -362.931)" fill="#d0dce7"/>
        <path id="Path_938776" data-name="Path 938776" d="M370,352.5h4.074v4.074H370Z" transform="translate(-323.826 -311.079)" fill="#d0dce7"/>
        <path id="Path_938777" data-name="Path 938777" d="M370,302.5h4.074v2.716H370Z" transform="translate(-323.826 -267.869)" fill="#d7e816"/>
        <path id="Path_938778" data-name="Path 938778" d="M382.716,172.5v5.432H380V172.5Z" transform="translate(-332.468 -155.524)" fill="#5c6887"/>
        <path id="Path_938779" data-name="Path 938779" d="M300,412.5h4.074v4.074H300Z" transform="translate(-263.332 -362.931)" fill="#d0dce7"/>
        <path id="Path_938780" data-name="Path 938780" d="M300,297.5h4.074v4.074H300Z" transform="translate(-263.332 -263.548)" fill="#d0dce7"/>
        <circle id="Ellipse_13532" data-name="Ellipse 13532" cx="1.082" cy="1.082" r="1.082" transform="translate(37.574 6.495)"/>
        <ellipse id="Ellipse_13533" data-name="Ellipse 13533" cx="0.541" cy="1.082" rx="0.541" ry="1.082" transform="translate(36.491 22.732)"/>
        <path id="Path_938781" data-name="Path 938781" d="M245.432,240.216v2.037H240v-2.037a2.716,2.716,0,0,1,5.432,0Z" transform="translate(-211.481 -211.697)" fill="#414a56"/>
        <path id="Path_938782" data-name="Path 938782" d="M240,412.5h4.074v4.074H240Z" transform="translate(-211.481 -362.931)" fill="#d0dce7"/>
        <path id="Path_938783" data-name="Path 938783" d="M240,352.5h4.074v4.074H240Z" transform="translate(-211.481 -311.079)" fill="#d0dce7"/>
        <path id="Path_938784" data-name="Path 938784" d="M240,297.5h4.074v4.074H240Z" transform="translate(-211.481 -263.548)" fill="#d0dce7"/>
        <path id="Path_938785" data-name="Path 938785" d="M210,382.5h4.074v4.074H210Z" transform="translate(-185.555 -337.005)" fill="#d0dce7"/>
        <path id="Path_938786" data-name="Path 938786" d="M180,352.5h4.074v4.074H180Z" transform="translate(-159.629 -311.079)" fill="#d0dce7"/>
        <path id="Path_938787" data-name="Path 938787" d="M180,297.5h4.074v4.074H180Z" transform="translate(-159.629 -263.548)" fill="#d0dce7"/>
        <path id="Path_938788" data-name="Path 938788" d="M150,382.5h4.074v4.074H150Z" transform="translate(-133.703 -337.005)" fill="#d0dce7"/>
        <ellipse id="Ellipse_13534" data-name="Ellipse 13534" cx="0.541" cy="1.082" rx="0.541" ry="1.082" transform="translate(18.089)"/>
        <ellipse id="Ellipse_13535" data-name="Ellipse 13535" cx="0.541" cy="1.082" rx="0.541" ry="1.082" transform="translate(18.089 23.814)"/>
        <path id="Path_938789" data-name="Path 938789" d="M120,352.5h4.074v4.074H120Z" transform="translate(-107.777 -311.079)" fill="#d0dce7"/>
        <path id="Path_938790" data-name="Path 938790" d="M120,297.5h4.074v4.074H120Z" transform="translate(-107.777 -263.548)" fill="#d0dce7"/>
        <path id="Path_938791" data-name="Path 938791" d="M90,382.5h4.074v4.074H90Z" transform="translate(-81.852 -337.005)" fill="#d0dce7"/>
        <path id="Path_938792" data-name="Path 938792" d="M72.716,202.5A2.716,2.716,0,1,1,70,205.216,2.715,2.715,0,0,1,72.716,202.5Z" transform="translate(-64.568 -181.45)" fill="#f88f19"/>
        <path id="Path_938793" data-name="Path 938793" d="M60,412.5h4.074v4.074H60Z" transform="translate(-55.926 -362.931)" fill="#d0dce7"/>
        <path id="Path_938794" data-name="Path 938794" d="M60,352.5h4.074v4.074H60Z" transform="translate(-55.926 -311.079)" fill="#d0dce7"/>
        <path id="Path_938795" data-name="Path 938795" d="M60,297.5h4.074v4.074H60Z" transform="translate(-55.926 -263.548)" fill="#95e6f9"/>
        <circle id="Ellipse_13536" data-name="Ellipse 13536" cx="1.082" cy="1.082" r="1.082" transform="translate(4.017 6.495)"/>
        <path id="Path_938796" data-name="Path 938796" d="M88.872,295.34H33.6a3.6,3.6,0,0,1-3.6-3.6V271.1a3.6,3.6,0,0,1,3.6-3.6h24.92a.679.679,0,1,1,0,1.358H33.6a2.243,2.243,0,0,0-2.241,2.241v20.642a2.243,2.243,0,0,0,2.241,2.241H88.872a2.243,2.243,0,0,0,2.241-2.241V271.1a2.243,2.243,0,0,0-2.241-2.241H63.951a.679.679,0,1,1,0-1.358h24.92a3.6,3.6,0,0,1,3.6,3.6v20.642A3.6,3.6,0,0,1,88.872,295.34Z" transform="translate(-30 -237.623)"/>
        <path id="Path_938797" data-name="Path 938797" d="M59.753,297.932H55.679a.679.679,0,0,1-.679-.679v-4.074a.679.679,0,0,1,.679-.679h4.074a.679.679,0,0,1,.679.679v4.074A.679.679,0,0,1,59.753,297.932Zm-3.4-1.358h2.716v-2.716H56.358Z" transform="translate(-51.605 -259.228)"/>
        <path id="Path_938798" data-name="Path 938798" d="M119.753,297.932h-4.074a.679.679,0,0,1-.679-.679v-4.074a.679.679,0,0,1,.679-.679h4.074a.679.679,0,1,1,0,1.358h-3.4v2.716h3.4a.679.679,0,1,1,0,1.358Z" transform="translate(-103.456 -259.228)"/>
        <path id="Path_938799" data-name="Path 938799" d="M149.753,297.932h-4.074a.679.679,0,0,1-.679-.679v-4.074a.679.679,0,0,1,.679-.679h4.074a.679.679,0,1,1,0,1.358h-3.4v2.716h3.4a.679.679,0,1,1,0,1.358Z" transform="translate(-129.382 -259.228)"/>
        <path id="Path_938800" data-name="Path 938800" d="M179.753,297.932h-4.074a.679.679,0,0,1-.679-.679v-4.074a.679.679,0,0,1,.679-.679h4.074a.679.679,0,1,1,0,1.358h-3.4v2.716h3.4a.679.679,0,1,1,0,1.358Z" transform="translate(-155.308 -259.228)"/>
        <path id="Path_938801" data-name="Path 938801" d="M209.753,297.932h-4.074a.679.679,0,0,1-.679-.679v-4.074a.679.679,0,0,1,.679-.679h4.074a.679.679,0,1,1,0,1.358h-3.4v2.716h3.4a.679.679,0,1,1,0,1.358Z" transform="translate(-181.234 -259.228)"/>
        <path id="Path_938802" data-name="Path 938802" d="M239.753,297.932h-4.074a.679.679,0,0,1-.679-.679v-4.074a.679.679,0,0,1,.679-.679h4.074a.679.679,0,0,1,0,1.358h-3.4v2.716h3.4a.679.679,0,0,1,0,1.358Z" transform="translate(-207.16 -259.228)"/>
        <path id="Path_938803" data-name="Path 938803" d="M269.753,297.932h-4.074a.679.679,0,0,1-.679-.679v-4.074a.679.679,0,0,1,.679-.679h4.074a.679.679,0,1,1,0,1.358h-3.4v2.716h3.4a.679.679,0,1,1,0,1.358Z" transform="translate(-233.086 -259.228)"/>
        <path id="Path_938804" data-name="Path 938804" d="M299.753,297.932h-4.074a.679.679,0,0,1-.679-.679v-4.074a.679.679,0,0,1,.679-.679h4.074a.679.679,0,0,1,.679.679v4.074A.679.679,0,0,1,299.753,297.932Zm-3.4-1.358h2.716v-2.716h-2.716Z" transform="translate(-259.011 -259.228)"/>
        <path id="Path_938805" data-name="Path 938805" d="M399.753,318.858h-4.074a.679.679,0,1,1,0-1.358h4.074a.679.679,0,0,1,0,1.358Z" transform="translate(-345.431 -280.832)"/>
        <path id="Path_938806" data-name="Path 938806" d="M399.753,298.858h-4.074a.679.679,0,0,1,0-1.358h4.074a.679.679,0,0,1,0,1.358Z" transform="translate(-345.431 -263.548)"/>
        <path id="Path_938807" data-name="Path 938807" d="M369.753,301.574h-4.074A.679.679,0,0,1,365,300.9v-2.716a.679.679,0,0,1,.679-.679h4.074a.679.679,0,0,1,.679.679V300.9A.679.679,0,0,1,369.753,301.574Zm-3.4-1.358h2.716v-1.358h-2.716Z" transform="translate(-319.505 -263.548)"/>
        <path id="Path_938808" data-name="Path 938808" d="M429.753,301.574h-4.074A.679.679,0,0,1,425,300.9v-2.716a.679.679,0,0,1,.679-.679h4.074a.679.679,0,0,1,.679.679V300.9A.679.679,0,0,1,429.753,301.574Zm-3.4-1.358h2.716v-1.358h-2.716Z" transform="translate(-371.357 -263.548)"/>
        <path id="Path_938809" data-name="Path 938809" d="M55.679,352.932a.679.679,0,0,1-.679-.679v-4.074a.679.679,0,0,1,.679-.679h4.074a.679.679,0,1,1,0,1.358h-3.4v3.4A.679.679,0,0,1,55.679,352.932Z" transform="translate(-51.605 -306.758)"/>
        <path id="Path_938810" data-name="Path 938810" d="M85.679,352.932a.679.679,0,0,1-.679-.679v-4.074a.679.679,0,0,1,.679-.679h4.074a.679.679,0,1,1,0,1.358h-3.4v3.4A.679.679,0,0,1,85.679,352.932Z" transform="translate(-77.531 -306.758)"/>
        <path id="Path_938811" data-name="Path 938811" d="M115.679,352.932a.679.679,0,0,1-.679-.679v-4.074a.679.679,0,0,1,.679-.679h4.074a.679.679,0,1,1,0,1.358h-3.4v3.4A.679.679,0,0,1,115.679,352.932Z" transform="translate(-103.456 -306.758)"/>
        <path id="Path_938812" data-name="Path 938812" d="M145.679,352.932a.679.679,0,0,1-.679-.679v-4.074a.679.679,0,0,1,.679-.679h4.074a.679.679,0,1,1,0,1.358h-3.4v3.4A.679.679,0,0,1,145.679,352.932Z" transform="translate(-129.382 -306.758)"/>
        <path id="Path_938813" data-name="Path 938813" d="M175.679,352.932a.679.679,0,0,1-.679-.679v-4.074a.679.679,0,0,1,.679-.679h4.074a.679.679,0,1,1,0,1.358h-3.4v3.4A.679.679,0,0,1,175.679,352.932Z" transform="translate(-155.308 -306.758)"/>
        <path id="Path_938814" data-name="Path 938814" d="M205.679,352.932a.679.679,0,0,1-.679-.679v-4.074a.679.679,0,0,1,.679-.679h4.074a.679.679,0,1,1,0,1.358h-3.4v3.4A.679.679,0,0,1,205.679,352.932Z" transform="translate(-181.234 -306.758)"/>
        <path id="Path_938815" data-name="Path 938815" d="M235.679,352.932a.679.679,0,0,1-.679-.679v-4.074a.679.679,0,0,1,.679-.679h4.074a.679.679,0,0,1,0,1.358h-3.4v3.4A.679.679,0,0,1,235.679,352.932Z" transform="translate(-207.16 -306.758)"/>
        <path id="Path_938816" data-name="Path 938816" d="M265.679,352.932a.679.679,0,0,1-.679-.679v-4.074a.679.679,0,0,1,.679-.679h4.074a.679.679,0,1,1,0,1.358h-3.4v3.4A.679.679,0,0,1,265.679,352.932Z" transform="translate(-233.086 -306.758)"/>
        <path id="Path_938817" data-name="Path 938817" d="M55.679,382.932a.679.679,0,0,1-.679-.679v-4.074a.679.679,0,0,1,.679-.679h4.074a.679.679,0,1,1,0,1.358h-3.4v3.4A.679.679,0,0,1,55.679,382.932Z" transform="translate(-51.605 -332.684)"/>
        <path id="Path_938818" data-name="Path 938818" d="M85.679,382.932a.679.679,0,0,1-.679-.679v-4.074a.679.679,0,0,1,.679-.679h4.074a.679.679,0,1,1,0,1.358h-3.4v3.4A.679.679,0,0,1,85.679,382.932Z" transform="translate(-77.531 -332.684)"/>
        <path id="Path_938819" data-name="Path 938819" d="M115.679,382.932a.679.679,0,0,1-.679-.679v-4.074a.679.679,0,0,1,.679-.679h4.074a.679.679,0,1,1,0,1.358h-3.4v3.4A.679.679,0,0,1,115.679,382.932Z" transform="translate(-103.456 -332.684)"/>
        <path id="Path_938820" data-name="Path 938820" d="M145.679,382.932a.679.679,0,0,1-.679-.679v-4.074a.679.679,0,0,1,.679-.679h4.074a.679.679,0,1,1,0,1.358h-3.4v3.4A.679.679,0,0,1,145.679,382.932Z" transform="translate(-129.382 -332.684)"/>
        <path id="Path_938821" data-name="Path 938821" d="M175.679,382.932a.679.679,0,0,1-.679-.679v-4.074a.679.679,0,0,1,.679-.679h4.074a.679.679,0,1,1,0,1.358h-3.4v3.4A.679.679,0,0,1,175.679,382.932Z" transform="translate(-155.308 -332.684)"/>
        <path id="Path_938822" data-name="Path 938822" d="M205.679,382.932a.679.679,0,0,1-.679-.679v-4.074a.679.679,0,0,1,.679-.679h4.074a.679.679,0,1,1,0,1.358h-3.4v3.4A.679.679,0,0,1,205.679,382.932Z" transform="translate(-181.234 -332.684)"/>
        <path id="Path_938823" data-name="Path 938823" d="M235.679,382.932a.679.679,0,0,1-.679-.679v-4.074a.679.679,0,0,1,.679-.679h4.074a.679.679,0,1,1,0,1.358h-3.4v3.4A.679.679,0,0,1,235.679,382.932Z" transform="translate(-207.16 -332.684)"/>
        <path id="Path_938824" data-name="Path 938824" d="M273.827,357.006a.679.679,0,0,1-.679-.679v-7.469h-2.716v3.4a.679.679,0,0,1-.679.679h-3.4v3.4a.679.679,0,1,1-1.358,0v-4.074a.679.679,0,0,1,.679-.679h3.4v-3.4a.679.679,0,0,1,.679-.679h4.074a.679.679,0,0,1,.679.679v8.148A.679.679,0,0,1,273.827,357.006Z" transform="translate(-233.086 -306.758)"/>
        <path id="Path_938825" data-name="Path 938825" d="M59.753,412.932H55.679a.679.679,0,0,1-.679-.679v-4.074a.679.679,0,0,1,.679-.679h4.074a.679.679,0,1,1,0,1.358h-3.4v2.716h3.4a.679.679,0,1,1,0,1.358Z" transform="translate(-51.605 -358.61)"/>
        <path id="Path_938826" data-name="Path 938826" d="M89.753,412.932H85.679a.679.679,0,0,1-.679-.679v-4.074a.679.679,0,0,1,.679-.679h4.074a.679.679,0,1,1,0,1.358h-3.4v2.716h3.4a.679.679,0,1,1,0,1.358Z" transform="translate(-77.531 -358.61)"/>
        <path id="Path_938827" data-name="Path 938827" d="M131.976,412.932h-16.3a.679.679,0,0,1-.679-.679v-4.074a.679.679,0,0,1,.679-.679h16.3a.679.679,0,1,1,0,1.358H116.358v2.716h15.618a.679.679,0,1,1,0,1.358Z" transform="translate(-103.456 -358.61)"/>
        <path id="Path_938828" data-name="Path 938828" d="M239.753,412.932h-4.074a.679.679,0,0,1-.679-.679v-4.074a.679.679,0,0,1,.679-.679h4.074a.679.679,0,0,1,0,1.358h-3.4v2.716h3.4a.679.679,0,0,1,0,1.358Z" transform="translate(-207.16 -358.61)"/>
        <path id="Path_938829" data-name="Path 938829" d="M269.753,412.932h-4.074a.679.679,0,0,1-.679-.679v-4.074a.679.679,0,0,1,.679-.679h4.074a.679.679,0,1,1,0,1.358h-3.4v2.716h3.4a.679.679,0,1,1,0,1.358Z" transform="translate(-233.086 -358.61)"/>
        <path id="Path_938830" data-name="Path 938830" d="M299.753,412.932h-4.074a.679.679,0,0,1-.679-.679v-4.074a.679.679,0,0,1,.679-.679h4.074a.679.679,0,0,1,.679.679v4.074A.679.679,0,0,1,299.753,412.932Zm-3.4-1.358h2.716v-2.716h-2.716Z" transform="translate(-259.011 -358.61)"/>
        <path id="Path_938831" data-name="Path 938831" d="M399.753,348.858h-4.074a.679.679,0,0,1,0-1.358h4.074a.679.679,0,0,1,0,1.358Z" transform="translate(-345.431 -306.758)"/>
        <path id="Path_938832" data-name="Path 938832" d="M429.753,352.932a.679.679,0,0,1-.679-.679v-3.4h-2.716v3.4a.679.679,0,1,1-1.358,0v-4.074a.679.679,0,0,1,.679-.679h4.074a.679.679,0,0,1,.679.679v4.074A.679.679,0,0,1,429.753,352.932Z" transform="translate(-371.357 -306.758)"/>
        <path id="Path_938833" data-name="Path 938833" d="M399.753,378.858h-4.074a.679.679,0,1,1,0-1.358h4.074a.679.679,0,0,1,0,1.358Z" transform="translate(-345.431 -332.684)"/>
        <path id="Path_938834" data-name="Path 938834" d="M399.753,438.858h-4.074a.679.679,0,1,1,0-1.358h4.074a.679.679,0,0,1,0,1.358Z" transform="translate(-345.431 -384.536)"/>
        <path id="Path_938835" data-name="Path 938835" d="M399.753,408.858h-4.074a.679.679,0,0,1,0-1.358h4.074a.679.679,0,0,1,0,1.358Z" transform="translate(-345.431 -358.61)"/>
        <path id="Path_938836" data-name="Path 938836" d="M369.753,352.932a.679.679,0,0,1-.679-.679v-3.4h-2.716v3.4a.679.679,0,1,1-1.358,0v-4.074a.679.679,0,0,1,.679-.679h4.074a.679.679,0,0,1,.679.679v4.074A.679.679,0,0,1,369.753,352.932Z" transform="translate(-319.505 -306.758)"/>
        <path id="Path_938837" data-name="Path 938837" d="M369.753,382.932a.679.679,0,0,1-.679-.679v-3.4h-2.716v3.4a.679.679,0,0,1-1.358,0v-4.074a.679.679,0,0,1,.679-.679h4.074a.679.679,0,0,1,.679.679v4.074A.679.679,0,0,1,369.753,382.932Z" transform="translate(-319.505 -332.684)"/>
        <path id="Path_938838" data-name="Path 938838" d="M369.753,412.932h-4.074a.679.679,0,0,1-.679-.679v-4.074a.679.679,0,0,1,.679-.679h4.074a.679.679,0,0,1,.679.679v4.074A.679.679,0,0,1,369.753,412.932Zm-3.4-1.358h2.716v-2.716h-2.716Z" transform="translate(-319.505 -358.61)"/>
        <path id="Path_938839" data-name="Path 938839" d="M429.753,387.006h-4.074a.679.679,0,0,1-.679-.679v-8.148a.679.679,0,0,1,.679-.679h4.074a.679.679,0,0,1,.679.679v8.148A.679.679,0,0,1,429.753,387.006Zm-3.4-1.358h2.716v-6.79h-2.716Z" transform="translate(-371.357 -332.684)"/>
        <path id="Path_938840" data-name="Path 938840" d="M241.111,238.611h-5.432a.679.679,0,0,1-.679-.679V235.9a3.4,3.4,0,0,1,6.79,0v2.037A.679.679,0,0,1,241.111,238.611Zm-4.753-1.358h4.074V235.9a2.037,2.037,0,0,0-4.074,0Z" transform="translate(-207.16 -207.376)"/>
        <path id="Path_938841" data-name="Path 938841" d="M271.976,188.858h-16.3a.679.679,0,1,1,0-1.358h16.3a.679.679,0,1,1,0,1.358Z" transform="translate(-224.444 -168.487)"/>
        <path id="Path_938842" data-name="Path 938842" d="M126.05,115.4h-14.6a6.451,6.451,0,1,1,0-12.9h5.908a9.381,9.381,0,0,1,9.371,9.371v2.852A.679.679,0,0,1,126.05,115.4Zm-14.6-11.544a5.093,5.093,0,0,0,0,10.185h13.92v-2.173a8.022,8.022,0,0,0-8.013-8.013Z" transform="translate(-94.815 -95.031)"/>
        <path id="Path_938843" data-name="Path 938843" d="M255.679,194.969a.679.679,0,0,1-.679-.679v-6.111a.679.679,0,0,1,1.358,0v6.111A.679.679,0,0,1,255.679,194.969Z" transform="translate(-224.444 -168.487)"/>
        <path id="Path_938844" data-name="Path 938844" d="M383.827,174.29h-8.148a.679.679,0,0,1-.679-.679v-5.432a.679.679,0,0,1,.679-.679h8.148a.679.679,0,0,1,.679.679v1.358a.679.679,0,0,1-1.358,0v-.679h-6.79v4.074h6.79v-.679a.679.679,0,0,1,1.358,0v1.358A.679.679,0,0,1,383.827,174.29Z" transform="translate(-328.147 -151.203)"/>
        <path id="Path_938845" data-name="Path 938845" d="M439.074,181.574h-3.4A.679.679,0,0,1,435,180.9v-2.716a.679.679,0,0,1,.679-.679h3.4a.679.679,0,0,1,.679.679V180.9A.679.679,0,0,1,439.074,181.574Zm-2.716-1.358H438.4v-1.358h-2.037Z" transform="translate(-379.999 -159.845)"/>
        <path id="Path_938846" data-name="Path 938846" d="M395.679,174.29a.679.679,0,0,1-.679-.679v-5.432a.679.679,0,1,1,1.358,0v5.432A.679.679,0,0,1,395.679,174.29Z" transform="translate(-345.431 -151.203)"/>
        <path id="Path_938847" data-name="Path 938847" d="M379.074,55.648a4.074,4.074,0,1,1,4.074-4.074A4.079,4.079,0,0,1,379.074,55.648Zm0-6.79a2.716,2.716,0,1,0,2.716,2.716A2.719,2.719,0,0,0,379.074,48.858Z" transform="translate(-328.147 -47.5)"/>
        <path id="Path_938848" data-name="Path 938848" d="M68.4,204.29a3.4,3.4,0,1,1,3.4-3.4A3.4,3.4,0,0,1,68.4,204.29Zm0-5.432a2.037,2.037,0,1,0,2.037,2.037A2.039,2.039,0,0,0,68.4,198.858Z" transform="translate(-60.247 -177.129)"/>
        <path id="Path_938849" data-name="Path 938849" d="M96.113,275.42v20.643a2.92,2.92,0,0,1-2.92,2.92H37.92a2.921,2.921,0,0,1-2.92-2.92V275.42a2.921,2.921,0,0,1,2.92-2.92H93.193A2.92,2.92,0,0,1,96.113,275.42Z" transform="translate(-34.321 -241.944)" fill="#57606f"/>
        <path id="Path_938850" data-name="Path 938850" d="M136.3,416.574H120V412.5h16.3Z" transform="translate(-107.777 -362.931)" fill="#95e6f9"/>
        <path id="Path_938851" data-name="Path 938851" d="M430,386.574V382.5h4.074v8.148H430Z" transform="translate(-375.678 -337.005)" fill="#ff4957"/>
        <path id="Path_938852" data-name="Path 938852" d="M270,360.648v-4.074h4.074V352.5h4.074v8.148H270Z" transform="translate(-237.407 -311.079)" fill="#ff4957"/>
        <path id="Path_938853" data-name="Path 938853" d="M270,412.5h4.074v4.074H270Z" transform="translate(-237.407 -362.931)" fill="#a0b5c5"/>
        <path id="Path_938854" data-name="Path 938854" d="M90,412.5h4.074v4.074H90Z" transform="translate(-81.852 -362.931)" fill="#a0b5c5"/>
        <path id="Path_938855" data-name="Path 938855" d="M60,382.5h4.074v4.074H60Z" transform="translate(-55.926 -337.005)" fill="#a0b5c5"/>
        <path id="Path_938856" data-name="Path 938856" d="M120,382.5h4.074v4.074H120Z" transform="translate(-107.777 -337.005)" fill="#a0b5c5"/>
        <path id="Path_938857" data-name="Path 938857" d="M180,382.5h4.074v4.074H180Z" transform="translate(-159.629 -337.005)" fill="#a0b5c5"/>
        <path id="Path_938858" data-name="Path 938858" d="M240,382.5h4.074v4.074H240Z" transform="translate(-211.481 -337.005)" fill="#a0b5c5"/>
        <path id="Path_938859" data-name="Path 938859" d="M270,352.5h4.074v4.074H270Z" transform="translate(-237.407 -311.079)" fill="#a0b5c5"/>
        <path id="Path_938860" data-name="Path 938860" d="M210,352.5h4.074v4.074H210Z" transform="translate(-185.555 -311.079)" fill="#a0b5c5"/>
        <path id="Path_938861" data-name="Path 938861" d="M150,352.5h4.074v4.074H150Z" transform="translate(-133.703 -311.079)" fill="#a0b5c5"/>
        <path id="Path_938862" data-name="Path 938862" d="M90,352.5h4.074v4.074H90Z" transform="translate(-81.852 -311.079)" fill="#a0b5c5"/>
        <path id="Path_938863" data-name="Path 938863" d="M210,297.5h4.074v4.074H210Z" transform="translate(-185.555 -263.548)" fill="#a0b5c5"/>
        <path id="Path_938864" data-name="Path 938864" d="M270,297.5h4.074v4.074H270Z" transform="translate(-237.407 -263.548)" fill="#a0b5c5"/>
        <path id="Path_938865" data-name="Path 938865" d="M150,297.5h4.074v4.074H150Z" transform="translate(-133.703 -263.548)" fill="#a0b5c5"/>
        <path id="Path_938866" data-name="Path 938866" d="M370,382.5h4.074v4.074H370Z" transform="translate(-323.826 -337.005)" fill="#a0b5c5"/>
        <path id="Path_938867" data-name="Path 938867" d="M400,352.5h4.074v4.074H400Z" transform="translate(-349.752 -311.079)" fill="#a0b5c5"/>
        <path id="Path_938868" data-name="Path 938868" d="M400,412.5h4.074v4.074H400Z" transform="translate(-349.752 -362.931)" fill="#59d9a4"/>
        <ellipse id="Ellipse_13537" data-name="Ellipse 13537" cx="0.541" cy="1.082" rx="0.541" ry="1.082" transform="translate(58.141 8.66)"/>
        <path id="Path_938869" data-name="Path 938869" d="M440,182.5h3.4v2.716H440Z" transform="translate(-384.32 -164.166)" fill="#a0b5c5"/>
        <circle id="Ellipse_13538" data-name="Ellipse 13538" cx="1.082" cy="1.082" r="1.082" transform="translate(57.058 24.897)"/>
        <path id="Path_938870" data-name="Path 938870" d="M430,352.5h4.074v4.074H430Z" transform="translate(-375.678 -311.079)" fill="#ffd400"/>
        <path id="Path_938871" data-name="Path 938871" d="M430,302.5h4.074v2.716H430Z" transform="translate(-375.678 -267.869)" fill="#ff4957"/>
        <path id="Path_938872" data-name="Path 938872" d="M405.432,176.574v1.358H400V172.5h5.432v4.074Z" transform="translate(-349.752 -155.524)" fill="#7d89aa"/>
        <path id="Path_938873" data-name="Path 938873" d="M400,382.5h4.074v4.074H400Z" transform="translate(-349.752 -337.005)" fill="#d0dce7"/>
        <path id="Path_938874" data-name="Path 938874" d="M400,302.5h4.074v2.716H400Z" transform="translate(-349.752 -267.869)" fill="#95e6f9"/>
        <path id="Path_938875" data-name="Path 938875" d="M383.4,52.5a3.4,3.4,0,1,1-3.4,3.4A3.395,3.395,0,0,1,383.4,52.5Z" transform="translate(-332.468 -51.821)" fill="#f88f19"/>
        <path id="Path_938876" data-name="Path 938876" d="M370,412.5h4.074v4.074H370Z" transform="translate(-323.826 -362.931)" fill="#d0dce7"/>
        <path id="Path_938877" data-name="Path 938877" d="M370,352.5h4.074v4.074H370Z" transform="translate(-323.826 -311.079)" fill="#d0dce7"/>
        <path id="Path_938878" data-name="Path 938878" d="M370,302.5h4.074v2.716H370Z" transform="translate(-323.826 -267.869)" fill="#d7e816"/>
        <path id="Path_938879" data-name="Path 938879" d="M382.716,172.5v5.432H380V172.5Z" transform="translate(-332.468 -155.524)" fill="#5c6887"/>
        <path id="Path_938880" data-name="Path 938880" d="M300,412.5h4.074v4.074H300Z" transform="translate(-263.332 -362.931)" fill="#d0dce7"/>
        <path id="Path_938881" data-name="Path 938881" d="M300,297.5h4.074v4.074H300Z" transform="translate(-263.332 -263.548)" fill="#d0dce7"/>
        <circle id="Ellipse_13539" data-name="Ellipse 13539" cx="1.082" cy="1.082" r="1.082" transform="translate(37.574 6.495)"/>
        <ellipse id="Ellipse_13540" data-name="Ellipse 13540" cx="0.541" cy="1.082" rx="0.541" ry="1.082" transform="translate(36.491 22.732)"/>
        <path id="Path_938882" data-name="Path 938882" d="M245.432,240.216v2.037H240v-2.037a2.716,2.716,0,0,1,5.432,0Z" transform="translate(-211.481 -211.697)" fill="#414a56"/>
        <path id="Path_938883" data-name="Path 938883" d="M240,412.5h4.074v4.074H240Z" transform="translate(-211.481 -362.931)" fill="#d0dce7"/>
        <path id="Path_938884" data-name="Path 938884" d="M240,352.5h4.074v4.074H240Z" transform="translate(-211.481 -311.079)" fill="#d0dce7"/>
        <path id="Path_938885" data-name="Path 938885" d="M240,297.5h4.074v4.074H240Z" transform="translate(-211.481 -263.548)" fill="#d0dce7"/>
        <path id="Path_938886" data-name="Path 938886" d="M210,382.5h4.074v4.074H210Z" transform="translate(-185.555 -337.005)" fill="#d0dce7"/>
        <path id="Path_938887" data-name="Path 938887" d="M180,352.5h4.074v4.074H180Z" transform="translate(-159.629 -311.079)" fill="#d0dce7"/>
        <path id="Path_938888" data-name="Path 938888" d="M180,297.5h4.074v4.074H180Z" transform="translate(-159.629 -263.548)" fill="#d0dce7"/>
        <path id="Path_938889" data-name="Path 938889" d="M150,382.5h4.074v4.074H150Z" transform="translate(-133.703 -337.005)" fill="#d0dce7"/>
        <ellipse id="Ellipse_13541" data-name="Ellipse 13541" cx="0.541" cy="1.082" rx="0.541" ry="1.082" transform="translate(18.089)"/>
        <ellipse id="Ellipse_13542" data-name="Ellipse 13542" cx="0.541" cy="1.082" rx="0.541" ry="1.082" transform="translate(18.089 23.814)"/>
        <path id="Path_938890" data-name="Path 938890" d="M120,352.5h4.074v4.074H120Z" transform="translate(-107.777 -311.079)" fill="#d0dce7"/>
        <path id="Path_938891" data-name="Path 938891" d="M120,297.5h4.074v4.074H120Z" transform="translate(-107.777 -263.548)" fill="#d0dce7"/>
        <path id="Path_938892" data-name="Path 938892" d="M90,382.5h4.074v4.074H90Z" transform="translate(-81.852 -337.005)" fill="#d0dce7"/>
        <path id="Path_938893" data-name="Path 938893" d="M72.716,202.5A2.716,2.716,0,1,1,70,205.216,2.715,2.715,0,0,1,72.716,202.5Z" transform="translate(-64.568 -181.45)" fill="#f88f19"/>
        <path id="Path_938894" data-name="Path 938894" d="M60,412.5h4.074v4.074H60Z" transform="translate(-55.926 -362.931)" fill="#d0dce7"/>
        <path id="Path_938895" data-name="Path 938895" d="M60,352.5h4.074v4.074H60Z" transform="translate(-55.926 -311.079)" fill="#d0dce7"/>
        <path id="Path_938896" data-name="Path 938896" d="M60,297.5h4.074v4.074H60Z" transform="translate(-55.926 -263.548)" fill="#95e6f9"/>
        <circle id="Ellipse_13543" data-name="Ellipse 13543" cx="1.082" cy="1.082" r="1.082" transform="translate(4.017 6.495)"/>
        <path id="Path_938897" data-name="Path 938897" d="M88.872,295.34H33.6a3.6,3.6,0,0,1-3.6-3.6V271.1a3.6,3.6,0,0,1,3.6-3.6h24.92a.679.679,0,1,1,0,1.358H33.6a2.243,2.243,0,0,0-2.241,2.241v20.642a2.243,2.243,0,0,0,2.241,2.241H88.872a2.243,2.243,0,0,0,2.241-2.241V271.1a2.243,2.243,0,0,0-2.241-2.241H63.951a.679.679,0,1,1,0-1.358h24.92a3.6,3.6,0,0,1,3.6,3.6v20.642A3.6,3.6,0,0,1,88.872,295.34Z" transform="translate(-30 -237.623)"/>
        <path id="Path_938898" data-name="Path 938898" d="M59.753,297.932H55.679a.679.679,0,0,1-.679-.679v-4.074a.679.679,0,0,1,.679-.679h4.074a.679.679,0,0,1,.679.679v4.074A.679.679,0,0,1,59.753,297.932Zm-3.4-1.358h2.716v-2.716H56.358Z" transform="translate(-51.605 -259.228)"/>
        <path id="Path_938899" data-name="Path 938899" d="M119.753,297.932h-4.074a.679.679,0,0,1-.679-.679v-4.074a.679.679,0,0,1,.679-.679h4.074a.679.679,0,1,1,0,1.358h-3.4v2.716h3.4a.679.679,0,1,1,0,1.358Z" transform="translate(-103.456 -259.228)"/>
        <path id="Path_938900" data-name="Path 938900" d="M149.753,297.932h-4.074a.679.679,0,0,1-.679-.679v-4.074a.679.679,0,0,1,.679-.679h4.074a.679.679,0,1,1,0,1.358h-3.4v2.716h3.4a.679.679,0,1,1,0,1.358Z" transform="translate(-129.382 -259.228)"/>
        <path id="Path_938901" data-name="Path 938901" d="M179.753,297.932h-4.074a.679.679,0,0,1-.679-.679v-4.074a.679.679,0,0,1,.679-.679h4.074a.679.679,0,1,1,0,1.358h-3.4v2.716h3.4a.679.679,0,1,1,0,1.358Z" transform="translate(-155.308 -259.228)"/>
        <path id="Path_938902" data-name="Path 938902" d="M209.753,297.932h-4.074a.679.679,0,0,1-.679-.679v-4.074a.679.679,0,0,1,.679-.679h4.074a.679.679,0,1,1,0,1.358h-3.4v2.716h3.4a.679.679,0,1,1,0,1.358Z" transform="translate(-181.234 -259.228)"/>
        <path id="Path_938903" data-name="Path 938903" d="M239.753,297.932h-4.074a.679.679,0,0,1-.679-.679v-4.074a.679.679,0,0,1,.679-.679h4.074a.679.679,0,0,1,0,1.358h-3.4v2.716h3.4a.679.679,0,0,1,0,1.358Z" transform="translate(-207.16 -259.228)"/>
        <path id="Path_938904" data-name="Path 938904" d="M269.753,297.932h-4.074a.679.679,0,0,1-.679-.679v-4.074a.679.679,0,0,1,.679-.679h4.074a.679.679,0,1,1,0,1.358h-3.4v2.716h3.4a.679.679,0,1,1,0,1.358Z" transform="translate(-233.086 -259.228)"/>
        <path id="Path_938905" data-name="Path 938905" d="M299.753,297.932h-4.074a.679.679,0,0,1-.679-.679v-4.074a.679.679,0,0,1,.679-.679h4.074a.679.679,0,0,1,.679.679v4.074A.679.679,0,0,1,299.753,297.932Zm-3.4-1.358h2.716v-2.716h-2.716Z" transform="translate(-259.011 -259.228)"/>
        <path id="Path_938906" data-name="Path 938906" d="M399.753,318.858h-4.074a.679.679,0,1,1,0-1.358h4.074a.679.679,0,0,1,0,1.358Z" transform="translate(-345.431 -280.832)"/>
        <path id="Path_938907" data-name="Path 938907" d="M399.753,298.858h-4.074a.679.679,0,0,1,0-1.358h4.074a.679.679,0,0,1,0,1.358Z" transform="translate(-345.431 -263.548)"/>
        <path id="Path_938908" data-name="Path 938908" d="M369.753,301.574h-4.074A.679.679,0,0,1,365,300.9v-2.716a.679.679,0,0,1,.679-.679h4.074a.679.679,0,0,1,.679.679V300.9A.679.679,0,0,1,369.753,301.574Zm-3.4-1.358h2.716v-1.358h-2.716Z" transform="translate(-319.505 -263.548)"/>
        <path id="Path_938909" data-name="Path 938909" d="M429.753,301.574h-4.074A.679.679,0,0,1,425,300.9v-2.716a.679.679,0,0,1,.679-.679h4.074a.679.679,0,0,1,.679.679V300.9A.679.679,0,0,1,429.753,301.574Zm-3.4-1.358h2.716v-1.358h-2.716Z" transform="translate(-371.357 -263.548)"/>
        <path id="Path_938910" data-name="Path 938910" d="M55.679,352.932a.679.679,0,0,1-.679-.679v-4.074a.679.679,0,0,1,.679-.679h4.074a.679.679,0,1,1,0,1.358h-3.4v3.4A.679.679,0,0,1,55.679,352.932Z" transform="translate(-51.605 -306.758)"/>
        <path id="Path_938911" data-name="Path 938911" d="M85.679,352.932a.679.679,0,0,1-.679-.679v-4.074a.679.679,0,0,1,.679-.679h4.074a.679.679,0,1,1,0,1.358h-3.4v3.4A.679.679,0,0,1,85.679,352.932Z" transform="translate(-77.531 -306.758)"/>
        <path id="Path_938912" data-name="Path 938912" d="M115.679,352.932a.679.679,0,0,1-.679-.679v-4.074a.679.679,0,0,1,.679-.679h4.074a.679.679,0,1,1,0,1.358h-3.4v3.4A.679.679,0,0,1,115.679,352.932Z" transform="translate(-103.456 -306.758)"/>
        <path id="Path_938913" data-name="Path 938913" d="M145.679,352.932a.679.679,0,0,1-.679-.679v-4.074a.679.679,0,0,1,.679-.679h4.074a.679.679,0,1,1,0,1.358h-3.4v3.4A.679.679,0,0,1,145.679,352.932Z" transform="translate(-129.382 -306.758)"/>
        <path id="Path_938914" data-name="Path 938914" d="M175.679,352.932a.679.679,0,0,1-.679-.679v-4.074a.679.679,0,0,1,.679-.679h4.074a.679.679,0,1,1,0,1.358h-3.4v3.4A.679.679,0,0,1,175.679,352.932Z" transform="translate(-155.308 -306.758)"/>
        <path id="Path_938915" data-name="Path 938915" d="M205.679,352.932a.679.679,0,0,1-.679-.679v-4.074a.679.679,0,0,1,.679-.679h4.074a.679.679,0,1,1,0,1.358h-3.4v3.4A.679.679,0,0,1,205.679,352.932Z" transform="translate(-181.234 -306.758)"/>
        <path id="Path_938916" data-name="Path 938916" d="M235.679,352.932a.679.679,0,0,1-.679-.679v-4.074a.679.679,0,0,1,.679-.679h4.074a.679.679,0,0,1,0,1.358h-3.4v3.4A.679.679,0,0,1,235.679,352.932Z" transform="translate(-207.16 -306.758)"/>
        <path id="Path_938917" data-name="Path 938917" d="M265.679,352.932a.679.679,0,0,1-.679-.679v-4.074a.679.679,0,0,1,.679-.679h4.074a.679.679,0,1,1,0,1.358h-3.4v3.4A.679.679,0,0,1,265.679,352.932Z" transform="translate(-233.086 -306.758)"/>
        <path id="Path_938918" data-name="Path 938918" d="M55.679,382.932a.679.679,0,0,1-.679-.679v-4.074a.679.679,0,0,1,.679-.679h4.074a.679.679,0,1,1,0,1.358h-3.4v3.4A.679.679,0,0,1,55.679,382.932Z" transform="translate(-51.605 -332.684)"/>
        <path id="Path_938919" data-name="Path 938919" d="M85.679,382.932a.679.679,0,0,1-.679-.679v-4.074a.679.679,0,0,1,.679-.679h4.074a.679.679,0,1,1,0,1.358h-3.4v3.4A.679.679,0,0,1,85.679,382.932Z" transform="translate(-77.531 -332.684)"/>
        <path id="Path_938920" data-name="Path 938920" d="M115.679,382.932a.679.679,0,0,1-.679-.679v-4.074a.679.679,0,0,1,.679-.679h4.074a.679.679,0,1,1,0,1.358h-3.4v3.4A.679.679,0,0,1,115.679,382.932Z" transform="translate(-103.456 -332.684)"/>
        <path id="Path_938921" data-name="Path 938921" d="M145.679,382.932a.679.679,0,0,1-.679-.679v-4.074a.679.679,0,0,1,.679-.679h4.074a.679.679,0,1,1,0,1.358h-3.4v3.4A.679.679,0,0,1,145.679,382.932Z" transform="translate(-129.382 -332.684)"/>
        <path id="Path_938922" data-name="Path 938922" d="M175.679,382.932a.679.679,0,0,1-.679-.679v-4.074a.679.679,0,0,1,.679-.679h4.074a.679.679,0,1,1,0,1.358h-3.4v3.4A.679.679,0,0,1,175.679,382.932Z" transform="translate(-155.308 -332.684)"/>
        <path id="Path_938923" data-name="Path 938923" d="M205.679,382.932a.679.679,0,0,1-.679-.679v-4.074a.679.679,0,0,1,.679-.679h4.074a.679.679,0,1,1,0,1.358h-3.4v3.4A.679.679,0,0,1,205.679,382.932Z" transform="translate(-181.234 -332.684)"/>
        <path id="Path_938924" data-name="Path 938924" d="M235.679,382.932a.679.679,0,0,1-.679-.679v-4.074a.679.679,0,0,1,.679-.679h4.074a.679.679,0,1,1,0,1.358h-3.4v3.4A.679.679,0,0,1,235.679,382.932Z" transform="translate(-207.16 -332.684)"/>
        <path id="Path_938925" data-name="Path 938925" d="M273.827,357.006a.679.679,0,0,1-.679-.679v-7.469h-2.716v3.4a.679.679,0,0,1-.679.679h-3.4v3.4a.679.679,0,1,1-1.358,0v-4.074a.679.679,0,0,1,.679-.679h3.4v-3.4a.679.679,0,0,1,.679-.679h4.074a.679.679,0,0,1,.679.679v8.148A.679.679,0,0,1,273.827,357.006Z" transform="translate(-233.086 -306.758)"/>
        <path id="Path_938926" data-name="Path 938926" d="M59.753,412.932H55.679a.679.679,0,0,1-.679-.679v-4.074a.679.679,0,0,1,.679-.679h4.074a.679.679,0,1,1,0,1.358h-3.4v2.716h3.4a.679.679,0,1,1,0,1.358Z" transform="translate(-51.605 -358.61)"/>
        <path id="Path_938927" data-name="Path 938927" d="M89.753,412.932H85.679a.679.679,0,0,1-.679-.679v-4.074a.679.679,0,0,1,.679-.679h4.074a.679.679,0,1,1,0,1.358h-3.4v2.716h3.4a.679.679,0,1,1,0,1.358Z" transform="translate(-77.531 -358.61)"/>
        <path id="Path_938928" data-name="Path 938928" d="M131.976,412.932h-16.3a.679.679,0,0,1-.679-.679v-4.074a.679.679,0,0,1,.679-.679h16.3a.679.679,0,1,1,0,1.358H116.358v2.716h15.618a.679.679,0,1,1,0,1.358Z" transform="translate(-103.456 -358.61)"/>
        <path id="Path_938929" data-name="Path 938929" d="M239.753,412.932h-4.074a.679.679,0,0,1-.679-.679v-4.074a.679.679,0,0,1,.679-.679h4.074a.679.679,0,0,1,0,1.358h-3.4v2.716h3.4a.679.679,0,0,1,0,1.358Z" transform="translate(-207.16 -358.61)"/>
        <path id="Path_938930" data-name="Path 938930" d="M269.753,412.932h-4.074a.679.679,0,0,1-.679-.679v-4.074a.679.679,0,0,1,.679-.679h4.074a.679.679,0,1,1,0,1.358h-3.4v2.716h3.4a.679.679,0,1,1,0,1.358Z" transform="translate(-233.086 -358.61)"/>
        <path id="Path_938931" data-name="Path 938931" d="M299.753,412.932h-4.074a.679.679,0,0,1-.679-.679v-4.074a.679.679,0,0,1,.679-.679h4.074a.679.679,0,0,1,.679.679v4.074A.679.679,0,0,1,299.753,412.932Zm-3.4-1.358h2.716v-2.716h-2.716Z" transform="translate(-259.011 -358.61)"/>
        <path id="Path_938932" data-name="Path 938932" d="M399.753,348.858h-4.074a.679.679,0,0,1,0-1.358h4.074a.679.679,0,0,1,0,1.358Z" transform="translate(-345.431 -306.758)"/>
        <path id="Path_938933" data-name="Path 938933" d="M429.753,352.932a.679.679,0,0,1-.679-.679v-3.4h-2.716v3.4a.679.679,0,1,1-1.358,0v-4.074a.679.679,0,0,1,.679-.679h4.074a.679.679,0,0,1,.679.679v4.074A.679.679,0,0,1,429.753,352.932Z" transform="translate(-371.357 -306.758)"/>
        <path id="Path_938934" data-name="Path 938934" d="M399.753,378.858h-4.074a.679.679,0,1,1,0-1.358h4.074a.679.679,0,0,1,0,1.358Z" transform="translate(-345.431 -332.684)"/>
        <path id="Path_938935" data-name="Path 938935" d="M399.753,438.858h-4.074a.679.679,0,1,1,0-1.358h4.074a.679.679,0,0,1,0,1.358Z" transform="translate(-345.431 -384.536)"/>
        <path id="Path_938936" data-name="Path 938936" d="M399.753,408.858h-4.074a.679.679,0,0,1,0-1.358h4.074a.679.679,0,0,1,0,1.358Z" transform="translate(-345.431 -358.61)"/>
        <path id="Path_938937" data-name="Path 938937" d="M369.753,352.932a.679.679,0,0,1-.679-.679v-3.4h-2.716v3.4a.679.679,0,1,1-1.358,0v-4.074a.679.679,0,0,1,.679-.679h4.074a.679.679,0,0,1,.679.679v4.074A.679.679,0,0,1,369.753,352.932Z" transform="translate(-319.505 -306.758)"/>
        <path id="Path_938938" data-name="Path 938938" d="M369.753,382.932a.679.679,0,0,1-.679-.679v-3.4h-2.716v3.4a.679.679,0,0,1-1.358,0v-4.074a.679.679,0,0,1,.679-.679h4.074a.679.679,0,0,1,.679.679v4.074A.679.679,0,0,1,369.753,382.932Z" transform="translate(-319.505 -332.684)"/>
        <path id="Path_938939" data-name="Path 938939" d="M369.753,412.932h-4.074a.679.679,0,0,1-.679-.679v-4.074a.679.679,0,0,1,.679-.679h4.074a.679.679,0,0,1,.679.679v4.074A.679.679,0,0,1,369.753,412.932Zm-3.4-1.358h2.716v-2.716h-2.716Z" transform="translate(-319.505 -358.61)"/>
        <path id="Path_938940" data-name="Path 938940" d="M429.753,387.006h-4.074a.679.679,0,0,1-.679-.679v-8.148a.679.679,0,0,1,.679-.679h4.074a.679.679,0,0,1,.679.679v8.148A.679.679,0,0,1,429.753,387.006Zm-3.4-1.358h2.716v-6.79h-2.716Z" transform="translate(-371.357 -332.684)"/>
        <path id="Path_938941" data-name="Path 938941" d="M241.111,238.611h-5.432a.679.679,0,0,1-.679-.679V235.9a3.4,3.4,0,0,1,6.79,0v2.037A.679.679,0,0,1,241.111,238.611Zm-4.753-1.358h4.074V235.9a2.037,2.037,0,0,0-4.074,0Z" transform="translate(-207.16 -207.376)"/>
        <path id="Path_938942" data-name="Path 938942" d="M271.976,188.858h-16.3a.679.679,0,1,1,0-1.358h16.3a.679.679,0,1,1,0,1.358Z" transform="translate(-224.444 -168.487)"/>
        <path id="Path_938943" data-name="Path 938943" d="M126.05,115.4h-14.6a6.451,6.451,0,1,1,0-12.9h5.908a9.381,9.381,0,0,1,9.371,9.371v2.852A.679.679,0,0,1,126.05,115.4Zm-14.6-11.544a5.093,5.093,0,0,0,0,10.185h13.92v-2.173a8.022,8.022,0,0,0-8.013-8.013Z" transform="translate(-94.815 -95.031)"/>
        <path id="Path_938944" data-name="Path 938944" d="M255.679,194.969a.679.679,0,0,1-.679-.679v-6.111a.679.679,0,0,1,1.358,0v6.111A.679.679,0,0,1,255.679,194.969Z" transform="translate(-224.444 -168.487)"/>
        <path id="Path_938945" data-name="Path 938945" d="M383.827,174.29h-8.148a.679.679,0,0,1-.679-.679v-5.432a.679.679,0,0,1,.679-.679h8.148a.679.679,0,0,1,.679.679v1.358a.679.679,0,0,1-1.358,0v-.679h-6.79v4.074h6.79v-.679a.679.679,0,0,1,1.358,0v1.358A.679.679,0,0,1,383.827,174.29Z" transform="translate(-328.147 -151.203)"/>
        <path id="Path_938946" data-name="Path 938946" d="M439.074,181.574h-3.4A.679.679,0,0,1,435,180.9v-2.716a.679.679,0,0,1,.679-.679h3.4a.679.679,0,0,1,.679.679V180.9A.679.679,0,0,1,439.074,181.574Zm-2.716-1.358H438.4v-1.358h-2.037Z" transform="translate(-379.999 -159.845)"/>
        <path id="Path_938947" data-name="Path 938947" d="M395.679,174.29a.679.679,0,0,1-.679-.679v-5.432a.679.679,0,1,1,1.358,0v5.432A.679.679,0,0,1,395.679,174.29Z" transform="translate(-345.431 -151.203)"/>
        <path id="Path_938948" data-name="Path 938948" d="M379.074,55.648a4.074,4.074,0,1,1,4.074-4.074A4.079,4.079,0,0,1,379.074,55.648Zm0-6.79a2.716,2.716,0,1,0,2.716,2.716A2.719,2.719,0,0,0,379.074,48.858Z" transform="translate(-328.147 -47.5)"/>
        <path id="Path_938949" data-name="Path 938949" d="M68.4,204.29a3.4,3.4,0,1,1,3.4-3.4A3.4,3.4,0,0,1,68.4,204.29Zm0-5.432a2.037,2.037,0,1,0,2.037,2.037A2.039,2.039,0,0,0,68.4,198.858Z" transform="translate(-60.247 -177.129)"/>
      </g>
    </g>
  </g>
</svg>
