<svg xmlns="http://www.w3.org/2000/svg" width="100" height="100" viewBox="0 0 100 100">
  <g id="Group_1165600" data-name="Group 1165600" transform="translate(-637 -6992)">
    <g id="Group_1098742" data-name="Group 1098742" transform="translate(637.242 6992)">
      <rect id="Rectangle_400898" data-name="Rectangle 400898" width="100" height="100" rx="50" transform="translate(-0.242)" fill="#fff" opacity="0.859"/>
      <g id="Rectangle_400907" data-name="Rectangle 400907" transform="translate(-0.242)" fill="none" stroke="#00bdff" stroke-linecap="round" stroke-width="3" stroke-dasharray="0 7">
        <rect width="100" height="100" rx="50" stroke="none"/>
        <rect x="1.5" y="1.5" width="97" height="97" rx="48.5" fill="none"/>
      </g>
    </g>
    <g id="Group_1107006" data-name="Group 1107006" transform="translate(645.398 7000.157)">
      <rect id="Rectangle_400898-2" data-name="Rectangle 400898" width="84" height="84" rx="42" transform="translate(-0.399 -0.157)" fill="#6003fe" opacity="0.859"/>
      <rect id="Rectangle_400907-2" data-name="Rectangle 400907" width="84" height="84" rx="42" transform="translate(-0.398 -0.157)" fill="none"/>
    </g>
    <g id="Group_1165507" data-name="Group 1165507" transform="translate(660.867 7015.867)">
      <g id="Group_1165505" data-name="Group 1165505" transform="translate(0.843 0.843)">
        <g id="Group_1165496" data-name="Group 1165496" transform="translate(0 0)">
          <path id="Path_939472" data-name="Path 939472" d="M33.859,9.5a3.352,3.352,0,0,0-.569,1.875v33.72H25.842a8.124,8.124,0,0,0-.428-.844L26.462,42.5l-2.385-2.385-1.745,1.047a8.338,8.338,0,0,0-2.037-.846L19.8,38.348H16.43l-.493,1.972a8.216,8.216,0,0,0-1.283.458A18.551,18.551,0,0,1,33.859,9.5Z" transform="translate(-8 -8)" fill="#69d6f4"/>
        </g>
        <g id="Group_1165497" data-name="Group 1165497" transform="translate(25.29)">
          <path id="Path_939473" data-name="Path 939473" d="M271.6,11.372v3.372H248V11.372A3.372,3.372,0,0,1,251.372,8h16.86A3.372,3.372,0,0,1,271.6,11.372Z" transform="translate(-248 -8)" fill="#969faa"/>
        </g>
        <g id="Group_1165498" data-name="Group 1165498" transform="translate(25.29 6.744)">
          <path id="Path_939474" data-name="Path 939474" d="M271.6,72V98.579a5.033,5.033,0,0,0-3.372-1.289H264.86a5.058,5.058,0,0,0-5.058,5.058H248V72Z" transform="translate(-248 -72)" fill="#4fc1e9"/>
        </g>
        <g id="Group_1165499" data-name="Group 1165499" transform="translate(38.778 20.232)">
          <path id="Path_939475" data-name="Path 939475" d="M376,200h6.744v6.744H376Z" transform="translate(-376 -200)" fill="#ff826e"/>
        </g>
        <g id="Group_1165500" data-name="Group 1165500" transform="translate(28.662 10.116)">
          <path id="Path_939476" data-name="Path 939476" d="M280,104h6.744v6.744H280Z" transform="translate(-280 -104)" fill="#ff826e"/>
        </g>
        <g id="Group_1165501" data-name="Group 1165501" transform="translate(38.778 10.116)">
          <path id="Path_939477" data-name="Path 939477" d="M376,104h6.744v6.744H376Z" transform="translate(-376 -104)" fill="#b4dd7f"/>
        </g>
        <g id="Group_1165502" data-name="Group 1165502" transform="translate(28.662 20.232)">
          <path id="Path_939478" data-name="Path 939478" d="M280,200h6.744v6.744H280Z" transform="translate(-280 -200)" fill="#b4dd7f"/>
        </g>
        <g id="Group_1165503" data-name="Group 1165503" transform="translate(0 30.348)">
          <path id="Path_939479" data-name="Path 939479" d="M26.462,300.155,25.414,301.9a8.125,8.125,0,0,1,.428.844H21.885a5.058,5.058,0,1,0,0,6.744h3.957a8.122,8.122,0,0,1-.428.844l1.047,1.745-2.385,2.385-1.745-1.047a8.338,8.338,0,0,1-2.037.846l-.493,1.972H16.43l-.493-1.972a8.338,8.338,0,0,1-2.037-.846l-1.745,1.047L9.77,312.077l1.047-1.745a8.339,8.339,0,0,1-.846-2.037L8,307.8V304.43l1.972-.493a8.338,8.338,0,0,1,.846-2.037L9.77,300.155l2.385-2.385,1.745,1.047a8.322,8.322,0,0,1,.753-.388,8.217,8.217,0,0,1,1.283-.458L16.43,296H19.8l.493,1.972a8.338,8.338,0,0,1,2.037.846l1.745-1.047Z" transform="translate(-8 -296)" fill="#fcd770"/>
        </g>
        <g id="Group_1165504" data-name="Group 1165504" transform="translate(5.058 32.034)">
          <path id="Path_939480" data-name="Path 939480" d="M99.835,313.289a5.041,5.041,0,0,1,1.686,3.769H98.149a1.686,1.686,0,0,0-1.686,1.686v3.372a1.686,1.686,0,0,0,1.686,1.686h3.372a5.058,5.058,0,0,1-5.058,5.058H93.091a5.058,5.058,0,0,1-5.058-5.058H64.827a5.058,5.058,0,1,1,0-6.744H88.033A5.058,5.058,0,0,1,93.091,312h3.372a5.033,5.033,0,0,1,3.372,1.289ZM62.744,320.43a1.686,1.686,0,1,0-1.686,1.686A1.686,1.686,0,0,0,62.744,320.43Z" transform="translate(-56 -312)" fill="#ccd1d9"/>
        </g>
      </g>
      <g id="Group_1165506" data-name="Group 1165506">
        <path id="Path_939481" data-name="Path 939481" d="M82.529,368a2.529,2.529,0,1,0,2.529,2.529A2.532,2.532,0,0,0,82.529,368Zm0,3.372a.843.843,0,1,1,.843-.843A.844.844,0,0,1,82.529,371.372Z" transform="translate(-71.57 -329.222)"/>
        <path id="Path_939482" data-name="Path 939482" d="M48.051,38.778h4.215v-.843a5.88,5.88,0,0,0-1.686-4.124V4.215A4.22,4.22,0,0,0,46.365,0H29.5a4.2,4.2,0,0,0-3.063,1.324A19.392,19.392,0,0,0,4.71,32.057L1.552,35.215l1.138,1.9a9.24,9.24,0,0,0-.546,1.315L0,38.963v4.688l2.144.536A9.211,9.211,0,0,0,2.69,45.5L1.552,47.4l3.315,3.315,1.9-1.138a9.22,9.22,0,0,0,1.315.546l.536,2.144H13.3l.536-2.144a9.22,9.22,0,0,0,1.315-.546l1.9,1.138L20.366,47.4,19.24,45.522H37.152a5.91,5.91,0,0,0,5.841,5.058h3.372a5.908,5.908,0,0,0,5.9-5.9v-.843H48.051a.844.844,0,0,1-.843-.843V39.621a.844.844,0,0,1,.843-.843ZM19.24,37.092l1.126-1.877L17.05,31.9l-1.19.714A23.613,23.613,0,0,1,13.7,28.662H25.29v8.43H19.24ZM7.654,32.644a17.74,17.74,0,0,1-3.347-3.982h7.565q.338.855.739,1.686h-4l-.536,2.144C7.936,32.539,7.795,32.59,7.654,32.644ZM11.8,19.389A23.616,23.616,0,0,1,13.045,11.8H25.29V26.976H13.049A23.529,23.529,0,0,1,11.8,19.389ZM26.976,8.43H48.894V32.6a5.865,5.865,0,0,0-2.529-.57H42.993a5.91,5.91,0,0,0-5.841,5.058H26.976ZM29.5,1.686h16.86a2.532,2.532,0,0,1,2.529,2.529V6.744H26.976V4.215A2.532,2.532,0,0,1,29.5,1.686ZM25.29,4.215v5.9H13.69a23.553,23.553,0,0,1,5.018-7.4L19.734,1.69a17.575,17.575,0,0,1,5.807,1.093,4.2,4.2,0,0,0-.251,1.431Zm-8.061-2.4a25.131,25.131,0,0,0-5.19,7.9c-.054.131-.106.264-.158.4H4.315a17.731,17.731,0,0,1,12.914-8.3ZM3.4,11.8h7.886a25.333,25.333,0,0,0-.008,15.174H3.391A17.706,17.706,0,0,1,3.4,11.8ZM18.243,47.137l-1.454,1.454-1.606-.964-.43.249a7.537,7.537,0,0,1-1.832.76l-.48.128-.454,1.815H9.931l-.454-1.815L9,48.636a7.537,7.537,0,0,1-1.832-.76l-.43-.249-1.606.964L3.675,47.137l.964-1.606L4.39,45.1a7.536,7.536,0,0,1-.761-1.832l-.128-.48-1.815-.454V40.279L3.5,39.825l.128-.48a7.536,7.536,0,0,1,.761-1.832l.249-.43-.964-1.606,1.454-1.454,1.606.964.43-.249A7.539,7.539,0,0,1,9,33.977l.48-.128.454-1.815h2.056l.454,1.815.48.128a7.54,7.54,0,0,1,1.832.761l.43.249,1.606-.964,1.454,1.454-.964,1.606.005.009h-2.2a5.9,5.9,0,1,0,0,8.43h2.2l-.005.009Zm29.808-1.615H50.5a4.222,4.222,0,0,1-4.13,3.372H42.993a4.22,4.22,0,0,1-4.215-4.215v-.843H14.351l-.251.281a4.21,4.21,0,0,1-3.309,1.4,4.255,4.255,0,0,1-4.047-4.192A4.214,4.214,0,0,1,14.1,38.5l.251.281H38.778v-.843a4.22,4.22,0,0,1,4.215-4.215h3.372a4.222,4.222,0,0,1,4.13,3.372H48.051a2.532,2.532,0,0,0-2.529,2.529v3.372a2.532,2.532,0,0,0,2.529,2.529Z"/>
        <path id="Path_939483" data-name="Path 939483" d="M208,448h1.686v1.686H208Z" transform="translate(-186.082 -400.792)"/>
        <path id="Path_939484" data-name="Path 939484" d="M240,448h1.686v1.686H240Z" transform="translate(-214.71 -400.792)"/>
        <path id="Path_939485" data-name="Path 939485" d="M272,448h1.686v1.686H272Z" transform="translate(-243.338 -400.792)"/>
        <path id="Path_939486" data-name="Path 939486" d="M272,104.43h8.43V96H272Zm1.686-6.744h5.058v5.058h-5.058Z" transform="translate(-243.338 -85.884)"/>
        <path id="Path_939487" data-name="Path 939487" d="M376.43,96H368v8.43h8.43Zm-1.686,6.744h-5.058V97.686h5.058Z" transform="translate(-329.222 -85.884)"/>
        <path id="Path_939488" data-name="Path 939488" d="M272,200.43h8.43V192H272Zm1.686-6.744h5.058v5.058h-5.058Z" transform="translate(-243.338 -171.768)"/>
        <path id="Path_939489" data-name="Path 939489" d="M376.43,192H368v8.43h8.43Zm-1.686,6.744h-5.058v-5.058h5.058Z" transform="translate(-329.222 -171.768)"/>
        <circle id="Ellipse_13559" data-name="Ellipse 13559" cx="0.879" cy="0.879" r="0.879" transform="translate(28.542 3.515)"/>
        <path id="Path_939490" data-name="Path 939490" d="M320,32h5.058v1.686H320Z" transform="translate(-286.28 -28.628)"/>
        <path id="Path_939491" data-name="Path 939491" d="M384,32h1.686v1.686H384Z" transform="translate(-343.536 -28.628)"/>
        <path id="Path_939492" data-name="Path 939492" d="M272,288h1.686v1.686H272Z" transform="translate(-243.338 -257.652)"/>
        <path id="Path_939493" data-name="Path 939493" d="M304,288h5.058v1.686H304Z" transform="translate(-271.966 -257.652)"/>
        <path id="Path_939494" data-name="Path 939494" d="M272,320h6.744v1.686H272Z" transform="translate(-243.338 -286.28)"/>
      </g>
    </g>
  </g>
</svg>
