<svg xmlns="http://www.w3.org/2000/svg" width="79.406" height="69.847" viewBox="0 0 79.406 69.847">
  <g id="Group_1165419" data-name="Group 1165419" transform="translate(-0.069 -30.84)">
    <g id="Group_1165418" data-name="Group 1165418" transform="translate(1.305 32.117)">
      <g id="Group_1165415" data-name="Group 1165415" transform="translate(9.851 27.456)">
        <path id="Path_939064" data-name="Path 939064" d="M207.171,216.087h6.193a1.357,1.357,0,0,1,1.355,1.355V250.1a1.357,1.357,0,0,1-1.355,1.355h-6.193a1.357,1.357,0,0,1-1.355-1.355V217.442A1.357,1.357,0,0,1,207.171,216.087Z" transform="translate(-184.992 -216.087)" fill="#6cf5c2" fill-rule="evenodd"/>
        <path id="Path_939065" data-name="Path 939065" d="M207.171,216.087h2.71a1.357,1.357,0,0,0-1.355,1.355V250.1a1.357,1.357,0,0,0,1.355,1.355h-2.71a1.357,1.357,0,0,1-1.355-1.355v-32.66A1.357,1.357,0,0,1,207.171,216.087Z" transform="translate(-184.992 -216.087)" fill="#00e499" fill-rule="evenodd"/>
        <path id="Path_939066" data-name="Path 939066" d="M313.744,276.326h6.193a1.357,1.357,0,0,1,1.355,1.355V301a1.357,1.357,0,0,1-1.355,1.355h-6.193A1.357,1.357,0,0,1,312.389,301V277.681A1.357,1.357,0,0,1,313.744,276.326Z" transform="translate(-275.035 -266.983)" fill="#ffe177" fill-rule="evenodd"/>
        <path id="Path_939067" data-name="Path 939067" d="M313.744,276.327h2.709a1.357,1.357,0,0,0-1.355,1.355V301a1.357,1.357,0,0,0,1.355,1.355h-2.709A1.357,1.357,0,0,1,312.389,301V277.682A1.357,1.357,0,0,1,313.744,276.327Z" transform="translate(-275.035 -266.984)" fill="#ffd064" fill-rule="evenodd"/>
        <path id="Path_939068" data-name="Path 939068" d="M426.51,334.017h-6.193a1.357,1.357,0,0,0-1.355,1.355v14.369a1.357,1.357,0,0,0,1.355,1.355h6.193a1.357,1.357,0,0,0,1.355-1.355V335.372A1.357,1.357,0,0,0,426.51,334.017Z" transform="translate(-365.078 -315.726)" fill="#fe646f" fill-rule="evenodd"/>
        <path id="Path_939069" data-name="Path 939069" d="M423.026,334.017h-2.71a1.357,1.357,0,0,0-1.355,1.355v14.369a1.357,1.357,0,0,0,1.355,1.355h2.71a1.357,1.357,0,0,1-1.355-1.355V335.372A1.357,1.357,0,0,1,423.026,334.017Z" transform="translate(-365.078 -315.726)" fill="#fd4755" fill-rule="evenodd"/>
        <path id="Path_939070" data-name="Path 939070" d="M137.285,437.893H72.908a1.355,1.355,0,0,0-1.352,1.352v.651a1.355,1.355,0,0,0,1.352,1.352h64.376a1.355,1.355,0,0,0,1.352-1.352v-.651A1.355,1.355,0,0,0,137.285,437.893Z" transform="translate(-71.556 -403.49)" fill="#a79ba7" fill-rule="evenodd"/>
        <path id="Path_939071" data-name="Path 939071" d="M71.556,448.711v.326a1.355,1.355,0,0,0,1.352,1.352h64.376a1.355,1.355,0,0,0,1.352-1.352v-.326Z" transform="translate(-71.556 -412.63)" fill="#837683" fill-rule="evenodd"/>
      </g>
      <g id="Group_1165416" data-name="Group 1165416" transform="translate(25.626 0)">
        <path id="Path_939072" data-name="Path 939072" d="M210.272,67.353a40.418,40.418,0,0,1-19.33-5.859c-9.33-5.571-15.577-13.953-17.68-22.424a38.884,38.884,0,0,0,14.486,14.521,53.634,53.634,0,0,0,22.993,6.786L211,56.464a.409.409,0,0,1,.682-.276l8.747,7.9a.409.409,0,0,1-.04.639l-9.734,6.768a.409.409,0,0,1-.642-.363Z" transform="translate(-173.262 -39.07)" fill="#ffe177" fill-rule="evenodd"/>
        <path id="Path_939073" data-name="Path 939073" d="M210.272,67.353a40.418,40.418,0,0,1-19.33-5.859c-9.33-5.571-15.577-13.953-17.68-22.424l.142.248,0,.006,0,.006h0l0,.005,0,.006.057.1c2.629,7.583,9.587,15.506,16.925,19.888a38.914,38.914,0,0,0,19.873,5.892Zm8.953-4.36-9.084,6.317-.122,1.819a.409.409,0,0,0,.642.363l9.734-6.768a.409.409,0,0,0,.04-.639Z" transform="translate(-173.262 -39.07)" fill="#ffd064" fill-rule="evenodd"/>
      </g>
      <g id="Group_1165417" data-name="Group 1165417" transform="translate(0 13.026)">
        <path id="Path_939074" data-name="Path 939074" d="M30.183,134.791l1.8,5.382c4.7,5.037,8.119,9.3,10.266,13.074,6.863,12.05-2.9,24.289-15.975,24.068C13.2,177.536,3.439,165.3,10.3,153.247c2.147-3.769,5.569-8.037,10.266-13.074l1.808-5.376-4.4-4.4a2.762,2.762,0,0,1,3.447-4.277,1.42,1.42,0,0,0,2.155-.892,2.762,2.762,0,0,1,5.4,0,1.42,1.42,0,0,0,2.155.892,2.774,2.774,0,0,1,3.448.37h0a2.77,2.77,0,0,1,0,3.906Z" transform="translate(-8.042 -123.051)" fill="#ffc338" fill-rule="evenodd"/>
        <path id="Path_939075" data-name="Path 939075" d="M90.784,134.791l1.8,5.382c4.7,5.037,8.119,9.3,10.266,13.074,6.863,12.05-2.9,24.289-15.975,24.068-.256,0-.51,0-.764,0,12.687-.257,21.94-12.251,15.211-24.065-2.147-3.77-5.569-8.037-10.266-13.074l-1.8-5.382,4.4-4.4a2.77,2.77,0,0,0,0-3.906h0a2.738,2.738,0,0,0-1.19-.7,2.769,2.769,0,0,1,2.717.7h0a2.77,2.77,0,0,1,0,3.906Zm-11.016-9a2.773,2.773,0,0,1,2.255.329l.006,0a1.5,1.5,0,0,1-.222.114,1.382,1.382,0,0,1-1.311-.117A2.748,2.748,0,0,0,79.768,125.791Zm6.345-2.632a2.777,2.777,0,0,1,1.936,2.068,1.42,1.42,0,0,0,2.149.9,1.376,1.376,0,0,1-.622-.9,2.773,2.773,0,0,0-2.7-2.176A2.741,2.741,0,0,0,86.113,123.159Z" transform="translate(-68.643 -123.051)" fill="#f5b829" fill-rule="evenodd"/>
        <path id="Path_939076" data-name="Path 939076" d="M72.3,204.16H84.293a2.688,2.688,0,1,0,0-5.376H72.3a2.688,2.688,0,1,0,0,5.376Z" transform="translate(-60.063 -187.038)" fill="#837683" fill-rule="evenodd"/>
        <path id="Path_939077" data-name="Path 939077" d="M154.416,204.16h1.527a2.688,2.688,0,1,0,0-5.376h-1.527a2.688,2.688,0,1,1,0,5.376Z" transform="translate(-131.713 -187.038)" fill="#685e68" fill-rule="evenodd"/>
      </g>
    </g>
    <path id="Path_939078" data-name="Path 939078" d="M25.357,84.128a4.016,4.016,0,0,1-.941,3.2,6.067,6.067,0,0,1-3.69,1.846v.906a1.241,1.241,0,0,1-2.481,0v-.925a5.579,5.579,0,0,1-4.63-4.067,1.241,1.241,0,0,1,2.409-.6,3.354,3.354,0,0,0,3.452,2.294h.169A4.112,4.112,0,0,0,22.539,85.7a1.535,1.535,0,0,0,.353-1.275c-.1-.85-.6-1.891-3.6-2.381-4.177-.687-5.151-2.844-5.233-4.534a4.812,4.812,0,0,1,4.043-4.87l.137-.029v-.944a1.241,1.241,0,1,1,2.481,0V72.6a5.545,5.545,0,0,1,4.185,3.373,1.24,1.24,0,0,1-2.287.96,3.2,3.2,0,0,0-3.065-1.971,4.961,4.961,0,0,0-.9.1,2.381,2.381,0,0,0-2.114,2.328c.023.465.083,1.7,3.156,2.206,1.289.211,5.211.855,5.658,4.532Zm51.636,12H32.864c.335-.279.659-.572.974-.874H76.993v.874ZM19.514,98.2c.014,0,.259,0,.367,0a16.957,16.957,0,0,0,14.748-7.9c2.617-4.413,2.547-9.5-.2-14.314C32.47,72.545,29.372,68.58,24.7,63.543H14.368C9.7,68.58,6.6,72.545,4.64,75.988c-2.744,4.817-2.814,9.9-.2,14.314a17.014,17.014,0,0,0,15.073,7.9ZM13.54,58.165H25.532a1.448,1.448,0,0,1,0,2.9H13.54a1.448,1.448,0,0,1,0-2.9Zm-1.87-7.594a1.51,1.51,0,0,1,.442-1.076,1.531,1.531,0,0,1,1.9-.2,2.663,2.663,0,0,0,4.038-1.673,1.522,1.522,0,0,1,2.975,0,2.662,2.662,0,0,0,4.038,1.673,1.521,1.521,0,0,1,1.9,2.354l-4.038,4.038H16.148l-4.037-4.038a1.508,1.508,0,0,1-.442-1.075Zm21.571,10.3h6.406v31.9H35.98c.276-.389.539-.787.785-1.2,3.044-5.139,2.98-11.264-.177-16.808a47.005,47.005,0,0,0-3.349-5.013V60.872Zm16.5,9.328h6.406V92.77H49.741Zm16.5,8.934H72.65V92.77H66.244ZM78.234,92.77h-3.1V77.893a1.241,1.241,0,0,0-1.241-1.241H65a1.241,1.241,0,0,0-1.24,1.241V92.77H58.629V68.959a1.241,1.241,0,0,0-1.241-1.241H48.5a1.242,1.242,0,0,0-1.241,1.241V92.77H42.127V59.631a1.241,1.241,0,0,0-1.241-1.241H32a1.241,1.241,0,0,0-1.241,1.241v7.007q-1.457-1.738-3.2-3.659a3.927,3.927,0,0,0-1.208-7.209L28.715,53.4a4,4,0,0,0-5-6.2.147.147,0,0,1-.165.015.149.149,0,0,1-.107-.127,4,4,0,0,0-7.823,0,.179.179,0,0,1-.273.112,4.025,4.025,0,0,0-4.994.538,4.011,4.011,0,0,0,0,5.661l2.368,2.368a3.928,3.928,0,0,0-1.21,7.209A69.174,69.174,0,0,0,2.482,74.761C-.674,80.3-.737,86.429,2.307,91.569a19.442,19.442,0,0,0,16.883,9.118h.691a20.846,20.846,0,0,0,9.134-2.078H78.234a1.241,1.241,0,0,0,1.241-1.241V94.011a1.242,1.242,0,0,0-1.241-1.241ZM40.658,47.549a43.447,43.447,0,0,1-8.435-6.482A39.3,39.3,0,0,0,45.1,53.258a38.784,38.784,0,0,0,18.574,5.634,1.24,1.24,0,0,1,1.2,1.324l-.13,1.936L72.227,56.7,65.49,51.026,65.338,53.3a1.248,1.248,0,0,1-1.272,1.157A54.452,54.452,0,0,1,40.658,47.549Zm3.168,7.838c-9.246-5.52-15.845-13.907-18.1-23.007a1.24,1.24,0,0,1,2.283-.91A37.617,37.617,0,0,0,41.931,45.419a52.317,52.317,0,0,0,21.012,6.5l.236-3.5a1.241,1.241,0,0,1,2.037-.866l9.819,8.272a1.242,1.242,0,0,1-.069,1.953L64.057,65.723a1.241,1.241,0,0,1-1.969-1.086l.225-3.325a41.561,41.561,0,0,1-18.485-5.925Z" transform="translate(0 0)" fill-rule="evenodd"/>
  </g>
</svg>
