<svg xmlns="http://www.w3.org/2000/svg" width="70" height="70" viewBox="0 0 70 70">
  <g id="Group_1165102" data-name="Group 1165102" transform="translate(-704.668 -6155)">
    <rect id="Rectangle_402033" data-name="Rectangle 402033" width="70" height="70" rx="8" transform="translate(704.668 6155)" fill="#6003fe"/>
    <g id="Group_1165514" data-name="Group 1165514" transform="translate(716.373 6152.589)">
      <path id="Path_939527" data-name="Path 939527" d="M287.062,395.781v4.24c0,2.342,4.429,4.24,9.893,4.24s9.893-1.9,9.893-4.24v-4.24Z" transform="translate(-260.941 -345.651)" fill="#5f99d7"/>
      <path id="Path_939528" data-name="Path 939528" d="M306.421,395.781v2.42c0,2.342-4.429,4.24-9.893,4.24a16.727,16.727,0,0,1-7.934-1.707c.791,2,4.857,3.526,9.753,3.526,5.464,0,9.893-1.9,9.893-4.24v-4.24Z" transform="translate(-262.334 -345.651)" fill="#3c87d0"/>
      <ellipse id="Ellipse_13563" data-name="Ellipse 13563" cx="9.893" cy="4.24" rx="9.893" ry="4.24" transform="translate(26.121 45.89)" fill="#0078c8"/>
      <path id="Path_939529" data-name="Path 939529" d="M287.062,318.125v4.24c0,2.342,4.429,4.24,9.893,4.24s9.893-1.9,9.893-4.24v-4.24Z" transform="translate(-260.941 -275.061)" fill="#5f99d7"/>
      <path id="Path_939530" data-name="Path 939530" d="M306.421,318.125v2.42c0,2.342-4.429,4.24-9.893,4.24a16.726,16.726,0,0,1-7.934-1.707c.791,2,4.857,3.526,9.753,3.526,5.464,0,9.893-1.9,9.893-4.24v-4.24Z" transform="translate(-262.334 -275.061)" fill="#3c87d0"/>
      <ellipse id="Ellipse_13564" data-name="Ellipse 13564" cx="9.893" cy="4.24" rx="9.893" ry="4.24" transform="translate(26.121 38.824)" fill="#0078c8"/>
      <path id="Path_939531" data-name="Path 939531" d="M287.062,240.468v4.24c0,2.342,4.429,4.24,9.893,4.24s9.893-1.9,9.893-4.24v-4.24H287.062Z" transform="translate(-260.941 -204.471)" fill="#5f99d7"/>
      <path id="Path_939532" data-name="Path 939532" d="M306.421,240.469v2.42c0,2.342-4.429,4.24-9.893,4.24a16.726,16.726,0,0,1-7.934-1.707c.791,2,4.857,3.526,9.753,3.526,5.464,0,9.893-1.9,9.893-4.24v-4.24Z" transform="translate(-262.334 -204.471)" fill="#3c87d0"/>
      <ellipse id="Ellipse_13565" data-name="Ellipse 13565" cx="9.893" cy="4.24" rx="9.893" ry="4.24" transform="translate(26.121 31.758)" fill="#7bacdf"/>
      <path id="Path_939533" data-name="Path 939533" d="M99.526,63.993l-5.2-1.428a.227.227,0,0,1-.083-.4l.357-.288a.454.454,0,0,0,.005-.7A12.72,12.72,0,0,0,73.86,71.049H69.62A16.959,16.959,0,0,1,98.073,58.578a.453.453,0,0,0,.592.018l.48-.388a.228.228,0,0,1,.37.164l.3,5.389A.228.228,0,0,1,99.526,63.993Z" transform="translate(-63.285 -35.051)" fill="#bbec6c"/>
      <path id="Path_939534" data-name="Path 939534" d="M343,104.4l-.3-5.389a.227.227,0,0,0-.37-.164l-.48.388a.453.453,0,0,1-.592-.018q-.125-.115-.253-.229l.173,3.137a.228.228,0,0,1-.287.232l-3.741-1.027q.326.233.636.485a.454.454,0,0,1-.005.7l-.357.288a.227.227,0,0,0,.083.4l5.2,1.428A.228.228,0,0,0,343,104.4Z" transform="translate(-306.475 -75.691)" fill="#a2e62e"/>
      <path id="Path_939535" data-name="Path 939535" d="M7.5,395.781v4.24c0,2.342,4.429,4.24,9.893,4.24s9.893-1.9,9.893-4.24v-4.24Z" transform="translate(-6.818 -345.651)" fill="#d8ecfe"/>
      <path id="Path_939536" data-name="Path 939536" d="M26.859,395.781v2.42c0,2.342-4.429,4.24-9.893,4.24a16.727,16.727,0,0,1-7.934-1.707c.791,2,4.857,3.526,9.753,3.526,5.464,0,9.893-1.9,9.893-4.24v-4.24Z" transform="translate(-8.211 -345.651)" fill="#c4e2ff"/>
      <ellipse id="Ellipse_13566" data-name="Ellipse 13566" cx="9.893" cy="4.24" rx="9.893" ry="4.24" transform="translate(0.682 45.89)" fill="#b3dafe"/>
      <path id="Path_939537" data-name="Path 939537" d="M7.5,318.125v4.24c0,2.342,4.429,4.24,9.893,4.24s9.893-1.9,9.893-4.24v-4.24Z" transform="translate(-6.818 -275.061)" fill="#d8ecfe"/>
      <path id="Path_939538" data-name="Path 939538" d="M26.859,318.125v2.42c0,2.342-4.429,4.24-9.893,4.24a16.726,16.726,0,0,1-7.934-1.707c.791,2,4.857,3.526,9.753,3.526,5.464,0,9.893-1.9,9.893-4.24v-4.24Z" transform="translate(-8.211 -275.061)" fill="#c4e2ff"/>
      <ellipse id="Ellipse_13567" data-name="Ellipse 13567" cx="9.893" cy="4.24" rx="9.893" ry="4.24" transform="translate(0.682 38.824)" fill="#b3dafe"/>
      <path id="Path_939539" data-name="Path 939539" d="M7.5,240.469v4.24c0,2.342,4.429,4.24,9.893,4.24s9.893-1.9,9.893-4.24v-4.24Z" transform="translate(-6.818 -204.471)" fill="#d8ecfe"/>
      <path id="Path_939540" data-name="Path 939540" d="M26.859,240.469v2.42c0,2.342-4.429,4.24-9.893,4.24a16.726,16.726,0,0,1-7.934-1.707c.791,2,4.857,3.526,9.753,3.526,5.464,0,9.893-1.9,9.893-4.24v-4.24Z" transform="translate(-8.211 -204.471)" fill="#c4e2ff"/>
      <ellipse id="Ellipse_13568" data-name="Ellipse 13568" cx="9.893" cy="4.24" rx="9.893" ry="4.24" transform="translate(0.682 31.758)" fill="#eaf6ff"/>
      <path id="Path_939541" data-name="Path 939541" d="M217.431,32.924h-7.57a.455.455,0,0,1-.455-.455V23.486a.455.455,0,0,1,.455-.455h4.821a.91.91,0,0,1,.643.267l2.294,2.294a.91.91,0,0,1,.267.643v6.234A.455.455,0,0,1,217.431,32.924Z" transform="translate(-190.351 -6.819)" fill="#eaf6ff"/>
      <path id="Path_939542" data-name="Path 939542" d="M217.619,37.63l-1.355-1.355a.911.911,0,0,1,.075.36V42.87a.455.455,0,0,1-.455.455h-6.478v1.183a.455.455,0,0,0,.455.455h7.57a.455.455,0,0,0,.455-.455V38.273A.91.91,0,0,0,217.619,37.63Z" transform="translate(-190.351 -18.858)" fill="#d8ecfe"/>
      <path id="Path_939543" data-name="Path 939543" d="M233.651,47.959h1.413a.682.682,0,0,0,0-1.365h-1.413a.682.682,0,0,0,0,1.365Z" transform="translate(-211.77 -28.238)"/>
      <path id="Path_939544" data-name="Path 939544" d="M236.478,77.656h-2.827a.682.682,0,0,0,0,1.365h2.827a.682.682,0,0,0,0-1.365Z" transform="translate(-211.77 -56.474)"/>
      <path id="Path_939545" data-name="Path 939545" d="M300.713,191.3c0-1.423-1.176-2.71-3.311-3.625a20.992,20.992,0,0,0-14.528,0c-2.135.915-3.311,2.2-3.311,3.625v4.24a2.709,2.709,0,0,0,.41,1.413,2.707,2.707,0,0,0-.41,1.414v4.24a2.709,2.709,0,0,0,.41,1.413,2.707,2.707,0,0,0-.41,1.414v4.24c0,1.423,1.176,2.71,3.311,3.625a20.991,20.991,0,0,0,14.528,0c2.135-.915,3.311-2.2,3.311-3.625v-4.24a2.707,2.707,0,0,0-.41-1.414,2.709,2.709,0,0,0,.41-1.413v-4.24a2.707,2.707,0,0,0-.41-1.414,2.709,2.709,0,0,0,.41-1.413Zm-1.365,14.133c0,1.683-3.783,3.557-9.21,3.557s-9.21-1.875-9.21-3.557a1.2,1.2,0,0,1,.041-.309,8.129,8.129,0,0,0,1.9,1.107,20.991,20.991,0,0,0,14.528,0,8.132,8.132,0,0,0,1.905-1.107A1.2,1.2,0,0,1,299.348,205.43Zm-9.21-6.336c-5.428,0-9.21-1.875-9.21-3.557v-1.756a8.054,8.054,0,0,0,1.946,1.141,20.991,20.991,0,0,0,14.528,0,8.057,8.057,0,0,0,1.946-1.141v1.756C299.348,197.22,295.565,199.094,290.137,199.094Zm9.21-.731c0,1.683-3.783,3.557-9.21,3.557a20.956,20.956,0,0,1-3.759-.328.683.683,0,0,0-.246,1.343,22.325,22.325,0,0,0,4,.35,19,19,0,0,0,7.264-1.3,8.058,8.058,0,0,0,1.946-1.141V202.6c0,1.683-3.783,3.557-9.21,3.557s-9.211-1.875-9.211-3.557v-1.755A8.09,8.09,0,0,0,282.9,202a.682.682,0,1,0,.535-1.256c-1.592-.678-2.505-1.545-2.505-2.38a1.2,1.2,0,0,1,.041-.309,8.129,8.129,0,0,0,1.9,1.108,20.992,20.992,0,0,0,14.528,0,8.131,8.131,0,0,0,1.9-1.108A1.194,1.194,0,0,1,299.348,198.364Zm-9.21-10.624c5.428,0,9.21,1.875,9.21,3.557s-3.783,3.557-9.21,3.557-9.21-1.875-9.21-3.557S284.71,187.74,290.137,187.74Zm0,25.487c-5.428,0-9.21-1.875-9.21-3.557v-1.756a8.054,8.054,0,0,0,1.946,1.141,20.992,20.992,0,0,0,14.528,0,8.058,8.058,0,0,0,1.946-1.141v1.756C299.348,211.352,295.565,213.227,290.137,213.227Z" transform="translate(-254.123 -155.3)"/>
      <path id="Path_939546" data-name="Path 939546" d="M17.84,32.372a17.6,17.6,0,0,0-5.56-1.236,11.989,11.989,0,0,1,6.093-6.127v.64a1.139,1.139,0,0,0,1.137,1.137h7.57a1.139,1.139,0,0,0,1.137-1.137v-.64a12.015,12.015,0,0,1,2.444,1.467l-.134.109a.909.909,0,0,0,.33,1.586l5.2,1.427a.91.91,0,0,0,1.153-.927l-.3-5.387a.91.91,0,0,0-1.48-.659l-.328.265a17.68,17.68,0,0,0-6.931-3.852,1.583,1.583,0,0,0-.422-.749L25.457,16a1.582,1.582,0,0,0-1.126-.466H19.51a1.139,1.139,0,0,0-1.137,1.137v2.385a17.572,17.572,0,0,0-2.825,1.092.682.682,0,1,0,.6,1.226,16.2,16.2,0,0,1,2.225-.891v3.051a13.355,13.355,0,0,0-7.547,7.548h-.25a23.193,23.193,0,0,0-2.854.173,16.338,16.338,0,0,1,5.789-8.26.682.682,0,1,0-.821-1.09,17.7,17.7,0,0,0-6.455,9.591,14.984,14.984,0,0,0-2.923.883C1.176,33.287,0,34.575,0,36v4.24A2.709,2.709,0,0,0,.41,41.65,2.707,2.707,0,0,0,0,43.064V47.3a2.709,2.709,0,0,0,.41,1.413A2.707,2.707,0,0,0,0,50.13v4.24C0,55.793,1.176,57.08,3.311,58a19,19,0,0,0,7.264,1.3A19,19,0,0,0,17.84,58c2.135-.915,3.311-2.2,3.311-3.625V50.13a2.707,2.707,0,0,0-.41-1.414,2.709,2.709,0,0,0,.41-1.413v-4.24a2.707,2.707,0,0,0-.41-1.414,2.709,2.709,0,0,0,.41-1.413V36c0-1.423-1.176-2.71-3.311-3.625ZM35.6,24.211l.216,3.905L32,27.069a1.136,1.136,0,0,0-.249-1.472,13.378,13.378,0,0,0-3.53-2.067V20.478a16.318,16.318,0,0,1,6.107,3.55,1.144,1.144,0,0,0,1.272.183ZM19.737,16.894h4.594a.229.229,0,0,1,.161.067l2.294,2.294a.229.229,0,0,1,.067.161v6.007H19.737V16.894Zm.048,30.41c0,1.683-3.783,3.557-9.21,3.557s-9.21-1.875-9.21-3.557V45.548a8.055,8.055,0,0,0,1.946,1.141,19,19,0,0,0,7.264,1.3,19,19,0,0,0,7.264-1.3,8.057,8.057,0,0,0,1.946-1.141Zm0-4.24c0,1.683-3.783,3.557-9.21,3.557s-9.21-1.875-9.21-3.557a1.2,1.2,0,0,1,.041-.309,8.129,8.129,0,0,0,1.9,1.108,19,19,0,0,0,7.264,1.3,19,19,0,0,0,7.264-1.3,8.132,8.132,0,0,0,1.9-1.108A1.2,1.2,0,0,1,19.786,43.064Zm0-2.827c0,1.683-3.783,3.557-9.21,3.557s-9.21-1.875-9.21-3.557V38.482a8.054,8.054,0,0,0,1.946,1.141,19,19,0,0,0,7.264,1.3,19,19,0,0,0,7.264-1.3,8.057,8.057,0,0,0,1.946-1.141Zm-9.21-7.8c5.428,0,9.21,1.875,9.21,3.557S16,39.555,10.575,39.555,1.365,37.68,1.365,36s3.783-3.557,9.21-3.557Zm0,25.487c-5.428,0-9.21-1.875-9.21-3.557V52.615a8.09,8.09,0,0,0,1.97,1.151A.682.682,0,1,0,3.87,52.51c-1.592-.678-2.505-1.545-2.505-2.38a1.2,1.2,0,0,1,.041-.309,8.129,8.129,0,0,0,1.9,1.108,19,19,0,0,0,7.264,1.3,19,19,0,0,0,7.264-1.3,8.131,8.131,0,0,0,1.9-1.108,1.2,1.2,0,0,1,.041.309c0,1.683-3.783,3.557-9.21,3.557a20.955,20.955,0,0,1-3.759-.328A.683.683,0,0,0,6.57,54.7a22.326,22.326,0,0,0,4,.35,19,19,0,0,0,7.264-1.3,8.058,8.058,0,0,0,1.946-1.141V54.37C19.786,56.053,16,57.927,10.575,57.927Z" transform="translate(0)"/>
    </g>
  </g>
</svg>
