<svg xmlns="http://www.w3.org/2000/svg" width="120" height="120" viewBox="0 0 120 120">
  <g id="Group_1164987" data-name="Group 1164987" transform="translate(-64 -6445)">
    <rect id="Rectangle_402033" data-name="Rectangle 402033" width="120" height="120" rx="8" transform="translate(64 6445)" fill="#6003fe"/>
    <g id="Rectangle_412110" data-name="Rectangle 412110" transform="translate(69 6450)" fill="none" stroke="#fff" stroke-width="1">
      <rect width="110" height="110" rx="6" stroke="none"/>
      <rect x="0.5" y="0.5" width="109" height="109" rx="5.5" fill="none"/>
    </g>
    <g id="Group_1155336" data-name="Group 1155336" transform="translate(-325 -2)">
      <circle id="Ellipse_13473" data-name="Ellipse 13473" cx="60" cy="60" r="60" transform="translate(389 6447)" fill="#6003fe"/>
      <g id="Ellipse_13474" data-name="Ellipse 13474" transform="translate(399 6457)" fill="none" stroke="#fff" stroke-width="1">
        <circle cx="50" cy="50" r="50" stroke="none"/>
        <circle cx="50" cy="50" r="49.5" fill="none"/>
      </g>
      <g id="Group_1165199" data-name="Group 1165199" transform="translate(415.986 6473.982)">
        <path id="Path_938327" data-name="Path 938327" d="M12.006,41.725A11.007,11.007,0,0,1,9.573,19.987a.543.543,0,0,0,.418-.649,9.122,9.122,0,0,1-.143-2.7A8.792,8.792,0,0,1,21.956,9.365a.55.55,0,0,0,.693-.253,15.434,15.434,0,0,1,28.937,5.713.55.55,0,0,0,.528.5A13.208,13.208,0,0,1,53.82,41.538Z" transform="translate(0.102 0.101)" fill="#6ddcdd"/>
        <path id="Path_938328" data-name="Path 938328" d="M52.826,32.906V26.3a3.3,3.3,0,0,0-3.3-3.3H14.3A3.3,3.3,0,0,0,11,26.3v6.6a3.3,3.3,0,0,0,3.3,3.3,3.3,3.3,0,0,0-3.3,3.3v6.6a3.3,3.3,0,0,0,3.3,3.3,3.3,3.3,0,0,0-3.3,3.3v6.6a3.3,3.3,0,0,0,3.3,3.3H49.524a3.3,3.3,0,0,0,3.3-3.3v-6.6a3.3,3.3,0,0,0-3.3-3.3,3.3,3.3,0,0,0,3.3-3.3v-6.6a3.3,3.3,0,0,0-3.3-3.3A3.3,3.3,0,0,0,52.826,32.906Z" transform="translate(1.107 2.316)" fill="#609dc8"/>
        <rect id="Rectangle_448093" data-name="Rectangle 448093" width="41.826" height="13.208" rx="3" transform="translate(12.107 38.524)" fill="#4b88a9"/>
        <circle id="Ellipse_13492" data-name="Ellipse 13492" cx="2.201" cy="2.201" r="2.201" transform="translate(16.51 42.927)" fill="#fde36e"/>
        <circle id="Ellipse_13493" data-name="Ellipse 13493" cx="2.201" cy="2.201" r="2.201" transform="translate(25.316 42.927)" fill="#6ddcdd"/>
        <circle id="Ellipse_13494" data-name="Ellipse 13494" cx="2.201" cy="2.201" r="2.201" transform="translate(16.51 29.719)" fill="#fde36e"/>
        <circle id="Ellipse_13495" data-name="Ellipse 13495" cx="2.201" cy="2.201" r="2.201" transform="translate(25.316 29.719)" fill="#6ddcdd"/>
        <circle id="Ellipse_13496" data-name="Ellipse 13496" cx="2.201" cy="2.201" r="2.201" transform="translate(16.51 56.135)" fill="#fde36e"/>
        <circle id="Ellipse_13497" data-name="Ellipse 13497" cx="2.201" cy="2.201" r="2.201" transform="translate(25.316 56.135)" fill="#6ddcdd"/>
        <g id="Group_1165198" data-name="Group 1165198" transform="translate(0 -0.005)">
          <path id="Path_938329" data-name="Path 938329" d="M17.3,38a3.3,3.3,0,1,0,3.3,3.3A3.3,3.3,0,0,0,17.3,38Zm0,4.4a1.1,1.1,0,1,1,1.1-1.1A1.1,1.1,0,0,1,17.3,42.4Z" transform="translate(1.41 3.831)"/>
          <path id="Path_938330" data-name="Path 938330" d="M25.3,38a3.3,3.3,0,1,0,3.3,3.3A3.3,3.3,0,0,0,25.3,38Zm0,4.4a1.1,1.1,0,1,1,1.1-1.1A1.1,1.1,0,0,1,25.3,42.4Z" transform="translate(2.215 3.831)"/>
          <path id="Path_938331" data-name="Path 938331" d="M17.3,26a3.3,3.3,0,1,0,3.3,3.3A3.3,3.3,0,0,0,17.3,26Zm0,4.4a1.1,1.1,0,1,1,1.1-1.1A1.1,1.1,0,0,1,17.3,30.4Z" transform="translate(1.41 2.623)"/>
          <path id="Path_938332" data-name="Path 938332" d="M25.3,26a3.3,3.3,0,1,0,3.3,3.3A3.3,3.3,0,0,0,25.3,26Zm0,4.4a1.1,1.1,0,1,1,1.1-1.1A1.1,1.1,0,0,1,25.3,30.4Z" transform="translate(2.215 2.623)"/>
          <path id="Path_938333" data-name="Path 938333" d="M17.3,56.6A3.3,3.3,0,1,0,14,53.3a3.3,3.3,0,0,0,3.3,3.3Zm0-4.4a1.1,1.1,0,1,1-1.1,1.1A1.1,1.1,0,0,1,17.3,52.2Z" transform="translate(1.41 5.039)"/>
          <path id="Path_938334" data-name="Path 938334" d="M25.3,56.6A3.3,3.3,0,1,0,22,53.3a3.3,3.3,0,0,0,3.3,3.3Zm0-4.4a1.1,1.1,0,1,1-1.1,1.1A1.1,1.1,0,0,1,25.3,52.2Z" transform="translate(2.215 5.039)"/>
          <path id="Path_938335" data-name="Path 938335" d="M52.728,14.345A16.535,16.535,0,0,0,22.014,8.271a10.03,10.03,0,0,0-4.659-.479,9.9,9.9,0,0,0-8.5,8.846,10.287,10.287,0,0,0,.067,2.5,12.138,12.138,0,0,0-7.913,6.836,1.1,1.1,0,1,0,2.016.881,9.922,9.922,0,0,1,6.89-5.694,1.643,1.643,0,0,0,1.039-.728,1.61,1.61,0,0,0,.22-1.218,8.049,8.049,0,0,1-.124-2.376,7.677,7.677,0,0,1,6.6-6.865,7.879,7.879,0,0,1,4.027.52,1.661,1.661,0,0,0,2.052-.761,14.333,14.333,0,0,1,26.873,5.323,1.651,1.651,0,0,0,1.583,1.463,12.107,12.107,0,0,1,2.58,23.818,4.4,4.4,0,0,0-1.245-1.814,4.374,4.374,0,0,0,1.521-3.3v-6.6a4.4,4.4,0,0,0-4.4-4.4H15.41a4.4,4.4,0,0,0-4.4,4.4v6.6a4.374,4.374,0,0,0,1.521,3.3,4.381,4.381,0,0,0-1.351,2.154A9.916,9.916,0,0,1,2.2,30.819a1.1,1.1,0,1,0-2.2,0A12.118,12.118,0,0,0,11.007,42.871v5.56a4.374,4.374,0,0,0,1.521,3.3,4.374,4.374,0,0,0-1.521,3.3v6.6a4.4,4.4,0,0,0,4.4,4.4H50.631a4.4,4.4,0,0,0,4.4-4.4v-6.6a4.374,4.374,0,0,0-1.521-3.3,4.374,4.374,0,0,0,1.521-3.3v-5.9A14.3,14.3,0,0,0,52.728,14.35ZM13.208,35.222v-6.6a2.2,2.2,0,0,1,2.2-2.2H50.631a2.2,2.2,0,0,1,2.2,2.2v6.6a2.2,2.2,0,0,1-2.2,2.2H15.41A2.2,2.2,0,0,1,13.208,35.222ZM52.833,55.034v6.6a2.2,2.2,0,0,1-2.2,2.2H15.41a2.2,2.2,0,0,1-2.2-2.2v-6.6a2.2,2.2,0,0,1,2.2-2.2H50.631A2.2,2.2,0,0,1,52.833,55.034Zm-37.423-4.4a2.2,2.2,0,0,1-2.2-2.2v-6.6a2.2,2.2,0,0,1,2.2-2.2H50.631a2.2,2.2,0,0,1,2.2,2.2v6.6a2.2,2.2,0,0,1-2.2,2.2Z" transform="translate(0 0.005)"/>
          <path id="Path_938336" data-name="Path 938336" d="M26.181,11.322a1.1,1.1,0,0,0-1.556,0l-3.3,3.3a1.1,1.1,0,0,0,0,1.556l3.3,3.3a1.1,1.1,0,1,0,1.556-1.556L23.657,15.4l2.524-2.524a1.1,1.1,0,0,0,0-1.556Z" transform="translate(2.114 1.113)"/>
          <path id="Path_938337" data-name="Path 938337" d="M34.323,19.483a1.1,1.1,0,0,0,1.556,0l3.3-3.3a1.1,1.1,0,0,0,0-1.556l-3.3-3.3a1.1,1.1,0,1,0-1.556,1.556L36.846,15.4l-2.524,2.524A1.1,1.1,0,0,0,34.323,19.483Z" transform="translate(3.423 1.113)"/>
          <path id="Path_938338" data-name="Path 938338" d="M29.1,19.806a1.1,1.1,0,0,0,1.043-.753l2.2-6.6a1.1,1.1,0,0,0-2.091-.7l-2.2,6.6A1.1,1.1,0,0,0,29.1,19.806Z" transform="translate(2.819 1.113)"/>
          <path id="Path_938339" data-name="Path 938339" d="M35.2,38H34.1a1.1,1.1,0,1,0,0,2.2h1.1a1.1,1.1,0,1,0,0-2.2Z" transform="translate(3.322 3.831)"/>
          <path id="Path_938340" data-name="Path 938340" d="M35.2,42H34.1a1.1,1.1,0,1,0,0,2.2h1.1a1.1,1.1,0,0,0,0-2.2Z" transform="translate(3.322 4.234)"/>
          <path id="Path_938341" data-name="Path 938341" d="M40.2,38H39.1a1.1,1.1,0,1,0,0,2.2h1.1a1.1,1.1,0,1,0,0-2.2Z" transform="translate(3.826 3.831)"/>
          <path id="Path_938342" data-name="Path 938342" d="M40.2,42H39.1a1.1,1.1,0,0,0,0,2.2h1.1a1.1,1.1,0,1,0,0-2.2Z" transform="translate(3.826 4.234)"/>
          <path id="Path_938343" data-name="Path 938343" d="M45.2,38H44.1a1.1,1.1,0,1,0,0,2.2h1.1a1.1,1.1,0,1,0,0-2.2Z" transform="translate(4.329 3.831)"/>
          <path id="Path_938344" data-name="Path 938344" d="M45.2,42H44.1a1.1,1.1,0,1,0,0,2.2h1.1a1.1,1.1,0,0,0,0-2.2Z" transform="translate(4.329 4.234)"/>
          <path id="Path_938345" data-name="Path 938345" d="M34.1,52.2h1.1a1.1,1.1,0,1,0,0-2.2H34.1a1.1,1.1,0,1,0,0,2.2Z" transform="translate(3.322 5.039)"/>
          <path id="Path_938346" data-name="Path 938346" d="M34.1,56.2h1.1a1.1,1.1,0,0,0,0-2.2H34.1a1.1,1.1,0,1,0,0,2.2Z" transform="translate(3.322 5.442)"/>
          <path id="Path_938347" data-name="Path 938347" d="M39.1,52.2h1.1a1.1,1.1,0,1,0,0-2.2H39.1a1.1,1.1,0,0,0,0,2.2Z" transform="translate(3.826 5.039)"/>
          <path id="Path_938348" data-name="Path 938348" d="M39.1,56.2h1.1a1.1,1.1,0,1,0,0-2.2H39.1a1.1,1.1,0,0,0,0,2.2Z" transform="translate(3.826 5.442)"/>
          <path id="Path_938349" data-name="Path 938349" d="M44.1,52.2h1.1a1.1,1.1,0,0,0,0-2.2H44.1a1.1,1.1,0,1,0,0,2.2Z" transform="translate(4.329 5.039)"/>
          <path id="Path_938350" data-name="Path 938350" d="M44.1,56.2h1.1a1.1,1.1,0,0,0,0-2.2H44.1a1.1,1.1,0,1,0,0,2.2Z" transform="translate(4.329 5.442)"/>
          <path id="Path_938351" data-name="Path 938351" d="M35.2,26H34.1a1.1,1.1,0,1,0,0,2.2h1.1a1.1,1.1,0,0,0,0-2.2Z" transform="translate(3.322 2.623)"/>
          <path id="Path_938352" data-name="Path 938352" d="M35.2,30H34.1a1.1,1.1,0,1,0,0,2.2h1.1a1.1,1.1,0,0,0,0-2.2Z" transform="translate(3.322 3.026)"/>
          <path id="Path_938353" data-name="Path 938353" d="M40.2,26H39.1a1.1,1.1,0,0,0,0,2.2h1.1a1.1,1.1,0,1,0,0-2.2Z" transform="translate(3.826 2.623)"/>
          <path id="Path_938354" data-name="Path 938354" d="M40.2,30H39.1a1.1,1.1,0,0,0,0,2.2h1.1a1.1,1.1,0,1,0,0-2.2Z" transform="translate(3.826 3.026)"/>
          <path id="Path_938355" data-name="Path 938355" d="M44.1,28.2h1.1a1.1,1.1,0,0,0,0-2.2H44.1a1.1,1.1,0,1,0,0,2.2Z" transform="translate(4.329 2.623)"/>
          <path id="Path_938356" data-name="Path 938356" d="M45.2,30H44.1a1.1,1.1,0,1,0,0,2.2h1.1a1.1,1.1,0,0,0,0-2.2Z" transform="translate(4.329 3.026)"/>
        </g>
      </g>
    </g>
  </g>
</svg>
