<svg xmlns="http://www.w3.org/2000/svg" width="100" height="100" viewBox="0 0 100 100">
  <g id="Group_1165364" data-name="Group 1165364" transform="translate(-269 -958)">
    <circle id="Ellipse_5614" data-name="Ellipse 5614" cx="50" cy="50" r="50" transform="translate(269 958)" fill="#fff"/>
    <g id="Group_1165394" data-name="Group 1165394" transform="translate(228.739 977.693)">
      <g id="Group_1165365" data-name="Group 1165365" transform="translate(68.871 0.866)">
        <path id="Path_938718" data-name="Path 938718" d="M115.314,66.2H78.109a2.787,2.787,0,0,1-2.787-2.787V10.1a2.787,2.787,0,0,1,2.787-2.787h37.205A2.787,2.787,0,0,1,118.1,10.1V63.411A2.787,2.787,0,0,1,115.314,66.2Z" transform="translate(-75.322 -7.317)" fill="#407093"/>
      </g>
      <path id="Path_938719" data-name="Path 938719" d="M115.726,7.449a2.8,2.8,0,0,1,.016.3V61.051a2.787,2.787,0,0,1-2.787,2.787H75.75a2.8,2.8,0,0,1-.3-.016,2.787,2.787,0,0,0,2.771,2.492H115.43a2.787,2.787,0,0,0,2.787-2.787V10.22a2.787,2.787,0,0,0-2.491-2.771Z" transform="translate(-6.567 -6.567)" fill="#365e7d"/>
      <g id="Group_1165366" data-name="Group 1165366" transform="translate(71.176 2.224)">
        <path id="Path_938720" data-name="Path 938720" d="M108.243,23.081l-9.161,9.161-3.6-3.6a2.368,2.368,0,0,1,0-3.348l5.812-5.812a2.368,2.368,0,0,1,3.348,0Z" transform="translate(-94.787 -18.787)" fill="#365e7d"/>
      </g>
      <g id="Group_1165367" data-name="Group 1165367" transform="translate(75.908 2.224)">
        <path id="Path_938721" data-name="Path 938721" d="M139.882,19.48a2.368,2.368,0,0,0-3.348,0l-1.774,1.774a2.31,2.31,0,0,1,3.266,0l3.642,3.642,1.815-1.815Z" transform="translate(-134.76 -18.786)" fill="#2b4d66"/>
      </g>
      <g id="Group_1165368" data-name="Group 1165368" transform="translate(73.794 21.309)">
        <path id="Path_938722" data-name="Path 938722" d="M126.185,192.374V180H116.9v29.519a4.388,4.388,0,0,0,4.388,4.388h24.158a4.388,4.388,0,0,0,4.388-4.388V194.683a2.31,2.31,0,0,0-2.31-2.31H126.185Z" transform="translate(-116.902 -179.999)" fill="#365e7d"/>
      </g>
      <g id="Group_1165370" data-name="Group 1165370" transform="translate(73.864 33.684)">
        <g id="Group_1165369" data-name="Group 1165369" transform="translate(0)">
          <path id="Path_938723" data-name="Path 938723" d="M148.049,284.529H146.82v13.6a4.388,4.388,0,0,1-4.388,4.388H118.274a4.409,4.409,0,0,1-.779-.07,4.389,4.389,0,0,0,4.318,3.609h24.158a4.388,4.388,0,0,0,4.388-4.388V286.839A2.309,2.309,0,0,0,148.049,284.529Z" transform="translate(-117.495 -284.529)" fill="#2b4d66"/>
        </g>
      </g>
      <g id="Group_1165371" data-name="Group 1165371" transform="translate(76.562 41.598)">
        <path id="Path_938724" data-name="Path 938724" d="M154.808,359.665a8.513,8.513,0,0,1-6.5-7.252,1.16,1.16,0,0,0-1.147-1.029h-5.719a1.155,1.155,0,0,0-1.155,1.155v11.308A1.155,1.155,0,0,0,141.443,365h13.1a1.155,1.155,0,0,0,1.155-1.155v-3.059A1.153,1.153,0,0,0,154.808,359.665Z" transform="translate(-140.288 -351.384)" fill="#efecef"/>
      </g>
      <g id="Group_1165373" data-name="Group 1165373" transform="translate(76.562 49.266)">
        <g id="Group_1165372" data-name="Group 1165372" transform="translate(0)">
          <path id="Path_938725" data-name="Path 938725" d="M154.808,416.762a8.454,8.454,0,0,1-1.736-.614v2.17a1.155,1.155,0,0,1-1.155,1.155H140.288v1.471a1.155,1.155,0,0,0,1.155,1.155h13.1a1.155,1.155,0,0,0,1.155-1.155v-3.059A1.153,1.153,0,0,0,154.808,416.762Z" transform="translate(-140.288 -416.148)" fill="#dddaec"/>
        </g>
      </g>
      <g id="Group_1165374" data-name="Group 1165374" transform="translate(74.167 5.243)">
        <path id="Path_938726" data-name="Path 938726" d="M120.673,44.9a2.1,2.1,0,0,0-.321,2.564l2.791,4.7,4.791-4.791-4.7-2.791A2.1,2.1,0,0,0,120.673,44.9Z" transform="translate(-120.056 -44.284)" fill="#dddaec"/>
      </g>
      <g id="Group_1165375" data-name="Group 1165375" transform="translate(74.258 5.243)">
        <path id="Path_938727" data-name="Path 938727" d="M121.823,46.1l5.056,3,1.734-1.734-4.7-2.791a2.1,2.1,0,0,0-3.089,1.2A2.376,2.376,0,0,1,121.823,46.1Z" transform="translate(-120.827 -44.284)" fill="#d5c6e4"/>
      </g>
      <g id="Group_1165376" data-name="Group 1165376" transform="translate(98.477 5.243)">
        <path id="Path_938728" data-name="Path 938728" d="M332.667,44.9a2.1,2.1,0,0,1,.321,2.564l-2.791,4.7-4.791-4.791,4.7-2.791A2.1,2.1,0,0,1,332.667,44.9Z" transform="translate(-325.407 -44.284)" fill="#dddaec"/>
      </g>
      <g id="Group_1165377" data-name="Group 1165377" transform="translate(101.462 5.297)">
        <path id="Path_938729" data-name="Path 938729" d="M354.89,45.305a2.1,2.1,0,0,0-1.019-.562,2.388,2.388,0,0,1-.331,1.091l-2.926,4.925,1.807,1.807,2.791-4.7a2.1,2.1,0,0,0-.321-2.563Z" transform="translate(-350.614 -44.743)" fill="#d5c6e4"/>
      </g>
      <g id="Group_1165378" data-name="Group 1165378" transform="translate(76.016 28.441)">
        <path id="Path_938730" data-name="Path 938730" d="M147.729,248.863H137.448a1.776,1.776,0,0,1-1.776-1.776v-6.842h12.057Z" transform="translate(-135.672 -240.245)" fill="#d5c6e4"/>
      </g>
      <g id="Group_1165379" data-name="Group 1165379" transform="translate(76.016 33.43)">
        <path id="Path_938731" data-name="Path 938731" d="M135.673,282.387v1.853a1.776,1.776,0,0,0,1.776,1.776H147.73v-1.9H137.4A1.725,1.725,0,0,1,135.673,282.387Z" transform="translate(-135.673 -282.387)" fill="#beb9dd"/>
      </g>
      <g id="Group_1165385" data-name="Group 1165385" transform="translate(73.794 4.842)">
        <g id="Group_1165380" data-name="Group 1165380" transform="translate(0)">
          <circle id="Ellipse_13521" data-name="Ellipse 13521" cx="16.467" cy="16.467" r="16.467" fill="#efecef"/>
        </g>
        <g id="Group_1165381" data-name="Group 1165381" transform="translate(3.422 3.422)">
          <path id="Path_938732" data-name="Path 938732" d="M168.905,69.81A16.467,16.467,0,0,1,145.811,92.9,16.467,16.467,0,1,0,168.905,69.81Z" transform="translate(-145.811 -69.81)" fill="#dddaec"/>
        </g>
        <g id="Group_1165382" data-name="Group 1165382" transform="translate(9.257 9.257)">
          <path id="Path_938733" data-name="Path 938733" d="M202.3,119.092a7.21,7.21,0,1,0,7.21,7.21A7.21,7.21,0,0,0,202.3,119.092Zm0,10.816a3.605,3.605,0,1,1,3.605-3.605A3.605,3.605,0,0,1,202.3,129.908Z" transform="translate(-195.093 -119.092)" fill="#dddaec"/>
        </g>
        <g id="Group_1165384" data-name="Group 1165384" transform="translate(10.537 10.537)">
          <g id="Group_1165383" data-name="Group 1165383">
            <path id="Path_938734" data-name="Path 938734" d="M215.937,129.907a7.209,7.209,0,0,1-10.03,10.03,7.21,7.21,0,1,0,10.03-10.03Z" transform="translate(-205.907 -129.907)" fill="#d5c6e4"/>
          </g>
        </g>
      </g>
      <g id="Group_1165386" data-name="Group 1165386" transform="translate(95.552 41.598)">
        <path id="Path_938735" data-name="Path 938735" d="M300.7,351.384h9.631v3.486H300.7Z" transform="translate(-300.695 -351.384)" fill="#efecef"/>
      </g>
      <g id="Group_1165387" data-name="Group 1165387" transform="translate(95.552 43.709)">
        <path id="Path_938736" data-name="Path 938736" d="M300.7,369.213h9.631v1.375H300.7Z" transform="translate(-300.695 -369.213)" fill="#dddaec"/>
      </g>
      <g id="Group_1165388" data-name="Group 1165388" transform="translate(93.841 41.598)">
        <path id="Path_938737" data-name="Path 938737" d="M288.236,356.35h-1.523a.474.474,0,0,1-.474-.474v-4.018a.474.474,0,0,1,.474-.474h4.018a.474.474,0,0,1,.474.474v1.523A2.969,2.969,0,0,1,288.236,356.35Z" transform="translate(-286.24 -351.384)" fill="#d5c6e4"/>
      </g>
      <path id="Path_938738" data-name="Path 938738" d="M290.732,351.384h-.971v.552a2.969,2.969,0,0,1-2.969,2.969h-.552v.971a.474.474,0,0,0,.474.474h1.523a2.969,2.969,0,0,0,2.969-2.969v-1.523A.473.473,0,0,0,290.732,351.384Z" transform="translate(-192.399 -309.786)" fill="#beb9dd"/>
      <g id="Group_1165389" data-name="Group 1165389" transform="translate(101.762 41.598)">
        <path id="Path_938739" data-name="Path 938739" d="M356.123,356.35h1.523a.474.474,0,0,0,.474-.474v-4.018a.474.474,0,0,0-.474-.474h-4.018a.474.474,0,0,0-.474.474v1.523A2.969,2.969,0,0,0,356.123,356.35Z" transform="translate(-353.154 -351.384)" fill="#d5c6e4"/>
      </g>
      <path id="Path_938740" data-name="Path 938740" d="M359.465,351.384h-1.071v2.947a.474.474,0,0,1-.474.474H356.4a2.958,2.958,0,0,1-1.18-.244,2.969,2.969,0,0,0,2.725,1.789h1.523a.474.474,0,0,0,.474-.474v-4.018a.474.474,0,0,0-.474-.474Z" transform="translate(-253.211 -309.786)" fill="#beb9dd"/>
      <g id="Group_1165390" data-name="Group 1165390" transform="translate(85 29.024)">
        <path id="Path_938741" data-name="Path 938741" d="M211.588,260.165l.1.541a2.458,2.458,0,0,0,1.388,1.8l1.98.914a2.458,2.458,0,0,0,3.362-1.456L223.6,246.37a.916.916,0,0,0-1.669-.737l-5.176,9.236a7,7,0,0,1-3.938,3.235A1.827,1.827,0,0,0,211.588,260.165Z" transform="translate(-211.559 -245.165)" fill="#d5c6e4"/>
      </g>
      <path id="Path_938742" data-name="Path 938742" d="M248.493,245.186a.916.916,0,0,0-1,.446l-.665,1.186-5.035,15.14a2.446,2.446,0,0,1-1.241,1.427l.063.029a2.458,2.458,0,0,0,3.362-1.456l5.185-15.589A.916.916,0,0,0,248.493,245.186Z" transform="translate(-152.119 -216.14)" fill="#beb9dd"/>
      <g id="Group_1165391" data-name="Group 1165391" transform="translate(99.727 32.125)">
        <path id="Path_938743" data-name="Path 938743" d="M337.691,278.564a1.731,1.731,0,0,1-1.731-1.731v-3.742a1.731,1.731,0,0,1,3.462,0v3.742A1.731,1.731,0,0,1,337.691,278.564Z" transform="translate(-335.96 -271.36)" fill="#e28086"/>
      </g>
      <g id="Group_1165392" data-name="Group 1165392" transform="translate(99.78 32.132)">
        <path id="Path_938744" data-name="Path 938744" d="M338.228,271.42a1.73,1.73,0,0,1,.053.418v3.742a1.731,1.731,0,0,1-1.731,1.731c-.048,0-.095,0-.142-.007a1.73,1.73,0,0,0,3.409-.418v-3.742A1.73,1.73,0,0,0,338.228,271.42Z" transform="translate(-336.408 -271.42)" fill="#dd636e"/>
      </g>
      <g id="Group_1165393" data-name="Group 1165393" transform="translate(68.005 0)">
        <path id="Path_938745" data-name="Path 938745" d="M108.932,0H71.59A3.589,3.589,0,0,0,68,3.585V57.028a3.589,3.589,0,0,0,3.585,3.585H96.323a.866.866,0,1,0,0-1.732H71.59a1.855,1.855,0,0,1-1.853-1.853V3.585A1.855,1.855,0,0,1,71.59,1.732h6.227a3.162,3.162,0,0,0-.707.532L71.216,8.158a3.179,3.179,0,0,0,0,4.491L73.964,15.4a17.021,17.021,0,0,0-.549,1.811.866.866,0,0,0,1.683.408,15.6,15.6,0,1,1,27.089,13.747,2.6,2.6,0,0,0-3.328,2.492v.469a15.519,15.519,0,0,1-2.75,1.449L97.864,30.5a1.782,1.782,0,0,0-3.246-1.434l-4.394,7.841A15.672,15.672,0,0,1,74.662,21.585c0-.012,0-.024,0-.036v-.24a.866.866,0,1,0-1.732,0V50.827a5.262,5.262,0,0,0,4.059,5.116,8.761,8.761,0,0,0,1.661.139H102.34a5.26,5.26,0,0,0,5.255-5.255V35.993a3.179,3.179,0,0,0-3.176-3.176h-.58a2.588,2.588,0,0,0-.243-.435,17.316,17.316,0,0,0,1.314-20.329L106.8,8.865a2.971,2.971,0,0,0-4.072-4.072l-3.18,1.889A17.378,17.378,0,0,0,84.343,5.006L81.6,2.264a3.164,3.164,0,0,0-.707-.532h28.037a1.855,1.855,0,0,1,1.853,1.853V57.028a1.855,1.855,0,0,1-1.853,1.853h-8.442a.866.866,0,0,0,0,1.732h8.442a3.589,3.589,0,0,0,3.585-3.585V3.585A3.589,3.589,0,0,0,108.932,0Zm-7.474,32.991a.866.866,0,0,1,.865.865V37.6a.865.865,0,0,1-1.73,0V33.856A.866.866,0,0,1,101.458,32.991Zm-5.329-3.075c.027-.056.112-.011.091.04L91.035,45.545a1.592,1.592,0,0,1-2.177.943l-1.98-.914a1.593,1.593,0,0,1-.9-1.163l-.1-.541a.965.965,0,0,1,.647-1.084,7.849,7.849,0,0,0,4.424-3.635ZM91.106,54.061a.289.289,0,0,1-.289.289s-13.066-.021-13.273-.059a.288.288,0,0,1-.116-.23V42.753a.289.289,0,0,1,.289-.289h5.719a.292.292,0,0,1,.288.267,9.391,9.391,0,0,0,7.161,7.991.286.286,0,0,1,.221.28ZM81.368,36.193H77.741a.86.86,0,0,1-.859-.859v-3a17.637,17.637,0,0,0,1.223,1.335A17.441,17.441,0,0,0,81.368,36.193ZM74.66,50.828V28.88q.23.473.49.932v5.523a2.594,2.594,0,0,0,2.591,2.591H85.3a17.328,17.328,0,0,0,3.952.687,6.12,6.12,0,0,1-3.265,2.527,2.666,2.666,0,0,0-.882.49,2.018,2.018,0,0,0-1.673-.9H77.717A2.023,2.023,0,0,0,75.7,42.753V53.32a3.511,3.511,0,0,1-1.036-2.493Zm27.68,3.522H92.815a2.02,2.02,0,0,0,.023-.289V51a2.011,2.011,0,0,0-1.559-1.966,7.573,7.573,0,0,1-1.8-.671h.041a3.322,3.322,0,0,0,3.154-2.275l.3-.889v.9A1.33,1.33,0,0,0,94.3,47.43H95.91A3.758,3.758,0,0,0,98.9,45.95h2.772a3.758,3.758,0,0,0,2.988,1.48h1.2v3.4a3.527,3.527,0,0,1-3.522,3.522ZM100.9,42.464s.014,1.574.041,1.754H99.632c.027-.18.041-1.754.041-1.754Zm4.966,3.233h-1.2a2.033,2.033,0,0,1-2.03-2.03v-1.2h3.233V45.7ZM97.94,42.464v1.2a2.033,2.033,0,0,1-2.03,2.03h-1.2V42.465H97.94Zm7.922-6.471v4.739h-11.4l.955-2.87a17.206,17.206,0,0,0,3.445-1.5V37.6a2.6,2.6,0,0,0,5.194,0V34.55h.363a1.445,1.445,0,0,1,1.444,1.443ZM103.617,6.282a1.239,1.239,0,0,1,1.7,1.7l-1.5,2.532a17.487,17.487,0,0,0-2.722-2.728ZM72.44,11.425a1.445,1.445,0,0,1,0-2.042l1.036-1.036a2.965,2.965,0,0,0,.242.517l1.893,3.186a17.478,17.478,0,0,0-.914,1.631Zm4.268-.917-1.5-2.527a1.239,1.239,0,0,1,1.7-1.7l2.521,1.5A17.373,17.373,0,0,0,76.709,10.507Zm5.917-4.769a17.254,17.254,0,0,0-1.665.939L77.789,4.793a2.986,2.986,0,0,0-.517-.242l1.063-1.063a1.445,1.445,0,0,1,2.042,0Z" transform="translate(-68.005 0)"/>
        <path id="Path_938746" data-name="Path 938746" d="M203.93,119.853a8.077,8.077,0,1,0-8.077,8.077A8.086,8.086,0,0,0,203.93,119.853Zm-14.421,0a6.344,6.344,0,1,1,6.344,6.344A6.352,6.352,0,0,1,189.509,119.853Z" transform="translate(-173.598 -98.543)"/>
        <path id="Path_938747" data-name="Path 938747" d="M223.568,150.307a.866.866,0,0,0-.866-.866,2.739,2.739,0,1,1,2.739-2.739,2.713,2.713,0,0,1-.264,1.175.866.866,0,0,0,1.564.744,4.43,4.43,0,0,0,.432-1.919,4.471,4.471,0,1,0-4.471,4.471A.866.866,0,0,0,223.568,150.307Z" transform="translate(-200.446 -125.392)"/>
        <circle id="Ellipse_13522" data-name="Ellipse 13522" cx="1.169" cy="1.169" r="1.169" transform="translate(21.086 20.14)"/>
        <circle id="Ellipse_13523" data-name="Ellipse 13523" cx="1.169" cy="1.169" r="1.169" transform="translate(11.004 46.903)"/>
        <circle id="Ellipse_13524" data-name="Ellipse 13524" cx="1.169" cy="1.169" r="1.169" transform="translate(14.736 50.635)"/>
        <circle id="Ellipse_13525" data-name="Ellipse 13525" cx="1.169" cy="1.169" r="1.169" transform="translate(3.45 55.139)"/>
        <circle id="Ellipse_13526" data-name="Ellipse 13526" cx="1.169" cy="1.169" r="1.169" transform="translate(38.723 55.139)"/>
        <circle id="Ellipse_13527" data-name="Ellipse 13527" cx="1.169" cy="1.169" r="1.169" transform="translate(3.45 3.189)"/>
        <circle id="Ellipse_13528" data-name="Ellipse 13528" cx="1.169" cy="1.169" r="1.169" transform="translate(38.723 3.189)"/>
        <circle id="Ellipse_13529" data-name="Ellipse 13529" cx="1.137" cy="1.137" r="1.137" transform="translate(19.719 42.944)"/>
      </g>
    </g>
  </g>
</svg>
