<svg xmlns="http://www.w3.org/2000/svg" width="100" height="100" viewBox="0 0 100 100">
  <g id="Group_1101085" data-name="Group 1101085" transform="translate(-269 -958)">
    <circle id="Ellipse_5614" data-name="Ellipse 5614" cx="50" cy="50" r="50" transform="translate(269 958)" fill="#fff"/>
    <g id="Group_1165333" data-name="Group 1165333" transform="translate(292.153 981.153)">
      <path id="Path_938664" data-name="Path 938664" d="M55.426,17.935a2.1,2.1,0,0,0,2.1,2.1h2.1V47.088h-2.1a2.1,2.1,0,0,0,0,4.195h2.1V59.62H7.5V51.283H9.6a2.1,2.1,0,0,0,0-4.195H7.5V20.032H9.6a2.1,2.1,0,1,0,0-4.195H7.5V7.5H59.62v8.337h-2.1A2.1,2.1,0,0,0,55.426,17.935Z" transform="translate(-6.713 -6.713)" fill="#00b7a0"/>
      <g id="Group_1165332" data-name="Group 1165332" transform="translate(3.513 3.251)">
        <circle id="Ellipse_13509" data-name="Ellipse 13509" cx="1.573" cy="1.573" r="1.573" fill="#caeefc"/>
        <circle id="Ellipse_13510" data-name="Ellipse 13510" cx="1.573" cy="1.573" r="1.573" transform="translate(43.521)" fill="#caeefc"/>
        <circle id="Ellipse_13511" data-name="Ellipse 13511" cx="1.573" cy="1.573" r="1.573" transform="translate(0 44.15)" fill="#caeefc"/>
        <circle id="Ellipse_13512" data-name="Ellipse 13512" cx="1.573" cy="1.573" r="1.573" transform="translate(43.521 44.15)" fill="#caeefc"/>
      </g>
      <rect id="Rectangle_448107" data-name="Rectangle 448107" width="33.056" height="33.056" transform="translate(10.439 10.439)" fill="#444b66"/>
      <rect id="Rectangle_448108" data-name="Rectangle 448108" width="2.61" height="33.056" transform="translate(40.885 10.439)" fill="#3d435c"/>
      <rect id="Rectangle_448109" data-name="Rectangle 448109" width="27.836" height="27.836" transform="translate(13.048 13.048)" fill="#cbdae0"/>
      <rect id="Rectangle_448110" data-name="Rectangle 448110" width="3.48" height="27.836" transform="translate(37.405 13.048)" fill="#a8b5ba"/>
      <path id="Path_938665" data-name="Path 938665" d="M157.77,314.287v4.319h4.717Z" transform="translate(-141.225 -281.328)" fill="#6e6b87"/>
      <rect id="Rectangle_448111" data-name="Rectangle 448111" width="27.791" height="3.146" transform="translate(12.951 0.787)" fill="#fad87c"/>
      <rect id="Rectangle_448112" data-name="Rectangle 448112" width="3.146" height="3.146" transform="translate(37.596 0.787)" fill="#febe40"/>
      <rect id="Rectangle_448113" data-name="Rectangle 448113" width="27.791" height="3.146" transform="translate(12.951 49.761)" fill="#fad87c"/>
      <rect id="Rectangle_448114" data-name="Rectangle 448114" width="3.146" height="3.146" transform="translate(37.596 49.761)" fill="#febe40"/>
      <path id="Path_938666" data-name="Path 938666" d="M50.809,9.91h2.1a.787.787,0,0,0,.787-.787V.787A.787.787,0,0,0,52.907,0H11.343a.787.787,0,1,0,0,1.573h.821v2.36a.787.787,0,0,0,.787.787H40.742a.787.787,0,0,0,.787-.787V1.573H52.12V8.337H50.809a2.884,2.884,0,0,0,0,5.768H52.12V39.588H50.809a2.884,2.884,0,0,0,0,5.768H52.12V52.12H41.528v-2.36a.787.787,0,0,0-.787-.787H36.967a.787.787,0,1,0,0,1.573h2.989V52.12H13.738V50.547h19.82a.787.787,0,0,0,0-1.573H12.951a.787.787,0,0,0-.787.787v2.36H1.573V45.356H2.884a2.884,2.884,0,0,0,0-5.768H1.573V14.1H2.884a2.884,2.884,0,1,0,0-5.768H1.573V1.573h6.4A.787.787,0,1,0,7.97,0H.787A.787.787,0,0,0,0,.787V9.124a.787.787,0,0,0,.787.787h2.1a1.311,1.311,0,0,1,0,2.622H.787A.787.787,0,0,0,0,13.318V40.375a.787.787,0,0,0,.787.787h2.1a1.311,1.311,0,0,1,0,2.622H.787A.787.787,0,0,0,0,44.57v8.337a.787.787,0,0,0,.787.787h52.12a.787.787,0,0,0,.787-.787V44.57a.787.787,0,0,0-.787-.787h-2.1a1.311,1.311,0,1,1,0-2.622h2.1a.787.787,0,0,0,.787-.787V13.318a.787.787,0,0,0-.787-.787h-2.1a1.311,1.311,0,1,1,0-2.622ZM39.955,3.146H13.738V1.573H39.955Z" transform="translate(0 0)"/>
      <path id="Path_938667" data-name="Path 938667" d="M28.36,23.5a2.36,2.36,0,1,0,2.36,2.36A2.362,2.362,0,0,0,28.36,23.5Zm0,3.146a.787.787,0,1,1,.787-.787A.787.787,0,0,1,28.36,26.646Z" transform="translate(-23.273 -21.036)"/>
      <path id="Path_938668" data-name="Path 938668" d="M445.719,25.86a2.36,2.36,0,1,0-2.36,2.36A2.362,2.362,0,0,0,445.719,25.86Zm-3.146,0a.787.787,0,1,1,.787.787A.787.787,0,0,1,442.573,25.86Z" transform="translate(-394.752 -21.036)"/>
      <path id="Path_938669" data-name="Path 938669" d="M26,446.86a2.36,2.36,0,1,0,2.36-2.36A2.362,2.362,0,0,0,26,446.86Zm3.146,0a.787.787,0,1,1-.787-.787A.787.787,0,0,1,29.146,446.86Z" transform="translate(-23.273 -397.885)"/>
      <path id="Path_938670" data-name="Path 938670" d="M443.36,449.219a2.36,2.36,0,1,0-2.36-2.36A2.362,2.362,0,0,0,443.36,449.219Zm0-3.146a.787.787,0,1,1-.787.787A.787.787,0,0,1,443.36,446.073Z" transform="translate(-394.752 -397.885)"/>
      <path id="Path_938671" data-name="Path 938671" d="M119.287,147.339h27.266a.787.787,0,0,0,.787-.787V119.287a.787.787,0,0,0-.787-.787h-20.38a.787.787,0,0,0,0,1.573h19.593v25.693H120.073V120.073h2.779a.787.787,0,0,0,0-1.573h-3.566a.787.787,0,0,0-.787.787v27.266A.787.787,0,0,0,119.287,147.339Z" transform="translate(-106.073 -106.073)"/>
      <path id="Path_938672" data-name="Path 938672" d="M69.287,72.59a.787.787,0,0,0,0,1.573H70.6v1.713H69.287a.787.787,0,1,0,0,1.573H70.6v1.713H69.287a.787.787,0,0,0,0,1.573H70.6v1.713H69.287a.787.787,0,0,0,0,1.573H70.6v1.713H69.287a.787.787,0,0,0,0,1.573H70.6v1.713H69.287a.787.787,0,0,0,0,1.573H70.6v1.713H69.287a.787.787,0,1,0,0,1.573H70.6v1.713H69.287a.787.787,0,0,0,0,1.573H70.6v1.713H69.287a.787.787,0,1,0,0,1.573H70.6v1.713H69.287a.787.787,0,1,0,0,1.573H70.6v1.206a.787.787,0,0,0,.787.787H72.59v1.311a.787.787,0,1,0,1.573,0v-1.311h1.713v1.311a.787.787,0,1,0,1.573,0v-1.311h1.713v1.311a.787.787,0,1,0,1.573,0v-1.311h1.713v1.311a.787.787,0,1,0,1.573,0v-1.311h1.713v1.311a.787.787,0,1,0,1.573,0v-1.311h1.713v1.311a.787.787,0,1,0,1.573,0v-1.311h1.713v1.311a.787.787,0,1,0,1.573,0v-1.311h1.713v1.311a.787.787,0,1,0,1.573,0v-1.311h1.713v1.311a.787.787,0,1,0,1.573,0v-1.311h1.713v1.311a.787.787,0,1,0,1.573,0v-1.311h1.206a.787.787,0,0,0,.787-.787v-1.206h1.311a.787.787,0,1,0,0-1.573h-1.311V100.45h1.311a.787.787,0,0,0,0-1.573h-1.311V97.164h1.311a.787.787,0,1,0,0-1.573h-1.311V93.878h1.311a.787.787,0,1,0,0-1.573h-1.311V90.593h1.311a.787.787,0,1,0,0-1.573h-1.311V87.307h1.311a.787.787,0,1,0,0-1.573h-1.311V84.021h1.311a.787.787,0,1,0,0-1.573h-1.311V80.735h1.311a.787.787,0,1,0,0-1.573h-1.311V77.449h1.311a.787.787,0,0,0,0-1.573h-1.311V74.163h1.311a.787.787,0,1,0,0-1.573h-1.311V71.384a.787.787,0,0,0-.787-.787h-1.206V69.287a.787.787,0,1,0-1.573,0V70.6H100.45V69.287a.787.787,0,0,0-1.573,0V70.6H97.164V69.287a.787.787,0,1,0-1.573,0V70.6H93.878V69.287a.787.787,0,1,0-1.573,0V70.6H90.593V69.287a.787.787,0,1,0-1.573,0V70.6H87.307V69.287a.787.787,0,0,0-1.573,0V70.6H84.021V69.287a.787.787,0,0,0-1.573,0V70.6H80.735V69.287a.787.787,0,0,0-1.573,0V70.6H77.449V69.287a.787.787,0,0,0-1.573,0V70.6H74.163V69.287a.787.787,0,0,0-1.573,0V70.6H71.384a.787.787,0,0,0-.787.787V72.59Zm2.884-.419h31.985v31.985H72.17Z" transform="translate(-61.316 -61.316)"/>
      <path id="Path_938673" data-name="Path 938673" d="M219.43,148.423a.787.787,0,0,0,0-1.573H216.7a.787.787,0,0,0-.787.787v4.824a.787.787,0,0,0,.787.787h2.727a.787.787,0,1,0,0-1.573h-1.94v-3.251Z" transform="translate(-193.274 -131.45)"/>
      <path id="Path_938674" data-name="Path 938674" d="M262.281,152.461v-1.592h1.94a.787.787,0,0,0,.786-.786v-2.445a.787.787,0,0,0-.786-.787h-2.727a.787.787,0,0,0-.786.787v4.824a.787.787,0,1,0,1.573,0Zm0-4.037h1.154v.872h-1.154Z" transform="translate(-233.368 -131.45)"/>
      <path id="Path_938675" data-name="Path 938675" d="M306.287,146.85a.787.787,0,0,0-.787.787v4.824a.787.787,0,0,0,.787.787h2.727a.787.787,0,0,0,.786-.787v-4.824a.787.787,0,1,0-1.573,0v4.038h-1.154v-4.038A.787.787,0,0,0,306.287,146.85Z" transform="translate(-273.462 -131.45)"/>
      <path id="Path_938676" data-name="Path 938676" d="M150.741,306.855a.787.787,0,0,0-.47.72v4.319a.787.787,0,0,0,.787.787h4.717a.787.787,0,0,0,.531-1.367l-4.717-4.319A.787.787,0,0,0,150.741,306.855Zm1.1,2.506,1.907,1.746h-1.907Z" transform="translate(-134.512 -274.615)"/>
    </g>
  </g>
</svg>
