<svg xmlns="http://www.w3.org/2000/svg" width="120" height="120" viewBox="0 0 120 120">
  <g id="Group_1165040" data-name="Group 1165040" transform="translate(-64 -6445)">
    <rect id="Rectangle_402033" data-name="Rectangle 402033" width="120" height="120" rx="8" transform="translate(64 6445)" fill="#6003fe"/>
    <g id="Rectangle_412110" data-name="Rectangle 412110" transform="translate(69 6450)" fill="none" stroke="#fff" stroke-width="1">
      <rect width="110" height="110" rx="6" stroke="none"/>
      <rect x="0.5" y="0.5" width="109" height="109" rx="5.5" fill="none"/>
    </g>
    <g id="Group_1155336" data-name="Group 1155336" transform="translate(-325 -2)">
      <circle id="Ellipse_13473" data-name="Ellipse 13473" cx="60" cy="60" r="60" transform="translate(389 6447)" fill="#6003fe"/>
      <g id="Ellipse_13474" data-name="Ellipse 13474" transform="translate(399 6457)" fill="none" stroke="#fff" stroke-width="1">
        <circle cx="50" cy="50" r="50" stroke="none"/>
        <circle cx="50" cy="50" r="49.5" fill="none"/>
      </g>
      <g id="Group_1165222" data-name="Group 1165222" transform="translate(391.234 6453.017)">
        <g id="Group_1165221" data-name="Group 1165221" transform="translate(28.267 23.967)">
          <path id="Path_938404" data-name="Path 938404" d="M37.374,159.81H83.05a2.175,2.175,0,0,0,2.174-2.174V128.474A2.175,2.175,0,0,0,83.05,126.3H37.374a2.175,2.175,0,0,0-2.174,2.174v29.161A2.175,2.175,0,0,0,37.374,159.81Z" transform="translate(-35.2 -113.574)" fill="#00b2ca" fill-rule="evenodd"/>
          <path id="Path_938405" data-name="Path 938405" d="M37.374,321.864H83.05a2.175,2.175,0,0,0,2.174-2.174V313.3H35.2v6.39a2.175,2.175,0,0,0,2.174,2.174Z" transform="translate(-35.2 -275.628)" fill="#fcb13b" fill-rule="evenodd"/>
          <path id="Path_938406" data-name="Path 938406" d="M123.408,443.983h23.185a1.907,1.907,0,0,0,1.908-1.908v-1.868a1.907,1.907,0,0,0-1.908-1.908H123.408a1.907,1.907,0,0,0-1.908,1.908v1.868A1.907,1.907,0,0,0,123.408,443.983Z" transform="translate(-109.988 -383.953)" fill="#00b2ca" fill-rule="evenodd"/>
          <path id="Path_938407" data-name="Path 938407" d="M177.5,377.5h12.059v8.111H177.5Z" transform="translate(-158.517 -331.264)" fill="#dd6e42" fill-rule="evenodd"/>
          <path id="Path_938408" data-name="Path 938408" d="M268.441,90.108A29.358,29.358,0,0,1,253.5,67.937a14.478,14.478,0,0,0,3.108-3.749,13.515,13.515,0,0,0,1.081-2.321,86.995,86.995,0,0,1,21.5,0,14,14,0,0,0,1.081,2.321,14.434,14.434,0,0,0,3.108,3.749A29.4,29.4,0,0,1,268.441,90.108Z" transform="translate(-224.379 -57.158)" fill="#dd6e42" fill-rule="evenodd"/>
          <path id="Path_938409" data-name="Path 938409" d="M144.527,30.9h3.455a1.429,1.429,0,0,1,1.427,1.427v3.455a1.429,1.429,0,0,1-1.427,1.427h-3.455a1.429,1.429,0,0,1-1.427-1.427V32.327A1.429,1.429,0,0,1,144.527,30.9Z" transform="translate(-128.706 -30.9)" fill="#219ebc" fill-rule="evenodd"/>
        </g>
        <path id="Path_938410" data-name="Path 938410" d="M44.088,22.9h3.455a2.5,2.5,0,0,1,2.495,2.495V28.85a2.5,2.5,0,0,1-2.495,2.495H44.088a2.5,2.5,0,0,1-2.495-2.495V25.395A2.5,2.5,0,0,1,44.088,22.9Zm3.442,2.134H44.075a.359.359,0,0,0-.36.36V28.85a.367.367,0,0,0,.36.36H47.53a.367.367,0,0,0,.36-.36V25.395A.359.359,0,0,0,47.53,25.034ZM58.015,51.261a1.067,1.067,0,1,1,2.134,0v6.23a1.067,1.067,0,0,1-2.134,0Zm-4.122,0a1.067,1.067,0,1,1,2.134,0v6.23a1.067,1.067,0,0,1-2.134,0ZM44.835,40.976a1.067,1.067,0,1,1,2.134,0v6.23a1.067,1.067,0,1,1-2.134,0Zm4.936,10.285a1.067,1.067,0,1,1,2.134,0v6.23a1.067,1.067,0,0,1-2.134,0Zm-5.389-1.067a3.407,3.407,0,0,1,3.4,3.4v1.547a3.408,3.408,0,1,1-6.817,0V53.6A3.427,3.427,0,0,1,44.382,50.193Zm0,2.134A1.275,1.275,0,0,0,43.115,53.6v1.547a1.274,1.274,0,0,0,2.174.894,1.3,1.3,0,0,0,.374-.894V53.6A1.287,1.287,0,0,0,44.382,52.328Zm-8.791-2.134a3.407,3.407,0,0,1,3.4,3.4v1.547a3.408,3.408,0,1,1-6.817,0V53.6A3.419,3.419,0,0,1,35.591,50.193Zm0,2.134A1.275,1.275,0,0,0,34.324,53.6v1.547a1.266,1.266,0,0,0,2.161.894,1.3,1.3,0,0,0,.374-.894V53.6A1.275,1.275,0,0,0,35.591,52.328Zm5.256-11.352a1.067,1.067,0,1,1,2.134,0v6.23a1.067,1.067,0,1,1-2.134,0Zm11.379,1.067a1.275,1.275,0,0,0-1.267,1.267v1.547a1.267,1.267,0,0,0,2.535,0V43.31A1.275,1.275,0,0,0,52.226,42.043Zm0-2.134a3.407,3.407,0,0,1,3.4,3.4v1.547a3.408,3.408,0,1,1-6.817,0V43.31A3.436,3.436,0,0,1,52.226,39.908Zm-16.635,0a3.407,3.407,0,0,1,3.4,3.4v1.547a3.408,3.408,0,1,1-6.817,0V43.31A3.419,3.419,0,0,1,35.591,39.908Zm0,2.134a1.275,1.275,0,0,0-1.267,1.267v1.547a1.267,1.267,0,0,0,2.535,0V43.31A1.275,1.275,0,0,0,35.591,42.043ZM60.376,71.271v5.976h4.5a2.978,2.978,0,0,1,2.975,2.975v1.868a2.978,2.978,0,0,1-2.975,2.975H41.687a2.978,2.978,0,0,1-2.975-2.975V80.222a2.978,2.978,0,0,1,2.975-2.975h4.5V71.271H30.442A3.245,3.245,0,0,1,27.2,68.029V38.868a3.245,3.245,0,0,1,3.242-3.242H56.428c-.107-.707-.267-1.254.32-1.721a13.593,13.593,0,0,0,3.829-5.576,1.067,1.067,0,0,1,.92-.694c1.774-.227,3.548-.387,5.349-.507a87.155,87.155,0,0,1,16.368.507,1.069,1.069,0,0,1,.867.694,13.506,13.506,0,0,0,3.882,5.616,1.067,1.067,0,0,1,.36.934,30.284,30.284,0,0,1-8.964,18.129V68.042a4.2,4.2,0,0,1-.08.734,3.777,3.777,0,0,1-.467,1.081,3.286,3.286,0,0,1-.4.48,3.236,3.236,0,0,1-2.294.947H60.376Zm-1.067,8.111H41.687a.845.845,0,0,0-.84.84v1.868a.845.845,0,0,0,.84.84H64.872a.845.845,0,0,0,.84-.84V80.222a.845.845,0,0,0-.84-.84ZM48.317,71.271v5.976h9.925V71.271Zm10.152-4.149a1.067,1.067,0,0,1,0-2.134H71.875a1.067,1.067,0,0,1,0,2.134Zm-14.581,0a1.067,1.067,0,0,1,0-2.134h.187a1.067,1.067,0,1,1,0,2.134Zm-4.976,0a1.067,1.067,0,1,1,0-2.134H39.1a1.067,1.067,0,0,1,0,2.134Zm-4.976,0a1.067,1.067,0,0,1,0-2.134h.173a1.067,1.067,0,0,1,0,2.134Zm43.3-4.416h-47.9v5.323a1.113,1.113,0,0,0,1.107,1.107H76.118l.267-.027a1.743,1.743,0,0,0,.52-.293,1.188,1.188,0,0,0,.333-.787Zm-47.9-2.134h47.9V54.889a31.619,31.619,0,0,1-4.389,2.961,1.06,1.06,0,0,1-1.054-.013,30.706,30.706,0,0,1-10.512-9.631,30.151,30.151,0,0,1-4.469-10.445H30.442a1.113,1.113,0,0,0-1.107,1.107ZM58.722,36.453a.169.169,0,0,1,.013.08,27.956,27.956,0,0,0,4.309,10.472,28.434,28.434,0,0,0,9.271,8.684,28.322,28.322,0,0,0,13.807-20.53,15.627,15.627,0,0,1-3.815-5.5,86.31,86.31,0,0,0-19.983,0,15.626,15.626,0,0,1-3.815,5.5C58.576,35.6,58.642,36.026,58.722,36.453ZM73.4,41.016v3.028h2.228a1.067,1.067,0,0,1,0,2.134H73.4v1.627h2.228a1.067,1.067,0,1,1,0,2.134H73.4v.627a1.067,1.067,0,0,1-2.134,0V41a4.885,4.885,0,1,1,2.134.013Zm.88-6.737a2.766,2.766,0,1,0,0,3.909A2.77,2.77,0,0,0,74.277,34.279Z"/>
      </g>
    </g>
  </g>
</svg>
