<svg xmlns="http://www.w3.org/2000/svg" width="60" height="60" viewBox="0 0 60 60">
  <g id="Group_1165448" data-name="Group 1165448" transform="translate(0 -0.001)">
    <g id="Group_1165441" data-name="Group 1165441" transform="translate(11.801 20.089)">
      <g id="Group_1165440" data-name="Group 1165440">
        <path id="Path_939168" data-name="Path 939168" d="M102.705,171.763a1.172,1.172,0,1,0,0,1.657A1.173,1.173,0,0,0,102.705,171.763Z" transform="translate(-100.704 -171.42)" fill="#6003fe"/>
      </g>
    </g>
    <g id="Group_1165443" data-name="Group 1165443" transform="translate(0 45.937)">
      <g id="Group_1165442" data-name="Group 1165442">
        <path id="Path_939169" data-name="Path 939169" d="M29.672,398.518a4.1,4.1,0,0,0-3.306-6.531H6.445a4.1,4.1,0,0,0-3.3,6.53A5.864,5.864,0,0,0,0,403.705v1.172a1.172,1.172,0,0,0,1.172,1.172H31.639a1.172,1.172,0,0,0,1.172-1.172v-1.172A5.864,5.864,0,0,0,29.672,398.518ZM5.2,394.845a1.746,1.746,0,0,1,1.243-.515H26.366a1.758,1.758,0,1,1,0,3.516H6.445a1.758,1.758,0,0,1-1.243-3Zm-2.858,8.86a3.52,3.52,0,0,1,3.516-3.516H26.952a3.52,3.52,0,0,1,3.516,3.516Z" transform="translate(0 -391.987)" fill="#6003fe"/>
      </g>
    </g>
    <g id="Group_1165445" data-name="Group 1165445" transform="translate(0.002 0.001)">
      <g id="Group_1165444" data-name="Group 1165444" transform="translate(0 0)">
        <path id="Path_939170" data-name="Path 939170" d="M58.928,49.234a7.379,7.379,0,0,0-1.412-1.621l-5.476-4.776a1.163,1.163,0,0,0-.466-.407l-3.311-2.888L32.936,26.173a3.509,3.509,0,0,0-1.029-5.6l1.418-1.418a4.69,4.69,0,0,0,4.525-1.211,4.687,4.687,0,0,0,0-6.629L27.907,1.374A4.686,4.686,0,0,0,20.067,5.9L5.919,20.047a4.716,4.716,0,0,0-1.213-.159,4.687,4.687,0,0,0-3.314,8l9.943,9.943a4.686,4.686,0,0,0,7.841-4.525l1.415-1.415a3.516,3.516,0,0,0,5.6,1.027L42.514,51.676a1.178,1.178,0,0,0,.159.2c.021.021.043.04.065.059L47.6,57.523c.121.143.25.283.384.417A6.97,6.97,0,0,0,52.941,60a7.193,7.193,0,0,0,.986-.068,7.091,7.091,0,0,0,5.232-3.622A6.934,6.934,0,0,0,58.928,49.234ZM22.935,3.032a2.343,2.343,0,0,1,3.315,0l9.943,9.943a2.344,2.344,0,0,1-3.314,3.315L22.936,6.346h0A2.346,2.346,0,0,1,22.935,3.032ZM16.307,36.175a2.347,2.347,0,0,1-3.315,0L3.049,26.232a2.343,2.343,0,0,1,3.313-3.315l9.945,9.945A2.345,2.345,0,0,1,16.307,36.175Zm4.934-8.248L17.964,31.2,8.02,21.26,21.278,8l9.944,9.944-3.283,3.283-.032.031-6.626,6.626Zm4.184,2.445-.007.007-.825.825a1.172,1.172,0,0,1-1.672-1.643l6.656-6.656a1.172,1.172,0,0,1,1.988.842,1.161,1.161,0,0,1-.344.828l-.82.82-.017.017Zm2.427.888,3.425-3.425,14.5,12.649-5.291,5.292ZM42.029,47.548l5.519-5.52,1.77,1.544L43.571,49.32Zm15.086,7.618a4.767,4.767,0,0,1-3.508,2.445,4.656,4.656,0,0,1-3.962-1.328c-.09-.09-.176-.184-.257-.279l-.011-.013-4.263-4.9,5.976-5.976,4.893,4.268.011.01a5.045,5.045,0,0,1,.967,1.113A4.627,4.627,0,0,1,57.114,55.165Z" transform="translate(-0.021 -0.001)" fill="#6003fe"/>
      </g>
    </g>
    <g id="Group_1165447" data-name="Group 1165447" transform="translate(15.115 11.803)">
      <g id="Group_1165446" data-name="Group 1165446">
        <path id="Path_939171" data-name="Path 939171" d="M135.958,101.05a1.172,1.172,0,0,0-1.657,0l-4.972,4.972a1.172,1.172,0,0,0,1.657,1.657l4.972-4.972A1.172,1.172,0,0,0,135.958,101.05Z" transform="translate(-128.985 -100.707)" fill="#6003fe"/>
      </g>
    </g>
  </g>
</svg>
