<svg xmlns="http://www.w3.org/2000/svg" width="100" height="100" viewBox="0 0 100 100">
  <g id="Group_1165189" data-name="Group 1165189" transform="translate(-637 -6992)">
    <g id="Group_1098742" data-name="Group 1098742" transform="translate(637.242 6992)">
      <rect id="Rectangle_400898" data-name="Rectangle 400898" width="100" height="100" rx="50" transform="translate(-0.242)" fill="#fff" opacity="0.859"/>
      <g id="Rectangle_400907" data-name="Rectangle 400907" transform="translate(-0.242)" fill="none" stroke="#00bdff" stroke-linecap="round" stroke-width="3" stroke-dasharray="0 7">
        <rect width="100" height="100" rx="50" stroke="none"/>
        <rect x="1.5" y="1.5" width="97" height="97" rx="48.5" fill="none"/>
      </g>
    </g>
    <g id="Group_1107006" data-name="Group 1107006" transform="translate(645.398 7000.157)">
      <rect id="Rectangle_400898-2" data-name="Rectangle 400898" width="84" height="84" rx="42" transform="translate(-0.399 -0.157)" fill="#6003fe" opacity="0.859"/>
      <rect id="Rectangle_400907-2" data-name="Rectangle 400907" width="84" height="84" rx="42" transform="translate(-0.398 -0.157)" fill="none"/>
    </g>
    <g id="Group_1165561" data-name="Group 1165561" transform="translate(658.695 7006.854)">
      <g id="Group_1165560" data-name="Group 1165560" transform="translate(0.969 5.678)">
        <path id="Path_939699" data-name="Path 939699" d="M97.608,233.583a11.139,11.139,0,0,0-.066,8.25l.909,1.78H59.229s-7.3-4.1,0-11.4l38.882-.8Z" transform="translate(-50.763 -207.067)" fill="#f1f2f2"/>
        <path id="Path_939700" data-name="Path 939700" d="M98.453,243.612H59.232s-7.3-4.1,0-11.405l38.882-.8-.5,2.177a10.68,10.68,0,0,0-.554,1.769H61.467a2.5,2.5,0,1,0,0,5h35.6a9.6,9.6,0,0,0,.474,1.482Z" transform="translate(-50.766 -207.066)" fill="#dee1e1"/>
        <path id="Path_939701" data-name="Path 939701" d="M81.724,234.565l-35.851-.057c-4.3,0-7.984-2.74-7.984-7.035a9.785,9.785,0,0,1,.146-3.033,7.78,7.78,0,0,1,7.3-5.079H82.111a1.754,1.754,0,0,1,0,3.508H54.275l-2.718.638-2.364-.638H45.331a4.268,4.268,0,1,0,0,8.537H82.111a1.755,1.755,0,0,1,1.742,1.961C83.751,234.24,82.623,234.565,81.724,234.565Z" transform="translate(-34.631 -196.354)" fill="#b7e546"/>
        <path id="Path_939702" data-name="Path 939702" d="M81.506,270.611a1.753,1.753,0,0,1-1.741,1.548l-18.17,1.089-18.609-1.089a7.78,7.78,0,0,1-7.114-10.924v1.6a7.777,7.777,0,0,0,7.777,7.777Z" transform="translate(-32.285 -233.598)" fill="#abd641"/>
        <path id="Path_939703" data-name="Path 939703" d="M146.7,256.206v-5.114h-3.645l-1.294.13.078,4.763a.221.221,0,0,0,.3.206l.915-.224,1.023-.4a.22.22,0,0,1,.161,0l2.159.845A.221.221,0,0,0,146.7,256.206Z" transform="translate(-127.06 -224.576)" fill="#ef5227"/>
        <path id="Path_939704" data-name="Path 939704" d="M141.907,251.1v4.875l-1.136.444a.221.221,0,0,1-.3-.206V251.1Z" transform="translate(-125.908 -224.579)" fill="#d83724"/>
        <path id="Path_939705" data-name="Path 939705" d="M134.683,173.16v2.493l-.111,1.106a.774.774,0,0,1-.774.774l-29.467-.111a.773.773,0,0,1-.774-.774l-.221-3.488,15.127-.723Z" transform="translate(-92.88 -154.618)" fill="#fdcd08"/>
        <path id="Path_939706" data-name="Path 939706" d="M437.88,197.8c-.692,1.706-1.389,3.39-2.081,5.1a1.549,1.549,0,0,0,1.422,2.137l1.28.111h3.113A1.549,1.549,0,0,0,443.036,203l-1.443-3.558-.908-1.648h-2.8Z" transform="translate(-388.48 -177.175)" fill="#fdcd08"/>
        <path id="Path_939707" data-name="Path 939707" d="M438.108,197.73a4.2,4.2,0,0,0,2.6-.629l-.776-1.94-1.283.383h0l-1.672-.223c-.211.521-.518,1.26-.729,1.781h0l-1.443,3.557a1.548,1.548,0,0,0,1.421,2.137h1.769a1.548,1.548,0,0,1-1.421-2.137L437.65,198A.447.447,0,0,1,438.108,197.73Z" transform="translate(-387.594 -174.829)" fill="#faab18"/>
        <path id="Path_939708" data-name="Path 939708" d="M452.4,160.4a2.576,2.576,0,0,0-1.723-2.437c-.26-.09-.638.07-.928.07a2.172,2.172,0,0,0-2.277,2.367,2.249,2.249,0,0,0,2.464,2.277c.29,0,.481.251.741.161A2.576,2.576,0,0,0,452.4,160.4Z" transform="translate(-398.962 -141.721)" fill="#fdcd08"/>
        <path id="Path_939709" data-name="Path 939709" d="M449.257,161.939a2.515,2.515,0,0,1-.829.139,2.577,2.577,0,0,1,0-5.154,2.515,2.515,0,0,1,.829.139,2.586,2.586,0,0,0,0,4.875Z" transform="translate(-397.546 -140.821)" fill="#faab18"/>
        <path id="Path_939710" data-name="Path 939710" d="M64.264,21.449l-7.293,2.525-1.99-.2L40.825,29.563a4.639,4.639,0,0,1-3.036,0L23.634,24l-1.99-.022L14.35,21.449a.928.928,0,0,1,0-1.754l23.716-8.21a3.794,3.794,0,0,1,2.482,0L64.264,19.7A.928.928,0,0,1,64.264,21.449Z" transform="translate(-13.177 -11.277)" fill="#868491"/>
        <path id="Path_939711" data-name="Path 939711" d="M120.664,82.852V83.6l-16.146,5.589a4.639,4.639,0,0,1-3.036,0L85.336,83.6v-.749a3.253,3.253,0,0,1,2.68-3.2,84.92,84.92,0,0,1,29.967,0,3.255,3.255,0,0,1,2.68,3.2Z" transform="translate(-76.87 -70.903)" fill="#77777f"/>
        <path id="Path_939712" data-name="Path 939712" d="M136.462,98.861v6.593H105.447l-.111-6.372a1.265,1.265,0,0,1,1.042-1.245c.316-.057.411-.332.727-.385a82.9,82.9,0,0,1,28.315.164,1.266,1.266,0,0,1,1.042,1.245Z" transform="translate(-94.659 -86.912)" fill="#868491"/>
        <path id="Path_939713" data-name="Path 939713" d="M134.683,175.653v1.216a.774.774,0,0,1-.774.774h-29.8a.774.774,0,0,1-.774-.774v-3.71l1-.723,1,.723v1.94a.553.553,0,0,0,.553.553Z" transform="translate(-92.88 -154.618)" fill="#faab18"/>
        <path id="Path_939714" data-name="Path 939714" d="M105.326,106.6v8h-1.99v-6.593a1.265,1.265,0,0,1,1.042-1.245C104.694,106.712,105.01,106.657,105.326,106.6Z" transform="translate(-92.88 -96.065)" fill="#77777f"/>
        <path id="Path_939715" data-name="Path 939715" d="M80.437,390.068a10.4,10.4,0,0,1,0-7.962l.336-1.495H35.561s-5.09,5.533.331,10.953l45.176.339Z" transform="translate(-30.671 -339.774)" fill="#f1f2f2"/>
        <path id="Path_939716" data-name="Path 939716" d="M81.068,391.906l-45.176-.338c-5.421-5.42-.331-10.953-.331-10.953l45.43.084-.553,1.41a10.357,10.357,0,0,0-.494,1.508h-41.5a2.5,2.5,0,1,0,0,5H79.957a10.488,10.488,0,0,0,.481,1.456Z" transform="translate(-30.671 -339.778)" fill="#dee1e1"/>
        <path id="Path_939717" data-name="Path 939717" d="M63.185,375.2l-40.877-.075c-4.3,0-8.074-2.424-8.074-6.719,0-1.363-.333-3.24.283-4.354a7.775,7.775,0,0,1,6.81-4.018H63.953a1.754,1.754,0,1,1,0,3.508H53.391l-2.76.611-2.323-.611H21.326a4.268,4.268,0,1,0,0,8.537H63.953a1.756,1.756,0,0,1,1.726,2.071c-.149.818-1.633,1.05-2.494,1.05Z" transform="translate(-13.549 -321.472)" fill="#ef5227"/>
        <path id="Path_939718" data-name="Path 939718" d="M60.9,403.1a1.756,1.756,0,0,1-1.726,1.437H16.545a7.778,7.778,0,0,1-6.561-11.955v2.74a7.777,7.777,0,0,0,7.777,7.777Z" transform="translate(-8.768 -350.424)" fill="#d83724"/>
        <path id="Path_939719" data-name="Path 939719" d="M329.347,396.9v-5.155h-3.424l-1.519.092.081,4.842a.221.221,0,0,0,.3.206l1.136-.31.8-.314a.221.221,0,0,1,.161,0l2.159.845A.221.221,0,0,0,329.347,396.9Z" transform="translate(-289.505 -349.681)" fill="#fdcd08"/>
        <path id="Path_939720" data-name="Path 939720" d="M324.8,391.745v4.831l-1.357.531a.221.221,0,0,1-.3-.206v-5.156Z" transform="translate(-288.38 -349.677)" fill="#faab18"/>
      </g>
      <path id="Path_939721" data-name="Path 939721" d="M56.436,30.836,54.6,26.3a3.369,3.369,0,0,0-1.71-5.436c0-.218,0-5.683,0-5.914A1.721,1.721,0,0,0,51.714,13.3L28.4,5.231a4.578,4.578,0,0,0-2.983,0l-5.8,2.009a.829.829,0,1,0,.543,1.567l5.8-2.009a2.912,2.912,0,0,1,1.9,0l23.314,8.071a.083.083,0,0,1,0,.157L43.145,17.8v-.248a2.071,2.071,0,0,0-1.707-2.04,82.043,82.043,0,0,0-29.061,0,2.071,2.071,0,0,0-1.707,2.04V17.8L2.645,15.026a.083.083,0,0,1,0-.157L16.43,10.1a.829.829,0,1,0-.543-1.567L2.1,13.3a1.742,1.742,0,0,0,0,3.291l8.568,2.966v8.207A8.6,8.6,0,0,0,6.749,43.482,8.605,8.605,0,0,0,8.606,60.49H51.233a2.583,2.583,0,0,0,.052-5.166,9.5,9.5,0,0,1-.02-6.881,2.583,2.583,0,0,0-.032-5.166h-.512a2.582,2.582,0,0,0-2.412-3.508h-.022a9.494,9.494,0,0,1-.156-6.442,2.329,2.329,0,0,0,1.712.751H54.27a2.333,2.333,0,0,0,1.937-1.033,2.36,2.36,0,0,0,.229-2.209Zm-2.7-6.716a1.68,1.68,0,1,1-1.68-1.7A1.694,1.694,0,0,1,53.736,24.119Zm-2.509-7.357v4.1a3.369,3.369,0,0,0-1.71,5.436l-.578,1.425H43.145V19.56Zm-38.557.387a80.406,80.406,0,0,1,28.475,0,.414.414,0,0,1,.341.408v5.652h-5.11a.829.829,0,0,0,0,1.659h5.11v2.857H12.329V24.867H32.507a.829.829,0,1,0,0-1.659H12.329V17.557a.414.414,0,0,1,.341-.408ZM52.158,45.861a.926.926,0,0,1-.925.925H8.606a5.1,5.1,0,1,0,0,10.2H41.352a.829.829,0,1,0,0-1.659H8.606a3.439,3.439,0,1,1,0-6.878H34.759v4.649a.829.829,0,0,0,1.132.772l2.239-.877,2.239.877a.829.829,0,0,0,1.132-.772V48.444h8a11.13,11.13,0,0,0,.016,6.878h-4.3a.829.829,0,1,0,0,1.659h6.01a.925.925,0,0,1,0,1.85H8.606a6.948,6.948,0,1,1,0-13.9H51.233a.926.926,0,0,1,.925.925Zm-15.74,2.584h3.424v3.433l-1.41-.552a.829.829,0,0,0-.6,0l-1.41.552ZM22.224,41.428H48.309a.925.925,0,0,1,0,1.85H11.53a6.948,6.948,0,0,1,0-13.9H48.266c-.2.55-.583,1.33-.711,1.85H11.53a5.1,5.1,0,1,0,0,10.2h6.825a.829.829,0,0,0,0-1.659H11.53a3.439,3.439,0,1,1,0-6.878h3.032V37.5a.829.829,0,0,0,1.132.772l2.239-.877,2.239.877A.829.829,0,0,0,21.3,37.5V32.891H46.525a11.131,11.131,0,0,0,0,6.878h-24.3a.829.829,0,0,0,0,1.659Zm-6-8.537h3.424v3.393l-1.41-.552a.829.829,0,0,0-.6,0l-1.41.552Zm38.611-.773a.672.672,0,0,1-.561.3H49.842a.672.672,0,0,1-.561-.3.7.7,0,0,1-.068-.659l1.7-4.182a3.32,3.32,0,0,0,2.293,0l1.7,4.182A.7.7,0,0,1,54.831,32.118Z"/>
    </g>
  </g>
</svg>
