<svg xmlns="http://www.w3.org/2000/svg" width="60" height="60.001" viewBox="0 0 60 60.001">
  <path id="Path_939155" data-name="Path 939155" d="M17.313,13.307c3.127-1.153,9.793-1.567,14.56-.813a1.26,1.26,0,0,0,1.333-1.027,1.26,1.26,0,0,0-1.02-1.333c-4.56-.667-11.5-.613-15.787.953a1.208,1.208,0,0,0,.887,2.247ZM50.92,48.587A4.187,4.187,0,0,0,46.7,52.74a3.833,3.833,0,0,0,1.16,2.793L47.313,58.8a1.253,1.253,0,0,0,1.227,1.333h4.667A1.167,1.167,0,0,0,54.36,58.8l-.54-3.267A3.853,3.853,0,0,0,55,52.74a4.067,4.067,0,0,0-4.08-4.153Zm.953,5.513a1.333,1.333,0,0,0-.48,1.16l.407,2.52H49.9l.433-2.52a1.293,1.293,0,0,0-.48-1.16,1.653,1.653,0,0,1-.747-1.333A1.813,1.813,0,0,1,50.92,51a1.7,1.7,0,0,1,1.7,1.767,1.653,1.653,0,0,1-.747,1.333ZM61.26,43.667H47.04l.067-6.26a3.607,3.607,0,0,1,3.54-3.74,3.72,3.72,0,0,1,4,3.747,3.473,3.473,0,1,0,6.94,0,10.753,10.753,0,1,0-21.5,0v6.333a3.76,3.76,0,0,0-3.333,3.747v8.84a47.333,47.333,0,0,1-10.273,1.02c-10.947,0-19.113-3.2-19.113-6.06V42.527C11.18,45.387,19,46.953,26.48,46.953c1.84,0,3.747-.14,5.333-.273a1.173,1.173,0,0,0,1.093-1.293,1.273,1.273,0,0,0-1.293-1.093c-1.5.14-3.333.273-5.107.273-10.947,0-19.113-3.2-19.113-6.06v-8.84c3.813,2.927,11.633,4.427,19.113,4.427a50.873,50.873,0,0,0,10.547-1.02,1.227,1.227,0,0,0,.953-1.433,1.12,1.12,0,0,0-1.427-.88,51.606,51.606,0,0,1-10.073.953c-10.947,0-19.113-3.207-19.113-6V17.46c3.813,2.933,11.633,4.427,19.113,4.427s15.24-1.493,19.053-4.427v6.667a1.193,1.193,0,0,0,2.38,0V13.513C47.927,7.993,36.907,5,26.493,5S5,7.993,5,13.513v37.8c0,5.447,11.087,8.44,21.493,8.44A53.153,53.153,0,0,0,36.767,58.8v2.52A3.733,3.733,0,0,0,40.58,65H61.246A3.72,3.72,0,0,0,65,61.32V47.5a3.793,3.793,0,0,0-3.74-3.833ZM26.493,7.387c10.887,0,19.053,3.2,19.053,6.127,0,2.52-7.28,6-19.053,6S7.38,16.04,7.38,13.513c0-4.907,16-6.127,19.113-6.127Zm16,30.033a8.373,8.373,0,1,1,16.74,0,1.06,1.06,0,0,1-1.02,1.087,1.093,1.093,0,0,1-1.16-1.087,6.16,6.16,0,1,0-12.313,0v6.247H42.48ZM62.62,61.32a1.333,1.333,0,0,1-1.333,1.293H40.62a1.367,1.367,0,0,1-1.433-1.293V47.5a1.4,1.4,0,0,1,1.433-1.433H61.286A1.38,1.38,0,0,1,62.62,47.5ZM11.533,48.18a1.24,1.24,0,0,0-1.567.747,1.14,1.14,0,0,0,.747,1.5l2.38.887a1.193,1.193,0,0,0,1.5-.667,1.26,1.26,0,0,0-.667-1.56Zm0-12.94a1.208,1.208,0,1,0-.887,2.247L13,38.44a1.208,1.208,0,0,0,.887-2.247Zm0-12.467a1.247,1.247,0,0,0-1.567.753A1.133,1.133,0,0,0,10.713,25l2.38.887a1.187,1.187,0,0,0,1.5-.667,1.267,1.267,0,0,0-.667-1.567Z" transform="translate(-5 -5)" fill="#6003fe"/>
</svg>
