<svg xmlns="http://www.w3.org/2000/svg" width="120" height="120" viewBox="0 0 120 120">
  <g id="Group_1165154" data-name="Group 1165154" transform="translate(-64 -6445)">
    <rect id="Rectangle_402033" data-name="Rectangle 402033" width="120" height="120" rx="8" transform="translate(64 6445)" fill="#6003fe"/>
    <g id="Rectangle_412110" data-name="Rectangle 412110" transform="translate(69 6450)" fill="none" stroke="#fff" stroke-width="1">
      <rect width="110" height="110" rx="6" stroke="none"/>
      <rect x="0.5" y="0.5" width="109" height="109" rx="5.5" fill="none"/>
    </g>
    <g id="Group_1155336" data-name="Group 1155336" transform="translate(-325 -2)">
      <path id="Path_927567" data-name="Path 927567" d="M60,0A60,60,0,1,1,0,60,60,60,0,0,1,60,0Z" transform="translate(389 6447)" fill="#6003fe"/>
      <g id="Ellipse_13474" data-name="Ellipse 13474" transform="translate(399 6457)" fill="none" stroke="#fff" stroke-width="1">
        <circle cx="50" cy="50" r="50" stroke="none"/>
        <circle cx="50" cy="50" r="49.5" fill="none"/>
      </g>
      <g id="Group_1165534" data-name="Group 1165534" transform="translate(417.541 6475.167)">
        <g id="Group_1165532" data-name="Group 1165532" transform="translate(1.027 1.027)">
          <g id="Group_1165515" data-name="Group 1165515" transform="translate(34.914 12.322)">
            <path id="Path_939547" data-name="Path 939547" d="M284.107,106.054v1.027a1.027,1.027,0,0,1-1.027,1.027H280V104h3.081a1.027,1.027,0,0,1,1.027,1.027Z" transform="translate(-280 -104)" fill="#ccd1d9"/>
          </g>
          <g id="Group_1165516" data-name="Group 1165516" transform="translate(34.914 4.107)">
            <path id="Path_939548" data-name="Path 939548" d="M284.107,42.054v1.027a1.027,1.027,0,0,1-1.027,1.027H280V40h3.081a1.027,1.027,0,0,1,1.027,1.027Z" transform="translate(-280 -40)" fill="#ccd1d9"/>
          </g>
          <g id="Group_1165517" data-name="Group 1165517">
            <path id="Path_939549" data-name="Path 939549" d="M42.914,63.451v4.107a2.05,2.05,0,0,1-2.054,2.054H10.054A2.053,2.053,0,0,1,8,67.559v-57.5A2.053,2.053,0,0,1,10.054,8H40.86a2.053,2.053,0,0,1,2.054,2.054V40.86H37.779a1.027,1.027,0,0,0-1.027,1.027V39.833a1.027,1.027,0,0,0-1.027-1.027H13.134a1.027,1.027,0,0,0-1.027,1.027V62.424a1.027,1.027,0,0,0,1.027,1.027H42.914Z" transform="translate(-8 -8)" fill="#969faa"/>
          </g>
          <g id="Group_1165518" data-name="Group 1165518" transform="translate(36.967 20.537)">
            <path id="Path_939550" data-name="Path 939550" d="M316.537,176.215v4.107h-6.711a4.107,4.107,0,1,0-7.116,0H296v-4.107h1.42a1.66,1.66,0,0,0,1.485-2.4l-.851-1.7,2.054-2.054,1.7.851a1.661,1.661,0,0,0,2.4-1.485V168h4.108v1.42a1.66,1.66,0,0,0,2.4,1.485l1.7-.851,2.054,2.054-.851,1.7a1.661,1.661,0,0,0,1.485,2.4Z" transform="translate(-296 -168)" fill="#fcd770"/>
          </g>
          <g id="Group_1165519" data-name="Group 1165519" transform="translate(4.107 6.161)">
            <path id="Path_939551" data-name="Path 939551" d="M66.7,57.027v2.054a1.027,1.027,0,0,1-1.027,1.027H41.027A1.027,1.027,0,0,1,40,59.081V57.027A1.027,1.027,0,0,1,41.027,56H65.672A1.027,1.027,0,0,1,66.7,57.027Z" transform="translate(-40 -56)" fill="#fcd770"/>
          </g>
          <g id="Group_1165520" data-name="Group 1165520" transform="translate(4.107 14.376)">
            <path id="Path_939552" data-name="Path 939552" d="M66.7,121.027v2.054a1.027,1.027,0,0,1-1.027,1.027H41.027A1.027,1.027,0,0,1,40,123.081v-2.054A1.027,1.027,0,0,1,41.027,120H65.672A1.027,1.027,0,0,1,66.7,121.027Z" transform="translate(-40 -120)" fill="#fcd770"/>
          </g>
          <g id="Group_1165521" data-name="Group 1165521" transform="translate(4.107 22.591)">
            <path id="Path_939553" data-name="Path 939553" d="M66.7,185.027v2.054a1.027,1.027,0,0,1-1.027,1.027H41.027A1.027,1.027,0,0,1,40,187.081v-2.054A1.027,1.027,0,0,1,41.027,184H65.672A1.027,1.027,0,0,1,66.7,185.027Z" transform="translate(-40 -184)" fill="#fcd770"/>
          </g>
          <g id="Group_1165522" data-name="Group 1165522" transform="translate(4.107 49.29)">
            <path id="Path_939554" data-name="Path 939554" d="M58.484,398.161H41.027A1.027,1.027,0,0,1,40,397.134V392H64.645v6.161Z" transform="translate(-40 -392)" fill="#fc6e51"/>
          </g>
          <g id="Group_1165523" data-name="Group 1165523" transform="translate(4.107 41.075)">
            <path id="Path_939555" data-name="Path 939555" d="M40,328H64.645v4.107H40Z" transform="translate(-40 -328)" fill="#fc6e51"/>
          </g>
          <g id="Group_1165524" data-name="Group 1165524" transform="translate(4.107 45.182)">
            <path id="Path_939556" data-name="Path 939556" d="M40,360H64.645v4.107H40Z" transform="translate(-40 -360)" fill="#ff826e"/>
          </g>
          <g id="Group_1165525" data-name="Group 1165525" transform="translate(4.107 30.806)">
            <path id="Path_939557" data-name="Path 939557" d="M64.645,251.081v7.188H40v-9.242A1.027,1.027,0,0,1,41.027,248H63.618a1.027,1.027,0,0,1,1.027,1.027Z" transform="translate(-40 -248)" fill="#69d6f4"/>
          </g>
          <g id="Group_1165526" data-name="Group 1165526" transform="translate(39.021 55.451)">
            <path id="Path_939558" data-name="Path 939558" d="M312,440h10.269v6.161H312Z" transform="translate(-312 -440)" fill="#aab2bd"/>
          </g>
          <g id="Group_1165527" data-name="Group 1165527" transform="translate(28.752 51.344)">
            <path id="Path_939559" data-name="Path 939559" d="M256.645,408v4.107H232V408h24.645Z" transform="translate(-232 -408)" fill="#ccd1d9"/>
          </g>
          <g id="Group_1165528" data-name="Group 1165528" transform="translate(28.752 32.86)">
            <path id="Path_939560" data-name="Path 939560" d="M250.484,282.484H232V265.027A1.027,1.027,0,0,1,233.027,264h30.806a1.027,1.027,0,0,1,1.027,1.027v17.457H250.484Z" transform="translate(-232 -264)" fill="#69d6f4"/>
          </g>
          <g id="Group_1165529" data-name="Group 1165529" transform="translate(34.914 39.021)">
            <path id="Path_939561" data-name="Path 939561" d="M288.215,313.027v4.108a1.027,1.027,0,0,1-1.027,1.027h-6.161A1.027,1.027,0,0,1,280,317.134v-3.081h1.027a1.027,1.027,0,0,0,1.027-1.027V312h5.134A1.027,1.027,0,0,1,288.215,313.027Z" transform="translate(-280 -312)" fill="#b4dd7f"/>
          </g>
          <g id="Group_1165530" data-name="Group 1165530" transform="translate(32.86 36.967)">
            <path id="Path_939562" data-name="Path 939562" d="M268.107,298.054v1.027a1.027,1.027,0,0,1-1.027,1.027h-2.054A1.027,1.027,0,0,1,264,299.081v-2.054A1.027,1.027,0,0,1,265.027,296h2.054a1.027,1.027,0,0,1,1.027,1.027Z" transform="translate(-264 -296)" fill="#fcd770"/>
          </g>
          <g id="Group_1165531" data-name="Group 1165531" transform="translate(53.397 51.344)">
            <path id="Path_939563" data-name="Path 939563" d="M432.215,408v3.081a1.027,1.027,0,0,1-1.027,1.027H424V408h8.215Z" transform="translate(-424 -408)" fill="#ff826e"/>
          </g>
        </g>
        <g id="Group_1165533" data-name="Group 1165533">
          <path id="Path_939564" data-name="Path 939564" d="M61.612,32.86H59.559V28.752H57.113a.635.635,0,0,1-.568-.918l1.182-2.365-3.1-3.1-2.365,1.182a.635.635,0,0,1-.918-.568V20.537H49.29V16.43h1.027A3.084,3.084,0,0,1,53.4,19.511v1.027h2.054V19.511a5.14,5.14,0,0,0-5.134-5.134H49.29V11.3a5.14,5.14,0,0,0-5.134-5.134H41.075a2.056,2.056,0,0,0-2.054-2.054H36.968V3.081A3.084,3.084,0,0,0,33.887,0H3.081A3.084,3.084,0,0,0,0,3.081v57.5a3.084,3.084,0,0,0,3.081,3.081H32.86V61.612H3.081a1.028,1.028,0,0,1-1.027-1.027V3.081A1.028,1.028,0,0,1,3.081,2.054H33.887a1.028,1.028,0,0,1,1.027,1.027V22.591h2.054V18.484h2.054a2.056,2.056,0,0,0,2.054-2.054h6.161v4.107H45.182v2.446a.635.635,0,0,1-.918.568L41.9,22.369l-3.1,3.1,1.182,2.365a.635.635,0,0,1-.568.918H36.967V32.86H30.806a2.056,2.056,0,0,0-2.054,2.054v6.161H22.591V32.86h6.161V30.806H6.161A2.056,2.056,0,0,0,4.107,32.86V55.451A2.056,2.056,0,0,0,6.161,57.5h32.86v4.107H34.914v2.054H55.451V61.612H51.344V57.5H61.612a2.056,2.056,0,0,0,2.054-2.054V34.914A2.056,2.056,0,0,0,61.612,32.86ZM39.021,6.161V8.215H36.967V6.161Zm0,10.269H36.967V14.376h2.054Zm2.054-2.054a2.056,2.056,0,0,0-2.054-2.054H36.967V10.269h2.054a2.056,2.056,0,0,0,2.054-2.054h3.081A3.084,3.084,0,0,1,47.236,11.3v3.081Zm-2.054,16.43h.392a2.688,2.688,0,0,0,2.4-3.891l-.52-1.041L42.3,24.868l1.041.521a2.689,2.689,0,0,0,3.891-2.4v-.392H49.29v.392a2.688,2.688,0,0,0,3.891,2.4l1.041-.52,1.007,1.007-.52,1.041a2.688,2.688,0,0,0,2.4,3.891H57.5V32.86H53.293a5.134,5.134,0,1,0-10.06,0H39.021Zm6.338,2.054a3.081,3.081,0,1,1,5.808,0Zm16.253,2.054v16.43H57.5V39.021H55.451V51.344H53.4V43.129H51.344v8.215H49.29V47.236H47.236v4.107H30.806V34.914ZM57.5,53.4v2.054H55.451V53.4ZM6.161,49.29V47.236H8.215V49.29Zm4.107-2.054h2.054V49.29H10.269Zm4.107,0H16.43V49.29H14.376Zm4.107,0h2.054V49.29H18.484Zm4.107,0h2.054V49.29H22.591Zm4.107,0h2.054V49.29H26.7Zm2.054-2.054H6.161V43.129H28.752Zm-8.215-4.107H14.376V32.86h6.161ZM12.322,32.86v8.215H6.161V32.86ZM24.645,55.451V53.4H22.591v2.054H18.484V53.4H16.43v2.054H12.322V53.4H10.269v2.054H6.161V51.344H28.752v4.107ZM30.806,53.4H53.4v2.054H30.806ZM49.29,61.612H41.075V57.5H49.29Zm12.322-6.161H59.559V53.4h2.055v2.054Z"/>
          <path id="Path_939565" data-name="Path 939565" d="M258.054,294.161v2.054a2.056,2.056,0,0,0,2.054,2.054h6.161a2.056,2.056,0,0,0,2.054-2.054v-4.107a2.056,2.056,0,0,0-2.054-2.054h-4.107A2.056,2.056,0,0,0,260.107,288h-2.054A2.056,2.056,0,0,0,256,290.054v2.054A2.056,2.056,0,0,0,258.054,294.161Zm8.215-2.054v4.107h-6.161v-2.054a2.056,2.056,0,0,0,2.054-2.054Zm-8.215-2.054h2.054v2.054h-2.055Z" transform="translate(-223.14 -251.033)"/>
          <path id="Path_939566" data-name="Path 939566" d="M34.054,54.161H58.7a2.056,2.056,0,0,0,2.054-2.054V50.054A2.056,2.056,0,0,0,58.7,48H34.054A2.056,2.056,0,0,0,32,50.054v2.054A2.056,2.056,0,0,0,34.054,54.161Zm16.43-2.054H48.43V50.054h2.054Zm2.054-2.054h2.054v2.054H52.537Zm-6.161,2.054H40.215V50.054h6.161Zm12.324,0H56.645V50.054H58.7ZM34.054,50.054h4.107v2.054H34.054Z" transform="translate(-27.893 -41.839)"/>
          <path id="Path_939567" data-name="Path 939567" d="M32,116.107a2.056,2.056,0,0,0,2.054,2.054H58.7a2.056,2.056,0,0,0,2.054-2.054v-2.054A2.056,2.056,0,0,0,58.7,112H34.054A2.056,2.056,0,0,0,32,114.054Zm18.484,0H48.43v-2.054h2.054Zm2.054-2.054h2.054v2.054H52.537Zm-6.161,2.054H40.215v-2.054h6.161Zm12.324,0H56.645v-2.054H58.7Zm-24.646-2.054h4.107v2.054H34.054Z" transform="translate(-27.893 -97.624)"/>
          <path id="Path_939568" data-name="Path 939568" d="M32,180.107a2.056,2.056,0,0,0,2.054,2.054H58.7a2.056,2.056,0,0,0,2.054-2.054v-2.054A2.056,2.056,0,0,0,58.7,176H34.054A2.056,2.056,0,0,0,32,178.054Zm18.484,0H48.43v-2.054h2.054Zm2.054-2.054h2.054v2.054H52.537Zm-6.161,2.054H40.215v-2.054h6.161Zm12.324,0H56.645v-2.054H58.7Zm-24.646-2.054h4.107v2.054H34.054Z" transform="translate(-27.893 -153.409)"/>
          <path id="Path_939569" data-name="Path 939569" d="M64,272h2.054v4.107H64Z" transform="translate(-55.785 -237.086)"/>
          <path id="Path_939570" data-name="Path 939570" d="M128,272h2.054v4.107H128Z" transform="translate(-111.57 -237.086)"/>
          <path id="Path_939571" data-name="Path 939571" d="M192,272h2.054v4.107H192Z" transform="translate(-167.355 -237.086)"/>
        </g>
      </g>
    </g>
  </g>
</svg>
