<svg xmlns="http://www.w3.org/2000/svg" width="124.17" height="124.098" viewBox="0 0 124.17 124.098">
  <g id="_34376556_bink_tech_09_single_08" data-name="34376556_bink_tech_09_single_08" transform="translate(-334.061 -335.192)">
    <g id="Illustration" transform="translate(334.061 335.193)">
      <g id="Edge_computing_5_" transform="translate(0)">
        <path id="Path_938502" data-name="Path 938502" d="M446.913,348.492c-5.911-7.381-15.493-9.228-21.617-10.409-24.139-4.655-53.549-6.883-76.884,19.163-5.31,5.926-23.319,42.955-8.832,71.245,12.807,25.009,45,33.52,69.129,29.844,19.991-3.046,43.968-15.736,48.563-34,2.889-11.483-4.326-14.251-5.986-38.283C449.849,365.253,454.143,357.52,446.913,348.492Z" transform="translate(-334.061 -335.193)" fill="#caddff"/>
        <path id="Path_938503" data-name="Path 938503" d="M805.3,388.525c-8.729-7.012-26.288-1.02-28.234,10.727l-1.665.11a.406.406,0,0,0-.279.673l5.08,5.8a.406.406,0,0,0,.659-.066l3.64-6.376a.406.406,0,0,0-.38-.607l-1.831.121c1.849-9.776,13.066-12.561,18.976-9.268a1.232,1.232,0,0,0,.893.124l3.03-.742A.284.284,0,0,0,805.3,388.525Z" transform="translate(-745.118 -382.116)" fill="#5479f7"/>
        <g id="Group_1165250" data-name="Group 1165250" transform="translate(0.175 90.417)">
          <g id="Group_1165249" data-name="Group 1165249">
            <g id="Group_1165246" data-name="Group 1165246" transform="translate(14.18 19.299)">
              <path id="Path_938504" data-name="Path 938504" d="M545.839,1962.48l8.1.051c.052,0,.07.049.07.1v6.89c0,.659,4.6,2.373,4.646,2.286l.006.729a.266.266,0,0,1-.271.256h-6.893a2.373,2.373,0,0,1-.911-.19l-3.733-1.572a1.711,1.711,0,0,1-1.1-1.554v-6.9A.091.091,0,0,1,545.839,1962.48Z" transform="translate(-545.754 -1961.854)" fill="#99b9ff"/>
              <g id="Group_1165245" data-name="Group 1165245" transform="translate(0.675)">
                <path id="Path_938505" data-name="Path 938505" d="M567.186,1956.609v6.891a1.76,1.76,0,0,0,1.124,1.592l2.518,1.075a.151.151,0,0,1-.074.291h-6.919a2.325,2.325,0,0,1-.9-.18l-2.79-1.175a1.762,1.762,0,0,1-1.133-1.6v-6.9a.054.054,0,0,1,.057-.051h8.06A.054.054,0,0,1,567.186,1956.609Z" transform="translate(-558.788 -1956.333)" fill="#fff"/>
                <path id="Path_938506" data-name="Path 938506" d="M567.669,1963.589H560.75a2.567,2.567,0,0,1-.987-.2l-2.79-1.175a1.992,1.992,0,0,1-1.271-1.8v-6.9a.279.279,0,0,1,.282-.276h8.06a.279.279,0,0,1,.281.276v6.891a1.545,1.545,0,0,0,.988,1.385l2.518,1.075a.371.371,0,0,1,.226.416A.387.387,0,0,1,567.669,1963.589Zm-.014-.309h0Zm-11.5-9.591v6.725a1.545,1.545,0,0,0,1,1.389l2.79,1.175a2.108,2.108,0,0,0,.813.162h6.577l-2.191-.935a1.992,1.992,0,0,1-1.26-1.8v-6.718Z" transform="translate(-555.702 -1953.241)"/>
              </g>
            </g>
            <path id="Path_938507" data-name="Path 938507" d="M374.975,1695.232l-33.3.073H341.1l-1.075,0a.611.611,0,0,1-.6-.542l-2.784-21.757a.893.893,0,0,1,.851-1.029l34.5.031Z" transform="translate(-336.637 -1671.752)" fill="#5479f7"/>
            <g id="Group_1165247" data-name="Group 1165247" transform="translate(0.887)">
              <path id="Path_938508" data-name="Path 938508" d="M354.042,1671.94a1.081,1.081,0,0,0-1.012,1.2l2.8,21.591a.608.608,0,0,0,.6.531l.263.01,33.989-.01a.608.608,0,0,0,.6-.687l-2.861-22.03a.657.657,0,0,0-.578-.607Z" transform="translate(-352.798 -1671.715)" fill="#caddff"/>
              <path id="Path_938509" data-name="Path 938509" d="M353.614,1692.409l-.271-.01h0a.832.832,0,0,1-.816-.726l-2.8-21.59a1.309,1.309,0,0,1,.327-1.027,1.219,1.219,0,0,1,.907-.428h33.81a.88.88,0,0,1,.8.8l2.861,22.03a.833.833,0,0,1-.825.94Zm-2.657-23.333a.771.771,0,0,0-.57.276.871.871,0,0,0-.219.673l2.8,21.59a.384.384,0,0,0,.38.335l.271.01,33.981-.01a.384.384,0,0,0,.38-.434l-2.861-22.03c-.026-.2-.174-.412-.355-.412Z" transform="translate(-349.712 -1668.627)"/>
            </g>
            <path id="Path_938510" data-name="Path 938510" d="M378.21,1691.789a.96.96,0,0,0-.92,1.056l2.55,18.962a.547.547,0,0,0,.548.466l.239.009,30.913-.009a.541.541,0,0,0,.548-.6l-2.6-19.347a.586.586,0,0,0-.526-.533H378.21Z" transform="translate(-374.527 -1690.219)" fill="#99b9ff"/>
            <g id="Group_1165248" data-name="Group 1165248" transform="translate(15.285 9.979)">
              <path id="Path_938511" data-name="Path 938511" d="M563.183,1817.785a.861.861,0,0,0,.873-1,1.167,1.167,0,0,0-1.125-1,.862.862,0,0,0-.872,1A1.166,1.166,0,0,0,563.183,1817.785Z" transform="translate(-562.051 -1815.788)" fill="#caddff"/>
              <path id="Path_938512" data-name="Path 938512" d="M605.619,1817.785a.861.861,0,0,0,.873-1,1.167,1.167,0,0,0-1.125-1,.861.861,0,0,0-.872,1A1.166,1.166,0,0,0,605.619,1817.785Z" transform="translate(-601.609 -1815.788)" fill="#caddff"/>
              <path id="Path_938513" data-name="Path 938513" d="M648.056,1817.785a.861.861,0,0,0,.873-1,1.167,1.167,0,0,0-1.125-1,.861.861,0,0,0-.872,1A1.166,1.166,0,0,0,648.056,1817.785Z" transform="translate(-641.169 -1815.788)" fill="#caddff"/>
            </g>
          </g>
        </g>
        <g id="Group_1165253" data-name="Group 1165253" transform="translate(0.046 20.839)">
          <g id="Group_1165251" data-name="Group 1165251">
            <path id="Path_938514" data-name="Path 938514" d="M431.333,682.959c0-7.694-3.334-19.151-19.389-18.455.9-9.744-7.882-23.135-27.025-21.911-9.24.591-11.134,7.442-12.136,7.1-12.887-4.407-28.61,5.957-25.106,21.625-7.16.747-13.1,6.365-12.929,13.955.108,4.93,3.073,8.722,7.879,8.722h77.9a10.888,10.888,0,0,0,10.8-10.666Q431.333,683.145,431.333,682.959Z" transform="translate(-334.744 -642.514)" fill="#5479f7"/>
          </g>
          <g id="Group_1165252" data-name="Group 1165252" transform="translate(2.252 0.573)">
            <path id="Path_938515" data-name="Path 938515" d="M464.414,692.081c0-7.567-4.751-22.412-20.636-21.728-3.449-14.919-10.74-19.282-23.716-19.393-12.673-.108-15,8.656-15.98,8.277-13.634-5.3-26.276,6.688-23.507,20.594a14.228,14.228,0,0,0-12.613,14.254c0,.033,0,.067,0,.1a8.754,8.754,0,0,0,8.686,8.749h77.074a10.742,10.742,0,0,0,10.687-10.489C464.412,692.324,464.414,692.2,464.414,692.081Z" transform="translate(-367.962 -650.959)" fill="#99b9ff"/>
          </g>
        </g>
        <g id="Group_1165259" data-name="Group 1165259" transform="translate(18.916 36.028)">
          <path id="Path_938516" data-name="Path 938516" d="M632.273,896.325H613.321a.294.294,0,0,1-.294-.294V867.558a.294.294,0,0,1,.294-.294h18.953a.294.294,0,0,1,.294.294v28.474A.294.294,0,0,1,632.273,896.325Z" transform="translate(-613.027 -867.214)" fill="#fff"/>
          <g id="Group_1165254" data-name="Group 1165254" transform="translate(1.521)">
            <path id="Path_938517" data-name="Path 938517" d="M635.8,871.986h17.566a.34.34,0,0,0,.339-.339v-4.78a.34.34,0,0,0-.339-.339H635.8a.34.34,0,0,0-.339.339v4.78A.34.34,0,0,0,635.8,871.986Z" transform="translate(-635.462 -866.528)" fill="#5479f7"/>
            <path id="Path_938518" data-name="Path 938518" d="M661.1,899.667a.607.607,0,1,0,.608-.607A.608.608,0,0,0,661.1,899.667Z" transform="translate(-659.362 -896.853)" fill="#caddff"/>
            <path id="Path_938519" data-name="Path 938519" d="M686.188,899.115a.608.608,0,1,0,.608-.607A.608.608,0,0,0,686.188,899.115Z" transform="translate(-682.748 -896.339)" fill="#caddff"/>
            <path id="Path_938520" data-name="Path 938520" d="M718.258,891.434H729.68a.093.093,0,0,0,.093-.093v-2.113a.093.093,0,0,0-.093-.093H718.258a.093.093,0,0,0-.093.093v2.113A.093.093,0,0,0,718.258,891.434Z" transform="translate(-712.557 -887.602)" fill="#99b9ff"/>
          </g>
          <g id="Group_1165255" data-name="Group 1165255" transform="translate(1.534 5.894)">
            <path id="Path_938521" data-name="Path 938521" d="M635.987,958.91h17.566a.34.34,0,0,0,.339-.339v-4.78a.34.34,0,0,0-.339-.339H635.987a.34.34,0,0,0-.339.339v4.78A.34.34,0,0,0,635.987,958.91Z" transform="translate(-635.648 -953.452)" fill="#5479f7"/>
            <path id="Path_938522" data-name="Path 938522" d="M661.285,986.594a.608.608,0,1,0,.608-.608A.608.608,0,0,0,661.285,986.594Z" transform="translate(-659.547 -983.78)" fill="#caddff"/>
            <path id="Path_938523" data-name="Path 938523" d="M686.373,986.042a.607.607,0,1,0,.607-.608A.608.608,0,0,0,686.373,986.042Z" transform="translate(-682.933 -983.266)" fill="#caddff"/>
            <path id="Path_938524" data-name="Path 938524" d="M718.443,978.36h11.422a.093.093,0,0,0,.093-.093v-2.113a.093.093,0,0,0-.093-.093H718.443a.093.093,0,0,0-.093.093v2.113A.093.093,0,0,0,718.443,978.36Z" transform="translate(-712.742 -974.528)" fill="#99b9ff"/>
          </g>
          <g id="Group_1165256" data-name="Group 1165256" transform="translate(1.446 11.814)">
            <path id="Path_938525" data-name="Path 938525" d="M634.7,1046.21h17.566a.34.34,0,0,0,.339-.339v-4.78a.34.34,0,0,0-.339-.339H634.7a.34.34,0,0,0-.339.339v4.78A.34.34,0,0,0,634.7,1046.21Z" transform="translate(-634.359 -1040.752)" fill="#5479f7"/>
            <path id="Path_938526" data-name="Path 938526" d="M660,1073.889a.607.607,0,1,0,.608-.608A.608.608,0,0,0,660,1073.889Z" transform="translate(-658.259 -1071.075)" fill="#caddff"/>
            <path id="Path_938527" data-name="Path 938527" d="M685.085,1073.338a.608.608,0,1,0,.608-.607A.608.608,0,0,0,685.085,1073.338Z" transform="translate(-681.645 -1070.563)" fill="#caddff"/>
            <path id="Path_938528" data-name="Path 938528" d="M717.155,1065.66h11.422a.093.093,0,0,0,.093-.093v-2.113a.093.093,0,0,0-.093-.093H717.155a.093.093,0,0,0-.093.093v2.113A.094.094,0,0,0,717.155,1065.66Z" transform="translate(-711.454 -1061.828)" fill="#99b9ff"/>
          </g>
          <g id="Group_1165257" data-name="Group 1165257" transform="translate(1.459 17.708)">
            <path id="Path_938529" data-name="Path 938529" d="M634.884,1133.14H652.45a.34.34,0,0,0,.339-.339v-4.78a.34.34,0,0,0-.339-.339H634.884a.34.34,0,0,0-.339.339v4.78A.34.34,0,0,0,634.884,1133.14Z" transform="translate(-634.545 -1127.682)" fill="#5479f7"/>
            <path id="Path_938530" data-name="Path 938530" d="M660.183,1160.819a.608.608,0,1,0,.607-.608A.608.608,0,0,0,660.183,1160.819Z" transform="translate(-658.445 -1158.005)" fill="#caddff"/>
            <path id="Path_938531" data-name="Path 938531" d="M685.271,1160.269a.608.608,0,1,0,.607-.608A.608.608,0,0,0,685.271,1160.269Z" transform="translate(-681.831 -1157.493)" fill="#caddff"/>
            <path id="Path_938532" data-name="Path 938532" d="M717.34,1152.58h11.422a.093.093,0,0,0,.093-.093v-2.113a.093.093,0,0,0-.093-.093H717.34a.093.093,0,0,0-.093.093v2.113A.093.093,0,0,0,717.34,1152.58Z" transform="translate(-711.639 -1148.749)" fill="#99b9ff"/>
          </g>
          <g id="Group_1165258" data-name="Group 1165258" transform="translate(1.509 23.689)">
            <path id="Path_938533" data-name="Path 938533" d="M635.618,1221.35h17.566a.34.34,0,0,0,.339-.339v-4.78a.34.34,0,0,0-.339-.339H635.618a.34.34,0,0,0-.339.339v4.78A.34.34,0,0,0,635.618,1221.35Z" transform="translate(-635.279 -1215.892)" fill="#5479f7"/>
            <path id="Path_938534" data-name="Path 938534" d="M660.916,1249.029a.608.608,0,1,0,.607-.608A.608.608,0,0,0,660.916,1249.029Z" transform="translate(-659.178 -1246.215)" fill="#caddff"/>
            <path id="Path_938535" data-name="Path 938535" d="M686,1248.478a.608.608,0,1,0,.607-.607A.608.608,0,0,0,686,1248.478Z" transform="translate(-682.565 -1245.703)" fill="#caddff"/>
            <path id="Path_938536" data-name="Path 938536" d="M718.074,1240.8H729.5a.093.093,0,0,0,.093-.093v-2.113a.093.093,0,0,0-.093-.093H718.074a.093.093,0,0,0-.093.093v2.113A.093.093,0,0,0,718.074,1240.8Z" transform="translate(-712.373 -1236.968)" fill="#99b9ff"/>
          </g>
        </g>
        <g id="Group_1165263" data-name="Group 1165263" transform="translate(41.528 4.215)">
          <g id="Group_1165262" data-name="Group 1165262">
            <g id="Group_1165260" data-name="Group 1165260">
              <path id="Path_938537" data-name="Path 938537" d="M1027.038,433.02c0-6.786-2.779-16.891-16.166-16.277.754-8.594-6.572-20.4-22.532-19.325-7.7.521-9.283,6.564-10.119,6.262a16.158,16.158,0,0,0-20.933,19.073,12.012,12.012,0,0,0-10.779,12.308c.09,4.348,2.562,7.693,6.569,7.693h64.95c4.843,0,8.882-4.152,9.006-9.407Q1027.038,433.183,1027.038,433.02Z" transform="translate(-946.506 -397.349)" fill="#fff"/>
            </g>
            <g id="Group_1165261" data-name="Group 1165261" transform="translate(2.61 0.694)">
              <path id="Path_938538" data-name="Path 938538" d="M1067.888,446.826c0-6.612-3.92-19.585-17.027-18.987-2.846-13.037-8.861-16.85-19.568-16.946-10.456-.095-12.381,7.564-13.186,7.233-11.249-4.628-21.681,5.844-19.4,18-5.845.642-10.407,5.973-10.407,12.455,0,.029,0,.058,0,.087a7.448,7.448,0,0,0,7.167,7.645h63.594a9.123,9.123,0,0,0,8.818-9.166C1067.887,447.039,1067.888,446.933,1067.888,446.826Z" transform="translate(-988.08 -410.668)" fill="#5479f7"/>
              <path id="Path_938539" data-name="Path 938539" d="M1055.979,453.446H992.385a7.686,7.686,0,0,1-7.391-7.868v-.089c0-6.478,4.44-11.871,10.368-12.65a16.8,16.8,0,0,1,5.611-16.035,13.59,13.59,0,0,1,14.1-1.987,4.5,4.5,0,0,0,.628-.818c1.313-1.927,4.374-6.42,12.314-6.42h.192c5.759.052,9.849,1.218,12.871,3.671,3.267,2.651,5.453,6.87,6.874,13.268a14.567,14.567,0,0,1,11.019,3.97c4.182,4,6.053,10.537,6.053,15.249q0,.162,0,.323a9.862,9.862,0,0,1-2.739,6.653A8.726,8.726,0,0,1,1055.979,453.446Zm-46.434-39.3a13.013,13.013,0,0,0-8.29,3.008,16.372,16.372,0,0,0-5.411,15.839.224.224,0,0,1-.2.264c-5.819.639-10.207,5.9-10.207,12.232v.086A7.237,7.237,0,0,0,992.385,453h63.595c4.622,0,8.477-4.013,8.593-8.946q0-.156,0-.313c0-4.616-1.829-11.02-5.915-14.924a14.189,14.189,0,0,0-10.877-3.839.225.225,0,0,1-.229-.176c-2.646-12.121-7.891-16.666-19.351-16.77h-.186c-7.706,0-10.672,4.355-11.945,6.224-.5.736-.777,1.142-1.138.993A14.145,14.145,0,0,0,1009.545,414.145Z" transform="translate(-984.993 -407.58)"/>
            </g>
          </g>
        </g>
        <g id="Group_1165270" data-name="Group 1165270" transform="translate(64.65 22.23)">
          <g id="Group_1165264" data-name="Group 1165264" transform="translate(0 15.648)">
            <path id="Path_938540" data-name="Path 938540" d="M1304.857,904.2H1287.57v2.54h-.027c-.027,0-.041.076-.041.1,0,.339,3.931.56,8.858.56s8.541-.231,8.541-.569c0-.02-.013-.087-.038-.087h-.006V904.2Z" transform="translate(-1287.502 -903.494)" fill="#99b9ff"/>
            <path id="Path_938541" data-name="Path 938541" d="M1304.908,894.5c0,.339-3.613.542-8.541.542s-8.858-.2-8.858-.542,3.931-.684,8.858-.684S1304.908,894.158,1304.908,894.5Z" transform="translate(-1287.508 -893.813)" fill="#caddff"/>
          </g>
          <g id="Group_1165265" data-name="Group 1165265" transform="translate(0.164 12.617)">
            <path id="Path_938542" data-name="Path 938542" d="M1307.277,859.492H1289.99v2.54h-.027c-.027,0-.041.076-.041.1,0,.339,3.931.56,8.858.56s8.541-.231,8.541-.569c0-.02-.013-.087-.038-.087h-.006Z" transform="translate(-1289.922 -858.788)" fill="#99b9ff"/>
            <path id="Path_938543" data-name="Path 938543" d="M1307.317,849.79c0,.339-3.613.542-8.541.542s-8.858-.2-8.858-.542,3.931-.684,8.858-.684S1307.317,849.451,1307.317,849.79Z" transform="translate(-1289.918 -849.106)" fill="#caddff"/>
          </g>
          <g id="Group_1165266" data-name="Group 1165266" transform="translate(0.116 9.517)">
            <path id="Path_938544" data-name="Path 938544" d="M1306.535,813.577h-17.287V816.2h.007c-.027,0-.041.042-.041.062,0,.339,3.931.543,8.858.543s8.541-.2,8.541-.544c0-.02-.013-.061-.038-.061h-.04v-2.622Z" transform="translate(-1289.214 -812.886)" fill="#99b9ff"/>
            <path id="Path_938545" data-name="Path 938545" d="M1306.617,804.074c0,.339-3.614.542-8.541.542s-8.858-.2-8.858-.542,3.931-.684,8.858-.684S1306.617,803.735,1306.617,804.074Z" transform="translate(-1289.218 -803.39)" fill="#caddff"/>
          </g>
          <g id="Group_1165267" data-name="Group 1165267" transform="translate(0.179 6.345)">
            <path id="Path_938546" data-name="Path 938546" d="M1307.574,766.454h-17.369v2.663h-.011c-.027,0-.041.033-.041.053,0,.339,3.931.539,8.858.539s8.541-.2,8.541-.537c0-.02-.013-.055-.038-.055h.061Z" transform="translate(-1290.152 -765.787)" fill="#99b9ff"/>
            <path id="Path_938547" data-name="Path 938547" d="M1307.547,757.295c0,.339-3.614.542-8.541.542s-8.858-.2-8.858-.542,3.931-.684,8.858-.684S1307.547,756.956,1307.547,757.295Z" transform="translate(-1290.148 -756.611)" fill="#caddff"/>
          </g>
          <g id="Group_1165268" data-name="Group 1165268" transform="translate(0.147 3.136)">
            <path id="Path_938548" data-name="Path 938548" d="M1307.048,719.936h-17.287v2.54h-.044c-.027,0-.041.067-.041.087,0,.339,3.931.556,8.858.556s8.541-.224,8.541-.563c0-.02-.013-.081-.038-.081h.011Z" transform="translate(-1289.676 -719.214)" fill="#99b9ff"/>
            <path id="Path_938549" data-name="Path 938549" d="M1307.077,709.975c0,.339-3.614.542-8.541.542s-8.858-.2-8.858-.542,3.931-.684,8.858-.684S1307.077,709.636,1307.077,709.975Z" transform="translate(-1289.678 -709.291)" fill="#caddff"/>
          </g>
          <g id="Group_1165269" data-name="Group 1165269" transform="translate(0.068)">
            <path id="Path_938550" data-name="Path 938550" d="M1305.874,672.813h-17.369v2.7h.057c-.027,0-.041.015-.041.035,0,.339,3.931.53,8.858.53s8.541-.185,8.541-.523a.039.039,0,0,0-.038-.041h-.007Z" transform="translate(-1288.505 -672.15)" fill="#99b9ff"/>
            <path id="Path_938551" data-name="Path 938551" d="M1306.137,663.719c0,.339-3.613.542-8.541.542s-8.858-.2-8.858-.542,3.931-.684,8.858-.684S1306.137,663.38,1306.137,663.719Z" transform="translate(-1288.722 -663.035)" fill="#caddff"/>
          </g>
        </g>
        <g id="Group_1165277" data-name="Group 1165277" transform="translate(76.464 26.417)">
          <g id="Group_1165271" data-name="Group 1165271" transform="translate(0 15.648)">
            <path id="Path_938552" data-name="Path 938552" d="M1479.087,965.949H1461.8v2.54h-.027c-.027,0-.041.076-.041.1,0,.339,3.931.56,8.858.56s8.541-.231,8.541-.569c0-.02-.013-.087-.038-.087h-.006Z" transform="translate(-1461.732 -965.245)" fill="#caddff"/>
            <path id="Path_938553" data-name="Path 938553" d="M1479.128,956.248c0,.339-3.614.542-8.541.542s-8.858-.2-8.858-.542,3.931-.684,8.858-.684S1479.128,955.909,1479.128,956.248Z" transform="translate(-1461.729 -955.564)" fill="#fff"/>
          </g>
          <g id="Group_1165272" data-name="Group 1165272" transform="translate(0.164 12.617)">
            <path id="Path_938554" data-name="Path 938554" d="M1481.507,921.243H1464.22v2.54h-.027c-.027,0-.041.076-.041.1,0,.339,3.931.56,8.858.56s8.541-.231,8.541-.569c0-.02-.013-.087-.038-.087h-.006Z" transform="translate(-1464.151 -920.539)" fill="#caddff"/>
            <path id="Path_938555" data-name="Path 938555" d="M1481.547,911.542c0,.339-3.613.542-8.541.542s-8.858-.2-8.858-.542,3.931-.684,8.858-.684S1481.547,911.2,1481.547,911.542Z" transform="translate(-1464.148 -910.858)" fill="#fff"/>
          </g>
          <g id="Group_1165273" data-name="Group 1165273" transform="translate(0.116 9.517)">
            <path id="Path_938556" data-name="Path 938556" d="M1480.764,875.329h-17.287v2.622h.007c-.027,0-.041.042-.041.062,0,.339,3.931.543,8.858.543s8.541-.2,8.541-.543c0-.02-.013-.061-.038-.061h-.04Z" transform="translate(-1463.443 -874.638)" fill="#caddff"/>
            <path id="Path_938557" data-name="Path 938557" d="M1480.847,865.826c0,.339-3.613.542-8.541.542s-8.858-.2-8.858-.542,3.931-.684,8.858-.684S1480.847,865.487,1480.847,865.826Z" transform="translate(-1463.448 -865.142)" fill="#fff"/>
          </g>
          <g id="Group_1165274" data-name="Group 1165274" transform="translate(0.18 6.345)">
            <path id="Path_938558" data-name="Path 938558" d="M1481.8,828.206h-17.369v2.663h-.011c-.027,0-.041.033-.041.053,0,.339,3.931.539,8.858.539s8.541-.2,8.541-.537c0-.02-.013-.055-.038-.055h.061Z" transform="translate(-1464.383 -827.539)" fill="#caddff"/>
            <path id="Path_938559" data-name="Path 938559" d="M1481.777,819.047c0,.339-3.613.542-8.541.542s-8.858-.2-8.858-.542,3.931-.684,8.858-.684S1481.777,818.708,1481.777,819.047Z" transform="translate(-1464.378 -818.363)" fill="#fff"/>
          </g>
          <g id="Group_1165275" data-name="Group 1165275" transform="translate(0.147 3.136)">
            <path id="Path_938560" data-name="Path 938560" d="M1481.278,781.687h-17.287v2.54h-.043c-.027,0-.041.067-.041.087,0,.339,3.931.556,8.858.556s8.541-.224,8.541-.563c0-.02-.013-.081-.038-.081h.011Z" transform="translate(-1463.905 -780.965)" fill="#caddff"/>
            <path id="Path_938561" data-name="Path 938561" d="M1481.3,771.727c0,.339-3.614.542-8.541.542s-8.858-.2-8.858-.542,3.931-.684,8.858-.684S1481.3,771.388,1481.3,771.727Z" transform="translate(-1463.898 -771.043)" fill="#fff"/>
          </g>
          <g id="Group_1165276" data-name="Group 1165276" transform="translate(0.068)">
            <path id="Path_938562" data-name="Path 938562" d="M1480.1,734.564h-17.369v2.7h.057c-.027,0-.041.015-.041.035,0,.339,3.931.53,8.858.53s8.541-.185,8.541-.523a.039.039,0,0,0-.038-.041h-.007Z" transform="translate(-1462.735 -733.901)" fill="#caddff"/>
            <path id="Path_938563" data-name="Path 938563" d="M1480.367,725.471c0,.339-3.613.542-8.541.542s-8.858-.2-8.858-.542,3.931-.684,8.858-.684S1480.367,725.132,1480.367,725.471Z" transform="translate(-1462.952 -724.787)" fill="#fff"/>
          </g>
        </g>
        <g id="Group_1165298" data-name="Group 1165298" transform="translate(91.503 55.84)">
          <g id="Group_1165287" data-name="Group 1165287" transform="translate(10.167 28.016)">
            <g id="Group_1165281" data-name="Group 1165281" transform="translate(3.653 29.815)">
              <g id="Group_1165278" data-name="Group 1165278" transform="translate(0.623)">
                <path id="Path_938564" data-name="Path 938564" d="M1902.453,2014.89l1.678,5.007s-1.828-.156-2-.122a50.951,50.951,0,0,1-2.313-4.566Z" transform="translate(-1899.592 -2014.665)" fill="#fff"/>
                <path id="Path_938565" data-name="Path 938565" d="M1901.049,2017.03h-.019c-.855-.073-1.818-.139-1.946-.125-.2.04-.273.053-1.461-2.393-.551-1.135-1.087-2.288-1.093-2.3a.225.225,0,0,1,.177-.317l2.637-.319a.225.225,0,0,1,.24.151l1.678,5.007a.224.224,0,0,1-.213.3Zm-1.9-.573c.314,0,1.014.051,1.582.1l-1.512-4.51-2.149.26c.857,1.834,1.806,3.774,2.067,4.153Zm-.124,0-.02,0Z" transform="translate(-1896.509 -2011.574)"/>
              </g>
              <g id="Group_1165280" data-name="Group 1165280" transform="translate(0 2.907)">
                <g id="Group_1165279" data-name="Group 1165279">
                  <path id="Path_938566" data-name="Path 938566" d="M1895.181,2058.781s-2.524-1.035-2.991.264c-.594,1.652-1.522,4.172-1.522,4.172a.707.707,0,0,0,.61.943,9.388,9.388,0,0,0,2.939-.091c1.012-.355,2.69-3.557,2.69-3.557l-.518-2.725A1.138,1.138,0,0,0,1895.181,2058.781Z" transform="translate(-1890.402 -2057.556)" fill="#99b9ff"/>
                  <path id="Path_938567" data-name="Path 938567" d="M1889.676,2061.336c-.505,0-1.038-.03-1.5-.068a.932.932,0,0,1-.8-1.243c.01-.027.935-2.54,1.522-4.172a1.107,1.107,0,0,1,.617-.658,3.863,3.863,0,0,1,2.444.178,1.325,1.325,0,0,1,1.382-.923.224.224,0,0,1,.189.18l.518,2.725a.224.224,0,0,1-.022.146c-.176.336-1.75,3.292-2.815,3.665A5.147,5.147,0,0,1,1889.676,2061.336Zm.619-5.835a1.5,1.5,0,0,0-.6.105.667.667,0,0,0-.376.4c-.587,1.633-1.513,4.148-1.522,4.173a.482.482,0,0,0,.417.642,8.621,8.621,0,0,0,2.846-.079c.743-.26,2.043-2.464,2.53-3.381l-.469-2.466c-.227.025-.633.166-.806.827a.224.224,0,0,1-.3.151A5.239,5.239,0,0,0,1890.3,2055.5Z" transform="translate(-1887.317 -2054.442)"/>
                </g>
                <path id="Path_938568" data-name="Path 938568" d="M1900.291,2132.882H1897.7a.224.224,0,1,1,0-.448h2.592a.224.224,0,1,1,0,.448Z" transform="translate(-1896.786 -2127.146)"/>
              </g>
            </g>
            <g id="Group_1165285" data-name="Group 1165285" transform="translate(6.884 30.915)">
              <g id="Group_1165282" data-name="Group 1165282" transform="translate(1.923)">
                <path id="Path_938569" data-name="Path 938569" d="M1969.514,2031.231l-.571,5.036-2.293-.629.176-4.539Z" transform="translate(-1966.425 -2030.876)" fill="#fff"/>
                <path id="Path_938570" data-name="Path 938570" d="M1965.853,2033.409a.221.221,0,0,1-.059-.008l-2.294-.629a.224.224,0,0,1-.165-.225l.177-4.538a.224.224,0,0,1,.073-.157.232.232,0,0,1,.162-.058l2.688.131a.224.224,0,0,1,.212.249l-.57,5.036a.223.223,0,0,1-.1.161A.22.22,0,0,1,1965.853,2033.409Zm-2.062-1.023,1.869.513.514-4.539-2.222-.108Z" transform="translate(-1963.335 -2027.793)"/>
              </g>
              <g id="Group_1165284" data-name="Group 1165284" transform="translate(0 3.579)">
                <g id="Group_1165283" data-name="Group 1165283">
                  <path id="Path_938571" data-name="Path 938571" d="M1942.708,2089.183h-3.629a.8.8,0,0,1-.8-.922,10.715,10.715,0,0,1,1.7-4.049.706.706,0,0,1,.6-.328h1.1a.371.371,0,0,1,.369.333l.084.8.334-.344a.25.25,0,0,1,.418.1,12.712,12.712,0,0,1,.626,3.6A.805.805,0,0,1,1942.708,2089.183Z" transform="translate(-1938.05 -2083.66)" fill="#99b9ff"/>
                  <path id="Path_938572" data-name="Path 938572" d="M1939.628,2086.327H1936a1.028,1.028,0,0,1-1.018-1.179,10.938,10.938,0,0,1,1.731-4.136.926.926,0,0,1,.786-.433h1.1a.6.6,0,0,1,.593.535l.033.32h0a.475.475,0,0,1,.792.182,12.946,12.946,0,0,1,.637,3.664,1.029,1.029,0,0,1-1.03,1.048Zm-2.13-5.3a.485.485,0,0,0-.407.224,10.507,10.507,0,0,0-1.667,3.962.58.58,0,0,0,.574.665h3.629a.581.581,0,0,0,.581-.591,12.471,12.471,0,0,0-.615-3.532.025.025,0,0,0-.019-.017.025.025,0,0,0-.026.008l-.334.343a.224.224,0,0,1-.384-.133l-.083-.8a.147.147,0,0,0-.146-.132Z" transform="translate(-1934.969 -2080.579)"/>
                </g>
                <path id="Path_938573" data-name="Path 938573" d="M1950.687,2146.382h-3.676a.224.224,0,0,1,0-.448h3.676a.224.224,0,0,1,0,.448Z" transform="translate(-1945.986 -2141.502)"/>
              </g>
            </g>
            <g id="Group_1165286" data-name="Group 1165286">
              <path id="Path_938574" data-name="Path 938574" d="M1836.731,1572.895a.841.841,0,0,1,.527-.485,12.931,12.931,0,0,1,10.717,1.541.847.847,0,0,1,.388.652,97.275,97.275,0,0,1-3.188,30.055l-2.7-.192-.55-25.615s-3.994,9.39-.746,24.335l-2.8.518a28.546,28.546,0,0,1-4.839-13.642C1832.888,1582.767,1836,1574.667,1836.731,1572.895Z" transform="translate(-1833.45 -1571.873)"/>
              <path id="Path_938575" data-name="Path 938575" d="M1993.137,1828.068a.224.224,0,0,1-.009-.448c2.2-.095,2.459-3.2,2.462-3.233a.224.224,0,1,1,.447.033c0,.035-.294,3.536-2.89,3.648Z" transform="translate(-1982.1 -1807.07)" fill="#caddff"/>
              <path id="Path_938576" data-name="Path 938576" d="M1930.143,1646.247h-.007a.225.225,0,0,1-.218-.231l.072-2.433a1.2,1.2,0,0,0-.513-1.024l-1.05-.738a.224.224,0,1,1,.258-.367l1.05.738a1.652,1.652,0,0,1,.7,1.4l-.072,2.434A.224.224,0,0,1,1930.143,1646.247Z" transform="translate(-1921.899 -1636.697)" fill="#caddff"/>
            </g>
          </g>
          <g id="Group_1165291" data-name="Group 1165291" transform="translate(0 7.471)">
            <path id="Path_938577" data-name="Path 938577" d="M1877.162,1357.169c-.426.478-1.29.393-3,.2-2.671-.294-3.13-.9-4.856-1.067-3.076-.3-3.768,1.723-4.869.966-.67-.46-.891-2.324.1-6.37.323-1.532.2-2.854.514-4.418.427-2.152.363-4.335.745-6.44a27.9,27.9,0,0,1,5.334.044,26.042,26.042,0,0,1,7.249,1.807c-1.022,1.484-.511,3.5-1.532,4.983C1876.868,1348.005,1877.955,1356.281,1877.162,1357.169Z" transform="translate(-1851.634 -1335.119)" fill="#5479f7"/>
            <g id="Group_1165290" data-name="Group 1165290">
              <g id="Group_1165288" data-name="Group 1165288">
                <path id="Path_938578" data-name="Path 938578" d="M1689.04,1274.357s-1.625-1.507-2.088-1.891c-.526-.437.678-.581,2.22.832Z" transform="translate(-1686.602 -1271.939)" fill="#fff"/>
                <path id="Path_938579" data-name="Path 938579" d="M1686.122,1271.748l-.321-.3c-.016-.015-1.626-1.507-2.079-1.883a.434.434,0,0,1-.2-.415.338.338,0,0,1,.239-.254,3.316,3.316,0,0,1,2.477,1.163l.085.078Zm-1.985-2.417c.407.353,1.2,1.082,1.648,1.493l.063-.509A3.9,3.9,0,0,0,1684.137,1269.332Z" transform="translate(-1683.515 -1268.868)"/>
              </g>
              <g id="Group_1165289" data-name="Group 1165289" transform="translate(2.024 0.295)">
                <path id="Path_938580" data-name="Path 938580" d="M1716.718,1278.107c-.01.083-.02.167-.035.249a.831.831,0,0,0,.143.693,11.026,11.026,0,0,0,1.6.969,1.276,1.276,0,0,1,.4.33,9.422,9.422,0,0,1-.258,2.186l1.641-.587a24.161,24.161,0,0,0-.557-3.834,2.27,2.27,0,0,0-1.557-1.6c-.246.035-.321.506-.321.506s-.533-.411-.856-.191c-.169.115-.087.311-.114.5Z" transform="translate(-1716.44 -1276.29)" fill="#fff"/>
                <path id="Path_938581" data-name="Path 938581" d="M1715.194,1279.806l.08-.39a11.2,11.2,0,0,0,.284-2.024,1.039,1.039,0,0,0-.31-.248,9.007,9.007,0,0,1-1.663-1.014,1.05,1.05,0,0,1-.2-.886c.014-.078.024-.157.033-.235l.089-.778a.816.816,0,0,0,0-.138.537.537,0,0,1,.208-.521.842.842,0,0,1,.85.032.575.575,0,0,1,.422-.384c.407-.056,1.421.582,1.8,1.752a23.906,23.906,0,0,1,.568,3.887l.012.17Zm-1.331-4.747c-.01.088-.021.177-.037.264a.634.634,0,0,0,.086.5,9.46,9.46,0,0,0,1.547.924,1.492,1.492,0,0,1,.469.388c.06.076.2.246-.136,1.982l1.107-.4a22.14,22.14,0,0,0-.533-3.611,2.172,2.172,0,0,0-1.319-1.445.719.719,0,0,0-.124.318l-.059.373-.3-.231c-.141-.108-.461-.273-.593-.183a.332.332,0,0,0-.012.135,1.163,1.163,0,0,1-.006.21Zm1.691,2.316Z" transform="translate(-1713.362 -1273.216)"/>
              </g>
              <path id="Path_938582" data-name="Path 938582" d="M1729.939,1282.853a.545.545,0,0,1-.454-.264,1.263,1.263,0,0,1-.2-.82.224.224,0,1,1,.443.068.821.821,0,0,0,.132.507c.021.033.056.069.1.058.073-.02.188-.165.2-.481.018-.475-.575-1.031-.8-1.206a.224.224,0,0,1,.271-.358c.041.031,1.012.777.982,1.58-.021.558-.286.829-.528.9A.527.527,0,0,1,1729.939,1282.853Z" transform="translate(-1726.161 -1279.537)"/>
            </g>
            <path id="Path_938583" data-name="Path 938583" d="M1740.859,1341.9a9.788,9.788,0,0,0-2.494.871,10.062,10.062,0,0,0,.7,5.161,5.062,5.062,0,0,0,1.687,2.663c1.763,1.139,4.987.105,7.88-2.585q.041-3.251.083-6.5a4.492,4.492,0,0,0-1.95,1.314l-.914,1.055c-.82,1.479-1.92,2.5-2.764,2.31-.69-.152-1.067-1.138-1.821-3.111A5.855,5.855,0,0,1,1740.859,1341.9Z" transform="translate(-1734.552 -1336.586)" fill="#5479f7"/>
          </g>
          <g id="Group_1165292" data-name="Group 1165292" transform="translate(21.01 27.275)">
            <path id="Path_938584" data-name="Path 938584" d="M2003.178,1564.24l-2.3,2.09-.9-1.451-2.589-.639s.1.705,1.429.877l-2.144-.047s.319.6,1.657.533l-1.377.234a10.383,10.383,0,0,1,1.323.385l.431.185a3.726,3.726,0,0,1,.726.6,2.4,2.4,0,0,0,1.371.8c.622.109,3.587-1.417,3.587-1.417Z" transform="translate(-1996.448 -1564.016)" fill="#fff"/>
            <path id="Path_938585" data-name="Path 938585" d="M1997.776,1564.956a.562.562,0,0,1-.095-.007,2.65,2.65,0,0,1-1.5-.876,3.473,3.473,0,0,0-.662-.548l-.414-.178a10.191,10.191,0,0,0-1.283-.373.224.224,0,0,1,.011-.44l.058-.01a1.111,1.111,0,0,1-.5-.431.224.224,0,0,1,.008-.223.226.226,0,0,1,.2-.106l.87.019a1.036,1.036,0,0,1-.381-.594.224.224,0,0,1,.276-.249l2.589.639a.224.224,0,0,1,.137.1l.759,1.222,2.1-1.908a.224.224,0,0,1,.346.056l1.212,2.153a.225.225,0,0,1-.093.309A14.934,14.934,0,0,1,1997.776,1564.956Zm-2.857-2.152c.133.042.258.087.361.131l.431.185a.207.207,0,0,1,.029.015,3.927,3.927,0,0,1,.777.643,2.2,2.2,0,0,0,1.241.729,12.25,12.25,0,0,0,3.238-1.29l-.959-1.7-2.092,1.9a.224.224,0,0,1-.342-.048l-.853-1.373-1.884-.465a2.166,2.166,0,0,0,.895.285.224.224,0,0,1-.034.447l-1.332-.029a2.766,2.766,0,0,0,.838.067.224.224,0,0,1,.05.445Z" transform="translate(-1993.364 -1560.933)"/>
          </g>
          <path id="Path_938586" data-name="Path 938586" d="M2041.21,1384.7l-1.911-2.63s4.138-4.52-3.063-8.269l2.831-4.983s5.758,3.354,5.651,8.732S2041.21,1384.7,2041.21,1384.7Z" transform="translate(-2012.318 -1354.568)" fill="#5479f7"/>
          <path id="Path_938587" data-name="Path 938587" d="M1893.48,1495.6a.224.224,0,0,1-.031-.446,18.174,18.174,0,0,0,7.511-2.842.224.224,0,0,1,.247.375,18.622,18.622,0,0,1-7.7,2.912Z" transform="translate(-1879.035 -1469.659)" fill="#caddff"/>
          <g id="Group_1165297" data-name="Group 1165297" transform="translate(16.164)">
            <g id="Group_1165293" data-name="Group 1165293" transform="translate(0)">
              <circle id="Ellipse_13504" data-name="Ellipse 13504" cx="3.233" cy="3.233" r="3.233" transform="translate(0 5.955) rotate(-28.536)"/>
              <path id="Path_938588" data-name="Path 938588" d="M1962.05,1162.234a.628.628,0,0,1,.269-.516.832.832,0,0,0,.312-.377q.021-.054.043-.107a.754.754,0,0,0,.026-.457.629.629,0,0,1,.559-.765.838.838,0,0,0,.459-.171l.091-.071a.668.668,0,0,0,.244-.359.629.629,0,0,1,.873-.408.837.837,0,0,0,.483.081l.114-.016a.684.684,0,0,0,.4-.191.629.629,0,0,1,.958.087.831.831,0,0,0,.377.312l.107.043a.754.754,0,0,0,.457.026.629.629,0,0,1,.765.559.839.839,0,0,0,.171.459c.024.03.048.06.071.091a.666.666,0,0,0,.359.244.629.629,0,0,1,.408.873.834.834,0,0,0-.081.482c.006.038.011.076.016.114a.684.684,0,0,0,.191.4.63.63,0,0,1-.087.958.832.832,0,0,0-.312.377q-.021.054-.043.107a.752.752,0,0,0-.026.457.629.629,0,0,1-.56.765.833.833,0,0,0-.458.17l-.092.072a.668.668,0,0,0-.244.359.629.629,0,0,1-.848.419,1.223,1.223,0,0,0-.621-.076q-.136.017-.274.024a.63.63,0,0,1-1.176-.14,3.584,3.584,0,0,1-.634-.251.63.63,0,0,1-.95-.708,3.551,3.551,0,0,1-.423-.536.63.63,0,0,1-.61-.894.832.832,0,0,0,.081-.482c-.006-.038-.011-.076-.016-.114a.684.684,0,0,0-.191-.4A.626.626,0,0,1,1962.05,1162.234Z" transform="translate(-1959.328 -1158.696)"/>
            </g>
            <g id="Group_1165296" data-name="Group 1165296" transform="translate(1.142 6.443)">
              <g id="Group_1165294" data-name="Group 1165294" transform="translate(0.333 2.428)">
                <path id="Path_938589" data-name="Path 938589" d="M1949.578,1292.84v2.8c0,.368.912.81.615.9a3.464,3.464,0,0,1-3.162.02c-.282-.135.59-.547.59-.917v-1Z" transform="translate(-1946.749 -1292.616)" fill="#fff"/>
                <path id="Path_938590" data-name="Path 938590" d="M1945.5,1294.075a3.838,3.838,0,0,1-1.663-.4.3.3,0,0,1-.181-.231c-.029-.194.127-.335.323-.514.1-.094.32-.291.32-.374v-1a.225.225,0,0,1,.073-.165l1.958-1.8a.225.225,0,0,1,.376.165v2.8c0,.085.244.3.348.391.2.177.361.318.319.51a.288.288,0,0,1-.211.215c-.027.008-.067.027-.119.05A3.675,3.675,0,0,1,1945.5,1294.075Zm-1.308-.73a3.1,3.1,0,0,0,2.621-.015l-.055-.049c-.235-.207-.5-.441-.5-.728v-2.285l-1.509,1.386v.9c0,.282-.248.507-.467.706Z" transform="translate(-1943.653 -1289.534)"/>
              </g>
              <g id="Group_1165295" data-name="Group 1165295">
                <path id="Path_938591" data-name="Path 938591" d="M1942.653,1257.313a5.755,5.755,0,0,0-.573,3,1.154,1.154,0,0,0,1.19.934,2.16,2.16,0,0,0,1.777-1.02.854.854,0,0,0,.895-.67s.081-.356-.22-.462c-.227-.08-.418.129-.5.237a.11.11,0,0,1-.116.041h0a.11.11,0,0,1-.076-.146,1.454,1.454,0,0,0-.961-2.135S1943.058,1256.818,1942.653,1257.313Z" transform="translate(-1941.814 -1256.794)" fill="#fff"/>
                <path id="Path_938592" data-name="Path 938592" d="M1940.141,1258.4a1.379,1.379,0,0,1-1.358-1.119,5.891,5.891,0,0,1,.621-3.186h0c.493-.6,1.6-.305,1.649-.292a1.639,1.639,0,0,1,1.121.8,1.849,1.849,0,0,1,.106,1.243.543.543,0,0,1,.439-.035.6.6,0,0,1,.365.723,1.075,1.075,0,0,1-1,.846,2.37,2.37,0,0,1-1.885,1.019C1940.182,1258.4,1940.161,1258.4,1940.141,1258.4Zm-.39-4.021a5.674,5.674,0,0,0-.527,2.822.93.93,0,0,0,.959.75,1.945,1.945,0,0,0,1.6-.919.225.225,0,0,1,.211-.1.623.623,0,0,0,.655-.5c.005-.028.023-.156-.078-.192s-.229.14-.244.16a.335.335,0,0,1-.582-.319,1.663,1.663,0,0,0,.031-1.266,1.217,1.217,0,0,0-.837-.573C1940.692,1254.173,1940.008,1254.072,1939.751,1254.381Zm2.215,1.748h0Zm-2.39-1.889h0Z" transform="translate(-1938.739 -1253.722)"/>
              </g>
            </g>
          </g>
        </g>
        <g id="Group_1165304" data-name="Group 1165304" transform="translate(30.741 96.32)">
          <path id="Path_938593" data-name="Path 938593" d="M800.461,1780.262c.7-.57,1.43-1.1,2.181-1.609,1.523-1.029,3.127-1.949,4.749-2.84.853-.469,1.739-.893,2.613-1.329s1.762-.874,2.644-1.308q1.209-.6,2.417-1.194c1.829-6.185,3.816-13.2,3.421-13.2l-29.995-.847a1.047,1.047,0,0,0-1.056,1.281l3.635,20.725a1.594,1.594,0,0,0,1.505,1.281h6.675C799.645,1780.893,800.062,1780.587,800.461,1780.262Z" transform="translate(-787.417 -1757.786)" fill="#5479f7"/>
          <g id="Group_1165300" data-name="Group 1165300" transform="translate(0.458)">
            <g id="Group_1165299" data-name="Group 1165299">
              <path id="Path_938594" data-name="Path 938594" d="M828.726,1759H798.5a.987.987,0,0,0-1,1.208l3.635,20.725a1.5,1.5,0,0,0,1.42,1.208h30.229a.987.987,0,0,0,1-1.208l-3.635-20.725A1.5,1.5,0,0,0,828.726,1759Z" transform="translate(-797.257 -1758.776)" fill="#fff"/>
              <path id="Path_938595" data-name="Path 938595" d="M829.7,1779.282H799.469a1.737,1.737,0,0,1-1.641-1.394l-3.635-20.725a1.255,1.255,0,0,1,.259-1.043,1.224,1.224,0,0,1,.959-.428H825.64a1.737,1.737,0,0,1,1.641,1.394l3.635,20.725a1.255,1.255,0,0,1-.259,1.044A1.225,1.225,0,0,1,829.7,1779.282Zm-34.288-23.141a.784.784,0,0,0-.615.267.814.814,0,0,0-.16.678l3.635,20.725a1.271,1.271,0,0,0,1.2,1.022H829.7a.784.784,0,0,0,.615-.267.815.815,0,0,0,.16-.678l-3.635-20.725a1.271,1.271,0,0,0-1.2-1.022Z" transform="translate(-794.171 -1755.692)"/>
            </g>
          </g>
          <g id="Group_1165301" data-name="Group 1165301" transform="translate(2.174 1.351)">
            <path id="Path_938596" data-name="Path 938596" d="M848.114,1775.61h-27.7a.9.9,0,0,0-.913,1.091l3.331,18.708a1.37,1.37,0,0,0,1.3,1.09h27.7a.9.9,0,0,0,.913-1.09l-3.331-18.708A1.371,1.371,0,0,0,848.114,1775.61Z" transform="translate(-819.483 -1775.61)" fill="#99b9ff"/>
          </g>
          <g id="Group_1165302" data-name="Group 1165302" transform="translate(4.526 23.26)">
            <path id="Path_938597" data-name="Path 938597" d="M895.714,2102.03H858.38a.885.885,0,1,0,0,1.77h37.334a.885.885,0,1,0,0-1.77Z" transform="translate(-857.254 -2101.805)" fill="#5479f7"/>
            <path id="Path_938598" data-name="Path 938598" d="M892.632,2100.938H855.3a1.109,1.109,0,1,1,0-2.218h37.334a1.109,1.109,0,1,1,0,2.218Zm-37.334-1.769a.661.661,0,1,0,0,1.321h37.334a.661.661,0,1,0,0-1.321Z" transform="translate(-854.172 -2098.72)"/>
          </g>
          <g id="Group_1165303" data-name="Group 1165303" transform="translate(14.931 10.242)">
            <path id="Path_938599" data-name="Path 938599" d="M1008.74,1914.735a.861.861,0,0,0,.873-1,1.167,1.167,0,0,0-1.124-1,.861.861,0,0,0-.873,1A1.167,1.167,0,0,0,1008.74,1914.735Z" transform="translate(-1007.608 -1912.332)" fill="#caddff"/>
            <path id="Path_938600" data-name="Path 938600" d="M1051.18,1914.735a.861.861,0,0,0,.873-1,1.167,1.167,0,0,0-1.124-1,.861.861,0,0,0-.873,1A1.166,1.166,0,0,0,1051.18,1914.735Z" transform="translate(-1047.17 -1912.332)" fill="#caddff"/>
            <ellipse id="Ellipse_13505" data-name="Ellipse 13505" cx="0.938" cy="1.064" rx="0.938" ry="1.064" transform="translate(5.341 1.367) rotate(-46.803)" fill="#caddff"/>
          </g>
        </g>
        <g id="Group_1165308" data-name="Group 1165308" transform="translate(74.771 95.316)">
          <g id="Group_1165307" data-name="Group 1165307">
            <path id="Path_938601" data-name="Path 938601" d="M1441.223,1771.434l.681.05,12.633-.05a.9.9,0,0,0,.908-1.036l-3.278-25.9a1.212,1.212,0,0,0-1.17-1.036l-12.645-.148c-1.452,0-1.648.611-1.576,1.183l3.278,25.9A1.213,1.213,0,0,0,1441.223,1771.434Z" transform="translate(-1436.762 -1743.152)" fill="#5479f7"/>
            <g id="Group_1165305" data-name="Group 1165305" transform="translate(0.581)">
              <path id="Path_938602" data-name="Path 938602" d="M1453.1,1772.24h13.314a.9.9,0,0,0,.907-1.039l-3.278-25.98a1.214,1.214,0,0,0-1.17-1.039h-13.313a.9.9,0,0,0-.908,1.039l3.278,25.98A1.214,1.214,0,0,0,1453.1,1772.24Z" transform="translate(-1448.423 -1743.958)" fill="#fff"/>
              <path id="Path_938603" data-name="Path 938603" d="M1463.326,1769.381h-13.314a1.446,1.446,0,0,1-1.393-1.235l-3.278-25.98a1.144,1.144,0,0,1,.269-.914,1.129,1.129,0,0,1,.862-.377h13.313a1.446,1.446,0,0,1,1.393,1.235l3.278,25.98a1.143,1.143,0,0,1-.268.914A1.129,1.129,0,0,1,1463.326,1769.381Zm-16.854-28.058a.688.688,0,0,0-.525.225.7.7,0,0,0-.16.561l3.278,25.98a.985.985,0,0,0,.947.843h13.314a.686.686,0,0,0,.525-.225.7.7,0,0,0,.16-.561l-3.278-25.98a.985.985,0,0,0-.947-.843h-13.314Z" transform="translate(-1445.332 -1740.875)"/>
            </g>
            <path id="Path_938604" data-name="Path 938604" d="M1486.846,1803.2l-2.91-23.065a.261.261,0,0,0-.251-.223h-12.446a.192.192,0,0,0-.195.223l2.91,23.065a.26.26,0,0,0,.251.223h12.446A.192.192,0,0,0,1486.846,1803.2Z" transform="translate(-1468.718 -1777.264)" fill="#99b9ff"/>
            <path id="Path_938605" data-name="Path 938605" d="M1558.782,1759.21a.335.335,0,0,0,.34-.389.454.454,0,0,0-.438-.389.336.336,0,0,0-.34.389A.455.455,0,0,0,1558.782,1759.21Z" transform="translate(-1550.097 -1757.242)" fill="#caddff"/>
            <g id="Group_1165306" data-name="Group 1165306" transform="translate(7.374 12.359)">
              <path id="Path_938606" data-name="Path 938606" d="M1546.357,1924.617a.639.639,0,0,0,.647-.74.865.865,0,0,0-.833-.74.639.639,0,0,0-.647.74A.866.866,0,0,0,1546.357,1924.617Z" transform="translate(-1545.517 -1923.136)" fill="#caddff"/>
              <path id="Path_938607" data-name="Path 938607" d="M1577.817,1924.617a.639.639,0,0,0,.647-.74.865.865,0,0,0-.833-.74.639.639,0,0,0-.647.74A.866.866,0,0,0,1577.817,1924.617Z" transform="translate(-1574.844 -1923.136)" fill="#caddff"/>
              <path id="Path_938608" data-name="Path 938608" d="M1609.278,1924.617a.639.639,0,0,0,.647-.74.865.865,0,0,0-.834-.74.639.639,0,0,0-.647.74A.865.865,0,0,0,1609.278,1924.617Z" transform="translate(-1604.172 -1923.136)" fill="#caddff"/>
            </g>
          </g>
        </g>
        <g id="Group_1165309" data-name="Group 1165309" transform="translate(26.939 69.892)">
          <path id="Path_938609" data-name="Path 938609" d="M1023.695,1382.78l-1.384-.019V1368.52a.521.521,0,0,0-.567-.562h-2.517a.452.452,0,0,0-.5.462v14.29l-1.238-.017a.26.26,0,0,0-.229.393l2.932,4.663a.255.255,0,0,0,.423.014l3.307-4.577A.263.263,0,0,0,1023.695,1382.78Z" transform="translate(-997.833 -1367.821)" fill="#fff"/>
          <path id="Path_938610" data-name="Path 938610" d="M737.881,1379.637l-1.348-.019v-11.026a.637.637,0,0,0-.638-.636h-2.517a.579.579,0,0,0-.583.536v11.075l-1.2-.017a.252.252,0,0,0-.209.393l2.942,4.663a.259.259,0,0,0,.428.014l3.327-4.577A.256.256,0,0,0,737.881,1379.637Z" transform="translate(-731.345 -1367.819)" fill="#fff"/>
          <path id="Path_938611" data-name="Path 938611" d="M1246.106,1382.54l-1.233-.017v-8.429a.9.9,0,0,0-.886-.927l-16.862-.138a.443.443,0,0,1-.438-.45l-.127-6.124a.53.53,0,0,0-.539-.52l-2.985.056a.444.444,0,0,0-.435.455l.207,8.735a1.365,1.365,0,0,0,1.4,1.359h16.4c.331,0,.531.342.531.672v5.259l-1.289-.018a.25.25,0,0,0-.2.393l2.944,4.663a.261.261,0,0,0,.429.014l3.31-4.577A.262.262,0,0,0,1246.106,1382.54Z" transform="translate(-1189.289 -1365.936)" fill="#fff"/>
        </g>
        <g id="Group_1165315" data-name="Group 1165315" transform="translate(3.283 3.49)">
          <g id="Group_1165310" data-name="Group 1165310" transform="translate(84.719 45.134)">
            <path id="Path_938612" data-name="Path 938612" d="M1632.1,1064.714a.221.221,0,0,1-.127-.039.225.225,0,0,1-.058-.312l8.232-11.974a.224.224,0,1,1,.37.254l-8.232,11.974A.223.223,0,0,1,1632.1,1064.714Z" transform="translate(-1631.874 -1052.291)"/>
            <path id="Path_938613" data-name="Path 938613" d="M1674.633,1178.3a.224.224,0,0,1-.132-.406l7.221-5.271a.224.224,0,1,1,.264.362l-7.221,5.271A.223.223,0,0,1,1674.633,1178.3Z" transform="translate(-1671.524 -1164.42)"/>
          </g>
          <g id="Group_1165312" data-name="Group 1165312">
            <path id="Path_938614" data-name="Path 938614" d="M480.427,457.655a.224.224,0,0,1-.2-.322,30.2,30.2,0,0,1,13.43-13.736.224.224,0,0,1,.209.4,29.761,29.761,0,0,0-13.236,13.535A.224.224,0,0,1,480.427,457.655Z" transform="translate(-473.576 -439.712)"/>
            <path id="Path_938615" data-name="Path 938615" d="M431.431,405.8a.224.224,0,0,1-.209-.3,33.44,33.44,0,0,1,7.477-11.678,31.571,31.571,0,0,1,10.905-7.135.224.224,0,0,1,.164.418,31.878,31.878,0,0,0-18.127,18.556A.224.224,0,0,1,431.431,405.8Z" transform="translate(-427.902 -386.665)"/>
            <g id="Group_1165311" data-name="Group 1165311" transform="translate(0 20.634)">
              <path id="Path_938616" data-name="Path 938616" d="M419.317,692.407a.232.232,0,0,1-.05-.005.224.224,0,0,1-.169-.269l.227-1a.224.224,0,1,1,.437.1l-.227,1A.224.224,0,0,1,419.317,692.407Z" transform="translate(-416.609 -690.963)"/>
              <path id="Path_938617" data-name="Path 938617" d="M407.6,743.8a.227.227,0,0,1-.05-.005.225.225,0,0,1-.169-.269l.227-1a.224.224,0,1,1,.437.1l-.227,1A.224.224,0,0,1,407.6,743.8Z" transform="translate(-405.688 -738.87)"/>
              <path id="Path_938618" data-name="Path 938618" d="M383.673,716.786a.22.22,0,0,1-.053-.006l-.978-.238a.224.224,0,1,1,.106-.436l.978.238a.224.224,0,0,1-.053.442Z" transform="translate(-382.471 -714.394)"/>
              <path id="Path_938619" data-name="Path 938619" d="M434.131,729.077a.219.219,0,0,1-.053-.006l-.978-.238a.224.224,0,1,1,.106-.436l.978.238a.224.224,0,0,1-.053.442Z" transform="translate(-429.507 -725.852)"/>
            </g>
          </g>
          <g id="Group_1165313" data-name="Group 1165313" transform="translate(83.082 80.394)">
            <path id="Path_938620" data-name="Path 938620" d="M1641.356,1573.755h0a.224.224,0,0,1-.224-.224v-1.021a.224.224,0,0,1,.224-.224h0a.224.224,0,0,1,.224.224v1.021A.225.225,0,0,1,1641.356,1573.755Z" transform="translate(-1638.868 -1572.285)"/>
            <path id="Path_938621" data-name="Path 938621" d="M1641.326,1626.463h0a.225.225,0,0,1-.224-.225v-1.021a.224.224,0,0,1,.224-.224h0a.224.224,0,0,1,.224.225v1.021A.224.224,0,0,1,1641.326,1626.463Z" transform="translate(-1638.84 -1621.419)"/>
            <path id="Path_938622" data-name="Path 938622" d="M1608.968,1606.121h0l-1.006-.015a.224.224,0,0,1,0-.449h0l1.006.015a.224.224,0,0,1,0,.449Z" transform="translate(-1607.738 -1603.394)"/>
            <path id="Path_938623" data-name="Path 938623" d="M1660.9,1606.911h0l-1.006-.015a.224.224,0,0,1,0-.449h0l1.006.015a.224.224,0,0,1,0,.449Z" transform="translate(-1656.145 -1604.13)"/>
          </g>
          <g id="Group_1165314" data-name="Group 1165314" transform="translate(44.396 49.192)">
            <path id="Path_938624" data-name="Path 938624" d="M1037.438,1118.568a.224.224,0,0,1-.179-.359l4.486-5.982a.224.224,0,0,1,.359.269l-4.486,5.982A.224.224,0,0,1,1037.438,1118.568Z" transform="translate(-1037.214 -1112.138)" fill="#caddff"/>
            <path id="Path_938625" data-name="Path 938625" d="M1165.348,1128.58a.224.224,0,0,1-.172-.368l5.982-7.178a.224.224,0,1,1,.345.287l-5.982,7.178A.223.223,0,0,1,1165.348,1128.58Z" transform="translate(-1156.451 -1120.356)" fill="#caddff"/>
          </g>
        </g>
      </g>
    </g>
  </g>
</svg>
