<svg xmlns="http://www.w3.org/2000/svg" width="120" height="120" viewBox="0 0 120 120">
  <g id="Group_1165171" data-name="Group 1165171" transform="translate(-64 -6445)">
    <rect id="Rectangle_402033" data-name="Rectangle 402033" width="120" height="120" rx="8" transform="translate(64 6445)" fill="#6003fe"/>
    <g id="Rectangle_412110" data-name="Rectangle 412110" transform="translate(69 6450)" fill="none" stroke="#fff" stroke-width="1">
      <rect width="110" height="110" rx="6" stroke="none"/>
      <rect x="0.5" y="0.5" width="109" height="109" rx="5.5" fill="none"/>
    </g>
    <g id="Group_1155336" data-name="Group 1155336" transform="translate(-325 -2)">
      <circle id="Ellipse_13473" data-name="Ellipse 13473" cx="60" cy="60" r="60" transform="translate(389 6447)" fill="#6003fe"/>
      <g id="Ellipse_13474" data-name="Ellipse 13474" transform="translate(399 6457)" fill="none" stroke="#fff" stroke-width="1">
        <circle cx="50" cy="50" r="50" stroke="none"/>
        <circle cx="50" cy="50" r="49.5" fill="none"/>
      </g>
      <g id="Group_1165558" data-name="Group 1165558" transform="translate(419.673 6477.739)">
        <path id="Path_939614" data-name="Path 939614" d="M109.9,13.23a28.281,28.281,0,0,0-36.531,2.942c-.117.117-.224.239-.339.357l7.537.443.4,6.774a17.542,17.542,0,0,1,21.177-2.757l-3.181,3.186,6.825-.4,6.774-.4L113,15.838l.357-6.059Zm0,0" transform="translate(-64.038 -6.93)" fill="#4db7e5"/>
        <path id="Path_939615" data-name="Path 939615" d="M108.623,345.538l-.4-6.773a17.541,17.541,0,0,1-21.172,2.756l3.181-3.181-6.825.4-6.774.4-.443,7.536-.357,6.06,3.457-3.457a28.282,28.282,0,0,0,36.532-2.941c.116-.117.224-.238.338-.357Zm0,0" transform="translate(-66.505 -297.107)" fill="#4db7e5"/>
        <path id="Path_939616" data-name="Path 939616" d="M20.963,87.056l3.186,3.176-.4-6.825-.4-6.774-7.537-.443-6.063-.355,3.456,3.457a28.281,28.281,0,0,0,2.942,36.532c.117.117.239.224.357.338l.443-7.536,6.774-.4a17.54,17.54,0,0,1-2.757-21.172Zm0,0" transform="translate(-6.818 -66.594)" fill="#348fd9"/>
        <path id="Path_939617" data-name="Path 939617" d="M346.314,73.4c-.117-.116-.238-.224-.357-.338l-.443,7.536-6.774.4a17.54,17.54,0,0,1,2.757,21.177l-3.181-3.181.4,6.825.4,6.773,7.536.442,6.059.357-3.456-3.457A28.281,28.281,0,0,0,346.314,73.4Zm0,0" transform="translate(-296.998 -64.159)" fill="#348fd9"/>
        <path id="Path_939618" data-name="Path 939618" d="M173.324,164.576v-3.9h-2.175a8.712,8.712,0,0,0-1.127-2.715l1.54-1.54-2.757-2.757-1.539,1.54a8.715,8.715,0,0,0-2.715-1.127V151.9h-3.9v2.175a8.715,8.715,0,0,0-2.715,1.127l-1.539-1.54-2.757,2.757,1.54,1.54a8.712,8.712,0,0,0-1.127,2.715h-2.175v3.9h2.175a8.714,8.714,0,0,0,1.127,2.715l-1.54,1.54,2.757,2.757,1.539-1.54a8.728,8.728,0,0,0,2.715,1.127v2.175h3.9v-2.175a8.728,8.728,0,0,0,2.715-1.127l1.539,1.54,2.757-2.757-1.54-1.54a8.714,8.714,0,0,0,1.127-2.715Zm-10.724,1.95a3.9,3.9,0,1,1,3.9-3.9A3.9,3.9,0,0,1,162.6,166.526Zm0,0" transform="translate(-133.277 -133.39)" fill="#ffb531"/>
        <path id="Path_939619" data-name="Path 939619" d="M54.1,131.727c-.4.659-.78,1.342-1.119,2.027l1.748.864c.312-.634.66-1.268,1.034-1.873Zm0,0" transform="translate(-46.435 -115.674)" fill="#62a9e6"/>
        <path id="Path_939620" data-name="Path 939620" d="M33.251,165a25.118,25.118,0,0,0-1.2,14.2l1.91-.39a23.184,23.184,0,0,1,1.111-13.1Zm0,0" transform="translate(-27.599 -144.889)" fill="#62a9e6"/>
        <path id="Path_939621" data-name="Path 939621" d="M192.657,180.594l1.54-1.54-1.379-1.379-4.826,4.826a3.9,3.9,0,1,1-5.515,5.514l-4.826,4.826,1.379,1.379,1.539-1.54a8.728,8.728,0,0,0,2.715,1.127v2.175h3.9v-2.175a8.728,8.728,0,0,0,2.715-1.127l1.539,1.54,2.757-2.757-1.54-1.54a8.713,8.713,0,0,0,1.127-2.715h2.175v-3.9h-2.175A8.712,8.712,0,0,0,192.657,180.594Zm0,0" transform="translate(-155.913 -156.023)" fill="#ffa912"/>
        <path id="Path_939622" data-name="Path 939622" d="M350.022,81.871l.428-7.284c-.356-.4-.7-.8-1.083-1.187-.117-.116-.238-.224-.357-.338l-.443,7.536-6.774.4c.414.414.794.846,1.157,1.289l.3-.018Zm0,0" transform="translate(-300.05 -64.159)" fill="#2d7dbf"/>
        <path id="Path_939623" data-name="Path 939623" d="M340.252,349.037l-7.536-.442-.4-6.774c-.413.413-.846.795-1.289,1.157l.018.3.4,6.773,7.284.428c.4-.356.8-.7,1.186-1.083C340.03,349.277,340.137,349.156,340.252,349.037Zm0,0" transform="translate(-290.597 -300.163)" fill="#45a7d1"/>
        <path id="Path_939624" data-name="Path 939624" d="M74.977,66.66l-.382-.023c-.413.368-.833.726-1.228,1.121-.117.117-.224.239-.339.357l7.537.443.4,6.774A17.5,17.5,0,0,1,82.9,73.674l-.39-6.571Zm0,0" transform="translate(-64.038 -58.516)" fill="#45a7d1"/>
        <path id="Path_939625" data-name="Path 939625" d="M68.362,340.279l.443-7.536,6.774-.4c-.413-.413-.795-.846-1.157-1.289l-.3.017-6.773.4-.428,7.284c.356.4.7.8,1.083,1.186C68.122,340.057,68.244,340.164,68.362,340.279Zm0,0" transform="translate(-58.677 -290.71)" fill="#2d7dbf"/>
        <path id="Path_939626" data-name="Path 939626" d="M55.8,132.744l-1.658-1.018c-.4.659-.78,1.342-1.119,2.027l1.748.864C55.075,133.983,55.423,133.354,55.8,132.744Zm0,0" transform="translate(-46.469 -115.674)"/>
        <path id="Path_939627" data-name="Path 939627" d="M33.251,165a25.118,25.118,0,0,0-1.2,14.2l1.91-.39a23.184,23.184,0,0,1,1.111-13.1Zm0,0" transform="translate(-27.599 -144.889)"/>
        <path id="Path_939628" data-name="Path 939628" d="M129.447,1.955a.976.976,0,0,0-1.088.2l-2.878,2.878A29.316,29.316,0,0,0,90.9,6.3l1.213,1.527a27.354,27.354,0,0,1,32.908-.735A.975.975,0,0,0,126.28,7l1.644-1.646-.6,10.17-10.171.6,1.365-1.365a.975.975,0,0,0-.2-1.534,18.622,18.622,0,0,0-19.559.615l1.084,1.62A16.673,16.673,0,0,1,116.21,14.3l-2.247,2.243a.975.975,0,0,0,.689,1.664h.057l13.6-.8a.975.975,0,0,0,.916-.915l.8-13.6a.975.975,0,0,0-.574-.944Zm0,0" transform="translate(-79.731)"/>
        <path id="Path_939629" data-name="Path 939629" d="M105.884,343.09l-1.144-1.579a27.2,27.2,0,0,1-31.968.021.975.975,0,0,0-1.261.1l-1.644,1.644.6-10.171,10.172-.6-1.365,1.365a.975.975,0,0,0,.2,1.532,18.63,18.63,0,0,0,19.515-.585L97.9,333.2a16.672,16.672,0,0,1-16.321,1.12l2.242-2.243a.975.975,0,0,0-.747-1.657l-13.6.8a.975.975,0,0,0-.916.915l-.8,13.6a.975.975,0,0,0,1.662.745l2.878-2.878a29.145,29.145,0,0,0,33.573-.5Zm0,0" transform="translate(-59.416 -290.151)"/>
        <path id="Path_939630" data-name="Path 939630" d="M6.126,106.6l1.544-1.19a27.417,27.417,0,0,1-.493-32.6.975.975,0,0,0-.1-1.261L5.436,69.9l10.171.6.6,10.171-1.365-1.365a.975.975,0,0,0-1.534.2,18.622,18.622,0,0,0,.613,19.557l1.62-1.084A16.667,16.667,0,0,1,14.39,81.619l2.242,2.243a.975.975,0,0,0,1.662-.747l-.8-13.6a.976.976,0,0,0-.915-.917l-13.6-.8a.976.976,0,0,0-.742,1.668l2.878,2.878A29.387,29.387,0,0,0,6.126,106.6Zm0,0" transform="translate(0 -59.539)"/>
        <path id="Path_939631" data-name="Path 939631" d="M332.487,119.549l1.365,1.365a.975.975,0,0,0,1.534-.2,18.559,18.559,0,0,0,.027-18.527l-1.689.975A16.6,16.6,0,0,1,334.3,118.6l-2.242-2.247a.975.975,0,0,0-1.658.747l.8,13.6a.975.975,0,0,0,.915.917l13.6.8h.058a.975.975,0,0,0,.688-1.664l-2.878-2.878a29.389,29.389,0,0,0-1.007-34.252l-1.544,1.191a27.418,27.418,0,0,1,.494,32.6.975.975,0,0,0,.1,1.261l1.634,1.646-10.171-.6Zm0,0" transform="translate(-290.044 -82.213)"/>
        <path id="Path_939632" data-name="Path 939632" d="M204.75,209.652a4.875,4.875,0,1,0-4.875-4.875A4.875,4.875,0,0,0,204.75,209.652Zm0-7.8a2.925,2.925,0,1,1-2.925,2.925A2.925,2.925,0,0,1,204.75,201.852Zm0,0" transform="translate(-175.427 -175.541)"/>
        <path id="Path_939633" data-name="Path 939633" d="M144.85,152.677a.975.975,0,0,0-.975.975v3.9a.975.975,0,0,0,.975.975h1.429a9.7,9.7,0,0,0,.656,1.578l-1.012,1.012a.975.975,0,0,0,0,1.379l2.758,2.758a.975.975,0,0,0,1.378,0l1.012-1.011a9.656,9.656,0,0,0,1.579.654v1.43a.975.975,0,0,0,.975.975h3.9a.975.975,0,0,0,.975-.975V164.9a9.705,9.705,0,0,0,1.579-.655l1.012,1.012a.975.975,0,0,0,1.378,0l2.758-2.758a.975.975,0,0,0,0-1.379l-1.012-1.012a9.7,9.7,0,0,0,.656-1.578H166.3a.975.975,0,0,0,.975-.975v-3.9a.975.975,0,0,0-.975-.975H164.87a9.651,9.651,0,0,0-.656-1.579l1.013-1.012a.975.975,0,0,0,0-1.379l-2.758-2.758a.975.975,0,0,0-1.378,0l-1.012,1.011a9.7,9.7,0,0,0-1.579-.654v-1.429a.975.975,0,0,0-.975-.975h-3.9a.975.975,0,0,0-.975.975v1.429a9.706,9.706,0,0,0-1.579.655l-1.012-1.012a.975.975,0,0,0-1.378,0l-2.758,2.758a.975.975,0,0,0,0,1.379l1.011,1.012a9.705,9.705,0,0,0-.655,1.579Zm2.174,1.95a.975.975,0,0,0,.952-.759,7.717,7.717,0,0,1,1-2.411.975.975,0,0,0-.136-1.21l-.85-.85,1.379-1.379.85.85a.975.975,0,0,0,1.21.136,7.7,7.7,0,0,1,2.411-1,.976.976,0,0,0,.758-.952v-1.2h1.95v1.2a.976.976,0,0,0,.758.952,7.709,7.709,0,0,1,2.411,1,.975.975,0,0,0,1.21-.136l.85-.85,1.379,1.379-.85.85a.975.975,0,0,0-.135,1.209,7.729,7.729,0,0,1,1,2.411.975.975,0,0,0,.951.76h1.2v1.95h-1.2a.974.974,0,0,0-.951.759,7.736,7.736,0,0,1-1,2.411.974.974,0,0,0,.135,1.209l.85.85-1.379,1.379-.85-.85a.976.976,0,0,0-1.21-.136,7.721,7.721,0,0,1-2.411,1,.975.975,0,0,0-.758.952v1.2H154.6v-1.2a.975.975,0,0,0-.758-.952,7.717,7.717,0,0,1-2.411-1,.976.976,0,0,0-1.21.136l-.85.85-1.379-1.379.85-.85a.974.974,0,0,0,.136-1.21,7.725,7.725,0,0,1-1-2.411.975.975,0,0,0-.952-.758h-1.2v-1.95Zm0,0" transform="translate(-126.252 -126.365)"/>
      </g>
    </g>
  </g>
</svg>
