<svg xmlns="http://www.w3.org/2000/svg" width="60.5" height="54.706" viewBox="0 0 60.5 54.706">
  <g id="Group_1165439" data-name="Group 1165439" transform="translate(0.25 -2.75)">
    <g id="Group_1165438" data-name="Group 1165438" transform="translate(0 3)">
      <g id="Group_1165426" data-name="Group 1165426" transform="translate(0 7.85)">
        <path id="Path_939156" data-name="Path 939156" d="M26.636,23.176H.935A.937.937,0,0,1,0,22.241V16.26A4.886,4.886,0,0,1,4.86,11.4H29.813a.937.937,0,0,1,.935.935,1,1,0,0,1-.935.935H4.766a2.912,2.912,0,0,0-2.9,2.9v5.047H26.636a.937.937,0,0,1,.935.935,1.019,1.019,0,0,1-.935,1.028Z" transform="translate(0 -11.4)" fill="#6003fe" stroke="#6003fe" stroke-width="0.5"/>
      </g>
      <g id="Group_1165427" data-name="Group 1165427" transform="translate(0 17.664)">
        <path id="Path_939157" data-name="Path 939157" d="M4.766,58.442A4.443,4.443,0,0,1,1.4,57.04,4.8,4.8,0,0,1,0,53.582V22.835A.937.937,0,0,1,.935,21.9h25.7a.937.937,0,0,1,.935.935,1,1,0,0,1-.935.935H1.869v29.72a2.872,2.872,0,0,0,2.9,2.9H48.6a2.912,2.912,0,0,0,2.9-2.9V34.8a.937.937,0,0,1,.935-.935,1,1,0,0,1,.935.935V53.489a4.886,4.886,0,0,1-4.86,4.86H4.766Z" transform="translate(0 -21.9)" fill="#6003fe" stroke="#6003fe" stroke-width="0.5"/>
      </g>
      <g id="Group_1165428" data-name="Group 1165428" transform="translate(5.421 12.804)">
        <path id="Path_939158" data-name="Path 939158" d="M8.791,18.569H6.735a.937.937,0,0,1-.935-.935,1,1,0,0,1,.935-.935H8.791a.935.935,0,1,1,0,1.869Z" transform="translate(-5.8 -16.7)" fill="#6003fe" stroke="#6003fe" stroke-width="0.5"/>
      </g>
      <g id="Group_1165429" data-name="Group 1165429" transform="translate(10 12.804)">
        <path id="Path_939159" data-name="Path 939159" d="M13.691,18.569H11.635a.937.937,0,0,1-.935-.935,1,1,0,0,1,.935-.935h2.056a.935.935,0,1,1,0,1.869Z" transform="translate(-10.7 -16.7)" fill="#6003fe" stroke="#6003fe" stroke-width="0.5"/>
      </g>
      <g id="Group_1165430" data-name="Group 1165430" transform="translate(14.579 12.804)">
        <path id="Path_939160" data-name="Path 939160" d="M18.591,18.569H16.535a.937.937,0,0,1-.935-.935,1,1,0,0,1,.935-.935h2.056a.935.935,0,1,1,0,1.869Z" transform="translate(-15.6 -16.7)" fill="#6003fe" stroke="#6003fe" stroke-width="0.5"/>
      </g>
      <g id="Group_1165431" data-name="Group 1165431" transform="translate(6.449 22.617)">
        <path id="Path_939161" data-name="Path 939161" d="M23.442,41.125H9.8a2.912,2.912,0,0,1-2.9-2.9V30.1a2.912,2.912,0,0,1,2.9-2.9H23.442a2.912,2.912,0,0,1,2.9,2.9v8.131A2.912,2.912,0,0,1,23.442,41.125Zm0-12.056H9.8A.937.937,0,0,0,8.863,30v8.224a.937.937,0,0,0,.935.935H23.442a.937.937,0,0,0,.935-.935V30.1A1.024,1.024,0,0,0,23.442,29.069Z" transform="translate(-6.9 -27.2)" fill="#6003fe" stroke="#6003fe" stroke-width="0.5"/>
      </g>
      <g id="Group_1165432" data-name="Group 1165432" transform="translate(30.841 28.879)">
        <path id="Path_939162" data-name="Path 939162" d="M34.963,35.769H33.935A.937.937,0,0,1,33,34.835a1,1,0,0,1,.935-.935h1.028a.937.937,0,0,1,.935.935A1,1,0,0,1,34.963,35.769Z" transform="translate(-33 -33.9)" fill="#6003fe" stroke="#6003fe" stroke-width="0.5"/>
      </g>
      <g id="Group_1165433" data-name="Group 1165433" transform="translate(30.841 35.047)">
        <path id="Path_939163" data-name="Path 939163" d="M48.7,42.369H33.935A.937.937,0,0,1,33,41.435a1,1,0,0,1,.935-.935H48.7a.937.937,0,0,1,.935.935A1,1,0,0,1,48.7,42.369Z" transform="translate(-33 -40.5)" fill="#6003fe" stroke="#6003fe" stroke-width="0.5"/>
      </g>
      <g id="Group_1165434" data-name="Group 1165434" transform="translate(5.981 41.215)">
        <path id="Path_939164" data-name="Path 939164" d="M46.961,48.969H7.335a.937.937,0,0,1-.935-.935,1,1,0,0,1,.935-.935H46.961a.937.937,0,0,1,.935.935A1,1,0,0,1,46.961,48.969Z" transform="translate(-6.4 -47.1)" fill="#6003fe" stroke="#6003fe" stroke-width="0.5"/>
      </g>
      <g id="Group_1165435" data-name="Group 1165435" transform="translate(5.981 47.383)">
        <path id="Path_939165" data-name="Path 939165" d="M46.961,55.569H7.335a.937.937,0,0,1-.935-.935,1,1,0,0,1,.935-.935H46.961a.937.937,0,0,1,.935.935A1,1,0,0,1,46.961,55.569Z" transform="translate(-6.4 -53.7)" fill="#6003fe" stroke="#6003fe" stroke-width="0.5"/>
      </g>
      <g id="Group_1165436" data-name="Group 1165436" transform="translate(28.972)">
        <path id="Path_939166" data-name="Path 939166" d="M47.262,34.121h-1.5a2.506,2.506,0,0,1-2.43-2.056l-.374-2.336c0-.187-.187-.28-.28-.374-.374-.093-.654-.28-1.028-.374a.424.424,0,0,0-.467,0l-1.869,1.4a2.545,2.545,0,0,1-3.178-.28l-1.121-1.121a2.534,2.534,0,0,1-.28-3.178l1.4-1.869a.417.417,0,0,0,0-.467,10.963,10.963,0,0,1-.467-1.028c-.093-.187-.187-.28-.374-.28l-2.243-.374A2.42,2.42,0,0,1,31,19.355V17.766a2.42,2.42,0,0,1,2.056-2.43l2.243-.374c.187,0,.28-.187.374-.28a5.009,5.009,0,0,1,.467-1.028.417.417,0,0,0,0-.467l-1.4-1.869a2.542,2.542,0,0,1,.187-3.178l1.121-1.121a2.42,2.42,0,0,1,3.178-.187L41,8.234a.308.308,0,0,0,.467,0c.374-.187.654-.28,1.028-.467a.73.73,0,0,0,.374-.374l.374-2.336A2.693,2.693,0,0,1,45.766,3h1.5a2.506,2.506,0,0,1,2.43,2.056l.374,2.336c0,.187.187.28.28.374.374.093.654.28,1.028.374a.424.424,0,0,0,.467,0l1.869-1.4a2.43,2.43,0,0,1,3.178.28L58.009,8.14a2.534,2.534,0,0,1,.28,3.178l-1.4,1.869a.417.417,0,0,0,0,.467,10.964,10.964,0,0,1,.467,1.028c.093.187.187.28.374.28l2.243.374a2.42,2.42,0,0,1,2.056,2.43v1.589a2.42,2.42,0,0,1-2.056,2.43l-2.243.374c-.187,0-.28.187-.374.28-.093.374-.28.654-.374,1.028a.6.6,0,0,0,0,.561l1.4,1.869a2.675,2.675,0,0,1-.187,3.178l-1.4,1.028a2.42,2.42,0,0,1-3.178.187l-1.776-1.4a.308.308,0,0,0-.467,0c-.374.187-.654.28-1.028.467-.187.093-.28.187-.28.374l-.374,2.336a2.506,2.506,0,0,1-2.43,2.056Zm-5.888-7.2a1.884,1.884,0,0,1,1.028.28c.28.093.561.28.841.374a2.49,2.49,0,0,1,1.589,1.869l.374,2.336a.5.5,0,0,0,.467.467h1.5a.428.428,0,0,0,.467-.374l.374-2.336A2.325,2.325,0,0,1,49.6,27.673a3.32,3.32,0,0,0,.841-.374,2.486,2.486,0,0,1,2.523.28l1.869,1.4a.451.451,0,0,0,.654-.093l1.121-1.121a.452.452,0,0,0,0-.654l-1.4-1.869a2.32,2.32,0,0,1-.28-2.43c.093-.28.28-.561.374-.841a2.325,2.325,0,0,1,1.869-1.589l2.243-.374c.28,0,.374-.28.374-.467V17.953a.428.428,0,0,0-.374-.467l-2.243-.374A2.325,2.325,0,0,1,55.3,15.523a3.32,3.32,0,0,0-.374-.841,2.682,2.682,0,0,1,.187-2.523l1.4-1.869c.187-.187.093-.467,0-.654L55.393,8.514a.709.709,0,0,0-.374-.187.343.343,0,0,0-.28.093l-1.776,1.4a2.44,2.44,0,0,1-2.523.28c-.28-.093-.561-.28-.841-.374A2.49,2.49,0,0,1,48.009,7.86l-.374-2.336a.5.5,0,0,0-.467-.467h-1.5a.428.428,0,0,0-.467.374l-.28,2.243a2.325,2.325,0,0,1-1.589,1.869,3.32,3.32,0,0,0-.841.374,2.486,2.486,0,0,1-2.523-.28L38.1,8.234c-.28-.28-.467-.093-.654.093L36.327,9.449a.452.452,0,0,0,0,.654l1.4,1.869a2.517,2.517,0,0,1,.187,2.43c-.093.28-.28.561-.374.841a2.325,2.325,0,0,1-1.869,1.589l-2.243.374c-.28,0-.374.28-.374.467v1.589a.428.428,0,0,0,.374.467l2.243.374a2.325,2.325,0,0,1,1.869,1.589,3.32,3.32,0,0,0,.374.841,2.464,2.464,0,0,1-.28,2.523l-1.4,1.869c-.187.187-.093.467,0,.654L37.355,28.7a.451.451,0,0,0,.654.093l1.869-1.4a3.1,3.1,0,0,1,1.5-.467Z" transform="translate(-31 -3)" fill="#6003fe" stroke="#6003fe" stroke-width="0.5"/>
      </g>
      <g id="Group_1165437" data-name="Group 1165437" transform="translate(38.224 9.252)">
        <path id="Path_939167" data-name="Path 939167" d="M47.162,25.423a6.262,6.262,0,1,1,6.262-6.262A6.262,6.262,0,0,1,47.162,25.423Zm0-10.561a4.3,4.3,0,0,0,0,8.6,4.3,4.3,0,0,0,0-8.6Z" transform="translate(-40.9 -12.9)" fill="#6003fe" stroke="#6003fe" stroke-width="0.5"/>
      </g>
    </g>
  </g>
</svg>
