<svg xmlns="http://www.w3.org/2000/svg" width="100" height="100" viewBox="0 0 100 100">
  <g id="Group_1165086" data-name="Group 1165086" transform="translate(-637 -6992)">
    <g id="Group_1098742" data-name="Group 1098742" transform="translate(637.242 6992)">
      <rect id="Rectangle_400898" data-name="Rectangle 400898" width="100" height="100" rx="50" transform="translate(-0.242)" fill="#fff" opacity="0.859"/>
      <g id="Rectangle_400907" data-name="Rectangle 400907" transform="translate(-0.242)" fill="none" stroke="#00bdff" stroke-linecap="round" stroke-width="3" stroke-dasharray="0 7">
        <rect width="100" height="100" rx="50" stroke="none"/>
        <rect x="1.5" y="1.5" width="97" height="97" rx="48.5" fill="none"/>
      </g>
    </g>
    <g id="Group_1107006" data-name="Group 1107006" transform="translate(645.398 7000.157)">
      <rect id="Rectangle_400898-2" data-name="Rectangle 400898" width="84" height="84" rx="42" transform="translate(-0.399 -0.157)" fill="#6003fe" opacity="0.859"/>
      <rect id="Rectangle_400907-2" data-name="Rectangle 400907" width="84" height="84" rx="42" transform="translate(-0.398 -0.157)" fill="none"/>
    </g>
    <g id="Group_1165450" data-name="Group 1165450" transform="translate(645.522 7000.197)">
      <g id="Group_1165449" data-name="Group 1165449" transform="translate(15.088 15.452)">
        <path id="Path_939172" data-name="Path 939172" d="M40.289,31.015A11.085,11.085,0,0,1,62.4,32.579a10.521,10.521,0,0,1,0,21.041H28.048a7.627,7.627,0,0,1,0-15.253,7.654,7.654,0,0,1,5.4-9.162,7.708,7.708,0,0,1,6.844,1.809Z" transform="translate(-20.482 -20.833)" fill="#2a93fc" fill-rule="evenodd"/>
        <path id="Path_939173" data-name="Path 939173" d="M91.342,51.691a10.521,10.521,0,0,1,0,21.041h-30.7a7.626,7.626,0,0,1,0-15.253c-1.188-7.633,7.55-9.2,10.354-4.864,1.517-13.917,19.5-13.132,20.347-.925Z" transform="translate(-49.423 -39.944)" fill="#5caeff" fill-rule="evenodd"/>
        <path id="Path_939174" data-name="Path 939174" d="M193.741,149.68a7.7,7.7,0,0,1,7.677,7.677v4.893h-2.924v-4.893a4.752,4.752,0,1,0-9.5,0v4.893h-2.924v-4.893A7.7,7.7,0,0,1,193.741,149.68Z" transform="translate(-167.51 -135.242)" fill="#bddfff" fill-rule="evenodd"/>
        <path id="Path_939175" data-name="Path 939175" d="M200.82,149.785a7.7,7.7,0,0,1,7.257,7.665v4.893h-2.084V157.45a4.774,4.774,0,0,0-4.752-4.752c-.142,0-.282.007-.42.019-.138-.012-.279-.019-.42-.019a4.774,4.774,0,0,0-4.752,4.752v4.893h-2.084V157.45A7.7,7.7,0,0,1,200.82,149.785Z" transform="translate(-174.17 -135.336)" fill="#fff" fill-rule="evenodd"/>
      </g>
      <rect id="Rectangle_448123" data-name="Rectangle 448123" width="21.934" height="16.633" rx="3" transform="translate(30.352 39.932)" fill="#f9ac00"/>
      <rect id="Rectangle_448124" data-name="Rectangle 448124" width="20.337" height="16.633" transform="translate(31.948 39.932)" fill="#fdc72e"/>
      <rect id="Rectangle_448125" data-name="Rectangle 448125" width="50.289" height="9.479" rx="4.74" transform="translate(17.593 58.679)" fill="#2a93fc"/>
      <path id="Path_939176" data-name="Path 939176" d="M53.792,406.605H94.6a4.753,4.753,0,0,1,4.739,4.739,3.328,3.328,0,0,1-3.955,3.585H54.576a4.753,4.753,0,0,1-4.739-4.739,4.7,4.7,0,0,1,.467-2.046A4.729,4.729,0,0,1,53.792,406.605Z" transform="translate(-31.46 -347.926)" fill="#5caeff" fill-rule="evenodd"/>
      <path id="Path_939177" data-name="Path 939177" d="M242.766,272.575a2.248,2.248,0,0,1,1.03,4.245v3.9a1.03,1.03,0,1,1-2.06,0v-3.9a2.248,2.248,0,0,1,1.03-4.245Z" transform="translate(-200.776 -228.915)" fill="#f9ac00" fill-rule="evenodd"/>
      <path id="Path_939178" data-name="Path 939178" d="M236.766,272.575a2.248,2.248,0,0,1,1.03,4.245v3.9a1.03,1.03,0,1,1-2.06,0v-3.9a2.248,2.248,0,0,1,1.03-4.245Z" transform="translate(-195.448 -228.915)" fill="#fff" fill-rule="evenodd"/>
      <path id="Path_939179" data-name="Path 939179" d="M63.756,63l-.733.424.733.423a.672.672,0,1,1-.673,1.164l-.733-.423v.847a.672.672,0,0,1-1.345,0v-.847l-.734.423a.66.66,0,0,1-.335.091.673.673,0,0,1-.337-1.255l.734-.423L59.6,63a.672.672,0,0,1,.673-1.164l.734.424V61.41a.672.672,0,1,1,1.345,0v.847l.733-.424A.672.672,0,1,1,63.756,63Zm-7.578,0-.733.424.733.423a.672.672,0,0,1-.336,1.255.665.665,0,0,1-.336-.091l-.733-.423v.847a.673.673,0,0,1-1.345,0v-.847l-.733.423a.665.665,0,0,1-.336.091.672.672,0,0,1-.336-1.255l.733-.423L52.023,63a.672.672,0,1,1,.672-1.164l.733.424V61.41a.673.673,0,0,1,1.345,0v.847l.733-.424A.672.672,0,1,1,56.178,63ZM48.6,63l-.732.424.732.423a.672.672,0,1,1-.672,1.164l-.733-.423v.847a.672.672,0,0,1-1.345,0v-.847l-.733.423a.672.672,0,1,1-.673-1.164l.733-.423L44.445,63a.672.672,0,1,1,.673-1.164l.733.424V61.41a.672.672,0,1,1,1.345,0v.847l.733-.424A.672.672,0,1,1,48.6,63Zm-7.578,0-.733.424.733.423a.672.672,0,1,1-.673,1.164l-.733-.423v.847a.672.672,0,0,1-1.345,0v-.847l-.733.423a.672.672,0,1,1-.672-1.164l.732-.423L36.867,63a.672.672,0,1,1,.672-1.164l.733.424V61.41a.672.672,0,1,1,1.345,0v.847l.733-.424A.672.672,0,1,1,41.022,63Zm-7.577,0-.734.424.734.423a.673.673,0,0,1-.337,1.255.659.659,0,0,1-.335-.091l-.734-.423v.847a.673.673,0,0,1-1.345,0v-.847l-.733.423a.665.665,0,0,1-.336.091.672.672,0,0,1-.336-1.255l.733-.423L29.289,63a.672.672,0,1,1,.672-1.164l.733.424V61.41a.673.673,0,0,1,1.345,0v.847l.734-.424A.672.672,0,0,1,33.444,63Zm-7.578,0-.734.424.734.423A.673.673,0,0,1,25.53,65.1a.66.66,0,0,1-.335-.091l-.734-.423v.847a.672.672,0,0,1-1.345,0v-.847l-.733.423a.672.672,0,1,1-.673-1.164l.733-.423L21.711,63a.672.672,0,1,1,.673-1.164l.733.424V61.41a.672.672,0,1,1,1.345,0v.847l.734-.424A.672.672,0,0,1,25.867,63Zm37.272,4.491a4.067,4.067,0,0,0,0-8.135H22.328a4.067,4.067,0,0,0,0,8.135h40.81Zm0-9.48H22.328a5.412,5.412,0,0,0,0,10.824h40.81a5.412,5.412,0,0,0,0-10.824Zm-21.1-10.7a.672.672,0,0,0-.363.6v3.9a.358.358,0,1,1-.716,0v-3.9a.671.671,0,0,0-.363-.6,1.575,1.575,0,1,1,1.442,0Zm-.722-4.321a2.92,2.92,0,0,0-1.7,5.292v3.526a1.7,1.7,0,1,0,3.405,0V48.283a2.921,2.921,0,0,0-1.7-5.292Zm1.895-24.212a.674.674,0,0,1,.539-.784,9.356,9.356,0,0,1,7.268,1.5,8.66,8.66,0,0,1,3.516,5.913.671.671,0,0,1-.575.756.628.628,0,0,1-.092.007.673.673,0,0,1-.666-.582,7.327,7.327,0,0,0-2.971-5.005,8.031,8.031,0,0,0-6.236-1.271.671.671,0,0,1-.783-.538ZM15.752,40.621a6.978,6.978,0,0,0,6.9,6.958h7.02V41.855a2.6,2.6,0,0,1,2.592-2.592h.7V37.57a8.349,8.349,0,1,1,16.7,0v1.693h.7a2.594,2.594,0,0,1,2.591,2.592v5.725h4.069a9.854,9.854,0,0,0,0-19.709.671.671,0,0,1-.671-.711,10.419,10.419,0,0,0-20.784-1.47.672.672,0,0,1-1.121.442A7.023,7.023,0,0,0,28.2,24.479a6.629,6.629,0,0,0-4.056,3.06,6.978,6.978,0,0,0-.846,5.288.672.672,0,0,1-.647.836,6.978,6.978,0,0,0-6.9,6.958Zm29.643-1.358H37.234V37.57a4.08,4.08,0,0,1,8.161,0Zm2.923,0H46.74V37.57a5.425,5.425,0,0,0-10.85,0v1.693H34.31V37.57a7,7,0,1,1,14.008,0v1.693Zm3.291,15.386V41.854a1.249,1.249,0,0,0-1.247-1.247h-18.1a1.248,1.248,0,0,0-1.247,1.247V54.649A1.248,1.248,0,0,0,32.267,55.9h18.1a1.249,1.249,0,0,0,1.247-1.247ZM29.675,48.924v5.725a2.6,2.6,0,0,0,2.592,2.592h18.1a2.6,2.6,0,0,0,2.591-2.592V48.924h4.069a11.2,11.2,0,0,0,.692-22.377,11.764,11.764,0,0,0-23.329-2.163A8.364,8.364,0,0,0,27.9,23.17,7.977,7.977,0,0,0,23,26.841a8.4,8.4,0,0,0-1.157,5.523,8.3,8.3,0,0,0,.808,16.56Z" transform="translate(0 0)" fill-rule="evenodd"/>
    </g>
  </g>
</svg>
