<svg xmlns="http://www.w3.org/2000/svg" width="70" height="70" viewBox="0 0 70 70">
  <g id="Group_1165085" data-name="Group 1165085" transform="translate(-704.668 -6155)">
    <rect id="Rectangle_402033" data-name="Rectangle 402033" width="70" height="70" rx="8" transform="translate(704.668 6155)" fill="#6003fe"/>
    <g id="Layer_1" data-name="Layer 1" transform="translate(718.191 6166.031)">
      <path id="Path_927079" data-name="Path 927079" d="M49.115,32.051A6.962,6.962,0,1,1,49,18.128a6.962,6.962,0,0,1,6.96-6.846c.135,0,.269,0,.4.012a9.135,9.135,0,0,1,11.851-.005c.1,0,.191-.007.288-.007a6.962,6.962,0,0,1,6.96,6.842h0a6.963,6.963,0,1,1,0,13.926Z" transform="translate(-40.811 -8.448)" fill="#f5f5f5"/>
      <path id="Path_927080" data-name="Path 927080" d="M62.226,32.065H49.115A6.962,6.962,0,1,1,49,18.142a6.962,6.962,0,0,1,6.96-6.846c.135,0,.269,0,.4.012a9.1,9.1,0,0,1,5.867-2.184Z" transform="translate(-40.811 -8.462)" fill="#e6e6e6"/>
      <path id="Path_927081" data-name="Path 927081" d="M69.229,410.693v7.067a.859.859,0,0,0,.859.859h33.423a.859.859,0,0,0,.859-.859v-7.067a.859.859,0,0,0-.859-.859H70.088A.859.859,0,0,0,69.229,410.693Z" transform="translate(-65.384 -371.342)" fill="#80eaff"/>
      <path id="Path_927082" data-name="Path 927082" d="M311.986,440.572v3H301.313v-3Z" transform="translate(-275.558 -399.179)" fill="#ff5959"/>
      <path id="Path_927083" data-name="Path 927083" d="M69.229,288.446v7.067a.859.859,0,0,0,.859.859h33.423a.859.859,0,0,0,.859-.859v-7.067a.859.859,0,0,0-.859-.859H70.088A.859.859,0,0,0,69.229,288.446Z" transform="translate(-65.384 -260.636)" fill="#80eaff"/>
      <path id="Path_927084" data-name="Path 927084" d="M104.366,351.755v1.868a.859.859,0,0,1-.859.859H70.084a.859.859,0,0,1-.859-.859v-1.868a.859.859,0,0,0,.859.859h33.424a.859.859,0,0,0,.859-.859Z" transform="translate(-65.38 -318.746)" fill="#6cf"/>
      <path id="Path_927085" data-name="Path 927085" d="M104.366,474v1.868a.859.859,0,0,1-.859.859H70.084a.859.859,0,0,1-.859-.859V474a.859.859,0,0,0,.859.859h33.424a.859.859,0,0,0,.859-.859Z" transform="translate(-65.38 -429.451)" fill="#6cf"/>
      <path id="Path_927086" data-name="Path 927086" d="M311.986,318.325v3H301.313v-3Z" transform="translate(-275.558 -288.472)" fill="#ff5959"/>
      <path id="Path_927087" data-name="Path 927087" d="M167.777,383.395h-20.5v-2.757h20.5Z" transform="translate(-136.068 -344.903)" fill="#f5f5f5"/>
      <path id="Path_927088" data-name="Path 927088" d="M150.029,383.395h-2.757v-2.757h2.757Z" transform="translate(-136.059 -344.903)" fill="#e6e6e6"/>
      <path id="Path_927089" data-name="Path 927089" d="M178.839,136.9l-2.169-2.169v8.988a2.286,2.286,0,1,1-4.546,0V134.73l-2.169,2.169c-2.459,2.459-5.637-.719-3.178-3.178l5.328-5.328a3.268,3.268,0,0,1,4.583,0l5.328,5.328C184.477,136.18,181.3,139.358,178.839,136.9Z" transform="translate(-152.921 -115.621)" fill="#ffdf40"/>
      <path id="Path_927090" data-name="Path 927090" d="M174.336,146.255a2.3,2.3,0,0,1-2.212-2.527v-8.988l-2.169,2.169c-2.459,2.459-5.637-.719-3.178-3.178l5.328-5.328a3.192,3.192,0,0,1,2.23-.937Z" transform="translate(-152.921 -115.631)" fill="#ffbe40"/>
      <path id="Path_927091" data-name="Path 927091" d="M64.928,42.838H54.255a.661.661,0,0,0-.661.661v3a.661.661,0,0,0,.661.661H64.928a.661.661,0,0,0,.661-.661v-3a.661.661,0,0,0-.661-.661Zm-.661,3H54.916V44.16h9.352ZM54.255,35.615H64.928a.661.661,0,0,0,.661-.661v-3a.661.661,0,0,0-.661-.661H54.255a.661.661,0,0,0-.661.661v3a.661.661,0,0,0,.661.661Zm.661-3h9.352v1.674H54.916Zm14.587.169H68.147V29.916a1.521,1.521,0,0,0-1.52-1.52H52.911V26.37H63.15a7.624,7.624,0,0,0,.622-15.222,7.624,7.624,0,0,0-7.585-6.868h-.058a9.8,9.8,0,0,0-12.307,0l-.175,0a7.624,7.624,0,0,0-7.586,6.879A7.623,7.623,0,0,0,36.8,26.369H47.043V28.4H33.2a1.521,1.521,0,0,0-1.52,1.52v2.873H30.452a1.874,1.874,0,0,0-1.952,1.78v7.84a1.874,1.874,0,0,0,1.952,1.78h1.232v4.335a1.521,1.521,0,0,0,1.52,1.52H66.627a1.521,1.521,0,0,0,1.52-1.52V44.189H69.5a1.874,1.874,0,0,0,1.952-1.78v-7.84A1.875,1.875,0,0,0,69.5,32.789ZM47.957,20.133a.661.661,0,0,0-.72.143l-2.169,2.169a1.686,1.686,0,0,1-2.5.255,1.477,1.477,0,0,1-.438-1.076,2.1,2.1,0,0,1,.693-1.423l5.328-5.328a2.523,2.523,0,0,1,1.8-.744H50a2.523,2.523,0,0,1,1.8.744L57.13,20.2a1.687,1.687,0,0,1,.255,2.5,1.474,1.474,0,0,1-1.076.438,2.1,2.1,0,0,1-1.423-.693l-2.169-2.169a.661.661,0,0,0-1.128.467V30.2a1.961,1.961,0,0,1-.515,1.435A1.509,1.509,0,0,1,50,32.07h-.035a1.522,1.522,0,0,1-1.09-.432,1.961,1.961,0,0,1-.515-1.435v-9.46a.661.661,0,0,0-.407-.61ZM36.8,25.048a6.3,6.3,0,1,1-.106-12.6.661.661,0,0,0,.65-.65,6.329,6.329,0,0,1,6.3-6.2c.112,0,.231,0,.364.011a.66.66,0,0,0,.467-.157,8.473,8.473,0,0,1,10.993,0,.662.662,0,0,0,.456.157c.087,0,.173-.007.261-.007a6.33,6.33,0,0,1,6.3,6.193.663.663,0,0,0,.664.65,6.3,6.3,0,1,1,0,12.6H52.911V22.338l1.04,1.041a3,3,0,0,0,4.368.255,2.788,2.788,0,0,0,.825-2.031,3.35,3.35,0,0,0-1.08-2.337l-5.328-5.328A3.835,3.835,0,0,0,50,12.806H49.95a3.835,3.835,0,0,0-2.732,1.131L41.89,19.266A3.348,3.348,0,0,0,40.81,21.6a2.788,2.788,0,0,0,.825,2.031A3,3,0,0,0,46,23.379l1.041-1.041v2.709Zm-3.8,4.868a.2.2,0,0,1,.2-.2h13.84V30.2a3.216,3.216,0,0,0,.907,2.375,2.821,2.821,0,0,0,2,.814h.055a2.821,2.821,0,0,0,2-.814,3.216,3.216,0,0,0,.907-2.375v-.485H66.627a.2.2,0,0,1,.2.2v7.067a.2.2,0,0,1-.2.2H33.2a.2.2,0,0,1-.2-.2Zm7.368,10.021V38.5H59.548v1.435Zm-9.922,2.93c-.342,0-.63-.21-.63-.459v-7.84c0-.249.289-.459.63-.459h1.232v2.873A1.521,1.521,0,0,0,33.2,38.5h5.849v1.435H33.2a1.521,1.521,0,0,0-1.52,1.52v1.411Zm36.373,5.657a.2.2,0,0,1-.2.2H33.2a.2.2,0,0,1-.2-.2V41.457a.2.2,0,0,1,.2-.2H66.627a.2.2,0,0,1,.2.2Zm3.307-6.115c0,.248-.288.459-.63.459H68.147V41.457a1.521,1.521,0,0,0-1.52-1.52H60.87V38.5h5.758a1.521,1.521,0,0,0,1.52-1.52V34.109H69.5c.342,0,.63.21.63.459Zm-35.4-10.45a.661.661,0,0,1,.661-.661h2.2a.661.661,0,0,1,0,1.322h-2.2A.661.661,0,0,1,34.728,31.959Zm4.325,0a.661.661,0,0,1,.661-.661h2.2a.661.661,0,0,1,0,1.322h-2.2A.661.661,0,0,1,39.052,31.959Zm4.325,0a.661.661,0,0,1,.661-.661h2.2a.661.661,0,1,1,0,1.322h-2.2A.661.661,0,0,1,43.377,31.959ZM34.728,34.9a.661.661,0,0,1,.661-.661h2.2a.661.661,0,1,1,0,1.322h-2.2A.661.661,0,0,1,34.728,34.9Zm4.325,0a.661.661,0,0,1,.661-.661h2.2a.661.661,0,0,1,0,1.322h-2.2A.661.661,0,0,1,39.052,34.9Zm4.325,0a.661.661,0,0,1,.661-.661h2.2a.661.661,0,1,1,0,1.322h-2.2A.661.661,0,0,1,43.377,34.9Zm-5.123,8.626a.661.661,0,0,1-.661.661h-2.2a.661.661,0,1,1,0-1.322h2.2A.661.661,0,0,1,38.254,43.526Zm4.325,0a.661.661,0,0,1-.661.661h-2.2a.661.661,0,1,1,0-1.322h2.2A.661.661,0,0,1,42.578,43.526Zm4.325,0a.661.661,0,0,1-.661.661h-2.2a.661.661,0,1,1,0-1.322h2.2a.661.661,0,0,1,.661.661Zm-8.649,2.942a.661.661,0,0,1-.661.661h-2.2a.661.661,0,1,1,0-1.322h2.2A.661.661,0,0,1,38.254,46.468Zm4.325,0a.661.661,0,0,1-.661.661h-2.2a.661.661,0,1,1,0-1.322h2.2a.661.661,0,0,1,.661.661Zm4.325,0a.661.661,0,0,1-.661.661h-2.2a.661.661,0,0,1,0-1.322h2.2a.661.661,0,0,1,.661.661Z" transform="translate(-28.5 -2.106)"/>
    </g>
  </g>
</svg>
