<svg xmlns="http://www.w3.org/2000/svg" width="100" height="100" viewBox="0 0 100 100">
  <g id="Group_1158586" data-name="Group 1158586" transform="translate(-637 -6992)">
    <g id="Group_1098742" data-name="Group 1098742" transform="translate(637.242 6992)">
      <rect id="Rectangle_400898" data-name="Rectangle 400898" width="100" height="100" rx="50" transform="translate(-0.242)" fill="#fff" opacity="0.859"/>
      <g id="Rectangle_400907" data-name="Rectangle 400907" transform="translate(-0.242)" fill="none" stroke="#00bdff" stroke-linecap="round" stroke-width="3" stroke-dasharray="0 7">
        <rect width="100" height="100" rx="50" stroke="none"/>
        <rect x="1.5" y="1.5" width="97" height="97" rx="48.5" fill="none"/>
      </g>
    </g>
    <g id="Group_1107006" data-name="Group 1107006" transform="translate(645.398 7000.157)">
      <rect id="Rectangle_400898-2" data-name="Rectangle 400898" width="84" height="84" rx="42" transform="translate(-0.399 -0.157)" fill="#6003fe" opacity="0.859"/>
      <rect id="Rectangle_400907-2" data-name="Rectangle 400907" width="84" height="84" rx="42" transform="translate(-0.398 -0.157)" fill="none"/>
    </g>
    <g id="Group_1165414" data-name="Group 1165414" transform="translate(661.716 7016.716)">
      <path id="Path_939023" data-name="Path 939023" d="M1,57H49.886v3.154a1.577,1.577,0,0,1-1.577,1.577H2.577A1.577,1.577,0,0,1,1,60.154Z" transform="translate(-0.159 -12.004)" fill="#8275ba"/>
      <path id="Path_939024" data-name="Path 939024" d="M2.576,56.462a1.577,1.577,0,0,1-1.5-2.075L3,48.617A2.365,2.365,0,0,1,5.249,47H45.636a2.365,2.365,0,0,1,2.244,1.617l1.926,5.769a1.577,1.577,0,0,1-1.5,2.075Z" transform="translate(-0.158 -9.889)" fill="#f0f6ff"/>
      <rect id="Rectangle_448117" data-name="Rectangle 448117" width="44.155" height="29.962" rx="3" transform="translate(3.207 7.149)" fill="#9189ce"/>
      <path id="Path_939025" data-name="Path 939025" d="M7.577,11H46.212a2.365,2.365,0,0,1,2.365,2.365V37.02a2.365,2.365,0,0,1-2.365,2.365H8.365A2.365,2.365,0,0,1,6,37.02V12.577A1.577,1.577,0,0,1,7.577,11Z" transform="translate(-1.216 -2.274)" fill="#8275ba"/>
      <path id="Path_939026" data-name="Path 939026" d="M0,0H23.654V37.847H0Z" transform="translate(44.208 10.303) rotate(90)" fill="#90c0fd"/>
      <path id="Path_939027" data-name="Path 939027" d="M0,0H22.077V36.27H0Z" transform="translate(44.208 11.88) rotate(90)" fill="#a2cdfe"/>
      <path id="Path_939028" data-name="Path 939028" d="M35.731,18.166c0,6.749-1.059,15.277-2.365,15.277S31,24.915,31,18.166,32.059,9,33.365,9,35.731,11.417,35.731,18.166Z" transform="translate(-6.504 -1.851)" fill="#ff92a2"/>
      <path id="Path_939029" data-name="Path 939029" d="M34.577,32.485c.919-2.482,1.577-8.9,1.577-14.225s-.659-7.939-1.577-8.814c-.918.875-1.577,3.5-1.577,8.814S33.658,30,34.577,32.485Z" transform="translate(-6.927 -1.945)" fill="#ff7994"/>
      <path id="Path_939030" data-name="Path 939030" d="M31.259,13.731h4.322C35.213,10.324,34.385,9,33.42,9S31.627,10.324,31.259,13.731Z" transform="translate(-6.559 -1.851)" fill="#f9fbff"/>
      <path id="Path_939031" data-name="Path 939031" d="M36,13.825c-.263-2.428-.759-3.793-1.371-4.38-.614.583-1.112,1.95-1.374,4.38Z" transform="translate(-6.982 -1.945)" fill="#f0f6ff"/>
      <path id="Path_939032" data-name="Path 939032" d="M31,6.519a2.365,2.365,0,1,0,4.731,0C35.731,3.76,33.365,1,33.365,1S31,3.76,31,6.519Z" transform="translate(-6.504 -0.159)" fill="#ffe682"/>
      <path id="Path_939033" data-name="Path 939033" d="M33,6.81a2.358,2.358,0,0,0,1.577,2.22,2.358,2.358,0,0,0,1.577-2.22,8.713,8.713,0,0,0-1.577-4.438A8.713,8.713,0,0,0,33,6.81Z" transform="translate(-6.927 -0.449)" fill="#ffd764"/>
      <path id="Path_939034" data-name="Path 939034" d="M17,1h7.885V31.751H17Z" transform="translate(-3.543 -0.159)" fill="#ffe682"/>
      <path id="Path_939035" data-name="Path 939035" d="M19,1h6.308V31.751H19Z" transform="translate(-3.966 -0.159)" fill="#ffd764"/>
      <path id="Path_939036" data-name="Path 939036" d="M41,11h4.731V26.77H41Z" transform="translate(-8.62 -2.274)" fill="#a7e9b0"/>
      <path id="Path_939037" data-name="Path 939037" d="M43,11h3.154V26.77H43Z" transform="translate(-9.043 -2.274)" fill="#96eba0"/>
      <path id="Path_939038" data-name="Path 939038" d="M41,34h4.731v2.365a2.365,2.365,0,1,1-4.731,0Z" transform="translate(-8.62 -7.139)" fill="#ffe682"/>
      <path id="Path_939039" data-name="Path 939039" d="M44.577,38.586a2.358,2.358,0,0,0,1.577-2.22V34H43v2.365A2.358,2.358,0,0,0,44.577,38.586Z" transform="translate(-9.043 -7.139)" fill="#ffd764"/>
      <path id="Path_939040" data-name="Path 939040" d="M41,31h4.731v2.365H41Z" transform="translate(-8.62 -6.504)" fill="#f9fbff"/>
      <path id="Path_939041" data-name="Path 939041" d="M43,31h3.154v2.365H43Z" transform="translate(-9.043 -6.504)" fill="#f0f6ff"/>
      <path id="Path_939042" data-name="Path 939042" d="M43.365,1,41,8.885h4.731Z" transform="translate(-8.62 -0.159)" fill="#ffe6d2"/>
      <path id="Path_939043" data-name="Path 939043" d="M43.788,1,43,8.885h3.154Z" transform="translate(-9.043 -0.159)" fill="#fcd9c1"/>
      <path id="Path_939044" data-name="Path 939044" d="M42.333,5.381l2.39-.8L43.647,1Z" transform="translate(-8.902 -0.159)" fill="#9189ce"/>
      <path id="Path_939045" data-name="Path 939045" d="M44.966,4.584,43.891,1l-.408,4.078Z" transform="translate(-9.145 -0.159)" fill="#8275ba"/>
      <path id="Path_939046" data-name="Path 939046" d="M50.206,44.31l-1.922-5.769a2.955,2.955,0,0,0-1.3-1.608,2.95,2.95,0,0,0,.969-2.187V9.515A2.96,2.96,0,0,0,45,6.558H37.058L35.313.689a.591.591,0,0,0-1.134,0L32.434,6.558H29.811c0-.065.007-.131.007-.2,0-2.944-2.4-5.784-2.508-5.9a.611.611,0,0,0-.9,0c-.1.12-2.508,2.96-2.508,5.9a1.823,1.823,0,0,0,.007.2H21.933V.841A.591.591,0,0,0,21.342.25H13.457a.591.591,0,0,0-.591.591V6.558H5.572A2.96,2.96,0,0,0,2.615,9.515V34.746a2.95,2.95,0,0,0,.969,2.187,2.948,2.948,0,0,0-1.3,1.608L.363,44.31a2.15,2.15,0,0,0-.113.729V48.15a2.17,2.17,0,0,0,2.168,2.168H48.15a2.17,2.17,0,0,0,2.168-2.168V45.039A2.15,2.15,0,0,0,50.206,44.31ZM34.746,2.9l.344,1.146-.764.255ZM33.91,5.686l1.519-.508.887,2.956H33.175Zm-.938,3.632H36.52V23.9H32.972Zm0,15.77H36.52V26.27H32.972Zm0,2.365H36.52v1.774a1.774,1.774,0,1,1-3.548,0Zm-3.5-19.712h2.607l-.269.907a.587.587,0,0,0-.024.169v.9H29.275a9.4,9.4,0,0,0-.358-1.228,2.973,2.973,0,0,0,.559-.744ZM26.861,1.815a8.677,8.677,0,0,1,1.774,4.546,1.774,1.774,0,1,1-3.548,0,8.7,8.7,0,0,1,1.774-4.546Zm1.5,9.474h-3a12.179,12.179,0,0,1,.464-2.156,2.958,2.958,0,0,0,2.061,0A12.178,12.178,0,0,1,28.359,11.289Zm-3.12,1.183h3.252c.091,1.035.148,2.3.148,3.844,0,6.667-.959,13.365-1.774,14.573-.815-1.208-1.774-7.905-1.774-14.573,0-1.545.053-2.809.144-3.844Zm-3.3-4.731H24.25a2.973,2.973,0,0,0,.559.744,9.4,9.4,0,0,0-.358,1.228H21.933ZM14.052,1.433h6.7V2.615H18.188a.591.591,0,0,0,0,1.183H20.75V4.981h-.986a.591.591,0,0,0,0,1.183h.986V7.346H18.188a.591.591,0,0,0,0,1.183H20.75V9.712h-.986a.591.591,0,0,0,0,1.183h.986v1.183H18.188a.591.591,0,0,0,0,1.183H20.75v1.183h-.986a.591.591,0,0,0,0,1.183h.986v1.183H18.188a.591.591,0,0,0,0,1.183H20.75v1.183h-.986a.591.591,0,0,0,0,1.183h.986v1.183H18.188a.591.591,0,0,0,0,1.183H20.75V23.9h-.986a.591.591,0,0,0,0,1.183h.986V26.27H18.188a.591.591,0,0,0,0,1.183H20.75v1.183h-.986a.591.591,0,0,0,0,1.183h.986V31h-6.7Zm-.591,30.751h7.881a.591.591,0,0,0,.591-.591v-20.7h2.3a37.706,37.706,0,0,0-.325,5.421c0,.158.173,15.868,2.957,15.868s2.957-15.71,2.957-15.868a37.707,37.707,0,0,0-.325-5.421h2.3V29.227a2.957,2.957,0,1,0,5.914,0V10.894h5.914V33.366H6.952V10.894h5.914v20.7a.591.591,0,0,0,.591.591ZM3.8,9.515A1.776,1.776,0,0,1,5.572,7.741h7.293V9.712h-6.5a.591.591,0,0,0-.591.591V33.957a.591.591,0,0,0,.591.591H44.208a.591.591,0,0,0,.591-.591V10.3a.591.591,0,0,0-.591-.591H37.7v-.9a.587.587,0,0,0-.024-.169l-.269-.9H45A1.776,1.776,0,0,1,46.77,9.515V34.746A1.776,1.776,0,0,1,45,36.52H5.572A1.776,1.776,0,0,1,3.8,34.746ZM1.485,44.685l1.922-5.769A1.776,1.776,0,0,1,5.09,37.7H45.478a1.776,1.776,0,0,1,1.683,1.213l1.922,5.769a.985.985,0,0,1-.934,1.3H2.418a.985.985,0,0,1-.934-1.3ZM49.136,48.15a.987.987,0,0,1-.986.986H2.418a.987.987,0,0,1-.986-.986V46.929a2.158,2.158,0,0,0,.986.236H48.15a2.158,2.158,0,0,0,.987-.237Z" transform="translate(0)"/>
      <path id="Path_939047" data-name="Path 939047" d="M30.841,51.433h1.577a.591.591,0,1,0,0-1.183H30.841a.591.591,0,0,0,0,1.183Z" transform="translate(-6.346 -10.576)"/>
      <path id="Path_939048" data-name="Path 939048" d="M36.591,51.433h1.577a.591.591,0,1,0,0-1.183H36.591a.591.591,0,0,0,0,1.183Z" transform="translate(-7.562 -10.576)"/>
      <path id="Path_939049" data-name="Path 939049" d="M42.341,51.433h1.577a.591.591,0,1,0,0-1.183H42.341a.591.591,0,0,0,0,1.183Z" transform="translate(-8.778 -10.576)"/>
      <path id="Path_939050" data-name="Path 939050" d="M48.091,51.433h1.577a.591.591,0,1,0,0-1.183H48.091a.591.591,0,0,0,0,1.183Z" transform="translate(-9.995 -10.576)"/>
      <path id="Path_939051" data-name="Path 939051" d="M53.841,51.433h1.577a.591.591,0,0,0,0-1.183H53.841a.591.591,0,1,0,0,1.183Z" transform="translate(-11.211 -10.576)"/>
      <path id="Path_939052" data-name="Path 939052" d="M25.091,51.433h1.577a.591.591,0,0,0,0-1.183H25.091a.591.591,0,1,0,0,1.183Z" transform="translate(-5.13 -10.576)"/>
      <path id="Path_939053" data-name="Path 939053" d="M19.341,51.433h1.577a.591.591,0,0,0,0-1.183H19.341a.591.591,0,1,0,0,1.183Z" transform="translate(-3.913 -10.576)"/>
      <path id="Path_939054" data-name="Path 939054" d="M13.591,51.433h1.577a.591.591,0,1,0,0-1.183H13.591a.591.591,0,1,0,0,1.183Z" transform="translate(-2.697 -10.576)"/>
      <path id="Path_939055" data-name="Path 939055" d="M7.841,51.433H9.418a.591.591,0,1,0,0-1.183H7.841a.591.591,0,1,0,0,1.183Z" transform="translate(-1.481 -10.576)"/>
      <path id="Path_939056" data-name="Path 939056" d="M38.583,54.841a.591.591,0,0,0,.591.591h1.577a.591.591,0,1,0,0-1.183H39.174A.591.591,0,0,0,38.583,54.841Z" transform="translate(-8.108 -11.422)"/>
      <path id="Path_939057" data-name="Path 939057" d="M44.139,54.841a.591.591,0,0,0,.591.591h1.577a.591.591,0,0,0,0-1.183H44.73A.591.591,0,0,0,44.139,54.841Z" transform="translate(-9.284 -11.422)"/>
      <path id="Path_939058" data-name="Path 939058" d="M49.694,54.841a.591.591,0,0,0,.591.591h1.577a.591.591,0,1,0,0-1.183H50.285A.591.591,0,0,0,49.694,54.841Z" transform="translate(-10.459 -11.422)"/>
      <path id="Path_939059" data-name="Path 939059" d="M55.25,54.841a.591.591,0,0,0,.591.591h1.577a.591.591,0,0,0,0-1.183H55.841a.591.591,0,0,0-.591.591Z" transform="translate(-11.634 -11.422)"/>
      <path id="Path_939060" data-name="Path 939060" d="M21.917,54.841a.591.591,0,0,0,.591.591H32.846a.591.591,0,0,0,0-1.183H22.508A.591.591,0,0,0,21.917,54.841Z" transform="translate(-4.583 -11.422)"/>
      <path id="Path_939061" data-name="Path 939061" d="M16.952,55.433h1.577a.591.591,0,1,0,0-1.183H16.952a.591.591,0,0,0,0,1.183Z" transform="translate(-3.408 -11.422)"/>
      <path id="Path_939062" data-name="Path 939062" d="M11.4,55.433h1.577a.591.591,0,0,0,0-1.183H11.4a.591.591,0,0,0,0,1.183Z" transform="translate(-2.233 -11.422)"/>
      <path id="Path_939063" data-name="Path 939063" d="M5.841,55.433H7.418a.591.591,0,0,0,0-1.183H5.841a.591.591,0,0,0,0,1.183Z" transform="translate(-1.058 -11.422)"/>
    </g>
  </g>
</svg>
