<svg xmlns="http://www.w3.org/2000/svg" width="70" height="70" viewBox="0 0 70 70">
  <g id="Group_1165058" data-name="Group 1165058" transform="translate(-704.668 -6155)">
    <rect id="Rectangle_402033" data-name="Rectangle 402033" width="70" height="70" rx="8" transform="translate(704.668 6155)" fill="#6003fe"/>
    <g id="Group_1165239" data-name="Group 1165239" transform="translate(712.504 6162.836)">
      <g id="Group_1165237" data-name="Group 1165237" transform="translate(1.844 1.844)">
        <g id="Group_1165225" data-name="Group 1165225" transform="translate(0 14.348)">
          <path id="Path_938420" data-name="Path 938420" d="M23.944,49.384H5.376A3.376,3.376,0,0,1,2,46.008V22.376A3.376,3.376,0,0,1,5.376,19H20.568a3.376,3.376,0,0,1,3.376,3.376Z" transform="translate(-2 -19)" fill="#fcd770"/>
        </g>
        <g id="Group_1165226" data-name="Group 1165226" transform="translate(3.376 17.724)">
          <path id="Path_938421" data-name="Path 938421" d="M6,50.008V23.844A.846.846,0,0,1,6.844,23h13.5a.846.846,0,0,1,.844.844V50.008Z" transform="translate(-6 -23)" fill="#ffeaa7"/>
        </g>
        <g id="Group_1165227" data-name="Group 1165227" transform="translate(27.008)">
          <path id="Path_938422" data-name="Path 938422" d="M53.412,7.064a4.22,4.22,0,0,1,0,8.44H38.22A4.222,4.222,0,0,1,34,11.284a4.17,4.17,0,0,1,.844-2.532A4.228,4.228,0,0,1,38.22,7.064a1.941,1.941,0,0,1,.219.025,6.741,6.741,0,0,1,13.158.4A4.245,4.245,0,0,1,53.412,7.064Z" transform="translate(-34 -2)" fill="#e6e9ed"/>
        </g>
        <g id="Group_1165228" data-name="Group 1165228" transform="translate(32.072 18.568)">
          <path id="Path_938423" data-name="Path 938423" d="M42.532,32.44a2.53,2.53,0,0,0-1.95.912l-.245-.751A6.359,6.359,0,0,1,40,30.533,6.541,6.541,0,0,1,46.533,24h5.5a6.538,6.538,0,0,1,6.533,6.533A6.359,6.359,0,0,1,58.23,32.6l-.245.751a2.53,2.53,0,0,0-1.95-.912h-.844A1.693,1.693,0,0,0,53.5,30.752H49.985a5.769,5.769,0,0,1-4.077-1.688,3.711,3.711,0,0,0-2.532,3.376Z" transform="translate(-40 -24)" fill="#656d78"/>
        </g>
        <g id="Group_1165229" data-name="Group 1165229" transform="translate(35.448 37.136)">
          <path id="Path_938424" data-name="Path 938424" d="M49.807,46.743a2.526,2.526,0,0,0-.743,1.789v4.22H44a8.8,8.8,0,0,1,4.693-6.144L49.908,46H51.6A2.526,2.526,0,0,0,49.807,46.743Z" transform="translate(-44 -46)" fill="#5cd6b3"/>
        </g>
        <g id="Group_1165230" data-name="Group 1165230" transform="translate(33.76 37.136)">
          <path id="Path_938425" data-name="Path 938425" d="M48.752,52.752v-4.22a2.532,2.532,0,0,1,5.064,0v4.22a5.068,5.068,0,0,1-5.064,5.064H42V52.752h6.752Z" transform="translate(-42 -46)" fill="#5cd6b3"/>
        </g>
        <g id="Group_1165231" data-name="Group 1165231" transform="translate(20.256 47.264)">
          <path id="Path_938426" data-name="Path 938426" d="M39.5,58v1.688a1.693,1.693,0,0,1-1.688,1.688H27.688A1.7,1.7,0,0,1,26,59.688,1.693,1.693,0,0,1,27.688,58H39.5Z" transform="translate(-26 -58)" fill="#aab2bd"/>
        </g>
        <g id="Group_1165232" data-name="Group 1165232" transform="translate(18.568 35.448)">
          <path id="Path_938427" data-name="Path 938427" d="M27.376,55.816A1.693,1.693,0,0,0,25.688,57.5l-.675-4.372-.987-6.423A2.5,2.5,0,0,1,24,46.355,2.356,2.356,0,0,1,26.355,44h1.021l1.688,11.816Z" transform="translate(-24 -44)" fill="#ccd1d9"/>
        </g>
        <g id="Group_1165233" data-name="Group 1165233" transform="translate(28.696 43.888)">
          <path id="Path_938428" data-name="Path 938428" d="M41.064,54v3.376H36v-.844A2.529,2.529,0,0,1,38.532,54Z" transform="translate(-36 -54)" fill="#f0d0b4"/>
        </g>
        <g id="Group_1165234" data-name="Group 1165234" transform="translate(47.264 27.008)">
          <path id="Path_938429" data-name="Path 938429" d="M60.794,34.912a2.536,2.536,0,0,1-1.95,4.152H58V34h.844A2.53,2.53,0,0,1,60.794,34.912Z" transform="translate(-58 -34)" fill="#f0d0b4"/>
        </g>
        <g id="Group_1165235" data-name="Group 1165235" transform="translate(35.448 23.632)">
          <path id="Path_938430" data-name="Path 938430" d="M44,33.376A3.711,3.711,0,0,1,46.532,30a5.769,5.769,0,0,0,4.077,1.688h3.519a1.693,1.693,0,0,1,1.688,1.688V38.44A5.068,5.068,0,0,1,50.752,43.5H49.064A5.068,5.068,0,0,1,44,38.44V33.376Z" transform="translate(-44 -30)" fill="#f0d0b4"/>
        </g>
        <g id="Group_1165236" data-name="Group 1165236" transform="translate(32.072 27.008)">
          <path id="Path_938431" data-name="Path 938431" d="M43.376,34v5.064h-.844a2.532,2.532,0,1,1,0-5.064Z" transform="translate(-40 -34)" fill="#f0d0b4"/>
        </g>
      </g>
      <g id="Group_1165238" data-name="Group 1165238" transform="translate(1 1)">
        <circle id="Ellipse_13502" data-name="Ellipse 13502" cx="0.5" cy="0.5" r="0.5" transform="translate(39.164 29.164)"/>
        <circle id="Ellipse_13503" data-name="Ellipse 13503" cx="0.5" cy="0.5" r="0.5" transform="translate(44.164 29.164)"/>
        <path id="Path_938432" data-name="Path 938432" d="M52.081,39.731a1.887,1.887,0,0,1-3.376,0l-.089-.178-1.51.755.089.178a3.576,3.576,0,0,0,6.4,0l.089-.178-1.51-.755Z" transform="translate(-8.192 -7.014)"/>
        <path id="Path_938433" data-name="Path 938433" d="M53.328,26.948a7.388,7.388,0,0,0-7.38-7.38h-1.9V16.192h4.22a5.064,5.064,0,0,0,0-10.128,4.875,4.875,0,0,0-1.227.158,7.589,7.589,0,0,0-14.373-.141A5.05,5.05,0,0,0,29.3,7.752H14.5a2.535,2.535,0,0,0-2.532,2.532v5.064H5.22A4.225,4.225,0,0,0,1,19.568V43.2a4.225,4.225,0,0,0,4.22,4.22H20.412c.1,0,.208-.016.311-.024l.543,3.528h0a2.528,2.528,0,0,0,2.519,2.4H33.916a2.528,2.528,0,0,0,2.377-1.689h6.063a5.916,5.916,0,0,0,5.908-5.908V41.51a3.352,3.352,0,0,0-1.177-2.54,5.912,5.912,0,0,0,2.8-4.211h.067a3.379,3.379,0,0,0,3.376-3.376,3.345,3.345,0,0,0-.5-1.742l.121-.361a7.379,7.379,0,0,0,.378-2.333Zm-1.688,0a5.669,5.669,0,0,1-.2,1.422,3.325,3.325,0,0,0-1.489-.362H49.8A2.529,2.529,0,0,0,47.42,26.32H43.9a4.888,4.888,0,0,1-3.479-1.441l-.369-.369-.495.165a4.531,4.531,0,0,0-2.989,3.333h-.12a3.339,3.339,0,0,0-1.489.361,5.628,5.628,0,0,1,5.493-7.113h5.5a5.7,5.7,0,0,1,5.691,5.692ZM36.448,33.072a1.688,1.688,0,1,1,0-3.376ZM33.069,7.755h.005c.057.008.113.015.172.018l.69.035.17-.67a5.9,5.9,0,0,1,11.517.351l.2,1.077.989-.473a3.33,3.33,0,0,1,1.447-.341,3.376,3.376,0,1,1,0,6.752H33.072a3.375,3.375,0,0,1,0-6.749ZM13.66,10.284A.845.845,0,0,1,14.5,9.44H28.3a5.052,5.052,0,0,0,4.769,6.752h9.284v3.376h-1.9a7.379,7.379,0,0,0-7,9.713l.121.361a3.336,3.336,0,0,0-.5,1.742,3.379,3.379,0,0,0,3.376,3.376h.068a5.918,5.918,0,0,0,3.955,4.75,9.546,9.546,0,0,0-3.831,5.378H33.072A3.38,3.38,0,0,0,29.7,48.264H26.208L24.632,37.231V19.568a4.225,4.225,0,0,0-4.22-4.22H13.66Zm27.852,34.6H38.4a7.871,7.871,0,0,1,3.2-4.108,3.393,3.393,0,0,0-.085.731ZM34.76,48.264H31.384a1.69,1.69,0,0,1,1.688-1.688H34.76Zm-13.486-8.39a1.508,1.508,0,0,1,1.491-1.739h.292L24.5,48.264h-.715a2.5,2.5,0,0,0-1.177.3Zm-1.706-14.4H6.064V20.412h13.5Zm-13.5,1.688h13.5v5.064H6.064Zm0,6.752h13.5V38.98H6.064Zm0,6.752h13.5v5.064H6.064ZM2.688,43.2V19.568A2.535,2.535,0,0,1,5.22,17.036H20.412a2.535,2.535,0,0,1,2.532,2.532V36.447h-.18a3.159,3.159,0,0,0-1.508.4V20.412a1.69,1.69,0,0,0-1.688-1.688H6.064a1.69,1.69,0,0,0-1.688,1.688V45.577A2.529,2.529,0,0,1,2.688,43.2Zm31.228,8.44H23.788a.844.844,0,1,1,0-1.688H34.76V50.8A.845.845,0,0,1,33.916,51.64Zm12.659-5.909a4.225,4.225,0,0,1-4.22,4.22H36.447V46.576h5.559l1.44,1.442,1.194-1.193L43.2,45.382V41.51a1.683,1.683,0,0,1,1.666-1.685h.021v0a1.69,1.69,0,0,1,1.688,1.688Zm1.689-11.815a4.225,4.225,0,0,1-4.218,4.22h-1.69a4.225,4.225,0,0,1-4.22-4.22V28.989a2.856,2.856,0,0,1,1.518-2.525A6.554,6.554,0,0,0,43.9,28.008h3.52a.845.845,0,0,1,.844.844Zm1.688-.844V29.7a1.688,1.688,0,1,1,0,3.376Z" transform="translate(-1 -1)"/>
        <path id="Path_938434" data-name="Path 938434" d="M13,26h1.688v1.688H13Z" transform="translate(-2.872 -4.9)"/>
        <path id="Path_938435" data-name="Path 938435" d="M9,26h1.688v1.688H9Z" transform="translate(-2.248 -4.9)"/>
        <path id="Path_938436" data-name="Path 938436" d="M13,42h1.688v1.688H13Z" transform="translate(-2.872 -7.396)"/>
        <path id="Path_938437" data-name="Path 938437" d="M9,42h1.688v1.688H9Z" transform="translate(-2.248 -7.396)"/>
        <path id="Path_938438" data-name="Path 938438" d="M19,34h1.688v1.688H19Z" transform="translate(-3.808 -6.148)"/>
        <path id="Path_938439" data-name="Path 938439" d="M15,34h1.688v1.688H15Z" transform="translate(-3.184 -6.148)"/>
        <path id="Path_938440" data-name="Path 938440" d="M15,50h1.688v1.688H15Z" transform="translate(-3.184 -8.644)"/>
        <path id="Path_938441" data-name="Path 938441" d="M19,50h1.688v1.688H19Z" transform="translate(-3.808 -8.644)"/>
      </g>
    </g>
  </g>
</svg>
