<svg xmlns="http://www.w3.org/2000/svg" width="120" height="120" viewBox="0 0 120 120">
  <g id="Group_1165152" data-name="Group 1165152" transform="translate(-64 -6445)">
    <rect id="Rectangle_402033" data-name="Rectangle 402033" width="120" height="120" rx="8" transform="translate(64 6445)" fill="#6003fe"/>
    <g id="Rectangle_412110" data-name="Rectangle 412110" transform="translate(69 6450)" fill="none" stroke="#fff" stroke-width="1">
      <rect width="110" height="110" rx="6" stroke="none"/>
      <rect x="0.5" y="0.5" width="109" height="109" rx="5.5" fill="none"/>
    </g>
    <g id="Group_1155336" data-name="Group 1155336" transform="translate(-325 -2)">
      <circle id="Ellipse_13473" data-name="Ellipse 13473" cx="60" cy="60" r="60" transform="translate(389 6447)" fill="#6003fe"/>
      <g id="Ellipse_13474" data-name="Ellipse 13474" transform="translate(399 6457)" fill="none" stroke="#fff" stroke-width="1">
        <circle cx="50" cy="50" r="50" stroke="none"/>
        <circle cx="50" cy="50" r="49.5" fill="none"/>
      </g>
      <g id="Group_1165548" data-name="Group 1165548" transform="translate(416.96 6474.96)">
        <g id="Group_1165546" data-name="Group 1165546" transform="translate(1.034 1.034)">
          <g id="Group_1165535" data-name="Group 1165535" transform="translate(28.939 12.403)">
            <path id="Path_939572" data-name="Path 939572" d="M232,104h4.134v4.134H232Z" transform="translate(-232 -104)" fill="#aab2bd"/>
          </g>
          <g id="Group_1165536" data-name="Group 1165536" transform="translate(49.61 12.403)">
            <path id="Path_939573" data-name="Path 939573" d="M392,104h4.134v4.134H392Z" transform="translate(-392 -104)" fill="#aab2bd"/>
          </g>
          <g id="Group_1165537" data-name="Group 1165537" transform="translate(8.268 12.403)">
            <path id="Path_939574" data-name="Path 939574" d="M72,104h4.134v4.134H72Z" transform="translate(-72 -104)" fill="#aab2bd"/>
          </g>
          <g id="Group_1165538" data-name="Group 1165538" transform="translate(22.738 8.268)">
            <path id="Path_939575" data-name="Path 939575" d="M200.537,72v2.067a2.067,2.067,0,0,1-2.067,2.067h-12.4A2.067,2.067,0,0,1,184,74.067V72Z" transform="translate(-184 -72)" fill="#ccd1d9"/>
          </g>
          <g id="Group_1165539" data-name="Group 1165539" transform="translate(43.409 8.268)">
            <path id="Path_939576" data-name="Path 939576" d="M360.537,72v2.067a2.067,2.067,0,0,1-2.067,2.067h-12.4A2.067,2.067,0,0,1,344,74.067V72Z" transform="translate(-344 -72)" fill="#ccd1d9"/>
          </g>
          <g id="Group_1165540" data-name="Group 1165540" transform="translate(2.067 8.268)">
            <path id="Path_939577" data-name="Path 939577" d="M40.537,72v2.067a2.067,2.067,0,0,1-2.067,2.067h-12.4A2.067,2.067,0,0,1,24,74.067V72Z" transform="translate(-24 -72)" fill="#ccd1d9"/>
          </g>
          <g id="Group_1165541" data-name="Group 1165541" transform="translate(22.738)">
            <path id="Path_939578" data-name="Path 939578" d="M200.537,10.067v6.2H184v-6.2A2.067,2.067,0,0,1,186.067,8h12.4A2.067,2.067,0,0,1,200.537,10.067Z" transform="translate(-184 -8)" fill="#69d6f4"/>
          </g>
          <g id="Group_1165542" data-name="Group 1165542" transform="translate(43.409)">
            <path id="Path_939579" data-name="Path 939579" d="M360.537,10.067v6.2H344v-6.2A2.067,2.067,0,0,1,346.067,8h12.4A2.067,2.067,0,0,1,360.537,10.067Z" transform="translate(-344 -8)" fill="#69d6f4"/>
          </g>
          <g id="Group_1165543" data-name="Group 1165543" transform="translate(2.067)">
            <path id="Path_939580" data-name="Path 939580" d="M40.537,10.067v6.2H24v-6.2A2.067,2.067,0,0,1,26.067,8h12.4A2.067,2.067,0,0,1,40.537,10.067Z" transform="translate(-24 -8)" fill="#69d6f4"/>
          </g>
          <g id="Group_1165544" data-name="Group 1165544" transform="translate(0 35.141)">
            <path id="Path_939581" data-name="Path 939581" d="M60.711,288.268a9.3,9.3,0,1,1,0,18.6H55.543v-3.1l-2.62-.873a14.309,14.309,0,0,0-1.267-3.054l1.236-2.473-4.385-4.385-2.473,1.236a14.307,14.307,0,0,0-3.054-1.267l-.873-2.62h-6.2l-.873,2.62a14.307,14.307,0,0,0-3.054,1.267l-2.473-1.236-4.385,4.385,1.236,2.473A14.309,14.309,0,0,0,25.09,302.9l-2.62.873v3.1H17.3a9.3,9.3,0,1,1,1.008-18.548,13.439,13.439,0,0,1,23.662-2.261,11.372,11.372,0,0,1,15.543,2.769A9.29,9.29,0,0,1,60.711,288.268Z" transform="translate(-8 -280)" fill="#e6e9ed"/>
          </g>
          <g id="Group_1165545" data-name="Group 1165545" transform="translate(14.47 45.476)">
            <path id="Path_939582" data-name="Path 939582" d="M153.074,373.436v3.1h-6.2a10.335,10.335,0,0,0-20.671,0H120v-3.1l2.62-.873a14.308,14.308,0,0,1,1.267-3.054l-1.236-2.473,4.385-4.385,2.473,1.236a14.308,14.308,0,0,1,3.054-1.267l.873-2.62h6.2l.873,2.62a14.308,14.308,0,0,1,3.054,1.267l2.473-1.236,4.385,4.385-1.236,2.473a14.308,14.308,0,0,1,1.267,3.054Z" transform="translate(-120 -360)" fill="#fcd770"/>
          </g>
        </g>
        <g id="Group_1165547" data-name="Group 1165547" transform="translate(0)">
          <path id="Path_939583" data-name="Path 939583" d="M339.1,14.47h3.1v2.067h-2.067V18.6H350.47V16.537H348.4V14.47h3.1a3.1,3.1,0,0,0,3.1-3.1V3.1A3.1,3.1,0,0,0,351.5,0H339.1A3.1,3.1,0,0,0,336,3.1v8.268A3.1,3.1,0,0,0,339.1,14.47Zm7.235,2.067h-2.067V14.47h2.067ZM351.5,12.4H339.1a1.035,1.035,0,0,1-1.034-1.034V10.335h14.47v1.034A1.035,1.035,0,0,1,351.5,12.4ZM339.1,2.067h12.4A1.035,1.035,0,0,1,352.537,3.1V8.268h-14.47V3.1A1.035,1.035,0,0,1,339.1,2.067Z" transform="translate(-292.591)"/>
          <path id="Path_939584" data-name="Path 939584" d="M179.1,14.47h3.1v2.067h-2.067V18.6H190.47V16.537H188.4V14.47h3.1a3.1,3.1,0,0,0,3.1-3.1V3.1A3.1,3.1,0,0,0,191.5,0H179.1A3.1,3.1,0,0,0,176,3.1v8.268A3.1,3.1,0,0,0,179.1,14.47Zm7.235,2.067h-2.067V14.47h2.067ZM191.5,12.4H179.1a1.035,1.035,0,0,1-1.034-1.034V10.335h14.47v1.034A1.035,1.035,0,0,1,191.5,12.4ZM179.1,2.067h12.4A1.035,1.035,0,0,1,192.537,3.1V8.268h-14.47V3.1A1.035,1.035,0,0,1,179.1,2.067Z" transform="translate(-153.262)"/>
          <path id="Path_939585" data-name="Path 939585" d="M19.1,14.47h3.1v2.067H20.134V18.6H30.47V16.537H28.4V14.47h3.1a3.1,3.1,0,0,0,3.1-3.1V3.1A3.1,3.1,0,0,0,31.5,0H19.1A3.1,3.1,0,0,0,16,3.1v8.268A3.1,3.1,0,0,0,19.1,14.47Zm7.235,2.067H24.268V14.47h2.067ZM31.5,12.4H19.1a1.035,1.035,0,0,1-1.034-1.034V10.335h14.47v1.034A1.035,1.035,0,0,1,31.5,12.4ZM19.1,2.067H31.5A1.035,1.035,0,0,1,32.537,3.1V8.268H18.067V3.1A1.035,1.035,0,0,1,19.1,2.067Z" transform="translate(-13.933)"/>
          <path id="Path_939586" data-name="Path 939586" d="M0,0H2.067V2.067H0Z" transform="translate(46.311 31.958) rotate(-17.33)"/>
          <path id="Path_939587" data-name="Path 939587" d="M0,0H1.93V2.067H0Z" transform="translate(42.495 33.147) rotate(-17.33)"/>
          <path id="Path_939588" data-name="Path 939588" d="M389.614,169.995l.616,1.973,2.792-.873V160h-2.067v9.576Z" transform="translate(-339.278 -139.329)"/>
          <path id="Path_939589" data-name="Path 939589" d="M53.745,182.738a10.331,10.331,0,0,0-2.824.391,12.42,12.42,0,0,0-11.832-4.32l.374,2.033a10.354,10.354,0,0,1,10.25,4.1l.459.632.733-.268a8.269,8.269,0,1,1,2.841,16.036H49.61V198.53l-2.82-.94a15.423,15.423,0,0,0-.937-2.258l1.331-2.661-5.439-5.439L38.606,188.8l.925,1.849,1.806-.9,3.332,3.332-1.147,2.294.266.477a13.375,13.375,0,0,1,1.176,2.835l.149.525,2.431.81v1.322H43.36a11.372,11.372,0,0,0-6.153-9.094V176.31l3.351-.838-.5-2.005L35.141,174.7v26.646H33.074V160H31.006v41.342H28.939V170.609L12.4,165.441V160H10.335v6.961l16.537,5.168v20.119a11.373,11.373,0,0,0-6.153,9.094H16.537V200.02l2.431-.81.149-.525a13.372,13.372,0,0,1,1.176-2.835l.266-.477-1.147-2.294,3.332-3.332,1.806.9.925-1.849-3.139-1.569L16.9,192.671l1.331,2.661a15.428,15.428,0,0,0-.937,2.258l-2.82.94v2.812H10.335a8.268,8.268,0,1,1,0-16.537,8.381,8.381,0,0,1,.9.049l.771.083.3-.717a12.367,12.367,0,0,1,11.473-7.684c.318,0,.639.012.956.036l.156-2.061c-.368-.028-.742-.042-1.112-.042a14.424,14.424,0,0,0-13.079,8.275q-.18-.006-.357-.006a10.335,10.335,0,0,0,0,20.671H53.745a10.335,10.335,0,0,0,0-20.671Zm-16.537,11.9a9.309,9.309,0,0,1,4.077,6.7H37.208Zm-10.335,0v6.7H22.8A9.309,9.309,0,0,1,26.872,194.64Z" transform="translate(0 -139.329)"/>
          <path id="Path_939590" data-name="Path 939590" d="M34.067,374.2a4.139,4.139,0,0,1,4.134-4.134V368a6.208,6.208,0,0,0-6.2,6.2Z" transform="translate(-27.866 -320.457)"/>
        </g>
      </g>
    </g>
  </g>
</svg>
