<svg xmlns="http://www.w3.org/2000/svg" width="82.58" height="82.58" viewBox="0 0 82.58 82.58">
  <g id="Group_1165408" data-name="Group 1165408" transform="translate(-16.157)">
    <g id="_x32_9_server" transform="translate(17.122 0.965)">
      <path id="Path_938977" data-name="Path 938977" d="M55.04,122h72.569v38.894H55.04Z" transform="translate(-51 -97.464)" fill="#465a61"/>
      <path id="Path_938978" data-name="Path 938978" d="M102.2,378.233H25.767c-1.165,0-2.11-.7-2.11-1.565V361.143c0-.864.944-1.565,2.11-1.565H102.2c1.165,0,2.11.7,2.11,1.565v15.526C104.306,377.533,103.362,378.233,102.2,378.233Z" transform="translate(-23.657 -297.584)" fill="#7a8c98"/>
      <path id="Path_938979" data-name="Path 938979" d="M84.207,416.07h-26.4a2.768,2.768,0,0,1,0-5.537h26.4a2.768,2.768,0,0,1,0,5.537Z" transform="translate(-51 -341.98)" fill="#9facba"/>
      <path id="Path_938980" data-name="Path 938980" d="M358.73,404.963a2.159,2.159,0,0,1-2.159-2.159v-5.069a2.159,2.159,0,1,1,4.319,0V402.8A2.159,2.159,0,0,1,358.73,404.963Z" transform="translate(-297.63 -328.947)" fill="#ffd15b"/>
      <path id="Path_938981" data-name="Path 938981" d="M102.2,202.881H25.767c-1.165,0-2.11-.7-2.11-1.565V185.791c0-.864.944-1.565,2.11-1.565H102.2c1.165,0,2.11.7,2.11,1.565v15.526C104.306,202.181,103.362,202.881,102.2,202.881Z" transform="translate(-23.657 -153.108)" fill="#7a8c98"/>
      <path id="Path_938982" data-name="Path 938982" d="M84.207,240.719h-26.4a2.768,2.768,0,1,1,0-5.537h26.4a2.768,2.768,0,1,1,0,5.537Z" transform="translate(-51 -197.512)" fill="#9facba"/>
      <path id="Path_938983" data-name="Path 938983" d="M358.73,229.612a2.159,2.159,0,0,1-2.159-2.159v-5.069a2.159,2.159,0,0,1,4.319,0v5.069A2.159,2.159,0,0,1,358.73,229.612Z" transform="translate(-297.63 -184.478)" fill="#60b7ff"/>
      <path id="Path_938984" data-name="Path 938984" d="M102.2,26.155H25.767c-1.165,0-2.11-.7-2.11-1.565V9.065c0-.864.944-1.565,2.11-1.565H102.2c1.165,0,2.11.7,2.11,1.565V24.591c0,.864-.945,1.565-2.11,1.565Z" transform="translate(-23.657 -7.5)" fill="#7a8c98"/>
      <path id="Path_938985" data-name="Path 938985" d="M84.207,63.993h-26.4a2.768,2.768,0,0,1,0-5.537h26.4a2.768,2.768,0,0,1,0,5.537Z" transform="translate(-51 -51.897)" fill="#9facba"/>
      <path id="Path_938986" data-name="Path 938986" d="M358.73,52.885a2.159,2.159,0,0,1-2.159-2.159V45.656a2.159,2.159,0,0,1,4.319,0v5.069A2.159,2.159,0,0,1,358.73,52.885Z" transform="translate(-297.63 -38.863)" fill="#60b7ff"/>
      <g id="Group_1165406" data-name="Group 1165406" transform="translate(74.126 0)">
        <path id="Path_938987" data-name="Path 938987" d="M442.625,359.578h-4.959a1.565,1.565,0,0,1,1.565,1.565v15.526a1.565,1.565,0,0,1-1.565,1.565h4.959a1.565,1.565,0,0,0,1.565-1.565V361.143A1.565,1.565,0,0,0,442.625,359.578Z" transform="translate(-437.666 -297.584)" fill="#596c76"/>
        <path id="Path_938988" data-name="Path 938988" d="M442.625,184.226h-4.959a1.565,1.565,0,0,1,1.565,1.565v15.526a1.565,1.565,0,0,1-1.565,1.565h4.959a1.565,1.565,0,0,0,1.565-1.565V185.791A1.565,1.565,0,0,0,442.625,184.226Z" transform="translate(-437.666 -153.108)" fill="#596c76"/>
        <path id="Path_938989" data-name="Path 938989" d="M442.625,7.5h-4.959a1.565,1.565,0,0,1,1.565,1.565V24.591a1.565,1.565,0,0,1-1.565,1.565h4.959a1.565,1.565,0,0,0,1.565-1.565V9.065A1.565,1.565,0,0,0,442.625,7.5Z" transform="translate(-437.666 -7.5)" fill="#596c76"/>
      </g>
      <path id="Path_938990" data-name="Path 938990" d="M425.571,43.5c-.045,0-.089,0-.133.007a2.158,2.158,0,0,0-2.027,2.153v5.069a2.158,2.158,0,0,0,2.027,2.153c.044,0,.088.007.133.007a2.159,2.159,0,0,0,2.159-2.159V45.656A2.159,2.159,0,0,0,425.571,43.5Z" transform="translate(-351.121 -38.863)" fill="#ffd15b"/>
      <path id="Path_938991" data-name="Path 938991" d="M449.821,46.553v8.6a2.155,2.155,0,0,0,.919-1.766V48.319A2.156,2.156,0,0,0,449.821,46.553Z" transform="translate(-374.131 -41.526)" fill="#ffc344"/>
      <path id="Path_938992" data-name="Path 938992" d="M425.571,220.223c-.045,0-.089,0-.133.007a2.158,2.158,0,0,0-2.027,2.153v5.069a2.158,2.158,0,0,0,2.027,2.153c.044,0,.088.007.133.007a2.159,2.159,0,0,0,2.159-2.159v-5.069A2.159,2.159,0,0,0,425.571,220.223Z" transform="translate(-351.121 -184.477)" fill="#fe646f"/>
      <path id="Path_938993" data-name="Path 938993" d="M449.821,223.28v8.6a2.155,2.155,0,0,0,.919-1.766v-5.069A2.155,2.155,0,0,0,449.821,223.28Z" transform="translate(-374.131 -187.141)" fill="#fd4755"/>
      <path id="Path_938994" data-name="Path 938994" d="M425.571,395.575c-.045,0-.089,0-.133.007a2.158,2.158,0,0,0-2.027,2.153V402.8a2.158,2.158,0,0,0,2.027,2.153c.044,0,.088.007.133.007a2.159,2.159,0,0,0,2.159-2.159v-5.069A2.159,2.159,0,0,0,425.571,395.575Z" transform="translate(-351.121 -328.947)" fill="#60b7ff"/>
      <path id="Path_938995" data-name="Path 938995" d="M449.821,398.631v8.6a2.155,2.155,0,0,0,.919-1.766V400.4a2.155,2.155,0,0,0-.919-1.766Z" transform="translate(-374.131 -331.61)" fill="#26a6fe"/>
    </g>
    <g id="Group_1165407" data-name="Group 1165407" transform="translate(16.157 0)">
      <path id="Path_938996" data-name="Path 938996" d="M51.274,403.034a3.734,3.734,0,0,0,0,7.467h26.4a3.734,3.734,0,0,0,0-7.467Zm28.2,3.734a1.8,1.8,0,0,1-1.8,1.8h-26.4a1.8,1.8,0,0,1,0-3.606h26.4A1.8,1.8,0,0,1,79.475,406.768Z" transform="translate(-43.5 -334.481)"/>
      <path id="Path_938997" data-name="Path 938997" d="M349.07,391.2v5.069a3.125,3.125,0,0,0,6.249,0V391.2a3.125,3.125,0,0,0-6.249,0Zm4.319,0v5.069a1.194,1.194,0,0,1-2.388,0V391.2a1.194,1.194,0,0,1,2.388,0Z" transform="translate(-290.13 -321.447)"/>
      <path id="Path_938998" data-name="Path 938998" d="M415.912,391.2v5.069a3.125,3.125,0,0,0,6.249,0V391.2a3.125,3.125,0,1,0-6.249,0Zm4.319,0v5.069a1.194,1.194,0,0,1-2.388,0V391.2a1.194,1.194,0,1,1,2.388,0Z" transform="translate(-343.621 -321.447)"/>
      <path id="Path_938999" data-name="Path 938999" d="M77.672,227.683h-26.4a3.734,3.734,0,0,0,0,7.467h26.4a3.734,3.734,0,1,0,0-7.467Zm0,5.536h-26.4a1.8,1.8,0,0,1,0-3.606h26.4a1.8,1.8,0,0,1,0,3.606Z" transform="translate(-43.5 -190.013)"/>
      <path id="Path_939000" data-name="Path 939000" d="M352.2,212.723a3.128,3.128,0,0,0-3.125,3.125v5.069a3.125,3.125,0,0,0,6.249,0v-5.069A3.128,3.128,0,0,0,352.2,212.723Zm1.194,8.194a1.194,1.194,0,0,1-2.388,0v-5.069a1.194,1.194,0,0,1,2.388,0Z" transform="translate(-290.13 -176.977)"/>
      <path id="Path_939001" data-name="Path 939001" d="M415.912,215.848v5.069a3.125,3.125,0,0,0,6.249,0v-5.069a3.125,3.125,0,1,0-6.249,0Zm4.319,0v5.069a1.194,1.194,0,0,1-2.388,0v-5.069a1.194,1.194,0,1,1,2.388,0Z" transform="translate(-343.621 -176.977)"/>
      <path id="Path_939002" data-name="Path 939002" d="M95.353,25.794a3.286,3.286,0,0,0,3.384-3.17V3.17A3.285,3.285,0,0,0,95.353,0H19.541a3.286,3.286,0,0,0-3.384,3.17v5.5a1.294,1.294,0,0,0,2.582,0V3.17a.778.778,0,0,1,.8-.751H95.353a.778.778,0,0,1,.8.751V22.624a.778.778,0,0,1-.8.751H19.54a.778.778,0,0,1-.8-.751v-8.31a1.294,1.294,0,0,0-2.582,0v8.31a3.286,3.286,0,0,0,3.384,3.17H21.56V28.5H19.541a3.286,3.286,0,0,0-3.384,3.17V51.128a3.286,3.286,0,0,0,3.384,3.17H21.56v2.489H19.541a3.286,3.286,0,0,0-3.384,3.17V79.41a3.286,3.286,0,0,0,3.384,3.17H95.353a3.286,3.286,0,0,0,3.384-3.17V72.39a1.294,1.294,0,0,0-2.582,0v7.02a.778.778,0,0,1-.8.751H19.541a.778.778,0,0,1-.8-.751V59.957a.778.778,0,0,1,.8-.751H95.353a.778.778,0,0,1,.8.751v6.789a1.294,1.294,0,0,0,2.582,0V59.957a3.286,3.286,0,0,0-3.384-3.17H93.334V54.3h2.019a3.286,3.286,0,0,0,3.384-3.17V31.674a3.286,3.286,0,0,0-3.384-3.17H93.334v-2.71Zm-4.6,30.993H24.142V54.3h66.61Zm5.4-25.112V51.128a.778.778,0,0,1-.8.751H19.541a.778.778,0,0,1-.8-.751V31.674a.778.778,0,0,1,.8-.751H95.353A.778.778,0,0,1,96.155,31.674Zm-5.4-3.17H24.142v-2.71h66.61Z" transform="translate(-16.157 0)"/>
      <path id="Path_939003" data-name="Path 939003" d="M51.274,58.423h26.4a3.734,3.734,0,1,0,0-7.467h-26.4a3.734,3.734,0,0,0,0,7.467Zm0-5.537h26.4a1.8,1.8,0,0,1,0,3.606h-26.4a1.8,1.8,0,0,1,0-3.606Z" transform="translate(-43.5 -44.397)"/>
      <path id="Path_939004" data-name="Path 939004" d="M355.32,44.192V39.123a3.125,3.125,0,0,0-6.25,0v5.069a3.125,3.125,0,1,0,6.25,0Zm-4.319,0V39.123a1.194,1.194,0,0,1,2.388,0v5.069a1.194,1.194,0,1,1-2.388,0Z" transform="translate(-290.13 -31.364)"/>
      <path id="Path_939005" data-name="Path 939005" d="M422.162,44.192V39.123a3.125,3.125,0,0,0-6.249,0v5.069a3.125,3.125,0,1,0,6.249,0Zm-4.319,0V39.123a1.194,1.194,0,0,1,2.387,0v5.069a1.194,1.194,0,1,1-2.387,0Z" transform="translate(-343.622 -31.364)"/>
    </g>
  </g>
</svg>
