<svg xmlns="http://www.w3.org/2000/svg" xmlns:xlink="http://www.w3.org/1999/xlink" width="270" height="145.082" viewBox="0 0 270 145.082">
  <defs>
    <clipPath id="clip-path">
      <rect id="Rectangle_448097" data-name="Rectangle 448097" width="217.562" height="145.082" fill="none"/>
    </clipPath>
  </defs>
  <g id="Group_1165242" data-name="Group 1165242" transform="translate(-1019.711 -1672.918)">
    <path id="Rectangle_447435" data-name="Rectangle 447435" d="M10,0H260a10,10,0,0,1,10,10V98a0,0,0,0,1,0,0H0a0,0,0,0,1,0,0V10A10,10,0,0,1,10,0Z" transform="translate(1019.711 1720)" fill="#6003fe"/>
    <g id="Group_1165241" data-name="Group 1165241" transform="translate(1045.93 1672.918)">
      <g id="Group_1165240" data-name="Group 1165240" clip-path="url(#clip-path)">
        <path id="Path_938442" data-name="Path 938442" d="M476.567,71.659c3.422-13.878-6.385-27.169-16.076-32.889a26.48,26.48,0,0,0-15.049-3.462c-.178-2.328-1.488-16.552-12.969-25.975a31.431,31.431,0,0,0-21.719-7.077c-15,.886-23.794,12.543-25.187,14.454-1.034-.406-14.188-5.3-25.452,3.742-8.564,6.876-12.527,18.993-10,30.712a19.321,19.321,0,0,0-13.907,6.5c-.968,1.1-6.839,8-5.117,17.351a19.069,19.069,0,0,0,13.1,14.8H460.441c1.678-.728,13.106-5.909,16.126-18.157" transform="translate(-304.551 -2.029)" fill="#fff"/>
        <path id="Path_938443" data-name="Path 938443" d="M458.389,87.962H342.138a.176.176,0,0,1-.051-.008,18.971,18.971,0,0,1-8.658-5.577,19.4,19.4,0,0,1-4.565-9.364c-1.647-8.946,3.531-15.655,5.157-17.5a19.364,19.364,0,0,1,13.824-6.549c-2.453-11.746,1.5-23.769,10.109-30.679a24.73,24.73,0,0,1,16.676-5.453,28.436,28.436,0,0,1,8.823,1.636C385.9,11.155,394.567.887,408.693.053a31.466,31.466,0,0,1,21.84,7.116c10.77,8.84,12.684,21.868,13.018,25.928a26.713,26.713,0,0,1,14.977,3.494,37.027,37.027,0,0,1,13.019,13.45c2.528,4.51,5.124,11.577,3.138,19.631l-.169-.042.169.042a25.518,25.518,0,0,1-8.623,13.49,31.9,31.9,0,0,1-7.6,4.785.174.174,0,0,1-.069.015m-116.225-.349H458.353c2.241-.978,13.094-6.268,15.993-18.024,3.252-13.186-5.814-26.688-16-32.7A26.41,26.41,0,0,0,443.4,33.453a.175.175,0,0,1-.182-.161c-.293-3.82-2.088-16.975-12.905-25.854A31.116,31.116,0,0,0,408.713.4c-14.13.835-22.751,11.22-25.056,14.383a.174.174,0,0,1-.2.06,28.229,28.229,0,0,0-8.831-1.66,24.389,24.389,0,0,0-16.447,5.376c-8.555,6.868-12.458,18.856-9.943,30.539a.175.175,0,0,1-.167.211,19.012,19.012,0,0,0-13.78,6.436c-1.6,1.813-6.694,8.413-5.076,17.2a18.778,18.778,0,0,0,12.956,14.662" transform="translate(-302.499 0)"/>
        <path id="Path_938444" data-name="Path 938444" d="M305.073,968.013l-.871-6.81s5.164-4.877,1.611-8.558c-2.565-2.657-6.5,1.487-9.745,1.876s-6.029,1.113-8.306,7.769-7.134,17.074-8.213,20.212L304,981.014Z" transform="translate(-257.386 -876.306)"/>
        <path id="Path_938445" data-name="Path 938445" d="M114.3,1302.365s-6.421-7.322-9.033-10.744a13.172,13.172,0,0,0-8.9-5.085c-2.039-.245-4.577-1.131-7.488-1.169a67.386,67.386,0,0,0-12.508,1.169,20.4,20.4,0,0,0-13.109,8.569l-7.3,10.68,8.282,4.042-2.293,18.54,44.591,0Z" transform="translate(-51.519 -1183.459)" fill="#5479f7"/>
        <path id="Path_938446" data-name="Path 938446" d="M20.067,1483.837l-8.531-2.885s-10.339,14.245-3.89,20.4,23.673-13.038,26.808-17.367c0,0,2.018.469,1.729-.866,0,0,2.45.9,2.45-.938,0,0,2.522.653,2.018-1.729,0,0,2.423,2.839,3.167,2.461,1.143-.581-.248-2.968-1.293-4.771s-4.68-6.264-12.683-1.369a64.01,64.01,0,0,0-9.776,7.068" transform="translate(-5.091 -1357.646)" fill="#fff"/>
        <path id="Path_938447" data-name="Path 938447" d="M8.921,1575.077a4.579,4.579,0,0,1-3.287-1.253c-2.694-2.569-2.872-6.96-.515-12.7A43.489,43.489,0,0,1,9.5,1553.2a.175.175,0,1,1,.283.205c-.1.141-10.176,14.192-3.91,20.167,1.68,1.6,4.283,1.537,7.736-.2a.174.174,0,1,1,.156.312,11.138,11.138,0,0,1-4.846,1.389" transform="translate(-3.198 -1429.995)"/>
        <path id="Path_938448" data-name="Path 938448" d="M65.092,1603.158a.175.175,0,0,1-.111-.309l9.215-7.571a.175.175,0,0,1,.222.27l-9.215,7.571a.174.174,0,0,1-.111.04" transform="translate(-59.77 -1468.767)"/>
        <path id="Path_938449" data-name="Path 938449" d="M332.373,1578.506h-.021a5.951,5.951,0,0,1-2.882-1.168.175.175,0,1,1,.211-.278,5.6,5.6,0,0,0,2.713,1.1.175.175,0,0,1-.021.348" transform="translate(-303.285 -1451.998)"/>
        <path id="Path_938450" data-name="Path 938450" d="M379.589,1571.62a.175.175,0,0,1-.088-.024,5.387,5.387,0,0,1-1.079-.831.175.175,0,0,1,.246-.248,5.03,5.03,0,0,0,1.009.777.175.175,0,0,1-.088.325" transform="translate(-348.373 -1445.961)"/>
        <path id="Path_938451" data-name="Path 938451" d="M411.849,1557.065a.174.174,0,0,1-.129-.056l-.885-.963a.175.175,0,0,1,.257-.236l.885.963a.175.175,0,0,1-.129.293" transform="translate(-378.222 -1432.413)"/>
        <path id="Path_938452" data-name="Path 938452" d="M438.09,1536.655a.174.174,0,0,1-.133-.061c-.124-.145-.222-.273-.317-.4-.115-.151-.234-.306-.409-.5a.175.175,0,0,1,.262-.232c.183.207.306.367.425.523.1.125.186.244.3.381a.175.175,0,0,1-.132.288" transform="translate(-402.528 -1413.677)"/>
        <path id="Path_938453" data-name="Path 938453" d="M642.34,1286.6l24.251-21.146s3.858-4.286,6.471-3.508c3.112.926-2.253,3.085-2.614,6.28a64.684,64.684,0,0,0-.241,7.471s-12.5,17.958-22.179,18.168c-3.616.078-5.689-7.264-5.689-7.264" transform="translate(-591.415 -1161.814)" fill="#fff"/>
        <path id="Path_938454" data-name="Path 938454" d="M891.478,1461.848a.175.175,0,0,1-.129-.292c1.84-2.039,6.675-7.466,6.947-8.084a.175.175,0,1,1,.319.141c-.344.782-6.326,7.423-7.007,8.177a.174.174,0,0,1-.13.058" transform="translate(-820.641 -1338.146)"/>
        <rect id="Rectangle_448094" data-name="Rectangle 448094" width="53.786" height="40.63" transform="translate(72.542 70.023)" fill="#e2eaff"/>
        <path id="Path_938455" data-name="Path 938455" d="M1012.495,945.14v-2.16a1.994,1.994,0,0,0-1.994-1.994H998.688a1.994,1.994,0,0,0-1.994,1.994v2.16H964.6v33.607a3.747,3.747,0,0,0,3.747,3.747h49.715V945.14Z" transform="translate(-888.123 -866.385)" fill="#fff"/>
        <path id="Path_938456" data-name="Path 938456" d="M1016.031,1028.885H966.317a3.926,3.926,0,0,1-3.922-3.922v-4.082a.175.175,0,0,1,.349,0v4.082a3.576,3.576,0,0,0,3.572,3.572h49.54V991.53h-3.785a.175.175,0,0,1,0-.349h3.959a.175.175,0,0,1,.175.175v37.354a.175.175,0,0,1-.175.175" transform="translate(-886.097 -912.6)"/>
        <path id="Path_938457" data-name="Path 938457" d="M1638.938,1051.087v32.78l5.011-32.78Z" transform="translate(-1509.003 -967.757)" fill="#fff"/>
        <path id="Path_938458" data-name="Path 938458" d="M1637.082,1081.866l-.347-.026v-32.954h5.389Zm0-32.631v30.307l4.633-30.307Z" transform="translate(-1506.975 -965.73)"/>
        <path id="Path_938459" data-name="Path 938459" d="M869.529,1272.141a17.4,17.4,0,0,0,2.983.417,7.731,7.731,0,0,0,3.491-.726c.654-.292.953-.916,1.34-1.5.04-.838.565-1.313.654-2.1.362-3.195,5.733-5.375,2.614-6.28-2.68-.778-6.471,3.508-6.471,3.508l-6.38,5.563c.072.4,1.377,1.028,1.769,1.121" transform="translate(-798.964 -1161.814)" fill="#fff"/>
        <path id="Path_938460" data-name="Path 938460" d="M942.508,1270.838a2.318,2.318,0,0,1-.267-.013.175.175,0,0,1,.048-.346c.134.018,3.286.392,3.974-4a7.729,7.729,0,0,1,2.49-4.017c.82-.837,1.269-1.327.951-1.655-.424-.437-1.249-.89-3.5.214a.175.175,0,0,1-.153-.314c1.871-.917,3.113-.962,3.908-.144.571.588-.1,1.274-.952,2.142a7.344,7.344,0,0,0-2.394,3.826c-.623,3.974-3.249,4.3-4.1,4.3" transform="translate(-867.402 -1160.093)"/>
        <path id="Path_938461" data-name="Path 938461" d="M762.087,1284.849a.175.175,0,0,1-.115-.306l14.589-12.72a15.389,15.389,0,0,1,3.583-2.9.175.175,0,0,1,.172.3,15.314,15.314,0,0,0-3.5,2.833l-.017.016-14.6,12.728a.174.174,0,0,1-.115.043" transform="translate(-701.508 -1168.304)"/>
        <path id="Path_938462" data-name="Path 938462" d="M365.869,1164.769l3.377.538s-.558,3.931-2.873,5.043c-3.94,1.893-15.112-5.69-15.112-5.69l5.515-.7a3.669,3.669,0,0,0,2.456-2.511l2.239-7.926,6.228,3.13Z" transform="translate(-323.413 -1062.074)" fill="#fff"/>
        <path id="Path_938463" data-name="Path 938463" d="M428.844,1052.5s-1.509-2.552-3.162-2.037c-2.519.785-2.356,5.291,1.795,5.074,0,0,4.91,6.28,9.622,4.537s1.256-12.363.342-14.184c0,0-5.968.543-6.726,2.943-.667,2.111.256,3.667-1.871,3.667" transform="translate(-390.408 -962.975)" fill="#fff"/>
        <path id="Path_938464" data-name="Path 938464" d="M433.323,1058.534c-3.907,0-7.451-4.21-7.962-4.843-2.25.084-3.285-1.164-3.5-2.372a2.657,2.657,0,0,1,1.736-3.046c1.6-.5,3.017,1.565,3.31,2.028,1.172-.028,1.214-.576,1.294-1.64a8.092,8.092,0,0,1,.315-1.9c.784-2.483,6.628-3.042,6.876-3.064a.176.176,0,0,1,.172.1c.737,1.469,3.1,8.546,1.618,12.3a3.5,3.5,0,0,1-2.056,2.124,5.156,5.156,0,0,1-1.8.321m-7.881-5.2a.175.175,0,0,1,.138.067c.048.062,4.888,6.159,9.423,4.481a3.162,3.162,0,0,0,1.853-1.925c1.406-3.565-.778-10.259-1.553-11.909-.838.093-5.8.729-6.456,2.809a7.677,7.677,0,0,0-.3,1.825c-.083,1.1-.148,1.965-1.739,1.965a.175.175,0,0,1-.15-.086c-.014-.024-1.458-2.428-2.959-1.959a2.316,2.316,0,0,0-1.5,2.651c.193,1.078,1.143,2.191,3.23,2.081h.009" transform="translate(-388.373 -960.947)"/>
        <path id="Path_938465" data-name="Path 938465" d="M444.578,1137.523a.174.174,0,0,1-.12-.048,2.506,2.506,0,0,0-2.183-.631.175.175,0,1,1-.068-.342,2.859,2.859,0,0,1,2.492.72.175.175,0,0,1-.12.3" transform="translate(-407.019 -1046.352)"/>
        <path id="Path_938466" data-name="Path 938466" d="M296.994,1558.768l-7.133,19.268H267.953a.735.735,0,0,0,0,1.469h43.221a1.281,1.281,0,0,0,1.2-.837l7.115-19.22a.979.979,0,0,0-.917-1.319H297.911a.978.978,0,0,0-.917.639" transform="translate(-246.033 -1434.601)"/>
        <path id="Path_938467" data-name="Path 938467" d="M1305.269,916.734V902.082h-9.346v14.652h-5.581L1300.6,927.91l10.255-11.175Z" transform="translate(-1188.043 -830.565)" fill="#5479f7"/>
        <path id="Path_938468" data-name="Path 938468" d="M1139.816,731.293v14.712h-9.346V731.293h-5.581l10.255-11.115,10.255,11.115Z" transform="translate(-1035.707 -663.083)" fill="#5479f7"/>
        <rect id="Rectangle_448095" data-name="Rectangle 448095" width="84.399" height="36.081" transform="translate(133.076 41.139)" fill="#e2eaff"/>
        <path id="Path_938469" data-name="Path 938469" d="M2179.131,280.264l3.729,10.9,2.564.5s-3.912,8.493-10.506,7.07-5.143-7.07-5.143-7.07l1.395-.113a1.35,1.35,0,0,0,1.2-1.683L2170.8,283.8s6.389-5.149,8.331-3.532" transform="translate(-1997.631 -257.755)" fill="#fff"/>
        <path id="Path_938470" data-name="Path 938470" d="M2174.318,297.126a7.105,7.105,0,0,1-1.5-.163,6.763,6.763,0,0,1-4.587-2.859,6.17,6.17,0,0,1-.688-4.425.175.175,0,0,1,.155-.131l1.395-.113a1.175,1.175,0,0,0,1.043-1.465l-1.568-6.072a.175.175,0,0,1,.06-.18c.266-.214,6.524-5.219,8.552-3.531a.174.174,0,0,1,.054.078l3.7,10.806,2.465.479a.175.175,0,0,1,.125.244c-.037.08-3.449,7.331-9.2,7.331m-6.465-7.24a5.9,5.9,0,0,0,.676,4.038,6.432,6.432,0,0,0,4.361,2.7c5.816,1.256,9.566-5.506,10.211-6.772l-2.339-.455a.174.174,0,0,1-.132-.115l-3.712-10.853c-1.518-1.148-6.184,2.059-7.985,3.493l1.54,5.963a1.524,1.524,0,0,1-1.353,1.9Z" transform="translate(-1995.565 -255.814)"/>
        <path id="Path_938471" data-name="Path 938471" d="M2078.991,110.083a5.307,5.307,0,0,1,3.365,3.1c.3.754.413,1.568.694,2.328a2.835,2.835,0,0,0,1.542,1.777c.382.137.8.146,1.19.245a2.31,2.31,0,0,1,1.684,1.6,1.818,1.818,0,0,1-.927,2.052,1.984,1.984,0,0,1-2.378,2.652,4.466,4.466,0,0,1-2.6,3.7,9.776,9.776,0,0,1-4.641.8,19.719,19.719,0,0,1-8.686-2.1,6.112,6.112,0,0,1-1.865-1.373,2.751,2.751,0,0,1-.7-2.147,7.3,7.3,0,0,1-2.685-2.577,3.1,3.1,0,0,1,.27-3.513c.7-.733,1.814-.951,2.522-1.678a6.579,6.579,0,0,0,1.142-2.359,5.76,5.76,0,0,1,1.907-2.646,4.411,4.411,0,0,1,3.826-.56,6.409,6.409,0,0,1,1.729,1c.563.377,1.274-.227,1.874-.372a5.278,5.278,0,0,1,2.738.062" transform="translate(-1899.049 -100.531)"/>
        <path id="Path_938472" data-name="Path 938472" d="M2129.739,198.88a7.636,7.636,0,0,1-2.312,3.159,5.185,5.185,0,0,1-3.7,1.112,5.99,5.99,0,0,1-4.612-4.255,17.078,17.078,0,0,1-.432-6.566s.942-3.31,3.4-4.4c.468,4.814,8.751,1.264,6.562,8.036,0,0,1.514-1.836,2.473-1.732a2.283,2.283,0,0,1,1.963,2.088,2.562,2.562,0,0,1-1.621,2.434,2.3,2.3,0,0,1-1.725.125" transform="translate(-1950.612 -173.03)" fill="#fff"/>
        <path id="Path_938473" data-name="Path 938473" d="M2122.194,201.326a4.536,4.536,0,0,1-.523-.03,6.094,6.094,0,0,1-4.757-4.373,17.432,17.432,0,0,1-.44-6.633.165.165,0,0,1,.006-.036c.04-.138.994-3.4,3.5-4.513a.175.175,0,0,1,.244.143c.2,2.015,1.806,2.468,3.51,2.948,1.251.352,2.544.716,3.115,1.783a3.727,3.727,0,0,1,.133,2.655c.55-.559,1.432-1.313,2.122-1.239a2.472,2.472,0,0,1,2.118,2.252,2.733,2.733,0,0,1-1.732,2.606,2.558,2.558,0,0,1-1.69.177,7.746,7.746,0,0,1-2.3,3.083,5.475,5.475,0,0,1-3.3,1.177m-5.373-10.992a17.1,17.1,0,0,0,.424,6.479c.626,1.874,2.25,3.879,4.466,4.137a5,5,0,0,0,3.572-1.077,7.465,7.465,0,0,0,2.257-3.087.174.174,0,0,1,.22-.1,2.123,2.123,0,0,0,1.6-.124,2.376,2.376,0,0,0,1.51-2.262,2.111,2.111,0,0,0-1.807-1.924c-.708-.075-1.915,1.179-2.319,1.67a.174.174,0,0,1-.3-.165,4.036,4.036,0,0,0,.1-3.1c-.5-.936-1.667-1.264-2.9-1.612-1.6-.45-3.4-.958-3.731-3.005-2.114,1.092-3.012,3.925-3.087,4.17" transform="translate(-1948.575 -171.002)"/>
        <path id="Path_938474" data-name="Path 938474" d="M2260.082,292.942a.175.175,0,0,1-.112-.308,4.637,4.637,0,0,0,.967-1.115.175.175,0,0,1,.3.184,4.986,4.986,0,0,1-1.04,1.2.174.174,0,0,1-.112.041" transform="translate(-2080.743 -268.331)"/>
        <path id="Path_938475" data-name="Path 938475" d="M1855.758,425.14a11.508,11.508,0,0,1,8.2-4.61c1.859-.171,4.19-.354,6.79-.486a5.944,5.944,0,0,0,.6,1.348,7.284,7.284,0,0,0,3.249,2.787,8.021,8.021,0,0,0,4.227.688,6.016,6.016,0,0,0,3.721-1.818,7.276,7.276,0,0,0,1.989-3.008,61.388,61.388,0,0,1,6.431.676,14.906,14.906,0,0,1,10.171,6.821c5.035,7.855,10.633,16.148,10.633,25.715,0,10.877-26.111,9.932-26.111,9.932H1860.2l-16.279-13.831s5.067-15.068,11.838-24.214" transform="translate(-1697.734 -386.74)" fill="#5479f7"/>
        <path id="Path_938476" data-name="Path 938476" d="M2147.407,790.8c.192,1.3-2.321,1.768-2.321,1.768H2137.3l-11.6-1.491s-.906-14.945,15.493-13.139c0,0,4.948,4.3,6.216,12.862" transform="translate(-1957.165 -716.124)" fill="#fff"/>
        <path id="Path_938477" data-name="Path 938477" d="M2143.078,790.717h-7.811l-11.6-1.491a.175.175,0,0,1-.152-.163c0-.063-.333-6.34,3.806-10.28,2.719-2.588,6.716-3.612,11.881-3.044a.175.175,0,1,1-.038.347c-5.057-.557-8.96.435-11.6,2.947-3.677,3.5-3.726,8.915-3.705,9.864l11.441,1.471h7.778a.175.175,0,0,1,0,.349" transform="translate(-1955.156 -714.098)"/>
        <path id="Path_938478" data-name="Path 938478" d="M2231.112,884.725a.175.175,0,0,1-.173-.149,4.471,4.471,0,0,1,.586-2.8,7.628,7.628,0,0,1,1.878-2.136,2.542,2.542,0,0,1,.58-.383.174.174,0,1,1,.139.32,2.22,2.22,0,0,0-.5.333,7.282,7.282,0,0,0-1.795,2.036,4.121,4.121,0,0,0-.544,2.576.175.175,0,0,1-.147.2l-.026,0" transform="translate(-2054.036 -809.539)"/>
        <path id="Path_938479" data-name="Path 938479" d="M2184.242,872.3l-.025,0a.175.175,0,0,1-.149-.2,14.394,14.394,0,0,1,.794-3.306,6.494,6.494,0,0,1,2-2.775.175.175,0,1,1,.213.277,6.148,6.148,0,0,0-1.885,2.628,14.018,14.018,0,0,0-.772,3.225.175.175,0,0,1-.173.15" transform="translate(-2010.914 -797.331)"/>
        <path id="Path_938480" data-name="Path 938480" d="M2145.636,860.283a.175.175,0,0,1-.173-.154,8.887,8.887,0,0,1,2.388-7.151.175.175,0,0,1,.238.256,8.528,8.528,0,0,0-2.279,6.854.175.175,0,0,1-.153.194h-.021" transform="translate(-1975.312 -785.312)"/>
        <path id="Path_938481" data-name="Path 938481" d="M1736.282,938.475h42.309a1.246,1.246,0,0,0,.708-.206,1.222,1.222,0,0,0,.46-1.44c-.5-1.046-1.53-1.415-3.055-1.415h-43.2l.56,1.524a2.366,2.366,0,0,0,2.216,1.537" transform="translate(-1596.074 -861.255)"/>
        <path id="Path_938482" data-name="Path 938482" d="M1653.092,713.756l-7.564-18.982a1.676,1.676,0,0,1-.029-1.212,1.621,1.621,0,0,1,1.516-1.05h26a3.7,3.7,0,0,1,3.487,2.464l7.031,19.854h-28.86a1.705,1.705,0,0,1-1.584-1.074" transform="translate(-1514.952 -637.61)"/>
        <path id="Path_938483" data-name="Path 938483" d="M2348.831,777.092h0l-18.917-.359a.175.175,0,0,1,0-.349h0l18.917.359a.175.175,0,0,1,0,.349" transform="translate(-2145.038 -714.832)"/>
        <path id="Path_938484" data-name="Path 938484" d="M2443.282,680.913a.175.175,0,0,1-.167-.124,31.548,31.548,0,0,0-2.8-6.528c-.325-.572-.629-.833-.953-.822a.175.175,0,1,1-.012-.349c.619-.017,1.019.56,1.268,1a31.878,31.878,0,0,1,2.828,6.6.175.175,0,0,1-.117.218.179.179,0,0,1-.051.007" transform="translate(-2245.807 -619.726)"/>
        <path id="Path_938485" data-name="Path 938485" d="M16.824,127.3a3.55,3.55,0,0,0,.057.426,14.412,14.412,0,0,0-3.854,1.9A3.532,3.532,0,1,0,8.411,134.9a14.43,14.43,0,0,0-1.38,4.073,3.57,3.57,0,0,0-.429,0,3.533,3.533,0,1,0,.891,6.995,14.427,14.427,0,0,0,1.9,3.856,3.532,3.532,0,1,0,5.268,4.619,14.4,14.4,0,0,0,4.07,1.38,3.58,3.58,0,0,0,0,.43,3.531,3.531,0,1,0,6.99-.892,14.407,14.407,0,0,0,3.854-1.9,3.532,3.532,0,1,0,4.616-5.273,14.428,14.428,0,0,0,1.379-4.073,3.534,3.534,0,1,0-.461-6.994,14.422,14.422,0,0,0-1.9-3.856,3.532,3.532,0,1,0-5.268-4.619,14.4,14.4,0,0,0-4.07-1.38,3.53,3.53,0,1,0-7.046.036M27.845,141.11A6.557,6.557,0,1,1,20.87,135a6.561,6.561,0,0,1,6.975,6.115" transform="translate(-3.042 -113.738)" fill="#00bdff"/>
        <path id="Path_938486" data-name="Path 938486" d="M419.2,4.176a1.872,1.872,0,0,0,.03.223,7.546,7.546,0,0,0-2.018,1,1.87,1.87,0,0,0-.159-.159,1.85,1.85,0,1,0-2.259,2.921,7.562,7.562,0,0,0-.722,2.133,1.883,1.883,0,0,0-.225,0,1.851,1.851,0,0,0,.244,3.693,1.883,1.883,0,0,0,.223-.03,7.556,7.556,0,0,0,1,2.02,1.879,1.879,0,0,0-.159.159,1.85,1.85,0,1,0,2.782,2.439,1.876,1.876,0,0,0,.137-.179,7.547,7.547,0,0,0,2.132.723,1.849,1.849,0,1,0,3.691-.019,1.875,1.875,0,0,0-.03-.223,7.541,7.541,0,0,0,2.018-1,1.85,1.85,0,1,0,2.418-2.762,7.554,7.554,0,0,0,.723-2.133A1.85,1.85,0,1,0,429,9.289a1.882,1.882,0,0,0-.223.03,7.554,7.554,0,0,0-1-2.02,1.849,1.849,0,1,0-2.623-2.6,1.823,1.823,0,0,0-.137.179,7.54,7.54,0,0,0-2.132-.723,1.849,1.849,0,1,0-3.691.019m5.772,7.234a3.434,3.434,0,1,1-3.653-3.2,3.437,3.437,0,0,1,3.653,3.2" transform="translate(-379.446 -2.029)" fill="#00bdff"/>
        <path id="Path_938487" data-name="Path 938487" d="M2462.631,1170.626a2.386,2.386,0,1,0,2.386-2.386,2.386,2.386,0,0,0-2.386,2.386" transform="translate(-2267.394 -1075.622)" fill="#fff"/>
        <path id="Path_938488" data-name="Path 938488" d="M2462.988,1171.159a2.561,2.561,0,1,1,2.561-2.561,2.564,2.564,0,0,1-2.561,2.561m0-4.772a2.211,2.211,0,1,0,2.211,2.212,2.214,2.214,0,0,0-2.211-2.212" transform="translate(-2265.365 -1073.595)"/>
        <path id="Path_938489" data-name="Path 938489" d="M2374.8,1170.626a2.386,2.386,0,1,0,2.386-2.386,2.386,2.386,0,0,0-2.386,2.386" transform="translate(-2186.523 -1075.622)" fill="#fff"/>
        <path id="Path_938490" data-name="Path 938490" d="M2375.155,1171.159a2.561,2.561,0,1,1,2.561-2.561,2.564,2.564,0,0,1-2.561,2.561m0-4.772a2.211,2.211,0,1,0,2.211,2.212,2.214,2.214,0,0,0-2.211-2.212" transform="translate(-2184.494 -1073.595)"/>
        <path id="Path_938491" data-name="Path 938491" d="M2286.962,1170.626a2.386,2.386,0,1,0,2.386-2.386,2.386,2.386,0,0,0-2.386,2.386" transform="translate(-2105.652 -1075.622)" fill="#fff"/>
        <path id="Path_938492" data-name="Path 938492" d="M2287.321,1171.159a2.561,2.561,0,1,1,2.561-2.561,2.564,2.564,0,0,1-2.561,2.561m0-4.772a2.211,2.211,0,1,0,2.211,2.212,2.214,2.214,0,0,0-2.211-2.212" transform="translate(-2103.624 -1073.595)"/>
        <path id="Path_938493" data-name="Path 938493" d="M2566.55,1028.847h-8.427a.175.175,0,0,1,0-.349h8.253v-14.26a.175.175,0,1,1,.349,0v14.435a.175.175,0,0,1-.175.175" transform="translate(-2355.154 -933.668)"/>
        <path id="Path_938494" data-name="Path 938494" d="M1943.94,1195.836h-13.047a.175.175,0,0,1,0-.349h13.047a.175.175,0,0,1,0,.349" transform="translate(-1777.652 -1100.709)"/>
        <path id="Path_938495" data-name="Path 938495" d="M2136.3,1195.836h-6.79a.175.175,0,0,1,0-.349h6.79a.175.175,0,1,1,0,.349" transform="translate(-1960.52 -1100.709)"/>
        <path id="Path_938496" data-name="Path 938496" d="M1938.138,1254.733h-7.244a.175.175,0,0,1,0-.349h7.244a.175.175,0,0,1,0,.349" transform="translate(-1777.652 -1154.937)"/>
        <path id="Path_938497" data-name="Path 938497" d="M2069.378,1254.733h-12.552a.175.175,0,0,1,0-.349h12.552a.175.175,0,1,1,0,.349" transform="translate(-1893.601 -1154.937)"/>
        <path id="Path_938498" data-name="Path 938498" d="M1733.731,1313.708h0l-41.453-.094a.175.175,0,0,1,0-.349h0l41.453.093a.175.175,0,0,1,0,.349" transform="translate(-1557.953 -1209.149)"/>
        <path id="Path_938499" data-name="Path 938499" d="M13.016,661.641H.175A.175.175,0,0,1,0,661.466V609.777a.175.175,0,0,1,.175-.175H19.623v-8.529a.175.175,0,0,1,.349,0v8.7a.174.174,0,0,1-.175.175H.349v51.34H13.016a.175.175,0,0,1,0,.349" transform="translate(0 -553.26)"/>
        <path id="Path_938500" data-name="Path 938500" d="M1025.767,1631.441H982.5a.175.175,0,0,1,0-.349h43.09v-16.4H967.467v16.573a.175.175,0,0,1-.175.175l-84.937,0a.175.175,0,0,1,0-.349l84.762,0v-16.573a.175.175,0,0,1,.175-.175h58.474a.175.175,0,0,1,.175.175v16.748a.175.175,0,0,1-.175.175" transform="translate(-812.242 -1486.359)"/>
        <rect id="Rectangle_448096" data-name="Rectangle 448096" width="58.474" height="20.309" transform="translate(159.088 120.775)" fill="#e2eaff"/>
        <path id="Path_938501" data-name="Path 938501" d="M1733.731,1450.534a.174.174,0,0,1-.175-.175v-4.506l-41.279-.093a.175.175,0,0,1,0-.349h0l41.453.094a.175.175,0,0,1,.174.175v4.68a.175.175,0,0,1-.175.175" transform="translate(-1557.953 -1330.819)"/>
      </g>
    </g>
  </g>
</svg>
