<svg xmlns="http://www.w3.org/2000/svg" width="82.58" height="72.186" viewBox="0 0 82.58 72.186">
  <g id="Group_1165405" data-name="Group 1165405" transform="translate(0 -6.001)">
    <path id="Path_938973" data-name="Path 938973" d="M68.26,49.8c6.655-.01,12.216-4.659,12.855-10.747S77.265,27.426,70.735,26.246a9.987,9.987,0,0,0,.113-1.412,10.533,10.533,0,0,0-5.569-9.127A12.526,12.526,0,0,0,53.9,15.322a15.455,15.455,0,0,0-12.112-8.2,16.222,16.222,0,0,0-13.984,5.1,13.741,13.741,0,0,0-12.412,2.775,11.273,11.273,0,0,0-3.744,11.224C5.078,27.324.5,32.847,1.095,38.962S7.244,49.774,13.924,49.8Z" transform="translate(0.197 0.189)" fill="#6bd4fa"/>
    <ellipse id="Ellipse_13546" data-name="Ellipse 13546" cx="17" cy="16.5" rx="17" ry="16.5" transform="translate(24.695 42.923)" fill="#fddc91"/>
    <circle id="Ellipse_13547" data-name="Ellipse 13547" cx="12" cy="12" r="12" transform="translate(29.69 47.923)" fill="#fcc447"/>
    <path id="Path_938974" data-name="Path 938974" d="M34.078,32A13.078,13.078,0,1,0,47.157,45.078,13.078,13.078,0,0,0,34.078,32Zm0,23.779a10.7,10.7,0,1,1,10.7-10.7,10.7,10.7,0,0,1-10.7,10.7Z" transform="translate(7.213 15.253)"/>
    <path id="Path_938975" data-name="Path 938975" d="M32.662,39.567a1.783,1.783,0,0,1,1.783,1.783,1.189,1.189,0,1,0,2.378,0,4.154,4.154,0,0,0-2.972-3.968v-.194a1.189,1.189,0,1,0-2.378,0v.194a4.149,4.149,0,0,0,1.189,8.129A1.783,1.783,0,1,1,30.878,47.3a1.189,1.189,0,1,0-2.378,0,4.154,4.154,0,0,0,2.972,3.968v.194a1.189,1.189,0,1,0,2.378,0v-.194a4.149,4.149,0,0,0-1.189-8.129,1.783,1.783,0,1,1,0-3.567Z" transform="translate(8.629 13.828)"/>
    <path id="Path_938976" data-name="Path 938976" d="M72.239,28.789c.009-.2.021-.4.021-.586-.008-7.661-5.78-13.869-12.9-13.877a11.917,11.917,0,0,0-4.694.971A16.744,16.744,0,0,0,41.923,6.118a16.113,16.113,0,0,0-14.34,5.839,13.375,13.375,0,0,0-12.676,3.553,15.787,15.787,0,0,0-4.455,13.248C3.595,30.771-.818,37.931.127,45.507s6.959,13.23,14.066,13.227H22c.655,10.94,9.1,19.453,19.291,19.453s18.635-8.513,19.291-19.453h7.805c7.089,0,13.088-5.622,14.057-13.171S79.059,30.856,72.239,28.789Zm-30.948,46.6c-9.264,0-16.774-8.077-16.774-18.041s7.51-18.041,16.774-18.041,16.774,8.077,16.774,18.041S50.551,75.375,41.291,75.386Zm27.1-19.428H60.58c-.655-10.94-9.1-19.453-19.291-19.453S22.654,45.018,22,55.958H14.194A11.606,11.606,0,0,1,3.609,48.581,13.23,13.23,0,0,1,5.523,35.173a11.094,11.094,0,0,1,12.155-3.623,1.275,1.275,0,0,0,1.618-.908,1.41,1.41,0,0,0-.844-1.74,13.241,13.241,0,0,0-4.258-.7c-.406,0-.805.029-1.2.065a12.9,12.9,0,0,1-.088-1.453c.008-6.894,5.2-12.481,11.613-12.49a10.283,10.283,0,0,1,1.315.1,18.9,18.9,0,0,0-2.605,9.613,1.294,1.294,0,1,0,2.581,0C25.807,15.61,32.162,8.775,40,8.775S54.194,15.61,54.194,24.04a1.294,1.294,0,1,0,2.581,0,19.152,19.152,0,0,0-1.049-6.221,9.531,9.531,0,0,1,3.63-.717c5.7.007,10.316,4.973,10.323,11.1v.071c-.425-.042-.853-.071-1.29-.071a13.24,13.24,0,0,0-4.258.694,1.41,1.41,0,0,0-.844,1.74,1.275,1.275,0,0,0,1.618.908,11.1,11.1,0,0,1,12.143,3.633,13.23,13.23,0,0,1,1.912,13.4A11.608,11.608,0,0,1,68.388,55.958Z" transform="translate(0 0)"/>
  </g>
</svg>
