<svg xmlns="http://www.w3.org/2000/svg" width="82.58" height="82.58" viewBox="0 0 82.58 82.58">
  <g id="Group_1165404" data-name="Group 1165404" transform="translate(-31.051)">
    <path id="Path_938950" data-name="Path 938950" d="M69.618,7.5h71.353V83.38H69.618Z" transform="translate(-32.953 -6.41)" fill="#e9f1ff"/>
    <path id="Path_938951" data-name="Path 938951" d="M415.824,186.006a4.521,4.521,0,0,0,4.521-4.521V131.751h-4.522v49.737l-4.521-.006v.006A4.518,4.518,0,0,0,415.824,186.006Z" transform="translate(-307.806 -104.518)" fill="#fac600"/>
    <path id="Path_938952" data-name="Path 938952" d="M139.36,83.373V34.589H89.184l-5.99-5.058H79.258V7.5H69.617V83.38H139.36v-.007Z" transform="translate(-32.952 -6.41)" fill="#d7e4f7"/>
    <path id="Path_938953" data-name="Path 938953" d="M100.68,38.564h18.086V56.65H100.68Z" transform="translate(-55.838 -32.951)" fill="#77d4f5"/>
    <path id="Path_938954" data-name="Path 938954" d="M100.68,56.65h8.645l-2.917-2.917h-2.971V38.564H100.68Z" transform="translate(-56.445 -32.951)" fill="#68b3f3"/>
    <path id="Path_938955" data-name="Path 938955" d="M114.43,212.51H44.391c-3.223,0-5.836-2.024-5.836-4.521V162.773h17.51l5.836,4.521h46.692v40.694C108.593,210.485,111.206,212.51,114.43,212.51Z" transform="translate(-6.412 -131.024)" fill="#ffe07d"/>
    <path id="Path_938956" data-name="Path 938956" d="M45.833,207.988V162.773H38.555v45.215a4.521,4.521,0,0,0,4.521,4.521h7.278A4.521,4.521,0,0,1,45.833,207.988Z" transform="translate(-6.412 -131.024)" fill="#ffd064"/>
    <circle id="Ellipse_13544" data-name="Ellipse 13544" cx="2.261" cy="2.261" r="2.261" transform="translate(52.713 10.135)" fill="#fed2a4"/>
    <path id="Path_938957" data-name="Path 938957" d="M140.785,105.21h-9.043v-.663a3.859,3.859,0,0,1,3.859-3.859h1.325a3.859,3.859,0,0,1,3.859,3.859Z" transform="translate(-81.595 -84.346)" fill="#ff5576"/>
    <path id="Path_938958" data-name="Path 938958" d="M170.57,318.114h20.347v15.834H170.57Z" transform="translate(-111.519 -265.453)" fill="#82d65f"/>
    <path id="Path_938959" data-name="Path 938959" d="M170.57,318.114h4.367v15.834H170.57Z" transform="translate(-113.53 -265.453)" fill="#77bf51"/>
    <circle id="Ellipse_13545" data-name="Ellipse 13545" cx="2.261" cy="2.261" r="2.261" transform="translate(67.186 56.289)" fill="#77bf51"/>
    <g id="Group_1165400" data-name="Group 1165400" transform="translate(62.536 39.443)">
      <path id="Path_938960" data-name="Path 938960" d="M207.347,251.661h-4.556V247.14a2.243,2.243,0,1,0-4.487,0v4.521h-4.556V247.14a6.8,6.8,0,0,1,13.6,0Z" transform="translate(-193.748 -240.34)" fill="#e9f1ff"/>
    </g>
    <g id="Group_1165401" data-name="Group 1165401" transform="translate(62.297 39.443)">
      <path id="Path_938961" data-name="Path 938961" d="M202,240.5a6.8,6.8,0,0,0-8.255,6.643v4.521h2.911v-4.521A6.811,6.811,0,0,1,202,240.5Z" transform="translate(-193.748 -240.339)" fill="#d7e4f7"/>
      <path id="Path_938962" data-name="Path 938962" d="M251.916,271.639a2.234,2.234,0,0,0-1.456.538,2.239,2.239,0,0,1,.788,1.706V278.4h2.911v-4.521A2.246,2.246,0,0,0,251.916,271.639Z" transform="translate(-242.205 -267.083)" fill="#d7e4f7"/>
    </g>
    <g id="Group_1165403" data-name="Group 1165403" transform="translate(31.051 0)">
      <path id="Path_938963" data-name="Path 938963" d="M249.583,64.309a1.092,1.092,0,1,1,1.092-1.092A1.092,1.092,0,0,1,249.583,64.309Z" transform="translate(-208.292 -53.083)"/>
      <path id="Path_938964" data-name="Path 938964" d="M249.583,95.372a1.092,1.092,0,1,1,1.092-1.092A1.092,1.092,0,0,1,249.583,95.372Z" transform="translate(-208.292 -78.114)"/>
      <path id="Path_938965" data-name="Path 938965" d="M249.583,126.434a1.092,1.092,0,1,1,1.092-1.092A1.092,1.092,0,0,1,249.583,126.434Z" transform="translate(-208.292 -104.151)"/>
      <g id="Group_1165402" data-name="Group 1165402" transform="translate(0 0)">
        <path id="Path_938966" data-name="Path 938966" d="M112.255,20.041h-4.326V13.867a1.388,1.388,0,0,0-2.753,0V75.154h-2.948V31.266a1.3,1.3,0,0,0-1.377-1.21H69.64a1.22,1.22,0,1,0,0,2.419H99.474V76.368a5.71,5.71,0,0,0,1.474,3.789H38.129a4.093,4.093,0,0,1-4.325-3.8V27.464l15.167.007,5.29,4.65a1.479,1.479,0,0,0,.974.355h8.4a1.22,1.22,0,1,0,0-2.419H55.806l-2.941-2.585H66.64a1.3,1.3,0,0,0,1.377-1.21V6.22a1.3,1.3,0,0,0-1.377-1.21H43.832a1.3,1.3,0,0,0-1.377,1.21V25.044H39.508V2.419h65.668V8.6a1.388,1.388,0,0,0,2.753,0V1.21A1.3,1.3,0,0,0,106.552,0H38.131a1.3,1.3,0,0,0-1.377,1.21V25.044H32.428a1.3,1.3,0,0,0-1.377,1.21v50.1c0,3.429,3.175,6.22,7.078,6.22l68.423,0c3.9,0,7.079-2.79,7.079-6.22V21.251a1.3,1.3,0,0,0-1.377-1.21ZM45.209,7.43H65.263V25.051H49.681c-.049,0-.1-.007-.147-.007H45.209Zm65.669,68.93a4.082,4.082,0,0,1-4.244,3.8l-.082,0a4.614,4.614,0,0,1-3.058-1.114,3.751,3.751,0,0,1-1.042-1.47h4.1a1.3,1.3,0,0,0,1.377-1.21v-53.9h2.949Z" transform="translate(-31.051 0)"/>
        <path id="Path_938967" data-name="Path 938967" d="M134.372,73.353a1.092,1.092,0,0,0,1.092-1.092,5.5,5.5,0,0,0-2.724-5.083,3.352,3.352,0,1,0-5.779,0,5.5,5.5,0,0,0-2.724,5.083,1.092,1.092,0,0,0,1.092,1.092ZM129.85,64.31a1.169,1.169,0,1,1-1.169,1.169A1.17,1.17,0,0,1,129.85,64.31Zm-.663,4.522h1.325a2.772,2.772,0,0,1,2.734,2.338h-6.793A2.772,2.772,0,0,1,129.188,68.832Z" transform="translate(-106.398 -53.084)"/>
        <path id="Path_938968" data-name="Path 938968" d="M298.731,62.126H280.645a1.092,1.092,0,0,0,0,2.183h18.086a1.092,1.092,0,0,0,0-2.183Z" transform="translate(-226.285 -53.083)"/>
        <path id="Path_938969" data-name="Path 938969" d="M298.731,93.189H280.645a1.092,1.092,0,0,0,0,2.183h18.086a1.092,1.092,0,0,0,0-2.183Z" transform="translate(-226.285 -78.114)"/>
        <path id="Path_938970" data-name="Path 938970" d="M298.731,124.241H280.645a1.092,1.092,0,0,0,0,2.183h18.086a1.092,1.092,0,0,0,0-2.183Z" transform="translate(-226.285 -104.142)"/>
        <path id="Path_938971" data-name="Path 938971" d="M220.781,348.263a1.092,1.092,0,0,0,1.092-1.092v-1.352a3.352,3.352,0,1,0-2.183,0v1.352A1.092,1.092,0,0,0,220.781,348.263Zm0-6.782a1.169,1.169,0,1,1-1.169,1.169A1.17,1.17,0,0,1,220.781,341.48Z" transform="translate(-182.409 -283.84)"/>
        <path id="Path_938972" data-name="Path 938972" d="M174.336,232.839a7.9,7.9,0,0,0-7.891,7.891v3.429h-2.282a1.092,1.092,0,0,0-1.092,1.092v15.834a1.092,1.092,0,0,0,1.092,1.092h20.347a1.092,1.092,0,0,0,1.092-1.092v-7.019a1.092,1.092,0,1,0-2.183,0v5.927H165.254V246.343h18.163v2.965a1.092,1.092,0,1,0,2.183,0v-4.057a1.092,1.092,0,0,0-1.092-1.092h-2.282V240.73A7.9,7.9,0,0,0,174.336,232.839Zm-5.708,7.891a5.708,5.708,0,0,1,11.416,0v3.429h-2.373V240.73a3.335,3.335,0,0,0-6.67,0v3.429h-2.373Zm6.859,3.429h-2.3V240.73a1.152,1.152,0,0,1,2.3,0Z" transform="translate(-136.206 -192.905)"/>
      </g>
    </g>
  </g>
</svg>
