<svg xmlns="http://www.w3.org/2000/svg" width="100" height="100" viewBox="0 0 100 100">
  <g id="Group_1165083" data-name="Group 1165083" transform="translate(-637 -6992)">
    <g id="Group_1098742" data-name="Group 1098742" transform="translate(637.242 6992)">
      <rect id="Rectangle_400898" data-name="Rectangle 400898" width="100" height="100" rx="50" transform="translate(-0.242)" fill="#fff" opacity="0.859"/>
      <g id="Rectangle_400907" data-name="Rectangle 400907" transform="translate(-0.242)" fill="none" stroke="#00bdff" stroke-linecap="round" stroke-width="3" stroke-dasharray="0 7">
        <rect width="100" height="100" rx="50" stroke="none"/>
        <rect x="1.5" y="1.5" width="97" height="97" rx="48.5" fill="none"/>
      </g>
    </g>
    <g id="Group_1107006" data-name="Group 1107006" transform="translate(645.398 7000.157)">
      <rect id="Rectangle_400898-2" data-name="Rectangle 400898" width="84" height="84" rx="42" transform="translate(-0.399 -0.157)" fill="#6003fe" opacity="0.859"/>
      <rect id="Rectangle_400907-2" data-name="Rectangle 400907" width="84" height="84" rx="42" transform="translate(-0.398 -0.157)" fill="none"/>
    </g>
    <g id="network" transform="translate(663.245 7017.823)">
      <g id="Group_1165422" data-name="Group 1165422" transform="translate(2.739 2.739)">
        <path id="Path_939115" data-name="Path 939115" d="M56.306,18v4.435c0,1.227-2.979,2.218-6.653,2.218S43,23.662,43,22.435V18c0,1.227,2.979,2.218,6.653,2.218S56.306,19.227,56.306,18Z" transform="translate(-13.431 -6.912)" fill="#ffde55"/>
        <path id="Path_939116" data-name="Path 939116" d="M56.306,12v4.435c0,1.227-2.979,2.218-6.653,2.218S43,17.662,43,16.435V12c0,1.227,2.979,2.218,6.653,2.218S56.306,13.227,56.306,12Z" transform="translate(-13.431 -5.347)" fill="#ffde55"/>
        <path id="Path_939117" data-name="Path 939117" d="M56.306,6v4.435c0,1.227-2.979,2.218-6.653,2.218S43,11.662,43,10.435V6c0,1.227,2.979,2.218,6.653,2.218S56.306,7.227,56.306,6Z" transform="translate(-13.431 -3.782)" fill="#ffde55"/>
        <ellipse id="Ellipse_13552" data-name="Ellipse 13552" cx="6.5" cy="2" rx="6.5" ry="2" transform="translate(29.437 0.438)" fill="#ffde55"/>
        <path id="Path_939118" data-name="Path 939118" d="M16.306,18v4.435c0,1.227-2.979,2.218-6.653,2.218S3,23.662,3,22.435V18c0,1.227,2.979,2.218,6.653,2.218S16.306,19.227,16.306,18Z" transform="translate(-3 -6.912)" fill="#ffde55"/>
        <path id="Path_939119" data-name="Path 939119" d="M16.306,14.957v1.478c0,1.227-2.979,2.218-6.653,2.218S3,17.662,3,16.435V12c0,1.227,2.979,2.218,6.653,2.218s6.653-.991,6.653-2.218Z" transform="translate(-3 -5.347)" fill="#ffde55"/>
        <path id="Path_939120" data-name="Path 939120" d="M16.306,6v4.435c0,1.227-2.979,2.218-6.653,2.218S3,11.662,3,10.435V6C3,7.227,5.979,8.218,9.653,8.218S16.306,7.227,16.306,6Z" transform="translate(-3 -3.782)" fill="#ffde55"/>
        <ellipse id="Ellipse_13553" data-name="Ellipse 13553" cx="6.5" cy="2" rx="6.5" ry="2" transform="translate(0.437 0.438)" fill="#ffde55"/>
      </g>
      <path id="Path_939121" data-name="Path 939121" d="M18.392,6v4.435c0,1.227-2.24,2.218-5.914,2.218-.525,0-1.02-.022-1.478-.059,2.787-.229,4.435-1.109,4.435-2.159V7.959C17.32,7.582,18.392,6.85,18.392,6Z" transform="translate(-2.347 -1.043)" fill="#ffcd00"/>
      <path id="Path_939122" data-name="Path 939122" d="M18.392,12v4.435c0,1.227-2.24,2.218-5.914,2.218-.525,0-1.02-.022-1.478-.059,2.787-.229,4.435-1.109,4.435-2.159V13.959C17.32,13.582,18.392,12.85,18.392,12Z" transform="translate(-2.347 -2.608)" fill="#ffcd00"/>
      <path id="Path_939123" data-name="Path 939123" d="M18.392,18v4.435c0,1.227-2.24,2.218-5.914,2.218-.525,0-1.02-.022-1.478-.059,2.787-.229,4.435-1.109,4.435-2.159V19.959C17.32,19.582,18.392,18.85,18.392,18Z" transform="translate(-2.347 -4.172)" fill="#ffcd00"/>
      <path id="Path_939124" data-name="Path 939124" d="M18.392,5.218c0,1.227-2.24,2.218-5.914,2.218-.525,0-1.02-.022-1.478-.059,2.787-.229,4.435-1.109,4.435-2.159S13.787,3.288,11,3.059c.458-.037.954-.059,1.478-.059C16.152,3,18.392,3.991,18.392,5.218Z" transform="translate(-2.347 -0.261)" fill="#ffcd00"/>
      <path id="Path_939125" data-name="Path 939125" d="M58.392,6v4.435c0,1.227-2.24,2.218-5.914,2.218-.525,0-1.02-.022-1.478-.059,2.787-.229,4.435-1.109,4.435-2.159V7.959C57.32,7.582,58.392,6.85,58.392,6Z" transform="translate(-12.778 -1.043)" fill="#ffcd00"/>
      <path id="Path_939126" data-name="Path 939126" d="M58.392,12v4.435c0,1.227-2.24,2.218-5.914,2.218-.525,0-1.02-.022-1.478-.059,2.787-.229,4.435-1.109,4.435-2.159V13.959C57.32,13.582,58.392,12.85,58.392,12Z" transform="translate(-12.778 -2.608)" fill="#ffcd00"/>
      <path id="Path_939127" data-name="Path 939127" d="M58.392,18v4.435c0,1.227-2.24,2.218-5.914,2.218-.525,0-1.02-.022-1.478-.059,2.787-.229,4.435-1.109,4.435-2.159V19.959C57.32,19.582,58.392,18.85,58.392,18Z" transform="translate(-12.778 -4.172)" fill="#ffcd00"/>
      <path id="Path_939128" data-name="Path 939128" d="M58.392,5.218c0,1.227-2.24,2.218-5.914,2.218-.525,0-1.02-.022-1.478-.059,2.787-.229,4.435-1.109,4.435-2.159S53.787,3.288,51,3.059c.458-.037.954-.059,1.478-.059C56.152,3,58.392,3.991,58.392,5.218Z" transform="translate(-12.778 -0.261)" fill="#ffcd00"/>
      <path id="Path_939129" data-name="Path 939129" d="M31.091,21.087a2.218,2.218,0,0,1-1.567,3.785H16.218a2.218,2.218,0,1,1,0-4.435h.739a4.435,4.435,0,0,1,8.161-2.4,2.16,2.16,0,0,1,1.8-.525,2.245,2.245,0,0,1,1.486,1,2.059,2.059,0,0,1,.251,1.929h.872a2.213,2.213,0,0,1,1.567.651Z" transform="translate(-3.129 -3.652)" fill="#00d7df"/>
      <path id="Path_939130" data-name="Path 939130" d="M35.781,23.175a2.218,2.218,0,0,1-2.218,2.218H31.345a2.218,2.218,0,1,0,0-4.435h-.872a2.059,2.059,0,0,0-.251-1.929,2.507,2.507,0,0,0-.732-.717,2.136,2.136,0,0,1,1.464-.281,2.245,2.245,0,0,1,1.486,1,2.059,2.059,0,0,1,.251,1.929h.872a2.218,2.218,0,0,1,2.218,2.218Z" transform="translate(-7.169 -4.172)" fill="#009698"/>
      <path id="Path_939131" data-name="Path 939131" d="M28.388,27.872A2.346,2.346,0,0,1,26,25.654a1.608,1.608,0,0,1,.007-.185,2.222,2.222,0,0,1,2.21-2.033h.872a2.059,2.059,0,0,1,.251-1.929,2.245,2.245,0,0,1,1.486-1,2.183,2.183,0,0,1,1.079.1v.007a2.065,2.065,0,0,1,.717.421,4.435,4.435,0,0,1,8.161,2.4h.569a2.325,2.325,0,0,1,2.38,2.4,2.222,2.222,0,0,1-2.21,2.033Z" transform="translate(-6.259 -4.434)" fill="#57a4ff"/>
      <path id="Path_939132" data-name="Path 939132" d="M46.866,25.838a2.222,2.222,0,0,1-2.21,2.033H41.7a2.222,2.222,0,0,0,2.21-2.033,2.325,2.325,0,0,0-2.38-2.4H40.96a4.435,4.435,0,0,0-2.95-4.177A4.217,4.217,0,0,1,39.481,19a4.435,4.435,0,0,1,4.435,4.435h.569a2.325,2.325,0,0,1,2.38,2.4Z" transform="translate(-9.391 -4.433)" fill="#006df0"/>
      <path id="Path_939133" data-name="Path 939133" d="M56.306,52v1.478a1.483,1.483,0,0,1-1.478,1.478H44.478A1.483,1.483,0,0,1,43,53.478V52Z" transform="translate(-10.692 -13.039)" fill="#ff7956"/>
      <path id="Path_939134" data-name="Path 939134" d="M56.306,43.478v5.914H43V43.478A1.483,1.483,0,0,1,44.478,42H54.828A1.483,1.483,0,0,1,56.306,43.478Z" transform="translate(-10.692 -10.431)" fill="#00d7df"/>
      <path id="Path_939135" data-name="Path 939135" d="M52.407,56l1.464,3.7H48.09L49.554,56Z" transform="translate(-12.019 -14.082)" fill="#898890"/>
      <path id="Path_939136" data-name="Path 939136" d="M16.306,52v1.478a1.483,1.483,0,0,1-1.478,1.478H4.478A1.483,1.483,0,0,1,3,53.478V52Z" transform="translate(-0.261 -13.039)" fill="#ff7956"/>
      <path id="Path_939137" data-name="Path 939137" d="M16.306,43.478v5.914H3V43.478A1.483,1.483,0,0,1,4.478,42H14.828A1.483,1.483,0,0,1,16.306,43.478Z" transform="translate(-0.261 -10.431)" fill="#00d7df"/>
      <path id="Path_939138" data-name="Path 939138" d="M12.407,56l1.464,3.7H8.09L9.554,56Z" transform="translate(-1.588 -14.082)" fill="#898890"/>
      <path id="Path_939139" data-name="Path 939139" d="M19.435,52v1.478a1.483,1.483,0,0,1-1.478,1.478H15a1.483,1.483,0,0,0,1.478-1.478V52Z" transform="translate(-3.39 -13.039)" fill="#ff5023"/>
      <path id="Path_939140" data-name="Path 939140" d="M19.435,43.478v5.914H16.478V43.478A1.483,1.483,0,0,0,15,42h2.957a1.483,1.483,0,0,1,1.478,1.478Z" transform="translate(-3.39 -10.431)" fill="#009698"/>
      <path id="Path_939141" data-name="Path 939141" d="M14.611,59.7H12.394L10.93,56h2.218Z" transform="translate(-2.329 -14.082)" fill="#57565c"/>
      <path id="Path_939142" data-name="Path 939142" d="M59.435,52v1.478a1.483,1.483,0,0,1-1.478,1.478H55a1.483,1.483,0,0,0,1.478-1.478V52Z" transform="translate(-13.821 -13.039)" fill="#ff5023"/>
      <path id="Path_939143" data-name="Path 939143" d="M59.435,43.478v5.914H56.478V43.478A1.483,1.483,0,0,0,55,42h2.957A1.483,1.483,0,0,1,59.435,43.478Z" transform="translate(-13.821 -10.431)" fill="#009698"/>
      <path id="Path_939144" data-name="Path 939144" d="M54.611,59.7H52.394L50.93,56h2.218Z" transform="translate(-12.76 -14.082)" fill="#57565c"/>
      <path id="Path_939145" data-name="Path 939145" d="M54.567,41H44.218A2.224,2.224,0,0,0,42,43.218V50.61a2.224,2.224,0,0,0,2.218,2.218h2.654l-1.057,2.683a.739.739,0,0,0,.687,1.013h5.781a.739.739,0,0,0,.687-1.013l-1.057-2.683h2.654a2.224,2.224,0,0,0,2.218-2.218V43.218A2.224,2.224,0,0,0,54.567,41ZM47.589,55.045l.88-2.218h1.848l.88,2.218Zm7.718-4.435a.739.739,0,0,1-.739.739H44.218a.739.739,0,0,1-.739-.739v-.739H55.306Zm0-2.218H43.478V43.218a.739.739,0,0,1,.739-.739H54.567a.739.739,0,0,1,.739.739Z" transform="translate(-10.431 -10.17)"/>
      <path id="Path_939146" data-name="Path 939146" d="M14.567,41H4.218A2.224,2.224,0,0,0,2,43.218V50.61a2.224,2.224,0,0,0,2.218,2.218H6.871L5.814,55.511A.739.739,0,0,0,6.5,56.524h5.781a.739.739,0,0,0,.687-1.013l-1.057-2.683h2.654a2.224,2.224,0,0,0,2.218-2.218V43.218A2.224,2.224,0,0,0,14.567,41ZM7.589,55.045l.88-2.218h1.848l.88,2.218Zm7.718-4.435a.739.739,0,0,1-.739.739H4.218a.739.739,0,0,1-.739-.739v-.739H15.306Zm0-2.218H3.478V43.218a.739.739,0,0,1,.739-.739H14.567a.739.739,0,0,1,.739.739Z" transform="translate(0 -10.17)"/>
      <path id="Path_939147" data-name="Path 939147" d="M38.961,2c-3.563,0-7.392.924-7.392,2.957v9.085a5.373,5.373,0,0,0-1.478-.214,5.149,5.149,0,0,0-2.957.939V7.914a.739.739,0,0,1,.739-.739h2.218V5.7H27.873a2.224,2.224,0,0,0-2.218,2.218V14.16A2.944,2.944,0,0,0,23.9,13.125a2.871,2.871,0,0,0-1.2.067V7.914A2.224,2.224,0,0,0,20.481,5.7H18.263V7.175h2.218a.739.739,0,0,1,.739.739v4.635a5.149,5.149,0,0,0-2.957-.939,5.373,5.373,0,0,0-1.478.214V4.957C16.785,2.924,12.955,2,9.392,2S2,2.924,2,4.957V18.263C2,20.3,5.829,21.22,9.392,21.22c.562,0,1.116-.03,1.663-.081a2.945,2.945,0,0,0,2.033.821h2.218v3.7a.739.739,0,0,1-.739.739h-3.7a2.224,2.224,0,0,0-2.218,2.218v.739h1.478v-.739a.739.739,0,0,1,.739-.739h3.7a2.224,2.224,0,0,0,2.218-2.218v-3.7H19.12a2.883,2.883,0,0,0,.658,1.19,3.2,3.2,0,0,0,2.351,1.028h9.44v1.478a2.224,2.224,0,0,0,2.218,2.218h3.7a.739.739,0,0,1,.739.739v.739H39.7v-.739a2.224,2.224,0,0,0-2.218-2.218h-3.7a.739.739,0,0,1-.739-.739V24.177h2.218a2.957,2.957,0,0,0,2.95-2.713c.007-.089-.007-.17-.007-.259.244.007.5.015.754.015,3.563,0,7.392-.924,7.392-2.957V4.957C46.354,2.924,42.524,2,38.961,2ZM9.392,3.478c3.881,0,5.914,1.1,5.914,1.478S13.273,6.435,9.392,6.435s-5.914-1.1-5.914-1.478S5.511,3.478,9.392,3.478ZM3.478,6.82A13.946,13.946,0,0,0,9.392,7.914,13.946,13.946,0,0,0,15.306,6.82V9.392c0,.377-2.033,1.478-5.914,1.478s-5.914-1.1-5.914-1.478Zm0,4.435a13.946,13.946,0,0,0,5.914,1.094,13.946,13.946,0,0,0,5.914-1.094v1.286A5.15,5.15,0,0,0,13.488,14.8a15.672,15.672,0,0,1-4.1.5c-3.881,0-5.914-1.1-5.914-1.478ZM10.131,19a2.891,2.891,0,0,0,.1.717c-.274.015-.554.022-.835.022-3.881,0-5.914-1.1-5.914-1.478V15.69a13.946,13.946,0,0,0,5.914,1.094c.643,0,1.271-.037,1.878-.1A2.943,2.943,0,0,0,10.131,19ZM19.1,20.481h-6.01a1.478,1.478,0,0,1,0-2.957h.739a.739.739,0,0,0,.739-.739,3.7,3.7,0,0,1,6.8-2,.739.739,0,0,0,1.109.155,1.416,1.416,0,0,1,1.2-.347,1.5,1.5,0,0,1,.976.673c.015.022.022.044.037.067a2.239,2.239,0,0,0-.229.015,3,3,0,0,0-2,1.323,2.922,2.922,0,0,0-.5,1.6,2.957,2.957,0,0,0-2.092.865,3.024,3.024,0,0,0-.769,1.353Zm17.209,1.782a1.466,1.466,0,0,1-1.042.436H22.129a1.74,1.74,0,0,1-1.264-.554,1.356,1.356,0,0,1-.377-1.05,1.441,1.441,0,0,1,.429-.917,1.466,1.466,0,0,1,1.042-.436h.872a.732.732,0,0,0,.695-.983,1.317,1.317,0,0,1,.17-1.271,1.512,1.512,0,0,1,.991-.68,1.438,1.438,0,0,1,1.19.347A.739.739,0,0,0,26.986,17a3.7,3.7,0,0,1,6.8,2,.739.739,0,0,0,.739.739H35.1a1.74,1.74,0,0,1,1.264.554,1.356,1.356,0,0,1,.377,1.05A1.441,1.441,0,0,1,36.307,22.262Zm8.568-4c0,.377-2.033,1.478-5.914,1.478-.429,0-.828-.015-1.212-.044a3.053,3.053,0,0,0-.3-.407,3.243,3.243,0,0,0-2.232-1.028,5.019,5.019,0,0,0-.761-2.033,17.09,17.09,0,0,0,4.509.554,13.946,13.946,0,0,0,5.914-1.094Zm0-4.435c0,.377-2.033,1.478-5.914,1.478s-5.914-1.1-5.914-1.478V11.255a13.946,13.946,0,0,0,5.914,1.094,13.946,13.946,0,0,0,5.914-1.094Zm0-4.435c0,.377-2.033,1.478-5.914,1.478s-5.914-1.1-5.914-1.478V6.82a13.946,13.946,0,0,0,5.914,1.094A13.946,13.946,0,0,0,44.875,6.82ZM38.961,6.435c-3.881,0-5.914-1.1-5.914-1.478s2.033-1.478,5.914-1.478,5.914,1.1,5.914,1.478S42.842,6.435,38.961,6.435Z" transform="translate(0)"/>
      <path id="Path_939148" data-name="Path 939148" d="M11,46h1.478v1.478H11Z" transform="translate(-2.347 -11.474)"/>
      <path id="Path_939149" data-name="Path 939149" d="M15,46h1.478v1.478H15Z" transform="translate(-3.39 -11.474)"/>
      <path id="Path_939150" data-name="Path 939150" d="M7,46H8.478v1.478H7Z" transform="translate(-1.304 -11.474)"/>
      <path id="Path_939151" data-name="Path 939151" d="M51,46h1.478v1.478H51Z" transform="translate(-12.778 -11.474)"/>
      <path id="Path_939152" data-name="Path 939152" d="M55,46h1.478v1.478H55Z" transform="translate(-13.821 -11.474)"/>
      <path id="Path_939153" data-name="Path 939153" d="M47,46h1.478v1.478H47Z" transform="translate(-11.735 -11.474)"/>
    </g>
  </g>
</svg>
