<svg xmlns="http://www.w3.org/2000/svg" xmlns:xlink="http://www.w3.org/1999/xlink" width="294.711" height="187" viewBox="0 0 294.711 187">
  <defs>
    <clipPath id="clip-path">
      <rect id="Rectangle_448286" data-name="Rectangle 448286" width="256.524" height="171.161" fill="none"/>
    </clipPath>
  </defs>
  <g id="Group_1165470" data-name="Group 1165470" transform="translate(-180.422 -4568)">
    <path id="Rectangle_447489" data-name="Rectangle 447489" d="M10,0H284.711a10,10,0,0,1,10,10v98a0,0,0,0,1,0,0H0a0,0,0,0,1,0,0V10A10,10,0,0,1,10,0Z" transform="translate(180.422 4647)" fill="#6003fe"/>
    <g id="Group_1165469" data-name="Group 1165469" transform="translate(199.422 4568)">
      <g id="Group_1165468" data-name="Group 1165468" clip-path="url(#clip-path)">
        <path id="Path_939287" data-name="Path 939287" d="M2491.286,1471.078a.206.206,0,0,1-.187-.12l-15.626-34.027a.206.206,0,0,1,.375-.172l15.626,34.027a.207.207,0,0,1-.187.292" transform="translate(-2243.924 -1302.269)"/>
        <path id="Path_939288" data-name="Path 939288" d="M2638.555,1807.215a1.1,1.1,0,1,0,1.1-1.1,1.1,1.1,0,0,0-1.1,1.1" transform="translate(-2391.77 -1637.188)"/>
        <path id="Path_939289" data-name="Path 939289" d="M2171.333,1471.035a.2.2,0,0,1-.086-.019.206.206,0,0,1-.1-.274l15.723-33.985a.206.206,0,0,1,.374.173l-15.723,33.985a.206.206,0,0,1-.187.12" transform="translate(-1968.061 -1302.267)"/>
        <path id="Path_939290" data-name="Path 939290" d="M2158.182,1806.77a1.1,1.1,0,1,1-1.1-1.1,1.1,1.1,0,0,1,1.1,1.1" transform="translate(-1954.332 -1636.785)"/>
        <path id="Path_939291" data-name="Path 939291" d="M2112.211,1186.618c0,8.236,11.5,13.115,25.676,13.115s24.689-4.938,25.675-13.115c1.427-11.824,2.936-28.326-11.244-28.326-8.863,0-31.107,14.925-35.722,19.419-2.768,2.7-4.385,5.818-4.385,8.907" transform="translate(-1914.654 -1049.956)" fill="#fff"/>
        <path id="Path_939292" data-name="Path 939292" d="M2135.888,1197.94c-7.117,0-13.6-1.239-18.246-3.49-5-2.418-7.637-5.818-7.637-9.832,0-3.046,1.58-6.262,4.448-9.055,4.9-4.772,27.138-19.478,35.866-19.478,3.737,0,6.656,1.156,8.678,3.436,4.712,5.315,3.9,15.753,2.771,25.121-.975,8.077-11.133,13.3-25.88,13.3m14.431-41.441c-8.635,0-30.707,14.617-35.578,19.36-2.787,2.715-4.323,5.826-4.323,8.759,0,7.6,10.473,12.909,25.47,12.909,14.525,0,24.523-5.077,25.471-12.933,1.12-9.278,1.928-19.611-2.67-24.8-1.94-2.188-4.756-3.3-8.37-3.3" transform="translate(-1912.655 -1047.957)"/>
        <path id="Path_939293" data-name="Path 939293" d="M2371.726,1299.276a.206.206,0,0,1,0-.412c12.3,0,20.77-4.295,21.572-10.942.6-4.965,1.166-10.643.3-15.2a.206.206,0,0,1,.405-.077c.876,4.619.307,10.335-.3,15.33-.829,6.868-9.457,11.305-21.981,11.305" transform="translate(-2149.71 -1153.457)"/>
        <path id="Path_939294" data-name="Path 939294" d="M2289.1,991.181a2.721,2.721,0,0,0,1.544-4.911q-.066-.048-.136-.1c-2.361-1.613.055-3.522-2.828-5.418-3.629-2.386-.8-4.3-3.554-5.477-3.478-1.493-1.224-3.244-3.622-4.182-2.91-1.138-1.691-2.907-3.994-3.665-1.986-.654-1.95-1.987-3.508-2.658-2.831-1.218-5.008.021-6.47.878-2.554,1.5-.682,4.136-1.668,6.046a3.119,3.119,0,0,0-.351,2.936c.628,1.386-2.353,2.706-1.485,4.727a2.442,2.442,0,0,1-.549,3.114s7.755,2.58,9.934,4.34c3.451,2.786,10.527,4.47,10.527,4.47s2.54-1.308,3.906-.571a4.56,4.56,0,0,0,2.255.465" transform="translate(-2050.87 -874.077)"/>
        <path id="Path_939295" data-name="Path 939295" d="M1953.938,1321.271l15.88.052,7.449,2.335c3.171,7.333-16.042,9.466-16.042,9.466l11.687,11.172a3.789,3.789,0,0,1,.9,4.155,139,139,0,0,1-7.129,13.709,1.107,1.107,0,0,1-1.993-.158l-1.89-4.944-12.6-23.646c-4.529-5.72-3.567-12.166,3.734-12.142" transform="translate(-1765.312 -1197.692)" fill="#fff"/>
        <path id="Path_939296" data-name="Path 939296" d="M2116.9,1575.429c-.035,0-.071,0-.107,0a1.3,1.3,0,0,1-1.123-.84l-1.43-3.74a.206.206,0,1,1,.385-.147l1.43,3.74a.9.9,0,0,0,1.622.129,137.853,137.853,0,0,0,7.116-13.684,3.564,3.564,0,0,0-.855-3.928l-.934-.893a.206.206,0,0,1,.285-.3l.935.893a3.975,3.975,0,0,1,.952,4.381,138.185,138.185,0,0,1-7.141,13.735,1.3,1.3,0,0,1-1.134.657" transform="translate(-1916.484 -1410.2)"/>
        <path id="Path_939297" data-name="Path 939297" d="M1944.361,1296.813l17.151,2.376,10.429,4.712c2.158,7.691-21.388,6.844-21.388,6.844l9.616,9.966c-.417.633-8.726,14.7-8.951,14.979l-15.557-25.814a8.709,8.709,0,0,1,8.7-13.062" transform="translate(-1753.496 -1175.441)" fill="#5479f7"/>
        <path id="Path_939298" data-name="Path 939298" d="M1836.552,1475.865a144.855,144.855,0,0,1-17.3,28.75c-.607.745-.215,2.01.738,1.885,0,0,9.97.259,13.292.167,4.1-.113,4.685-1,5.472-3.057l9.735-23.649s-9.086-10.518-11.933-4.1" transform="translate(-1648.83 -1335.943)" fill="#fff"/>
        <path id="Path_939299" data-name="Path 939299" d="M1841.294,1416.285c4.629-7.541,9.979-18.672,13.684-27.026a17.37,17.37,0,0,1,16.318-10.321l14.594.367s8.76,5.99,11.137,11.3c.826,1.846-1.9,2.806-5.8,3.272-7.69.1-18.845.063-18.845.063l-12.622,22.34c-1.2.012-17.9.005-18.464.005" transform="translate(-1669.076 -1249.96)" fill="#5479f7"/>
        <path id="Path_939300" data-name="Path 939300" d="M1985.6,1387.467a.21.21,0,0,1-.083-.018.206.206,0,0,1-.1-.272,17.519,17.519,0,0,1,16.512-10.443l12.753.321a.206.206,0,0,1-.005.412h-.005l-12.753-.321a17.126,17.126,0,0,0-16.125,10.2.206.206,0,0,1-.188.123" transform="translate(-1799.696 -1247.962)"/>
        <path id="Path_939301" data-name="Path 939301" d="M2092.973,1550.619a.206.206,0,0,1-.179-.307l7.358-13.025a.207.207,0,0,1,.18-.1h0l1.942,0a.206.206,0,0,1,0,.412h0l-1.822,0-7.3,12.92a.206.206,0,0,1-.18.1" transform="translate(-1897.029 -1393.408)"/>
        <path id="Path_939302" data-name="Path 939302" d="M2114.055,1537.143a.206.206,0,0,1,0-.412l4.68-.018h0a.206.206,0,0,1,0,.412l-4.68.018Z" transform="translate(-1916.139 -1392.983)"/>
        <path id="Path_939303" data-name="Path 939303" d="M2224.038,1323.063l7.51,5.473s7.57,7.376,8.135,14.5c0,0,14.573-2.157,10.515-18.285l-18.521-.526Z" transform="translate(-2016.022 -1199.316)" fill="#5479f7"/>
        <path id="Path_939304" data-name="Path 939304" d="M1826.1,1782.9c-3.222,0-6.425-.047-8.439-.1a1.279,1.279,0,0,1-1.151-.78,1.306,1.306,0,0,1,.223-1.4l1.7-2.17a.206.206,0,0,1,.324.254l-1.709,2.18a.9.9,0,0,0-.161.973.861.861,0,0,0,.783.532c3.587.092,10.954.171,15.453-.009,1.854-.074,2.78-1.836,3.091-2.59.132-.319.518-1.167.534-1.2a.206.206,0,0,1,.375.171c0,.009-.4.877-.529,1.189a4.111,4.111,0,0,1-3.456,2.845c-1.981.079-4.517.108-7.041.108" transform="translate(-1646.514 -1612.036)"/>
        <path id="Path_939305" data-name="Path 939305" d="M2280.655,1148.675l-5.532-21.858s-10.164-.078-13.708.723a66.73,66.73,0,0,0-1.814,12.383c-.1,3.906,1.461,7.332,1.387,8.752Z" transform="translate(-2048.255 -1021.424)" fill="#fff"/>
        <path id="Path_939306" data-name="Path 939306" d="M2130.765,1150.351a3.983,3.983,0,0,1-1.326-3.9c.265-1.515.606-1.666,1.326-3.9s0-7.991,0-7.991a7.707,7.707,0,0,0-3.371,4.469c-.772,3.018-1.553,10.831-1.553,10.831l-10.381.495.626,5.508,14.867-.4Z" transform="translate(-1917.6 -1028.443)" fill="#fff"/>
        <path id="Path_939307" data-name="Path 939307" d="M2114.091,1159.766a.206.206,0,0,1-.2-.183l-.626-5.509a.206.206,0,0,1,.195-.229l10.2-.486c.122-1.181.838-7.939,1.54-10.685a7.686,7.686,0,0,1,2.613-3.989.206.206,0,0,1,.262.319,7.272,7.272,0,0,0-2.476,3.773c-.76,2.969-1.54,10.723-1.547,10.8a.207.207,0,0,1-.2.185l-10.161.484.58,5.1,14.47-.388-.178-4.809a4.193,4.193,0,0,1-1.326-4.039,7.77,7.77,0,0,1,.594-1.938c.192-.461.431-1.034.738-1.99a.206.206,0,0,1,.393.126c-.313.973-.556,1.555-.75,2.022a7.363,7.363,0,0,0-.568,1.851,3.8,3.8,0,0,0,1.243,3.7.207.207,0,0,1,.085.159l.189,5.113a.206.206,0,0,1-.2.214l-14.867.4h-.006" transform="translate(-1915.605 -1032.14)"/>
        <path id="Path_939308" data-name="Path 939308" d="M2230.473,1259a2.707,2.707,0,0,1,3.1.177Z" transform="translate(-2021.855 -1140.896)" fill="#fff"/>
        <path id="Path_939309" data-name="Path 939309" d="M2231.574,1257.35a.206.206,0,0,1-.108-.031,2.5,2.5,0,0,0-2.863-.19.206.206,0,0,1-.254-.325,2.889,2.889,0,0,1,3.334.164.206.206,0,0,1-.109.381" transform="translate(-2019.859 -1138.863)"/>
        <path id="Path_939310" data-name="Path 939310" d="M2036.139,1357.026h27.342v-.823a1.311,1.311,0,0,0-1.312-1.31h-27.953l.224.833a1.758,1.758,0,0,0,1.7,1.3" transform="translate(-1843.955 -1228.17)"/>
        <path id="Path_939311" data-name="Path 939311" d="M2005.706,1224.641h16.5a1.083,1.083,0,0,0,1.052-1.343l-3.117-12.562a1.084,1.084,0,0,0-1.053-.823h-16.5a1.083,1.083,0,0,0-1.052,1.344l3.117,12.562a1.084,1.084,0,0,0,1.052.822" transform="translate(-1814.302 -1096.75)"/>
        <path id="Path_939312" data-name="Path 939312" d="M2100.48,1256.465a.545.545,0,1,0,.545-.544.544.544,0,0,0-.545.544" transform="translate(-1904.02 -1138.454)" fill="#5479f7"/>
        <path id="Path_939313" data-name="Path 939313" d="M2300.121,1126.834c2-.014,7.521,2.017,10.8,12.6s-1.612,14.178-5.081,14.241h-.117c-3.469.062-12.01-4.348-13.382-4.344l-4.768-1.1s1.369-4.348,7.122-3.689c4.6.528,10.108,1.135,10.108,1.135s-6.274-18.829-4.681-18.839" transform="translate(-2073.615 -1021.441)" fill="#fff"/>
        <path id="Path_939314" data-name="Path 939314" d="M2303.648,1236.121c-2.2,0-6.166-1.623-9.359-2.929a21.561,21.561,0,0,0-3.944-1.416h0a.2.2,0,0,1-.046-.005l-4.768-1.1a.206.206,0,0,1-.15-.263c.014-.045,1.485-4.5,7.342-3.832,3.918.449,8.547.962,9.788,1.1-.392-1.188-1.846-5.642-3.051-9.851a.206.206,0,1,1,.4-.114c1.4,4.879,3.129,10.088,3.146,10.14a.206.206,0,0,1-.035.195.209.209,0,0,1-.183.075c-.055-.006-5.561-.614-10.11-1.135-4.794-.55-6.456,2.5-6.82,3.337l4.515,1.046a20.3,20.3,0,0,1,4.077,1.446c2.994,1.225,7.083,2.9,9.206,2.9h.189a5.726,5.726,0,0,0,4.478-2.42c1.273-1.76,2.378-5.194.408-11.554q-.12-.387-.244-.758a.206.206,0,1,1,.391-.13q.125.376.246.766c2.021,6.523.861,10.081-.467,11.917a6.142,6.142,0,0,1-4.808,2.591h-.2" transform="translate(-2071.617 -1103.679)"/>
        <path id="Path_939315" data-name="Path 939315" d="M2325.093,1340.253a.207.207,0,0,1-.2-.274,3.324,3.324,0,0,1,1.774-1.918.206.206,0,0,1,.166.377,2.9,2.9,0,0,0-1.55,1.677.207.207,0,0,1-.195.139" transform="translate(-2107.438 -1212.895)"/>
        <path id="Path_939316" data-name="Path 939316" d="M2309.07,1333.009a.2.2,0,0,1-.059-.009.207.207,0,0,1-.139-.257,3.844,3.844,0,0,1,2.019-2.341.206.206,0,0,1,.175.373,3.424,3.424,0,0,0-1.8,2.086.206.206,0,0,1-.2.147" transform="translate(-2092.914 -1205.951)"/>
        <path id="Path_939317" data-name="Path 939317" d="M2281.666,1357.026v-.823a1.311,1.311,0,0,0-1.312-1.31h-5.435Z" transform="translate(-2062.145 -1228.17)"/>
        <path id="Path_939318" data-name="Path 939318" d="M2459.516,1275.575a11.339,11.339,0,0,1,7.524-1.328Z" transform="translate(-2229.476 -1154.904)" fill="#fff"/>
        <path id="Path_939319" data-name="Path 939319" d="M2457.519,1273.762a.206.206,0,0,1-.111-.38,11.429,11.429,0,0,1,7.673-1.356.206.206,0,1,1-.078.4,11.227,11.227,0,0,0-7.375,1.3.2.2,0,0,1-.11.032" transform="translate(-2227.478 -1152.885)"/>
        <path id="Path_939320" data-name="Path 939320" d="M2329.729,1072.336l.719,5.227s-1.079,2.665-3.576,2.665c-1.128,0-1.568-.65-1.592-1.325a1.5,1.5,0,0,1,.7-1.246l-.422-4.338Z" transform="translate(-2107.795 -972.04)" fill="#fff"/>
        <path id="Path_939321" data-name="Path 939321" d="M2324.875,1078.437a1.582,1.582,0,0,1-1.8-1.524,1.657,1.657,0,0,1,.684-1.353l-.41-4.218a.206.206,0,0,1,.158-.221l4.175-.983a.206.206,0,0,1,.251.172l.719,5.227a.2.2,0,0,1-.013.105c-.046.114-1.161,2.794-3.766,2.794m-1.1-6.956.4,4.159a.206.206,0,0,1-.1.2,1.281,1.281,0,0,0-.6,1.062c.012.339.172,1.126,1.386,1.126,2.15,0,3.205-2.138,3.363-2.488l-.679-4.945Z" transform="translate(-2105.797 -970.042)"/>
        <path id="Path_939322" data-name="Path 939322" d="M2302.892,1014.5a5.314,5.314,0,0,0,.236,2.707A3.219,3.219,0,0,0,2305,1019.1a3.175,3.175,0,0,0,2.322-.177,5.01,5.01,0,0,0,1.813-1.513,1.922,1.922,0,0,0,2.16-.825,1.421,1.421,0,0,0,.088-1.372.963.963,0,0,0-1.223-.437c-.243.126-.41.37-.658.486a.941.941,0,0,1-.873-.089,1.9,1.9,0,0,1-.605-.672,4.007,4.007,0,0,1-.479-2.773c-.017.089-.482.239-.564.271a3.9,3.9,0,0,1-.64.182,4.045,4.045,0,0,1-1.309.036,3.942,3.942,0,0,1-.65-.144,2.119,2.119,0,0,0-.567-.2c-.371.01-.456.688-.535.952a11.634,11.634,0,0,0-.392,1.672" transform="translate(-2087.435 -917.104)" fill="#fff"/>
        <path id="Path_939323" data-name="Path 939323" d="M2303.9,1017.455a3,3,0,0,1-.966-.155,3.427,3.427,0,0,1-2-2.012,5.465,5.465,0,0,1-.248-2.812,11.643,11.643,0,0,1,.4-1.7c.013-.043.026-.1.04-.159.083-.347.223-.928.687-.94a1.094,1.094,0,0,1,.467.136,1.5,1.5,0,0,0,.167.07,3.783,3.783,0,0,0,.616.137,3.83,3.83,0,0,0,1.242-.035,3.678,3.678,0,0,0,.606-.172l.059-.021a2.3,2.3,0,0,0,.4-.167.206.206,0,0,1,.377.149,3.815,3.815,0,0,0,.454,2.629,1.675,1.675,0,0,0,.536.6.731.731,0,0,0,.677.077,1.325,1.325,0,0,0,.293-.217,1.765,1.765,0,0,1,.356-.265,1.169,1.169,0,0,1,1.5.521,1.61,1.61,0,0,1-.092,1.575,2.123,2.123,0,0,1-2.26.954,5.094,5.094,0,0,1-1.8,1.466,3.619,3.619,0,0,1-1.508.34m-2.807-4.92a5.06,5.06,0,0,0,.224,2.6,3.011,3.011,0,0,0,1.75,1.773,2.971,2.971,0,0,0,2.169-.169,4.766,4.766,0,0,0,1.737-1.452.2.2,0,0,1,.224-.07,1.719,1.719,0,0,0,1.922-.734,1.214,1.214,0,0,0,.084-1.168.755.755,0,0,0-.947-.352,1.445,1.445,0,0,0-.274.208,1.618,1.618,0,0,1-.391.282,1.145,1.145,0,0,1-1.068-.1,2.055,2.055,0,0,1-.674-.743,4.232,4.232,0,0,1-.562-2.5l-.18.066-.05.018a4.083,4.083,0,0,1-.674.191,4.23,4.23,0,0,1-1.375.038,4.157,4.157,0,0,1-.684-.152,1.915,1.915,0,0,1-.218-.09.981.981,0,0,0-.282-.1c-.148,0-.252.439-.3.624-.016.07-.031.132-.046.181a11.23,11.23,0,0,0-.385,1.643m4.251-2.842h0Z" transform="translate(-2085.433 -915.105)"/>
        <path id="Path_939324" data-name="Path 939324" d="M2370.857,1055.239a.211.211,0,0,1-.081-.016.207.207,0,0,1-.109-.271,1.348,1.348,0,0,1,1.214-.8h.015a.206.206,0,0,1,0,.412h-.012a.938.938,0,0,0-.834.55.206.206,0,0,1-.19.125" transform="translate(-2148.922 -955.556)"/>
        <rect id="Rectangle_448214" data-name="Rectangle 448214" width="60.266" height="114.067" transform="translate(82.051 56.84)" fill="#e2eaff"/>
        <rect id="Rectangle_448215" data-name="Rectangle 448215" width="60.266" height="114.067" transform="translate(107.909 56.84)" fill="#fff"/>
        <path id="Path_939325" data-name="Path 939325" d="M1212,719.984H1151.73a.206.206,0,0,1-.206-.206V605.711a.206.206,0,0,1,.206-.206H1212a.206.206,0,0,1,.206.206V719.778a.206.206,0,0,1-.206.206m-60.06-.412h59.854V605.917h-59.854Z" transform="translate(-1043.821 -548.872)"/>
        <path id="Path_939326" data-name="Path 939326" d="M1240.284,668.344h-49.07a2.308,2.308,0,0,1-2.308-2.308V653.4a2.308,2.308,0,0,1,2.308-2.308h49.07a2.308,2.308,0,0,1,2.308,2.308v12.632a2.308,2.308,0,0,1-2.308,2.308" transform="translate(-1077.707 -590.199)" fill="#e2eaff"/>
        <path id="Path_939327" data-name="Path 939327" d="M1210.96,668.621a1.254,1.254,0,1,1-1.254-1.254,1.254,1.254,0,0,1,1.254,1.254" transform="translate(-1095.425 -604.948)" fill="#fff"/>
        <path id="Path_939328" data-name="Path 939328" d="M1248.382,668.621a1.254,1.254,0,1,1-1.254-1.254,1.254,1.254,0,0,1,1.254,1.254" transform="translate(-1129.347 -604.948)" fill="#fff"/>
        <path id="Path_939329" data-name="Path 939329" d="M1285.8,668.621a1.254,1.254,0,1,1-1.254-1.254,1.254,1.254,0,0,1,1.254,1.254" transform="translate(-1163.268 -604.948)" fill="#fff"/>
        <path id="Path_939330" data-name="Path 939330" d="M1366.973,684.884h-36a1.037,1.037,0,0,1-1.037-1.037V672.479a1.037,1.037,0,0,1,1.037-1.037h36a1.037,1.037,0,0,1,1.037,1.037v11.368a1.037,1.037,0,0,1-1.037,1.037" transform="translate(-1205.55 -608.642)" fill="#fff"/>
        <rect id="Rectangle_448216" data-name="Rectangle 448216" width="1.683" height="5.498" transform="translate(125.432 69.87)" fill="#5479f7"/>
        <rect id="Rectangle_448217" data-name="Rectangle 448217" width="1.683" height="11.768" transform="translate(128.09 63.6)" fill="#5479f7"/>
        <rect id="Rectangle_448218" data-name="Rectangle 448218" width="1.683" height="11.03" transform="translate(130.749 64.337)" fill="#5479f7"/>
        <rect id="Rectangle_448219" data-name="Rectangle 448219" width="1.683" height="2.547" transform="translate(133.407 72.82)" fill="#5479f7"/>
        <rect id="Rectangle_448220" data-name="Rectangle 448220" width="1.683" height="11.399" transform="translate(136.066 63.969)" fill="#5479f7"/>
        <rect id="Rectangle_448221" data-name="Rectangle 448221" width="1.683" height="6.236" transform="translate(138.724 69.132)" fill="#5479f7"/>
        <rect id="Rectangle_448222" data-name="Rectangle 448222" width="1.683" height="7.447" transform="translate(141.383 67.92)" fill="#5479f7"/>
        <rect id="Rectangle_448223" data-name="Rectangle 448223" width="1.683" height="11.452" transform="translate(144.042 63.916)" fill="#5479f7"/>
        <rect id="Rectangle_448224" data-name="Rectangle 448224" width="1.683" height="6.341" transform="translate(146.7 69.027)" fill="#5479f7"/>
        <rect id="Rectangle_448225" data-name="Rectangle 448225" width="1.683" height="7.606" transform="translate(149.358 67.762)" fill="#5479f7"/>
        <rect id="Rectangle_448226" data-name="Rectangle 448226" width="1.683" height="9.697" transform="translate(152.017 65.671)" fill="#5479f7"/>
        <rect id="Rectangle_448227" data-name="Rectangle 448227" width="1.683" height="3.812" transform="translate(154.676 71.556)" fill="#5479f7"/>
        <rect id="Rectangle_448228" data-name="Rectangle 448228" width="1.683" height="6.341" transform="translate(157.334 69.027)" fill="#5479f7"/>
        <rect id="Rectangle_448229" data-name="Rectangle 448229" width="1.683" height="11.241" transform="translate(159.993 64.127)" fill="#5479f7"/>
        <path id="Path_939331" data-name="Path 939331" d="M1240.284,894.306h-49.07a2.308,2.308,0,0,1-2.308-2.308V879.367a2.308,2.308,0,0,1,2.308-2.308h49.07a2.308,2.308,0,0,1,2.308,2.308V892a2.308,2.308,0,0,1-2.308,2.308" transform="translate(-1077.707 -795.027)" fill="#e2eaff"/>
        <path id="Path_939332" data-name="Path 939332" d="M1210.96,894.582a1.254,1.254,0,1,1-1.254-1.254,1.254,1.254,0,0,1,1.254,1.254" transform="translate(-1095.425 -809.774)" fill="#fff"/>
        <path id="Path_939333" data-name="Path 939333" d="M1248.382,894.582a1.254,1.254,0,1,1-1.254-1.254,1.254,1.254,0,0,1,1.254,1.254" transform="translate(-1129.347 -809.774)" fill="#fff"/>
        <path id="Path_939334" data-name="Path 939334" d="M1285.8,894.582a1.254,1.254,0,1,1-1.254-1.254,1.254,1.254,0,0,1,1.254,1.254" transform="translate(-1163.268 -809.774)" fill="#fff"/>
        <path id="Path_939335" data-name="Path 939335" d="M1366.973,910.846h-36a1.037,1.037,0,0,1-1.037-1.037V898.441a1.037,1.037,0,0,1,1.037-1.037h36a1.037,1.037,0,0,1,1.037,1.037v11.368a1.037,1.037,0,0,1-1.037,1.037" transform="translate(-1205.55 -813.469)" fill="#fff"/>
        <rect id="Rectangle_448230" data-name="Rectangle 448230" width="1.683" height="9.697" transform="translate(125.432 86.805)" fill="#5479f7"/>
        <rect id="Rectangle_448231" data-name="Rectangle 448231" width="1.683" height="4.767" transform="translate(128.09 91.735)" fill="#5479f7"/>
        <rect id="Rectangle_448232" data-name="Rectangle 448232" width="1.683" height="5.873" transform="translate(130.749 90.629)" fill="#5479f7"/>
        <rect id="Rectangle_448233" data-name="Rectangle 448233" width="1.683" height="9.697" transform="translate(133.407 86.805)" fill="#5479f7"/>
        <rect id="Rectangle_448234" data-name="Rectangle 448234" width="1.683" height="6.242" transform="translate(136.066 90.26)" fill="#5479f7"/>
        <rect id="Rectangle_448235" data-name="Rectangle 448235" width="1.683" height="11.406" transform="translate(138.724 85.096)" fill="#5479f7"/>
        <rect id="Rectangle_448236" data-name="Rectangle 448236" width="1.683" height="6.453" transform="translate(141.383 90.049)" fill="#5479f7"/>
        <rect id="Rectangle_448237" data-name="Rectangle 448237" width="1.683" height="4.609" transform="translate(144.042 91.893)" fill="#5479f7"/>
        <rect id="Rectangle_448238" data-name="Rectangle 448238" width="1.683" height="8.244" transform="translate(146.7 88.258)" fill="#5479f7"/>
        <rect id="Rectangle_448239" data-name="Rectangle 448239" width="1.683" height="6.98" transform="translate(149.358 89.522)" fill="#5479f7"/>
        <rect id="Rectangle_448240" data-name="Rectangle 448240" width="1.683" height="11.195" transform="translate(152.017 85.307)" fill="#5479f7"/>
        <rect id="Rectangle_448241" data-name="Rectangle 448241" width="1.683" height="7.085" transform="translate(154.676 89.417)" fill="#5479f7"/>
        <rect id="Rectangle_448242" data-name="Rectangle 448242" width="1.683" height="3.239" transform="translate(157.334 93.263)" fill="#5479f7"/>
        <rect id="Rectangle_448243" data-name="Rectangle 448243" width="1.683" height="5.505" transform="translate(159.993 90.997)" fill="#5479f7"/>
        <path id="Path_939336" data-name="Path 939336" d="M1240.284,1120.268h-49.07a2.308,2.308,0,0,1-2.308-2.308v-12.632a2.308,2.308,0,0,1,2.308-2.308h49.07a2.308,2.308,0,0,1,2.308,2.308v12.632a2.308,2.308,0,0,1-2.308,2.308" transform="translate(-1077.707 -999.854)" fill="#e2eaff"/>
        <path id="Path_939337" data-name="Path 939337" d="M1210.96,1120.544a1.254,1.254,0,1,1-1.254-1.254,1.254,1.254,0,0,1,1.254,1.254" transform="translate(-1095.425 -1014.602)" fill="#fff"/>
        <path id="Path_939338" data-name="Path 939338" d="M1248.382,1120.544a1.254,1.254,0,1,1-1.254-1.254,1.254,1.254,0,0,1,1.254,1.254" transform="translate(-1129.347 -1014.602)" fill="#fff"/>
        <path id="Path_939339" data-name="Path 939339" d="M1285.8,1120.544a1.254,1.254,0,1,1-1.254-1.254,1.254,1.254,0,0,1,1.254,1.254" transform="translate(-1163.268 -1014.602)" fill="#fff"/>
        <path id="Path_939340" data-name="Path 939340" d="M1366.973,1136.807h-36a1.037,1.037,0,0,1-1.037-1.037V1124.4a1.037,1.037,0,0,1,1.037-1.037h36a1.037,1.037,0,0,1,1.037,1.037v11.368a1.037,1.037,0,0,1-1.037,1.037" transform="translate(-1205.55 -1018.296)" fill="#fff"/>
        <rect id="Rectangle_448244" data-name="Rectangle 448244" width="1.683" height="3.296" transform="translate(125.432 114.341)" fill="#5479f7"/>
        <rect id="Rectangle_448245" data-name="Rectangle 448245" width="1.683" height="11.312" transform="translate(128.09 106.324)" fill="#5479f7"/>
        <rect id="Rectangle_448246" data-name="Rectangle 448246" width="1.683" height="4.632" transform="translate(130.749 113.005)" fill="#5479f7"/>
        <rect id="Rectangle_448247" data-name="Rectangle 448247" width="1.683" height="4.996" transform="translate(133.407 112.64)" fill="#5479f7"/>
        <rect id="Rectangle_448248" data-name="Rectangle 448248" width="1.683" height="2.324" transform="translate(136.066 115.312)" fill="#5479f7"/>
        <rect id="Rectangle_448249" data-name="Rectangle 448249" width="1.683" height="9.697" transform="translate(138.724 107.94)" fill="#5479f7"/>
        <rect id="Rectangle_448250" data-name="Rectangle 448250" width="1.683" height="11.447" transform="translate(141.383 106.189)" fill="#5479f7"/>
        <rect id="Rectangle_448251" data-name="Rectangle 448251" width="1.683" height="3.755" transform="translate(144.042 113.882)" fill="#5479f7"/>
        <rect id="Rectangle_448252" data-name="Rectangle 448252" width="1.683" height="11.555" transform="translate(146.7 106.081)" fill="#5479f7"/>
        <rect id="Rectangle_448253" data-name="Rectangle 448253" width="1.683" height="3.647" transform="translate(149.358 113.99)" fill="#5479f7"/>
        <rect id="Rectangle_448254" data-name="Rectangle 448254" width="1.683" height="6.805" transform="translate(152.017 110.832)" fill="#5479f7"/>
        <rect id="Rectangle_448255" data-name="Rectangle 448255" width="1.683" height="11.204" transform="translate(154.676 106.432)" fill="#5479f7"/>
        <rect id="Rectangle_448256" data-name="Rectangle 448256" width="1.683" height="5.185" transform="translate(157.334 112.451)" fill="#5479f7"/>
        <rect id="Rectangle_448257" data-name="Rectangle 448257" width="1.683" height="6.967" transform="translate(159.993 110.67)" fill="#5479f7"/>
        <path id="Path_939341" data-name="Path 939341" d="M1240.284,1346.23h-49.07a2.308,2.308,0,0,1-2.308-2.308V1331.29a2.308,2.308,0,0,1,2.308-2.308h49.07a2.308,2.308,0,0,1,2.308,2.308v12.632a2.308,2.308,0,0,1-2.308,2.308" transform="translate(-1077.707 -1204.682)" fill="#e2eaff"/>
        <path id="Path_939342" data-name="Path 939342" d="M1210.96,1346.506a1.254,1.254,0,1,1-1.254-1.254,1.254,1.254,0,0,1,1.254,1.254" transform="translate(-1095.425 -1219.429)" fill="#fff"/>
        <path id="Path_939343" data-name="Path 939343" d="M1248.382,1346.506a1.254,1.254,0,1,1-1.254-1.254,1.254,1.254,0,0,1,1.254,1.254" transform="translate(-1129.347 -1219.429)" fill="#fff"/>
        <path id="Path_939344" data-name="Path 939344" d="M1285.8,1346.506a1.254,1.254,0,1,1-1.254-1.254,1.254,1.254,0,0,1,1.254,1.254" transform="translate(-1163.268 -1219.429)" fill="#fff"/>
        <path id="Path_939345" data-name="Path 939345" d="M1366.973,1362.769h-36a1.037,1.037,0,0,1-1.037-1.037v-11.368a1.037,1.037,0,0,1,1.037-1.037h36a1.037,1.037,0,0,1,1.037,1.037v11.368a1.037,1.037,0,0,1-1.037,1.037" transform="translate(-1205.55 -1223.124)" fill="#fff"/>
        <rect id="Rectangle_448258" data-name="Rectangle 448258" width="1.683" height="1.757" transform="translate(125.432 137.014)" fill="#5479f7"/>
        <rect id="Rectangle_448259" data-name="Rectangle 448259" width="1.683" height="2.297" transform="translate(128.09 136.474)" fill="#5479f7"/>
        <rect id="Rectangle_448260" data-name="Rectangle 448260" width="1.683" height="5.158" transform="translate(130.749 133.613)" fill="#5479f7"/>
        <rect id="Rectangle_448261" data-name="Rectangle 448261" width="1.683" height="3.755" transform="translate(133.407 135.016)" fill="#5479f7"/>
        <rect id="Rectangle_448262" data-name="Rectangle 448262" width="1.683" height="11.15" transform="translate(136.066 127.621)" fill="#5479f7"/>
        <rect id="Rectangle_448263" data-name="Rectangle 448263" width="1.683" height="9.697" transform="translate(138.724 129.074)" fill="#5479f7"/>
        <rect id="Rectangle_448264" data-name="Rectangle 448264" width="1.683" height="6.993" transform="translate(141.383 131.777)" fill="#5479f7"/>
        <rect id="Rectangle_448265" data-name="Rectangle 448265" width="1.683" height="11.42" transform="translate(144.042 127.351)" fill="#5479f7"/>
        <rect id="Rectangle_448266" data-name="Rectangle 448266" width="1.683" height="2.783" transform="translate(146.7 135.988)" fill="#5479f7"/>
        <rect id="Rectangle_448267" data-name="Rectangle 448267" width="1.683" height="9.697" transform="translate(149.358 129.074)" fill="#5479f7"/>
        <rect id="Rectangle_448268" data-name="Rectangle 448268" width="1.683" height="11.258" transform="translate(152.017 127.513)" fill="#5479f7"/>
        <rect id="Rectangle_448269" data-name="Rectangle 448269" width="1.683" height="9.855" transform="translate(154.676 128.916)" fill="#5479f7"/>
        <rect id="Rectangle_448270" data-name="Rectangle 448270" width="1.683" height="9.697" transform="translate(157.334 129.074)" fill="#5479f7"/>
        <rect id="Rectangle_448271" data-name="Rectangle 448271" width="1.683" height="6.616" transform="translate(159.993 132.155)" fill="#5479f7"/>
        <path id="Path_939346" data-name="Path 939346" d="M1240.284,1572.191h-49.07a2.308,2.308,0,0,1-2.308-2.308v-12.632a2.308,2.308,0,0,1,2.308-2.308h49.07a2.308,2.308,0,0,1,2.308,2.308v12.632a2.308,2.308,0,0,1-2.308,2.308" transform="translate(-1077.707 -1409.509)" fill="#e2eaff"/>
        <path id="Path_939347" data-name="Path 939347" d="M1210.96,1572.467a1.254,1.254,0,1,1-1.254-1.254,1.254,1.254,0,0,1,1.254,1.254" transform="translate(-1095.425 -1424.256)" fill="#fff"/>
        <path id="Path_939348" data-name="Path 939348" d="M1248.382,1572.467a1.254,1.254,0,1,1-1.254-1.254,1.254,1.254,0,0,1,1.254,1.254" transform="translate(-1129.347 -1424.256)" fill="#fff"/>
        <path id="Path_939349" data-name="Path 939349" d="M1285.8,1572.467a1.254,1.254,0,1,1-1.254-1.254,1.254,1.254,0,0,1,1.254,1.254" transform="translate(-1163.268 -1424.256)" fill="#fff"/>
        <path id="Path_939350" data-name="Path 939350" d="M1366.973,1588.729h-36a1.037,1.037,0,0,1-1.037-1.037v-11.368a1.037,1.037,0,0,1,1.037-1.037h36a1.037,1.037,0,0,1,1.037,1.037v11.368a1.037,1.037,0,0,1-1.037,1.037" transform="translate(-1205.55 -1427.95)" fill="#fff"/>
        <rect id="Rectangle_448272" data-name="Rectangle 448272" width="1.683" height="5.887" transform="translate(125.432 154.018)" fill="#5479f7"/>
        <rect id="Rectangle_448273" data-name="Rectangle 448273" width="1.683" height="9.697" transform="translate(128.09 150.208)" fill="#5479f7"/>
        <rect id="Rectangle_448274" data-name="Rectangle 448274" width="1.683" height="4.105" transform="translate(130.749 155.8)" fill="#5479f7"/>
        <rect id="Rectangle_448275" data-name="Rectangle 448275" width="1.683" height="9.697" transform="translate(133.407 150.208)" fill="#5479f7"/>
        <rect id="Rectangle_448276" data-name="Rectangle 448276" width="1.683" height="5.32" transform="translate(136.066 154.585)" fill="#5479f7"/>
        <rect id="Rectangle_448277" data-name="Rectangle 448277" width="1.683" height="11.393" transform="translate(138.724 148.512)" fill="#5479f7"/>
        <rect id="Rectangle_448278" data-name="Rectangle 448278" width="1.683" height="6.697" transform="translate(141.383 153.208)" fill="#5479f7"/>
        <rect id="Rectangle_448279" data-name="Rectangle 448279" width="1.683" height="4.834" transform="translate(144.042 155.071)" fill="#5479f7"/>
        <rect id="Rectangle_448280" data-name="Rectangle 448280" width="1.683" height="11.636" transform="translate(146.7 148.269)" fill="#5479f7"/>
        <rect id="Rectangle_448281" data-name="Rectangle 448281" width="1.683" height="4.105" transform="translate(149.358 155.8)" fill="#5479f7"/>
        <rect id="Rectangle_448282" data-name="Rectangle 448282" width="1.683" height="6.454" transform="translate(152.017 153.451)" fill="#5479f7"/>
        <rect id="Rectangle_448283" data-name="Rectangle 448283" width="1.683" height="11.555" transform="translate(154.676 148.35)" fill="#5479f7"/>
        <rect id="Rectangle_448284" data-name="Rectangle 448284" width="1.683" height="2.405" transform="translate(157.334 157.5)" fill="#5479f7"/>
        <rect id="Rectangle_448285" data-name="Rectangle 448285" width="1.683" height="4.267" transform="translate(159.993 155.638)" fill="#5479f7"/>
        <path id="Path_939351" data-name="Path 939351" d="M966.886,676.649H954.305a.206.206,0,1,1,0-.412h12.581a.206.206,0,0,1,0,.412" transform="translate(-864.861 -612.988)" fill="#fff"/>
        <path id="Path_939352" data-name="Path 939352" d="M966.886,711.628H954.305a.206.206,0,1,1,0-.412h12.581a.206.206,0,0,1,0,.412" transform="translate(-864.861 -644.695)" fill="#fff"/>
        <path id="Path_939353" data-name="Path 939353" d="M966.886,746.608H954.305a.206.206,0,1,1,0-.412h12.581a.206.206,0,0,1,0,.412" transform="translate(-864.861 -676.404)" fill="#fff"/>
        <path id="Path_939354" data-name="Path 939354" d="M966.886,781.588H954.305a.206.206,0,1,1,0-.412h12.581a.206.206,0,1,1,0,.412" transform="translate(-864.861 -708.112)" fill="#fff"/>
        <path id="Path_939355" data-name="Path 939355" d="M966.886,816.568H954.305a.206.206,0,1,1,0-.412h12.581a.206.206,0,0,1,0,.412" transform="translate(-864.861 -739.82)" fill="#fff"/>
        <path id="Path_939356" data-name="Path 939356" d="M963.255,1123.716H950.674a.206.206,0,0,1,0-.412h12.581a.206.206,0,0,1,0,.412" transform="translate(-861.57 -1018.24)" fill="#fff"/>
        <path id="Path_939357" data-name="Path 939357" d="M963.255,1158.7H950.674a.206.206,0,0,1,0-.412h12.581a.206.206,0,0,1,0,.412" transform="translate(-861.57 -1049.949)" fill="#fff"/>
        <path id="Path_939358" data-name="Path 939358" d="M963.255,1193.675H950.674a.206.206,0,0,1,0-.412h12.581a.206.206,0,0,1,0,.412" transform="translate(-861.57 -1081.656)" fill="#fff"/>
        <path id="Path_939359" data-name="Path 939359" d="M963.255,1228.656H950.674a.206.206,0,0,1,0-.412h12.581a.206.206,0,0,1,0,.412" transform="translate(-861.57 -1113.365)" fill="#fff"/>
        <path id="Path_939360" data-name="Path 939360" d="M963.255,1263.636H950.674a.206.206,0,1,1,0-.412h12.581a.206.206,0,1,1,0,.412" transform="translate(-861.57 -1145.074)" fill="#fff"/>
        <path id="Path_939361" data-name="Path 939361" d="M963.255,1572.57H950.674a.206.206,0,1,1,0-.412h12.581a.206.206,0,1,1,0,.412" transform="translate(-861.57 -1425.113)" fill="#fff"/>
        <path id="Path_939362" data-name="Path 939362" d="M963.255,1607.549H950.674a.206.206,0,0,1,0-.412h12.581a.206.206,0,0,1,0,.412" transform="translate(-861.57 -1456.82)" fill="#fff"/>
        <path id="Path_939363" data-name="Path 939363" d="M963.255,1642.529H950.674a.206.206,0,0,1,0-.412h12.581a.206.206,0,0,1,0,.412" transform="translate(-861.57 -1488.528)" fill="#fff"/>
        <path id="Path_939364" data-name="Path 939364" d="M963.255,1677.508H950.674a.206.206,0,0,1,0-.412h12.581a.206.206,0,0,1,0,.412" transform="translate(-861.57 -1520.236)" fill="#fff"/>
        <path id="Path_939365" data-name="Path 939365" d="M963.255,1712.489H950.674a.206.206,0,1,1,0-.412h12.581a.206.206,0,1,1,0,.412" transform="translate(-861.57 -1551.945)" fill="#fff"/>
        <path id="Path_939366" data-name="Path 939366" d="M1012.505,6.64a18.994,18.994,0,0,0-7.651,1.6,22.384,22.384,0,0,0-38.034,5.593A15.466,15.466,0,0,0,967.2,44.76h45.308a19.06,19.06,0,0,0,0-38.12" transform="translate(-862.715)" fill="#5479f7"/>
        <path id="Path_939367" data-name="Path 939367" d="M1310.725,260.55a.206.206,0,0,1-.206-.206V228.755a.206.206,0,0,1,.412,0v31.589a.206.206,0,0,1-.206.206" transform="translate(-1187.945 -207.173)"/>
        <path id="Path_939368" data-name="Path 939368" d="M1268.463,525.568a.206.206,0,0,1-.146-.06l-4.352-4.352a.206.206,0,1,1,.292-.292l4.206,4.206,4.206-4.206a.206.206,0,0,1,.292.292l-4.352,4.352a.206.206,0,0,1-.146.06" transform="translate(-1145.691 -472.093)"/>
        <path id="Path_939369" data-name="Path 939369" d="M1484.227,261.6a.206.206,0,0,1-.206-.206V229.8a.206.206,0,0,1,.412,0V261.39a.206.206,0,0,1-.206.206" transform="translate(-1345.219 -208.121)"/>
        <path id="Path_939370" data-name="Path 939370" d="M1446.49,233.336a.205.205,0,0,1-.146-.06l-4.206-4.206-4.206,4.206a.206.206,0,1,1-.292-.292l4.352-4.352a.212.212,0,0,1,.291,0l4.352,4.352a.206.206,0,0,1-.146.352" transform="translate(-1303.122 -207.196)"/>
        <path id="Path_939371" data-name="Path 939371" d="M31.579,1471.446a.207.207,0,0,1-.187-.292l15.626-34.027a.206.206,0,0,1,.375.172l-15.626,34.027a.207.207,0,0,1-.188.12" transform="translate(-28.438 -1302.602)"/>
        <path id="Path_939372" data-name="Path 939372" d="M18.429,1807.583a1.1,1.1,0,1,1-1.1-1.1,1.1,1.1,0,0,1,1.1,1.1" transform="translate(-14.712 -1637.522)"/>
        <path id="Path_939373" data-name="Path 939373" d="M350.593,1471.4a.206.206,0,0,1-.187-.12L334.683,1437.3a.206.206,0,1,1,.374-.173l15.723,33.985a.206.206,0,0,1-.187.293" transform="translate(-303.363 -1302.602)"/>
        <path id="Path_939374" data-name="Path 939374" d="M498.8,1807.137a1.1,1.1,0,1,0,1.1-1.1,1.1,1.1,0,0,0-1.1,1.1" transform="translate(-452.148 -1637.118)"/>
        <path id="Path_939375" data-name="Path 939375" d="M59.871,1186.987c0,8.236-11.5,13.115-25.676,13.115s-24.689-4.938-25.676-13.115c-1.427-11.824-2.936-28.326,11.244-28.326,8.863,0,31.108,14.925,35.722,19.419,2.769,2.7,4.385,5.818,4.385,8.907" transform="translate(-6.924 -1050.291)" fill="#fff"/>
        <path id="Path_939376" data-name="Path 939376" d="M32.314,1198.309c-14.747,0-24.906-5.219-25.88-13.3-1.13-9.367-1.941-19.806,2.771-25.121,2.022-2.28,4.941-3.436,8.678-3.436,8.727,0,30.966,14.706,35.865,19.478,2.868,2.793,4.447,6.009,4.447,9.054,0,4.014-2.641,7.413-7.637,9.832-4.649,2.25-11.128,3.49-18.245,3.49m-14.431-41.441c-3.614,0-6.43,1.109-8.37,3.3-4.6,5.187-3.789,15.52-2.67,24.8.948,7.857,10.946,12.933,25.471,12.933,15,0,25.469-5.308,25.469-12.909,0-2.934-1.535-6.045-4.323-8.759-4.871-4.743-26.943-19.36-35.578-19.36" transform="translate(-5.043 -1048.292)"/>
        <path id="Path_939377" data-name="Path 939377" d="M84.311,1299.643c-12.524,0-21.152-4.437-21.981-11.3-.6-5-1.172-10.712-.3-15.33a.206.206,0,0,1,.405.077c-.866,4.56-.3,10.239.3,15.2.8,6.647,9.269,10.942,21.571,10.942a.206.206,0,0,1,0,.412" transform="translate(-55.824 -1153.791)"/>
        <path id="Path_939378" data-name="Path 939378" d="M197.825,1141.794l-2.943-11.111a7.233,7.233,0,0,0-6.186-5.335,143.912,143.912,0,0,0-15.534-.955,10.389,10.389,0,0,0-10.1,8.055,74.351,74.351,0,0,0-1.858,11.918,5.789,5.789,0,0,0,7.924,5.723l12.955-5.171,5.325-.806Z" transform="translate(-146.116 -1019.228)" fill="#fff"/>
        <path id="Path_939379" data-name="Path 939379" d="M164.979,1148.712a6,6,0,0,1-5.977-6.357,73.26,73.26,0,0,1,1.863-11.953,10.542,10.542,0,0,1,10.3-8.215h.049a144.444,144.444,0,0,1,15.509.957,7.394,7.394,0,0,1,6.362,5.487l2.943,11.111a.206.206,0,0,1-.155.254l-10.418,2.318-5.315.8-12.933,5.163a6.012,6.012,0,0,1-2.229.431m6.237-26.112h-.049a10.131,10.131,0,0,0-9.9,7.9,72.834,72.834,0,0,0-1.853,11.884,5.583,5.583,0,0,0,7.641,5.519l12.955-5.171a.2.2,0,0,1,.046-.012l5.325-.806,10.2-2.269-2.888-10.9a6.984,6.984,0,0,0-6.009-5.182,143.984,143.984,0,0,0-15.463-.954" transform="translate(-144.121 -1017.229)"/>
        <path id="Path_939380" data-name="Path 939380" d="M264.57,1213.981a.213.213,0,0,1-.042,0,.206.206,0,0,1-.159-.244l1.813-8.675a.206.206,0,1,1,.4.084l-1.813,8.675a.206.206,0,0,1-.2.164" transform="translate(-239.638 -1092.2)"/>
        <path id="Path_939381" data-name="Path 939381" d="M262.455,1274.6a.206.206,0,0,1-.187-.12c-1.412-3.061-3.433-3.661-6.244-3.633-2.89.027-11,3.483-11.083,3.518a.206.206,0,0,1-.162-.379c.336-.144,8.269-3.523,11.241-3.551,2.889-.027,5.122.621,6.622,3.873a.206.206,0,0,1-.187.293" transform="translate(-221.771 -1151.614)"/>
        <path id="Path_939382" data-name="Path 939382" d="M380.986,1300.066a.206.206,0,0,1-.2-.169,3.226,3.226,0,0,0-2.027-2.412.206.206,0,0,1,.142-.387,3.645,3.645,0,0,1,2.291,2.725.206.206,0,0,1-.166.24.2.2,0,0,1-.037,0" transform="translate(-343.208 -1175.768)"/>
        <path id="Path_939383" data-name="Path 939383" d="M399.354,1290.38a.206.206,0,0,1-.2-.173,3.673,3.673,0,0,0-1.99-2.677.206.206,0,1,1,.18-.371,4.091,4.091,0,0,1,2.216,2.982.206.206,0,0,1-.171.236l-.033,0" transform="translate(-359.909 -1166.751)"/>
        <path id="Path_939384" data-name="Path 939384" d="M441.805,1222.157a.2.2,0,0,1-.034,0,.206.206,0,0,1-.169-.237l1.82-10.915a.206.206,0,1,1,.407.068l-1.82,10.915a.206.206,0,0,1-.2.172" transform="translate(-400.296 -1097.581)"/>
        <path id="Path_939385" data-name="Path 939385" d="M332.4,1059.33l-1.774,6.088-1.365.063s3.537,3.584,7.615.473l-1.206-.538.848-3.74Z" transform="translate(-298.464 -960.25)" fill="#fff"/>
        <path id="Path_939386" data-name="Path 939386" d="M331.421,1065.425a6.7,6.7,0,0,1-4.308-1.8.206.206,0,0,1,.137-.351l1.218-.056,1.733-5.947a.206.206,0,0,1,.3-.122l4.118,2.345a.206.206,0,0,1,.1.225l-.811,3.575,1.052.469a.206.206,0,0,1,.041.352,5.818,5.818,0,0,1-3.579,1.305m-3.643-1.759a5.375,5.375,0,0,0,6.688.333l-.881-.393a.206.206,0,0,1-.117-.234l.814-3.591-3.758-2.14-1.7,5.838a.206.206,0,0,1-.188.148Zm.847-.245h0Z" transform="translate(-296.464 -958.252)"/>
        <path id="Path_939387" data-name="Path 939387" d="M344.874,970.639s4.787-1.345,4.739-4.274-2.215-2.573-5.6-2.592c-3.7-.021-7.645-.23-7.95,4.294a5.538,5.538,0,0,0,3.73,5.753Z" transform="translate(-304.617 -873.624)"/>
        <path id="Path_939388" data-name="Path 939388" d="M362.986,1011.953a3.871,3.871,0,0,1-.73,1.7,2.51,2.51,0,0,1-2.733.571,3.047,3.047,0,0,1-1.852-2.127,2.547,2.547,0,0,1-1.879-1.114,1.3,1.3,0,0,1-.147-1.365,1.117,1.117,0,0,1,1.117-.427,2.64,2.64,0,0,1,1.126.552c.713-.13-.9-2.74,2.3-3.59a6.488,6.488,0,0,1,2.421-.192c.726.1.675.576.76,1.2a13.156,13.156,0,0,1-.386,4.787" transform="translate(-322.256 -911.834)" fill="#fff"/>
        <path id="Path_939389" data-name="Path 939389" d="M358.472,1012.609a2.911,2.911,0,0,1-1.035-.19,3.238,3.238,0,0,1-1.943-2.131,2.737,2.737,0,0,1-1.886-1.189,1.491,1.491,0,0,1-.149-1.589,1.328,1.328,0,0,1,1.324-.521,2.623,2.623,0,0,1,1.081.492,2.627,2.627,0,0,0,.009-.477,2.631,2.631,0,0,1,2.253-3.049,6.651,6.651,0,0,1,2.5-.2c.792.11.852.641.909,1.154.008.073.017.148.027.226a13.2,13.2,0,0,1-.389,4.863,4.031,4.031,0,0,1-.776,1.788,2.552,2.552,0,0,1-1.926.818m-3.922-5.225a.871.871,0,0,0-.743.347,1.111,1.111,0,0,0,.145,1.14,2.351,2.351,0,0,0,1.724,1.022.207.207,0,0,1,.184.159,2.857,2.857,0,0,0,1.725,1.981,2.316,2.316,0,0,0,2.5-.515,3.694,3.694,0,0,0,.685-1.612h0a12.806,12.806,0,0,0,.382-4.712c-.011-.082-.02-.16-.028-.236-.057-.513-.081-.725-.556-.791a6.223,6.223,0,0,0-2.339.187,2.212,2.212,0,0,0-1.946,2.635c.015.435.032.885-.372.958a.207.207,0,0,1-.16-.037,2.471,2.471,0,0,0-1.035-.514,1.059,1.059,0,0,0-.168-.013" transform="translate(-320.244 -909.836)"/>
        <path id="Path_939390" data-name="Path 939390" d="M366.026,1054.385a.205.205,0,0,1-.156-.071,1.556,1.556,0,0,0-.99-.523.206.206,0,0,1,.047-.41,1.972,1.972,0,0,1,1.255.663.206.206,0,0,1-.156.341" transform="translate(-330.587 -954.856)"/>
        <path id="Path_939391" data-name="Path 939391" d="M409.206,1308.9l-27.54.906v-1.755a1.351,1.351,0,0,1,1.352-1.352h26.189Z" transform="translate(-345.968 -1184.482)"/>
        <path id="Path_939392" data-name="Path 939392" d="M515.925,1172.305h-17a1.117,1.117,0,0,1-1.085-1.386l3.213-12.961a1.117,1.117,0,0,1,1.084-.848h17a1.117,1.117,0,0,1,1.085,1.386l-3.213,12.961a1.117,1.117,0,0,1-1.084.849" transform="translate(-451.248 -1048.885)"/>
        <path id="Path_939393" data-name="Path 939393" d="M619.3,1210.775h-1.484l.36-1.484h1.485Z" transform="translate(-560.027 -1096.184)" fill="#fff"/>
        <path id="Path_939394" data-name="Path 939394" d="M711.395,1637.765l16.467-4.459a1.093,1.093,0,0,0,.4-1.9l-3.591-2.915-14.665,4.581Z" transform="translate(-643.602 -1476.174)" fill="#fff"/>
        <path id="Path_939395" data-name="Path 939395" d="M709.4,1635.973a.206.206,0,0,1-.2-.148l-1.385-4.7a.206.206,0,0,1,.136-.255l14.665-4.581a.206.206,0,0,1,.191.037l3.591,2.915a1.3,1.3,0,0,1-.479,2.262l-16.468,4.459a.219.219,0,0,1-.054.007m-1.129-4.765,1.27,4.307,16.273-4.407a.886.886,0,0,0,.327-1.544l-3.505-2.845Z" transform="translate(-641.606 -1474.176)"/>
        <path id="Path_939396" data-name="Path 939396" d="M557.33,1751.355l.715,3.9a2.159,2.159,0,0,0,2.123,1.769h16.707a1.292,1.292,0,0,0,.937-2.182L573,1749.76Z" transform="translate(-505.203 -1586.104)" fill="#fff"/>
        <path id="Path_939397" data-name="Path 939397" d="M574.877,1755.224H558.17a2.365,2.365,0,0,1-2.326-1.938l-.715-3.9a.206.206,0,0,1,.182-.242l15.665-1.6a.2.2,0,0,1,.17.063l4.818,5.078a1.5,1.5,0,0,1-1.087,2.53m-19.3-5.688.675,3.675a1.953,1.953,0,0,0,1.921,1.6h16.707a1.086,1.086,0,0,0,.788-1.834l-4.748-5Z" transform="translate(-503.204 -1584.102)"/>
        <path id="Path_939398" data-name="Path 939398" d="M215.83,1294.215s-2.878,10.779,2.365,14.174c5.153,3.336,25.263,1.2,25.263,1.2l3.5,23.971a46.349,46.349,0,0,0,16.951-1.344l-1.247-7.259,13.3-5.206s-5.406-13.229-9.8-23.317a14.46,14.46,0,0,0-16-8.426c-5.474,1.057-13.112,2.727-23.282,5.349Z" transform="translate(-194.929 -1167.297)" fill="#5479f7"/>
        <path id="Path_939399" data-name="Path 939399" d="M390.17,1404.417a.206.206,0,0,1-.2-.175c-.031-.2-3.162-20.231-6.469-24.889a7.147,7.147,0,0,0-4.81-2.833,10.924,10.924,0,0,0-8.106,1.857l-14.616,10.265a.206.206,0,0,1-.237-.337l14.616-10.265a11.344,11.344,0,0,1,8.415-1.926,7.545,7.545,0,0,1,5.075,3c3.363,4.737,6.412,24.237,6.54,25.065a.206.206,0,0,1-.172.235l-.032,0" transform="translate(-322.378 -1247.258)"/>
        <path id="Path_939400" data-name="Path 939400" d="M161.2,1291.388a5.789,5.789,0,0,0,7.924,5.723l12.512-5.713-8.432.882-11.5-5.695c-.231,1.6-.41,3.217-.5,4.8" transform="translate(-146.116 -1166.25)" fill="#fff"/>
        <path id="Path_939401" data-name="Path 939401" d="M164.2,1295.683l-.029,0a6.037,6.037,0,0,1-5.165-6.3c.088-1.489.258-3.111.506-4.821a.206.206,0,1,1,.408.059c-.246,1.7-.415,3.309-.5,4.786a5.623,5.623,0,0,0,4.811,5.872.206.206,0,0,1-.028.41" transform="translate(-144.123 -1164.25)"/>
        <path id="Path_939402" data-name="Path 939402" d="M316.659,1292.067a.205.205,0,0,1-.158-.073,7.292,7.292,0,0,1-1.688-6.306.206.206,0,0,1,.4.108,7.008,7.008,0,0,0,1.606,5.932.206.206,0,0,1-.157.339" transform="translate(-285.228 -1165.299)"/>
        <path id="Path_939403" data-name="Path 939403" d="M305.49,218.856a.205.205,0,0,1-.118-.037l-14.756-10.34H270.469a.206.206,0,0,1-.12-.038l-40.741-29.056a.206.206,0,1,1,.24-.336l40.688,29.017h20.147a.207.207,0,0,1,.118.037l14.809,10.377a.206.206,0,0,1-.119.375" transform="translate(-208.054 -162.268)"/>
        <path id="Path_939404" data-name="Path 939404" d="M1714.22,391.968a.206.206,0,0,1-.163-.332l16.961-21.99a.206.206,0,0,1,.163-.08h36a.206.206,0,0,1,0,.412h-35.9l-16.9,21.909a.206.206,0,0,1-.164.08" transform="translate(-1553.701 -335)"/>
        <path id="Path_939405" data-name="Path 939405" d="M1796.806,578.132a.206.206,0,0,1-.16-.335l9.763-12.159a.2.2,0,0,1,.16-.077l56.715-.183h0a.206.206,0,0,1,0,.412l-56.617.182-9.7,12.083a.205.205,0,0,1-.161.077" transform="translate(-1628.563 -512.498)"/>
        <path id="Path_939406" data-name="Path 939406" d="M2473.849,535.2a3.341,3.341,0,1,1,3.341,3.341,3.341,3.341,0,0,1-3.341-3.341" transform="translate(-2242.468 -482.117)" fill="#fff"/>
        <path id="Path_939407" data-name="Path 939407" d="M2475.193,536.753a3.547,3.547,0,1,1,3.547-3.547,3.551,3.551,0,0,1-3.547,3.547m0-6.682a3.135,3.135,0,1,0,3.135,3.135,3.138,3.138,0,0,0-3.135-3.135" transform="translate(-2240.471 -480.119)"/>
        <path id="Path_939408" data-name="Path 939408" d="M2282.8,339.355a3.341,3.341,0,1,1,3.341,3.341,3.341,3.341,0,0,1-3.341-3.341" transform="translate(-2069.29 -304.586)" fill="#fff"/>
        <path id="Path_939409" data-name="Path 939409" d="M2284.144,340.905a3.547,3.547,0,1,1,3.547-3.547,3.551,3.551,0,0,1-3.547,3.547m0-6.682a3.135,3.135,0,1,0,3.135,3.135,3.138,3.138,0,0,0-3.135-3.135" transform="translate(-2067.291 -302.589)"/>
        <path id="Path_939410" data-name="Path 939410" d="M1796.8,723.777a.206.206,0,0,1-.16-.335l9.763-12.16a.206.206,0,0,1,.161-.077l65.835.058a.206.206,0,1,1,0,.412l-65.736-.058-9.7,12.082a.206.206,0,0,1-.161.077" transform="translate(-1628.561 -644.686)"/>
        <path id="Path_939411" data-name="Path 939411" d="M2614.209,712.242h-9.137a.206.206,0,0,1,0-.412h9.137a.206.206,0,0,1,0,.412" transform="translate(-2361.231 -645.252)"/>
        <path id="Path_939412" data-name="Path 939412" d="M2669.063,682.089a3.342,3.342,0,1,1,2.879,2.879,3.343,3.343,0,0,1-2.879-2.879" transform="translate(-2419.399 -614.871)" fill="#fff"/>
        <path id="Path_939413" data-name="Path 939413" d="M2670.379,683.2a3.661,3.661,0,0,1-.459-.029,3.549,3.549,0,1,1,2.968-1.01,3.53,3.53,0,0,1-2.509,1.039m0-6.681a3.136,3.136,0,0,0-3.111,3.543,3.135,3.135,0,1,0,3.518-3.518,3.259,3.259,0,0,0-.407-.026" transform="translate(-2417.403 -612.873)"/>
        <path id="Path_939414" data-name="Path 939414" d="M1796.6,878.746a.2.2,0,0,1-.124-.042.206.206,0,0,1-.04-.289l9.237-12.16a.206.206,0,0,1,.164-.081l59.172-.106h0a.206.206,0,0,1,0,.412l-59.07.106-9.175,12.078a.205.205,0,0,1-.164.081" transform="translate(-1628.379 -785.064)"/>
        <path id="Path_939415" data-name="Path 939415" d="M2537.143,866.48h-9.137a.206.206,0,0,1,0-.412h9.137a.206.206,0,0,1,0,.412" transform="translate(-2291.373 -785.064)"/>
        <path id="Path_939416" data-name="Path 939416" d="M2591.97,835.894a3.341,3.341,0,1,1,3.341,3.341,3.341,3.341,0,0,1-3.341-3.341" transform="translate(-2349.541 -754.684)" fill="#fff"/>
        <path id="Path_939417" data-name="Path 939417" d="M2593.313,837.443a3.547,3.547,0,1,1,3.547-3.547,3.551,3.551,0,0,1-3.547,3.547m0-6.682a3.135,3.135,0,1,0,3.135,3.135,3.138,3.138,0,0,0-3.135-3.135" transform="translate(-2347.544 -752.686)"/>
        <path id="Path_939418" data-name="Path 939418" d="M208.109,647.523H182.215a.206.206,0,0,1-.113-.034l-42.531-28a.206.206,0,0,1,.227-.345l42.479,27.969h25.832a.206.206,0,1,1,0,.412" transform="translate(-126.433 -561.203)"/>
        <path id="Path_939419" data-name="Path 939419" d="M620.306,1045.2H594.412a.206.206,0,1,1,0-.412h25.894a.206.206,0,1,1,0,.412" transform="translate(-538.63 -947.066)"/>
        <path id="Path_939420" data-name="Path 939420" d="M143.328,449.989H118.7a.206.206,0,0,1-.115-.035L68.1,415.971a.206.206,0,0,1,.23-.342l50.426,33.949h24.567a.206.206,0,0,1,0,.412" transform="translate(-61.652 -376.723)"/>
        <path id="Path_939421" data-name="Path 939421" d="M400.292,471.479H378.4a.207.207,0,0,1-.119-.037l-26.7-18.759a.206.206,0,0,1,.237-.337l26.648,18.722h21.828a.206.206,0,0,1,0,.412" transform="translate(-318.616 -410.003)"/>
        <path id="Path_939422" data-name="Path 939422" d="M287.509,402.279a3.341,3.341,0,1,1,3.341,3.341,3.341,3.341,0,0,1-3.341-3.341" transform="translate(-260.618 -361.625)" fill="#fff"/>
        <path id="Path_939423" data-name="Path 939423" d="M288.85,403.828a3.547,3.547,0,1,1,3.547-3.547,3.551,3.551,0,0,1-3.547,3.547m0-6.682a3.135,3.135,0,1,0,3.135,3.135,3.138,3.138,0,0,0-3.135-3.135" transform="translate(-258.618 -359.627)"/>
        <path id="Path_939424" data-name="Path 939424" d="M166.381,125.093a3.341,3.341,0,1,1,3.341,3.341,3.341,3.341,0,0,1-3.341-3.341" transform="translate(-150.819 -110.364)" fill="#fff"/>
        <path id="Path_939425" data-name="Path 939425" d="M167.723,126.643a3.547,3.547,0,1,1,3.547-3.547,3.551,3.551,0,0,1-3.547,3.547m0-6.682a3.135,3.135,0,1,0,3.135,3.135,3.138,3.138,0,0,0-3.135-3.135" transform="translate(-148.82 -108.368)"/>
        <path id="Path_939426" data-name="Path 939426" d="M2.2,367.695a3.341,3.341,0,1,1,3.341,3.341A3.341,3.341,0,0,1,2.2,367.695" transform="translate(-1.999 -330.276)" fill="#fff"/>
        <path id="Path_939427" data-name="Path 939427" d="M3.547,369.244A3.547,3.547,0,1,1,7.094,365.7a3.551,3.551,0,0,1-3.547,3.547m0-6.682A3.135,3.135,0,1,0,6.682,365.7a3.138,3.138,0,0,0-3.135-3.135" transform="translate(0 -328.278)"/>
        <path id="Path_939428" data-name="Path 939428" d="M76.492,566.92a3.341,3.341,0,1,1,3.341,3.341,3.341,3.341,0,0,1-3.341-3.341" transform="translate(-69.338 -510.867)" fill="#fff"/>
        <path id="Path_939429" data-name="Path 939429" d="M77.834,568.469a3.547,3.547,0,1,1,3.547-3.547,3.551,3.551,0,0,1-3.547,3.547m0-6.682a3.135,3.135,0,1,0,3.135,3.135,3.138,3.138,0,0,0-3.135-3.135" transform="translate(-67.339 -508.869)"/>
        <path id="Path_939430" data-name="Path 939430" d="M567.7,1012.369a3.341,3.341,0,1,1,3.341,3.341,3.341,3.341,0,0,1-3.341-3.341" transform="translate(-514.603 -914.653)" fill="#fff"/>
        <path id="Path_939431" data-name="Path 939431" d="M569.043,1013.918a3.547,3.547,0,1,1,3.547-3.547,3.551,3.551,0,0,1-3.547,3.547m0-6.682a3.135,3.135,0,1,0,3.135,3.135,3.138,3.138,0,0,0-3.135-3.135" transform="translate(-512.605 -912.655)"/>
      </g>
    </g>
  </g>
</svg>
