<svg xmlns="http://www.w3.org/2000/svg" width="100" height="100" viewBox="0 0 100 100">
  <g id="Group_1165194" data-name="Group 1165194" transform="translate(-637 -6992)">
    <g id="Group_1098742" data-name="Group 1098742" transform="translate(637.242 6992)">
      <rect id="Rectangle_400898" data-name="Rectangle 400898" width="100" height="100" rx="50" transform="translate(-0.242)" fill="#fff" opacity="0.859"/>
      <g id="Rectangle_400907" data-name="Rectangle 400907" transform="translate(-0.242)" fill="none" stroke="#00bdff" stroke-linecap="round" stroke-width="3" stroke-dasharray="0 7">
        <rect width="100" height="100" rx="50" stroke="none"/>
        <rect x="1.5" y="1.5" width="97" height="97" rx="48.5" fill="none"/>
      </g>
    </g>
    <g id="Group_1107006" data-name="Group 1107006" transform="translate(645.398 7000.157)">
      <rect id="Rectangle_400898-2" data-name="Rectangle 400898" width="84" height="84" rx="42" transform="translate(-0.399 -0.157)" fill="#6003fe" opacity="0.859"/>
      <rect id="Rectangle_400907-2" data-name="Rectangle 400907" width="84" height="84" rx="42" transform="translate(-0.398 -0.157)" fill="none"/>
    </g>
    <g id="Group_1165576" data-name="Group 1165576" transform="translate(659.45 7014.451)">
      <g id="Group_1165574" data-name="Group 1165574" transform="translate(0.809 0.807)">
        <g id="Group_1165573" data-name="Group 1165573" transform="translate(0 3.565)">
          <g id="Group_1165572" data-name="Group 1165572" transform="translate(0 0)">
            <path id="Path_939743" data-name="Path 939743" d="M60.984,74.5V44.2a3.565,3.565,0,0,0-3.565-3.565H11.067A3.565,3.565,0,0,0,7.5,44.2V74.505l26.741,2.211Z" transform="translate(-7.502 -40.633)" fill="#3c58a0"/>
            <path id="Path_939744" data-name="Path 939744" d="M198.018,398H210.5v8.659H198.018Z" transform="translate(-177.516 -359.543)" fill="#d3dcfb"/>
            <path id="Path_939745" data-name="Path 939745" d="M40.633,104.369V75.55a1.783,1.783,0,0,1,1.783-1.783H85.2a1.783,1.783,0,0,1,1.783,1.783v28.814l-23.176,1.922Z" transform="translate(-37.068 -70.201)" fill="#9bd8f9"/>
            <path id="Path_939746" data-name="Path 939746" d="M268.9,40.633h-2.475A3.565,3.565,0,0,1,269.99,44.2V74.5l-25.505,2.115,1.239.1L272.465,74.5V44.2a3.565,3.565,0,0,0-3.565-3.565Z" transform="translate(-218.983 -40.633)" fill="#2a428c"/>
            <path id="Path_939747" data-name="Path 939747" d="M164.133,471.368H140.9a.861.861,0,0,0-.861.861v1.844a.861.861,0,0,0,.861.861h23.237a.861.861,0,0,0,.861-.861v-1.844A.861.861,0,0,0,164.133,471.368Z" transform="translate(-125.773 -425.016)" fill="#e9efff"/>
            <path id="Path_939748" data-name="Path 939748" d="M343.443,471.368h-2.475a.861.861,0,0,1,.861.861v1.844a.861.861,0,0,1-.861.861h2.475a.861.861,0,0,0,.861-.861v-1.844A.861.861,0,0,0,343.443,471.368Z" transform="translate(-305.083 -425.016)" fill="#d3dcfb"/>
            <path id="Path_939749" data-name="Path 939749" d="M434.276,73.768H431.8a1.783,1.783,0,0,1,1.783,1.783V104.57l2.475-.205V75.551A1.783,1.783,0,0,0,434.276,73.768Z" transform="translate(-386.142 -70.202)" fill="#73c3f9"/>
          </g>
        </g>
        <path id="Path_939750" data-name="Path 939750" d="M90.334,34.241V9.283A1.783,1.783,0,0,1,92.117,7.5h32.09a1.783,1.783,0,0,1,1.783,1.783V34.241l-17.828,3.565Z" transform="translate(-81.42 -7.5)" fill="#4fabf7"/>
        <path id="Path_939751" data-name="Path 939751" d="M384.575,7.5H382.1a1.783,1.783,0,0,1,1.783,1.783V34.736l2.475-.5V9.283A1.783,1.783,0,0,0,384.575,7.5Z" transform="translate(-341.789 -7.5)" fill="#1886ea"/>
        <path id="Path_939752" data-name="Path 939752" d="M239.785,52.931a.89.89,0,0,1-.351-.709v-10.7a.891.891,0,0,1,.891-.891h14.262a.891.891,0,0,1,.891.891v10.7a.891.891,0,0,1-.891.891H243.524Z" transform="translate(-214.476 -37.068)" fill="#e9efff"/>
        <circle id="Ellipse_13571" data-name="Ellipse 13571" cx="3.565" cy="3.565" r="3.565" transform="translate(14.262 8.914)" fill="#fcad6d"/>
        <path id="Path_939753" data-name="Path 939753" d="M359.725,40.633H357.25a.891.891,0,0,1,.891.891v10.7a.891.891,0,0,1-.891.891h2.475a.891.891,0,0,0,.891-.891v-10.7a.891.891,0,0,0-.891-.891Z" transform="translate(-319.613 -37.068)" fill="#d3dcfb"/>
        <path id="Path_939754" data-name="Path 939754" d="M137.927,165.167l-2.088.113-.379,1.012a.891.891,0,0,1-1.329.429l-2.151-1.438h0l0,0v0l-6.325,0a5.341,5.341,0,0,0-2.186,4.314v5.779h10.7v-4.345l.794.529a1.783,1.783,0,0,0,2.658-.857l1.608-4.288Z" transform="translate(-110.987 -148.2)" fill="#4ce088"/>
        <path id="Path_939755" data-name="Path 939755" d="M143.781,157.635l2.049,1.639a1.783,1.783,0,0,0,2.227,0l2.049-1.639h0a5.348,5.348,0,0,0-6.325,0Z" transform="translate(-129.116 -140.554)" fill="#e9efff"/>
        <path id="Path_939756" data-name="Path 939756" d="M162.9,90.333a3.558,3.558,0,0,0-1.238.221,3.567,3.567,0,0,1,0,6.689,3.566,3.566,0,1,0,1.238-6.91Z" transform="translate(-145.077 -81.419)" fill="#fd995b"/>
        <path id="Path_939757" data-name="Path 939757" d="M230.943,165.167l-1.876.1,1.056.177-1.974,5.254a1.783,1.783,0,0,1-.451.675l.274.183a1.783,1.783,0,0,0,2.658-.857l1.608-4.288Z" transform="translate(-204.002 -148.2)" fill="#30c16b"/>
        <path id="Path_939758" data-name="Path 939758" d="M241.85,128.032a1.783,1.783,0,0,0-2.3,1.043l-1.112,2.965,3.384,1.13,1.066-2.843A1.783,1.783,0,0,0,241.85,128.032Z" transform="translate(-213.591 -114.96)" fill="#fcad6d"/>
        <path id="Path_939759" data-name="Path 939759" d="M251.657,128.035a1.781,1.781,0,0,0-1.864.388,1.783,1.783,0,0,1,.43,1.907l-.79,2.108,2.2.735,1.066-2.843A1.783,1.783,0,0,0,251.657,128.035Z" transform="translate(-223.399 -114.962)" fill="#fd995b"/>
        <path id="Path_939760" data-name="Path 939760" d="M192.918,267.019H166.177l-.843-5.51.843-5.51h26.741Z" transform="translate(-148.349 -229.259)" fill="#d3dcfb"/>
        <path id="Path_939761" data-name="Path 939761" d="M90.334,256h8.914v11.019H90.334Z" transform="translate(-81.42 -229.259)" fill="#ff4155"/>
        <path id="Path_939762" data-name="Path 939762" d="M398.667,256h2.475v11.019h-2.475Z" transform="translate(-356.573 -229.259)" fill="#bec8f7"/>
        <circle id="Ellipse_13572" data-name="Ellipse 13572" cx="1.783" cy="1.783" r="1.783" transform="translate(22.824 33.406) rotate(-76.825)" fill="#e9efff"/>
        <path id="Path_939763" data-name="Path 939763" d="M60.984,355.4H7.5v1.783a3.565,3.565,0,0,0,3.565,3.565H57.419a3.565,3.565,0,0,0,3.565-3.565V355.4Z" transform="translate(-7.502 -317.96)" fill="#e9efff"/>
        <path id="Path_939764" data-name="Path 939764" d="M451.934,355.4v1.783a3.565,3.565,0,0,1-3.565,3.565h2.475a3.565,3.565,0,0,0,3.565-3.565V355.4Z" transform="translate(-400.927 -317.96)" fill="#d3dcfb"/>
      </g>
      <g id="Group_1165575" data-name="Group 1165575" transform="translate(0.002)">
        <path id="Path_939765" data-name="Path 939765" d="M55.1,7.938a4.378,4.378,0,0,0-4.373-4.373H46.185V2.59A2.593,2.593,0,0,0,43.6,0H11.506a2.593,2.593,0,0,0-2.59,2.59v.976H4.375A4.378,4.378,0,0,0,0,7.938v32.09A4.377,4.377,0,0,0,4.375,44.4H8.139a.807.807,0,0,0,0-1.614H4.374a2.762,2.762,0,0,1-2.758-2.758v-.976H53.484v.976a2.761,2.761,0,0,1-2.758,2.758H11.367a.807.807,0,0,0,0,1.614H20.5v5.517H15.932a1.67,1.67,0,0,0-1.668,1.668v1.844A1.67,1.67,0,0,0,15.932,55.1H32.176a.807.807,0,0,0,0-1.614H15.932a.054.054,0,0,1-.054-.054V51.585a.054.054,0,0,1,.054-.054H39.169a.054.054,0,0,1,.054.054v1.844a.054.054,0,0,1-.054.054H35.4a.807.807,0,1,0,0,1.614h3.765a1.67,1.67,0,0,0,1.668-1.668V51.585a1.67,1.67,0,0,0-1.668-1.668H34.6V44.4H50.726A4.378,4.378,0,0,0,55.1,40.028V7.938ZM28.526,49.917H26.575V48.05a.084.084,0,0,1,.084-.084h1.783a.084.084,0,0,1,.084.084v1.867Zm4.457,0H30.14V48.05a1.7,1.7,0,0,0-1.7-1.7H26.659a1.7,1.7,0,0,0-1.7,1.7v1.867H22.118V44.4H32.983v5.517Zm16.936-12.48H46.185V8.745h2.759a.977.977,0,0,1,.976.976Zm-41,0H5.181V9.721a.977.977,0,0,1,.976-.976H8.916V37.438Zm1.614-9.082h7.3v9.082h-7.3Zm5.348-15.069a2.758,2.758,0,1,1,2.758,2.758A2.762,2.762,0,0,1,15.878,13.286Zm2.758,4.373a4.52,4.52,0,0,1,1.73.341l-1.121.9a.97.97,0,0,1-1.219,0L16.908,18A4.514,4.514,0,0,1,18.636,17.659Zm-3.148,1.273,1.531,1.224a2.575,2.575,0,0,0,3.236,0l1.588-1.27L23.505,20a1.7,1.7,0,0,0,2.533-.817l.106-.282L28,19.518l-1.314,3.5a.971.971,0,0,1-.614.586.982.982,0,0,1-.841-.117l-.435-.29v-1a.807.807,0,1,0-1.614,0v1.431s0,.008,0,.011v3.1H14.1V22.2a4.526,4.526,0,0,1,1.393-3.268ZM26.87,16.961l.009-.025.649-1.73a.974.974,0,0,1,1.092-.616l-.071.283a.808.808,0,0,0,.784,1l.027,0c0,.006,0,.011-.005.017l-.793,2.114-1.852-.619ZM30.8,14.477a2.6,2.6,0,0,0-.347-.558L31.9,8.134a.807.807,0,0,0-1.566-.391l-1.32,5.28a2.59,2.59,0,0,0-2.438.732V5.264a.084.084,0,0,1,.084-.084H40.921a.084.084,0,0,1,.084.084v10.7a.084.084,0,0,1-.084.084H30.984a2.571,2.571,0,0,0-.184-1.568ZM19.444,28.356H44.571v9.082H19.444ZM11.506,1.614H43.6a.977.977,0,0,1,.976.976V26.741H24.792V25.077a2.588,2.588,0,0,0,3.4-1.489l2.224-5.93h10.5a1.7,1.7,0,0,0,1.7-1.7V5.264a1.7,1.7,0,0,0-1.7-1.7H26.659a1.7,1.7,0,0,0-1.7,1.7v10.7a1.688,1.688,0,0,0,.237.863l-.672,1.791a.084.084,0,0,1-.125.041l-2.143-1.433a6.179,6.179,0,0,0-.879-.535,4.373,4.373,0,1,0-5.483,0,6.161,6.161,0,0,0-.838.506.8.8,0,0,0-.109.078A6.15,6.15,0,0,0,12.481,22.2v4.541H10.53V2.59a.977.977,0,0,1,.976-.976ZM1.616,7.938A2.762,2.762,0,0,1,4.375,5.18H8.916V7.131H6.157a2.593,2.593,0,0,0-2.59,2.59V37.438H1.616Zm49.917,29.5V9.721a2.593,2.593,0,0,0-2.59-2.59H46.185V5.18h4.541a2.762,2.762,0,0,1,2.758,2.758v29.5Z" transform="translate(-0.002)"/>
        <path id="Path_939766" data-name="Path 939766" d="M219.217,283.417H205.633a2.589,2.589,0,0,0-4.921,0h-1.105a.807.807,0,0,0,0,1.614h1.105a2.589,2.589,0,0,0,4.921,0h13.584a.807.807,0,0,0,0-1.614ZM203.173,285.2a.976.976,0,1,1,.976-.976A.977.977,0,0,1,203.173,285.2Z" transform="translate(-177.407 -251.327)"/>
        <path id="Path_939767" data-name="Path 939767" d="M121.807,298.2h-.891a.807.807,0,0,0,0,1.614h.891a.807.807,0,0,0,0-1.614Z" transform="translate(-107.184 -266.11)"/>
      </g>
    </g>
  </g>
</svg>
